<?xml version="1.0" encoding="UTF-8"?>
<svg width="45px" height="45px" viewBox="0 0 30 30" version="1.1" xmlns="http://www.w3.org/2000/svg" xmlns:xlink="http://www.w3.org/1999/xlink">
    <title>LNB/talk/people/1people</title>
    <g transform="translate(-5, -3)">>
        <defs>
            <linearGradient x1="86.9718701%" y1="11.8797475%" x2="14.0651044%" y2="86.8780272%" id="linearGradient-1">
                <stop stop-color="#FF927E" offset="0%"></stop>
                <stop stop-color="#49423A" offset="100%"></stop>
            </linearGradient>
            <circle id="path-2" cx="14.1176471" cy="14.1176471" r="14.1176471"></circle>
            <filter x="-28.3%" y="-21.2%" width="156.7%" height="156.7%" filterUnits="objectBoundingBox" id="filter-3">
                <feMorphology radius="1" operator="dilate" in="SourceAlpha" result="shadowSpreadOuter1"></feMorphology>
                <feOffset dx="0" dy="2" in="shadowSpreadOuter1" result="shadowOffsetOuter1"></feOffset>
                <feGaussianBlur stdDeviation="2" in="shadowOffsetOuter1" result="shadowBlurOuter1"></feGaussianBlur>
                <feComposite in="shadowBlurOuter1" in2="SourceAlpha" operator="out" result="shadowBlurOuter1"></feComposite>
                <feColorMatrix values="0 0 0 0 0   0 0 0 0 0   0 0 0 0 0  0 0 0 0.05 0" type="matrix" in="shadowBlurOuter1"></feColorMatrix>
            </filter>
        </defs>
        <g id="09.-Service-Notification" stroke="none" stroke-width="1" fill="none" fill-rule="evenodd">
            <g id="09_01_01_Noti" transform="translate(-274.000000, -67.000000)">
                <g id="Talk/message/you/msg_first" transform="translate(279.000000, 70.000000)">
                    <g id="Group-2" transform="translate(0.882353, 0.882353)">
                        <g id="Oval" stroke-linejoin="round">
                            <use fill="black" fill-opacity="1" filter="url(#filter-3)" xlink:href="#path-2"></use>
                            <circle stroke="url(#linearGradient-1)" stroke-width="1" fill="#FFFFFF" fill-rule="evenodd" cx="14.1176471" cy="14.1176471" r="14.6176471"></circle>
                        </g>
                        <g id="Group" transform="translate(5.117647, 5.117647)" fill-rule="nonzero">
                            <g id="Logo/Wapl/symbol">
                                <path d="M14.154178,10.1040062 L14.2232558,10.1675603 L14.671636,10.6241126 L15.0857024,10.2030887 C15.3964784,9.8867571 15.8762451,9.84719844 16.2292358,10.0844579 L16.3028285,10.1395363 L16.3718935,10.2030887 C16.7049059,10.5420542 16.7257192,11.0783843 16.4343333,11.4420205 L16.3718935,11.5123354 L15.9580074,11.9334798 L16.7471006,12.7365225 C17.0578568,13.0528338 17.0967013,13.541116 16.8636229,13.9004802 L16.8095155,13.9754039 L16.7470838,14.0457232 C16.5742441,14.2215821 16.3434583,14.316847 16.1039741,14.316847 C15.8943393,14.316847 15.6914914,14.2439399 15.5282732,14.1078616 L15.4608446,14.0457031 L14.671636,13.2422431 L13.2078544,14.7321918 L13.9974343,15.5330152 C14.3087483,15.8487514 14.3484392,16.337015 14.1160002,16.6967657 L14.0620264,16.7717785 L13.999721,16.8421988 C13.8268283,17.0188179 13.595564,17.1145035 13.3554514,17.1145035 C13.1463667,17.1145035 12.9439543,17.0419186 12.7808586,16.9064168 L12.7134628,16.8445207 L11.9220763,16.041559 L10.2645306,17.7288763 C10.1349008,17.8607704 9.97267632,17.9473304 9.7986336,17.9823671 L9.71072352,17.9955631 L9.6214209,18 C9.3818121,18 9.15109398,17.9047553 8.97829434,17.728796 C8.64534138,17.389891 8.62453182,16.8535705 8.91586692,16.4899275 L8.97829584,16.4196109 L10.6333315,14.7340037 L10.1851515,14.2800994 C9.873846,13.9643083 9.83415624,13.4760913 10.0665886,13.1163599 L10.1205608,13.0413509 L10.1828644,12.9709332 C10.5152126,12.6313511 11.042142,12.6092198 11.3999353,12.9051706 L11.469131,12.968602 L11.9191096,13.4252404 L13.3852645,11.9328758 L12.9369944,11.4767353 C12.6262468,11.1603692 12.5874034,10.6720853 12.8204641,10.3127397 L12.8745674,10.2378203 L12.9370112,10.1674886 C13.2700335,9.82858116 13.7969392,9.80741916 14.154178,10.1040062 Z" id="Combined-Shape-Copy-path" fill="#9D917E"></path>
                                <path d="M16.7638687,4.07711282 C17.0968916,4.41602101 17.1177056,4.95241465 16.8263174,5.31600145 L16.7638771,5.38630501 L15.8262849,6.34028346 L17.7336376,8.28152598 C18.0665906,8.62043094 18.0874001,9.15680694 17.7960663,9.52045566 L17.7336376,9.59077266 C17.5608118,9.76668798 17.3300938,9.8619135 17.0905111,9.8619135 C16.8809111,9.8619135 16.6780261,9.78899526 16.5148097,9.652926 L16.4473846,9.59077266 L14.5399135,7.64965068 L7.65533412,14.6566978 L8.15773314,15.1675991 C8.49068742,15.5065055 8.5114971,16.0428874 8.22016206,16.4064782 L8.15773314,16.4767828 C7.98490278,16.6527027 7.75411686,16.7479867 7.51460658,16.7479867 C7.3050579,16.7479867 7.10216898,16.6750495 6.93892056,16.5389921 L6.87148002,16.4768458 L6.36955602,15.9654611 L5.58460054,16.7654905 C5.43337795,16.9194164 5.23783162,17.0115641 5.03080622,17.032196 L4.941474,17.0366313 C4.7019182,17.0366313 4.47114254,16.941382 4.29840946,16.7654905 C3.96539704,16.426525 3.94458376,15.8901948 4.23596963,15.5265587 L4.29840946,15.4562437 L7.87783842,11.8126895 L7.40890542,11.3470835 C7.0719369,11.0123242 7.0447905,10.4762005 7.33181796,10.1090441 L7.39341378,10.0379755 C7.72235358,9.69492258 8.24901648,9.66728748 8.60971602,9.95950284 L8.67953526,10.0222118 L9.16361652,10.5033223 L10.572217,9.06954102 L10.1015351,8.59055034 C9.76852272,8.25158484 9.74770944,7.71525468 10.0390954,7.35161862 L10.1015351,7.28130366 C10.4345011,6.94238544 10.9614692,6.92122278 11.3186597,7.21781214 L11.3877262,7.28136672 L11.8585885,7.76077776 L13.2541354,6.34028346 L12.7831629,5.86104775 C12.4501505,5.52208225 12.4293372,4.98569664 12.7207231,4.62205362 L12.7831629,4.55173793 C13.1161172,4.21283159 13.6430789,4.19164994 14.0002841,4.48819299 L14.069354,4.55173793 L14.5399135,5.03091626 L15.4776776,4.07712997 C15.8328308,3.71555533 16.4087323,3.71555533 16.7638687,4.07711282 Z" id="Combined-Shape-Copy-path" fill="#D77D71"></path>
                                <path d="M13.7662766,1.08896528 L13.8353455,1.15252181 C14.1683592,1.49148865 14.1891725,2.02782469 13.8977858,2.39140264 L13.8353458,2.46170513 L4.75387825,11.7045821 L5.15061771,12.1067215 C5.48445186,12.4447543 5.50661503,12.9810872 5.21617904,13.3454238 L5.15392358,13.4158881 C4.98103163,13.5928594 4.7494939,13.688783 4.50913639,13.688783 C4.30023183,13.688783 4.09804904,13.6163588 3.93507159,13.4811037 L3.86771914,13.4193184 L3.4675068,13.0139493 L2.65606889,13.8408908 C2.50485892,13.9948039 2.30927257,14.0869613 2.10226371,14.1075958 L2.01294236,14.1120317 C1.77339959,14.1120317 1.54262723,14.0167915 1.3698074,13.8408823 C1.0368623,13.5019173 1.01605324,12.965593 1.30738713,12.6020108 L1.36981582,12.5317072 L2.17816863,11.7088098 L0.268034536,9.77427894 C-0.0657983239,9.4362474 -0.0879613489,8.89992036 0.202486638,8.53551246 L0.264744661,8.4650328 C0.596839526,8.12523216 1.12369288,8.102673 1.48169593,8.39831508 L1.55093746,8.46168642 L3.46454008,10.3994426 L4.97697588,8.85936582 L4.51592671,8.38977384 C4.18291428,8.05080834 4.162101,7.51447818 4.45348687,7.15084212 L4.51592671,7.08052716 C4.84889266,6.74160894 5.3758608,6.72044628 5.73305119,7.0170357 L5.80211779,7.08059022 L6.26334732,7.55060262 L7.67135448,6.11682138 L7.21007784,5.64746084 C6.87712356,5.3085545 6.85631394,4.77217259 7.14764202,4.40858887 L7.21006944,4.33828581 C7.54301256,3.99932279 8.0699736,3.97811787 8.4272466,4.27466748 L8.49633096,4.33821413 L8.95772592,4.8080581 L10.3532728,3.3875638 L9.8917056,2.91783204 C9.55875126,2.57892569 9.53794164,2.04254378 9.82928358,1.67894593 L9.891714,1.60863986 C10.2247447,1.26972383 10.7516509,1.24852185 11.1088864,1.54510046 L11.1779634,1.60865329 L11.6390509,2.07819659 L12.549146,1.15253038 C12.8821021,0.81355416 13.4090753,0.792368142 13.7662766,1.08896528 Z" id="Combined-Shape-Copy-path" fill="#46756C"></path>
                                <path d="M8.98718376,0.271179907 C9.32012754,0.610143576 9.3409365,1.14646198 9.04960374,1.51010205 L8.9871753,1.58041805 L2.91653161,7.75958328 C2.74370579,7.93549866 2.51298775,8.03072418 2.27340508,8.03072418 C2.03386231,8.03072418 1.80308995,7.93548396 1.63027012,7.75957476 C1.29732634,7.42061106 1.27651735,6.88429266 1.56785009,6.52065258 L1.63027854,6.4503366 L2.12002084,5.9513386 L1.27188104,5.08770461 C0.961060842,4.77139156 0.922208316,4.28309902 1.15531218,3.92375395 L1.2094256,3.84883479 L1.27186419,3.77852101 C1.6048203,3.43954478 2.13179353,3.41835877 2.48899255,3.71495356 L2.5580609,3.77850959 L3.40639229,4.64197139 L4.81439941,3.2087941 L3.96602377,2.34538303 C3.65526642,2.02907044 3.61642175,1.5407347 3.84948412,1.18142206 L3.9035879,1.10651105 L3.96601535,1.036208 C4.29895849,0.697244976 4.8259195,0.676040058 5.18319481,0.972592008 L5.25227963,1.03613915 L6.1001775,1.8994269 L7.70092224,0.271171333 C8.0561355,-0.0903918733 8.63196204,-0.0903918733 8.98718376,0.271179907 Z" id="Combined-Shape-Copy-path" fill="#72A286"></path>
                            </g>
                        </g>
                    </g>
                </g>
            </g>
        </g>
    </g>
</svg>