<svg xmlns="http://www.w3.org/2000/svg" width="18" height="18" viewBox="0 0 18 18">
    <g fill="none" fill-rule="evenodd">
        <g fill-rule="nonzero">
            <g>
                <g>
                    <path fill="#9D917E" d="M14.154 10.104l.07.064.448.456.414-.42c.31-.317.79-.357 1.143-.12l.074.056.069.063c.333.34.354.875.062 1.239l-.062.07-.414.421.79.804c.31.316.349.804.116 1.163l-.054.075-.063.07c-.173.177-.404.272-.643.272-.21 0-.413-.073-.576-.21l-.067-.061-.79-.804-1.463 1.49.79.801c.31.316.35.804.118 1.164l-.054.075-.062.07c-.173.177-.404.273-.645.273-.209 0-.411-.073-.574-.209l-.068-.061-.79-.803-1.658 1.687c-.13.132-.292.218-.466.253l-.088.014-.09.004c-.24 0-.47-.095-.643-.271-.333-.34-.353-.875-.062-1.24l.062-.07 1.655-1.685-.448-.454c-.311-.316-.35-.804-.118-1.164l.054-.075.062-.07c.332-.34.86-.362 1.217-.066l.07.064.45.456 1.465-1.492-.448-.456c-.31-.317-.35-.805-.117-1.164l.055-.075.062-.07c.333-.34.86-.36 1.217-.064z" transform="translate(-285 -163) translate(279 157) translate(6 6)"/>
                    <path fill="#D77D71" d="M16.764 4.077c.333.339.354.875.062 1.239l-.062.07-.938.954 1.908 1.942c.333.338.353.875.062 1.238l-.062.07c-.173.177-.404.272-.643.272-.21 0-.413-.073-.576-.21l-.068-.061L14.54 7.65l-6.885 7.007.503.51c.333.34.353.876.062 1.24l-.062.07c-.173.176-.404.271-.643.271-.21 0-.413-.073-.576-.209l-.068-.062-.501-.512-.785.8c-.152.154-.347.247-.554.267l-.09.005c-.24 0-.47-.096-.643-.272-.333-.338-.353-.875-.062-1.238l.062-.07 3.58-3.644-.47-.466c-.336-.335-.363-.87-.076-1.238l.061-.071c.33-.343.856-.37 1.217-.078l.07.062.484.481 1.408-1.433-.47-.48c-.333-.338-.354-.875-.063-1.238l.063-.07c.333-.34.86-.36 1.217-.064l.069.063.47.48 1.396-1.42-.47-.48c-.334-.339-.355-.875-.063-1.239l.062-.07c.333-.34.86-.36 1.217-.064l.07.064.47.479.938-.954c.355-.361.93-.361 1.286 0z" transform="translate(-285 -163) translate(279 157) translate(6 6)"/>
                    <path fill="#46756C" d="M13.766 1.089l.07.064c.332.338.353.875.062 1.238l-.063.07-9.081 9.244.397.402c.333.338.356.874.065 1.238l-.062.07c-.173.178-.405.274-.645.274-.209 0-.411-.073-.574-.208l-.067-.062-.4-.405-.812.827c-.151.154-.347.246-.554.267l-.09.004c-.239 0-.47-.095-.642-.271-.333-.34-.354-.875-.063-1.239l.063-.07.808-.823-1.91-1.935C-.066 9.436-.088 8.9.202 8.536l.063-.071c.332-.34.859-.362 1.217-.067l.069.064 1.914 1.937 1.512-1.54-.461-.47c-.333-.338-.354-.875-.063-1.238l.063-.07c.333-.34.86-.36 1.217-.064l.07.064.46.47 1.408-1.434-.46-.47c-.334-.338-.355-.875-.063-1.238l.062-.07c.333-.34.86-.36 1.217-.064l.07.063.46.47 1.396-1.42-.461-.47c-.333-.34-.354-.875-.063-1.24l.063-.07c.333-.338.86-.36 1.217-.063l.069.064.461.47.91-.926c.333-.34.86-.36 1.217-.064z" transform="translate(-285 -163) translate(279 157) translate(6 6)"/>
                    <path fill="#72A286" d="M8.987.271c.333.34.354.875.063 1.24l-.063.07-6.07 6.179c-.173.175-.404.27-.644.27s-.47-.095-.643-.27c-.333-.34-.353-.876-.062-1.24l.062-.07.49-.499-.848-.863c-.31-.317-.35-.805-.117-1.164l.054-.075.063-.07c.333-.34.86-.36 1.217-.064l.07.064.847.863 1.408-1.433-.848-.864c-.31-.316-.35-.804-.117-1.164l.055-.074.062-.07c.333-.34.86-.361 1.217-.064l.07.063.847.863L7.7.271c.356-.361.932-.361 1.287 0z" transform="translate(-285 -163) translate(279 157) translate(6 6)"/>
                </g>
            </g>
        </g>
    </g>
</svg>
