<?xml version="1.0" encoding="UTF-8"?>
<svg width="259px" height="249px" viewBox="0 0 259 249" version="1.1" xmlns="http://www.w3.org/2000/svg" xmlns:xlink="http://www.w3.org/1999/xlink">
    <title>illust/b2b/friend_add</title>
    <defs>
        <polygon id="path-1" points="0 0.1783 154.9598 0.1783 154.9598 127 0 127"></polygon>
        <polygon id="path-3" points="0 127 155.05 127 155.05 0.178 0 0.178"></polygon>
        <path d="M0.2814,10.9737692 C0.2814,16.6988462 4.8888,21.3391538 10.57224,21.3391538 L10.57224,21.3391538 C16.25568,21.3391538 20.86308,16.6988462 20.86308,10.9737692 L20.86308,10.9737692 C20.86308,5.24869231 16.25568,0.608384615 10.57224,0.608384615 L10.57224,0.608384615 C4.8888,0.608384615 0.2814,5.24869231 0.2814,10.9737692" id="path-5"></path>
        <path d="M0.2814,10.9737692 C0.2814,16.6988462 4.8888,21.3391538 10.57224,21.3391538 L10.57224,21.3391538 C16.25568,21.3391538 20.86308,16.6988462 20.86308,10.9737692 L20.86308,10.9737692 C20.86308,5.24869231 16.25568,0.608384615 10.57224,0.608384615 L10.57224,0.608384615 C4.8888,0.608384615 0.2814,5.24869231 0.2814,10.9737692" id="path-7"></path>
        <path d="M0.2814,10.9737692 C0.2814,16.6988462 4.8888,21.3391538 10.57224,21.3391538 L10.57224,21.3391538 C16.25568,21.3391538 20.86308,16.6988462 20.86308,10.9737692 L20.86308,10.9737692 C20.86308,5.24869231 16.25568,0.608384615 10.57224,0.608384615 L10.57224,0.608384615 C4.8888,0.608384615 0.2814,5.24869231 0.2814,10.9737692" id="path-9"></path>
        <path d="M0.2814,10.9737692 C0.2814,16.6988462 4.8888,21.3391538 10.57224,21.3391538 L10.57224,21.3391538 C16.25568,21.3391538 20.86308,16.6988462 20.86308,10.9737692 L20.86308,10.9737692 C20.86308,5.24869231 16.25568,0.608384615 10.57224,0.608384615 L10.57224,0.608384615 C4.8888,0.608384615 0.2814,5.24869231 0.2814,10.9737692" id="path-11"></path>
    </defs>
    <g id="illust/b2b/friend_add" stroke="none" stroke-width="1" fill="none" fill-rule="evenodd">
        <g id="illust/b2b/invite_friends" transform="translate(51.500000, 20.000000)">
            <g id="Group-25" transform="translate(0.000000, 0.822000)">
                <g id="Group-3">
                    <mask id="mask-2" fill="white">
                        <use xlink:href="#path-1"></use>
                    </mask>
                    <g id="Clip-2"></g>
                    <path d="M154.9598,14.6753 L154.9598,127.0003 L-0.0002,127.0003 L-0.0002,14.6753 C-0.0002,6.6693 5.0298,0.1783 11.2338,0.1783 L143.7268,0.1783 C149.9298,0.1783 154.9598,6.6693 154.9598,14.6753" id="Fill-1" fill="#E6E6ED" mask="url(#mask-2)"></path>
                </g>
                <mask id="mask-4" fill="white">
                    <use xlink:href="#path-3"></use>
                </mask>
                <g id="Clip-5"></g>
                <polygon id="Fill-6" fill="#E6E6ED" mask="url(#mask-4)" points="11.021 91.522 139.137 91.522 139.137 64.256 11.021 64.256"></polygon>
                <path d="M155.0496,14.6753 L155.0496,19.5033 L-0.0004,19.5033 L-0.0004,14.6753 C-0.0004,6.6693 5.0326,0.1783 11.2396,0.1783 L143.8096,0.1783 C150.0166,0.1783 155.0496,6.6693 155.0496,14.6753" id="Fill-7" fill="#8F8F96" mask="url(#mask-4)"></path>
                <path d="M16.1878,11.1343 C16.1878,12.8973 14.7578,14.3253 12.9928,14.3253 C11.2288,14.3253 9.7978,12.8973 9.7978,11.1343 C9.7978,9.3713 11.2288,7.9433 12.9928,7.9433 C14.7578,7.9433 16.1878,9.3713 16.1878,11.1343" id="Fill-8" fill="#EF7894" mask="url(#mask-4)"></path>
                <path d="M25.5657,11.1343 C25.5657,12.8973 24.1347,14.3253 22.3707,14.3253 C20.6067,14.3253 19.1757,12.8973 19.1757,11.1343 C19.1757,9.3713 20.6067,7.9433 22.3707,7.9433 C24.1347,7.9433 25.5657,9.3713 25.5657,11.1343" id="Fill-9" fill="#E6E6E6" mask="url(#mask-4)"></path>
                <path d="M34.9436,11.1343 C34.9436,12.8973 33.5126,14.3253 31.7486,14.3253 C29.9846,14.3253 28.5536,12.8973 28.5536,11.1343 C28.5536,9.3713 29.9846,7.9433 31.7486,7.9433 C33.5126,7.9433 34.9436,9.3713 34.9436,11.1343" id="Fill-10" fill="#E6E6E6" mask="url(#mask-4)"></path>
                <g id="Group-6" mask="url(#mask-4)">
                    <g transform="translate(44.021000, 105.338000)" id="Group-4">
                        <g transform="translate(0.979000, 0.840000)">
                            <path d="M23.294,4.322 L2.07,4.322 C0.927,4.322 0,3.5384936 0,2.5715774 C0,1.6055064 0.927,0.822 2.07,0.822 L23.294,0.822 C24.438,0.822 25.364,1.6055064 25.364,2.5715774 C25.364,3.5384936 24.438,4.322 23.294,4.322" id="Fill-22" fill="#F2F2F2"></path>
                            <path d="M44,11.322 L2.071,11.322 C0.927,11.322 0,10.5384936 0,9.5724226 C0,8.6055064 0.927,7.822 2.071,7.822 L44,7.822 C45.144,7.822 46.07,8.6055064 46.07,9.5724226 C46.07,10.5384936 45.144,11.322 44,11.322" id="Fill-23" fill="#F2F2F2"></path>
                            <path d="M53.294,4.322 L32.071,4.322 C30.927,4.322 30,3.5384936 30,2.5715774 C30,1.6055064 30.927,0.822 32.071,0.822 L53.294,0.822 C54.438,0.822 55.365,1.6055064 55.365,2.5715774 C55.365,3.5384936 54.438,4.322 53.294,4.322" id="Fill-24" fill="#F2F2F2"></path>
                            <path d="M75.294,4.322 L54.071,4.322 C52.927,4.322 52,3.5384936 52,2.5715774 C52,1.6055064 52.927,0.822 54.071,0.822 L75.294,0.822 C76.438,0.822 77.365,1.6055064 77.365,2.5715774 C77.365,3.5384936 76.438,4.322 75.294,4.322" id="Fill-24-Copy" fill="#F2F2F2"></path>
                        </g>
                    </g>
                </g>
                <g id="Group-6" mask="url(#mask-4)">
                    <g transform="translate(9.021000, 59.338000)">
                        <polygon id="Fill-18" fill="#CCCFF1" points="0 27.09 136 27.09 136 7.28306304e-14 0 7.28306304e-14"></polygon>
                        <g id="Group-4" stroke-width="1" fill="none" transform="translate(7.979000, 1.840000)">
                            <g id="Group-5">
                                <path d="M21,11.4995714 C21,17.2987633 16.2987633,22 10.4995714,22 C4.70037958,22 0,17.2987633 0,11.4995714 C0,5.70037958 4.70037958,1 10.4995714,1 C16.2987633,1 21,5.70037958 21,11.4995714" id="Fill-19" fill="#FFFFFF"></path>
                                <g id="Group-39" transform="translate(0.163300, 0.780300)">
                                    <g id="Group-35" transform="translate(0.000000, 0.178000)">
                                        <mask id="mask-6" fill="white">
                                            <use xlink:href="#path-5"></use>
                                        </mask>
                                        <g id="Clip-34"></g>
                                        <path d="M14.625156,12.5274769 C14.597436,12.5570923 14.570556,12.5875538 14.541156,12.6163231 C13.490316,13.6824769 12.080796,14.2705538 10.572156,14.2705538 C9.063516,14.2705538 7.653996,13.6824769 6.603156,12.6163231 C6.573756,12.5875538 6.546876,12.5570923 6.519156,12.5274769 C3.753036,13.6207077 1.819356,16.0407077 1.819356,18.8330154 L1.819356,20.6319385 C1.819356,21.1387846 2.293956,21.5491692 2.880276,21.5491692 L18.264876,21.5491692 C18.850356,21.5491692 19.324956,21.1387846 19.324956,20.6319385 L19.324956,18.8330154 C19.324956,16.0407077 17.390436,13.6207077 14.625156,12.5274769" id="Fill-33" fill="#6F6AD8" mask="url(#mask-6)"></path>
                                    </g>
                                    <g id="Group-38" transform="translate(0.000000, 0.178000)">
                                        <mask id="mask-8" fill="white">
                                            <use xlink:href="#path-7"></use>
                                        </mask>
                                        <g id="Clip-37"></g>
                                        <path d="M10.572408,13.4838846 C11.790408,13.4838846 12.898368,13.0066538 13.725768,12.2273462 C14.637168,11.3685 15.209208,10.1424231 15.209208,8.78011538 C15.209208,6.18242308 13.132728,4.07634615 10.572408,4.07634615 C8.011248,4.07634615 5.935608,6.18242308 5.935608,8.78011538 C5.935608,10.1424231 6.506808,11.3685 7.419048,12.2273462 C8.245608,13.0066538 9.354408,13.4838846 10.572408,13.4838846" id="Fill-36" fill="#6F6AD8" mask="url(#mask-8)"></path>
                                    </g>
                                </g>
                            </g>
                            <path d="M74.941,6.322 L47.324,6.322 C46.04,6.322 45,5.64084464 45,4.80068761 L45,4.34331239 C45,3.50315536 46.04,2.822 47.324,2.822 L74.941,2.822 C76.225,2.822 77.266,3.50315536 77.266,4.34331239 L77.266,4.80068761 C77.266,5.64084464 76.225,6.322 74.941,6.322" id="Fill-20" fill="#B5B6C0"></path>
                            <g id="Group" transform="translate(28.000000, 2.822000)" fill="#B5B6C0">
                                <path d="M5.263,3.5 L2.675,3.5 C1.198,3.5 -6.03961325e-14,2.71676949 -6.03961325e-14,1.75032716 C-6.03961325e-14,0.783884838 1.198,0 2.675,0 L5.263,0 C6.74,0 7.937,0.783884838 7.937,1.75032716 C7.937,2.71676949 6.74,3.5 5.263,3.5" id="Fill-21"></path>
                                <path d="M8.263,3.5 L5.675,3.5 C4.198,3.5 3,2.71676949 3,1.75032716 C3,0.783884838 4.198,0 5.675,0 L8.263,0 C9.74,0 10.937,0.783884838 10.937,1.75032716 C10.937,2.71676949 9.74,3.5 8.263,3.5" id="Fill-21-Copy"></path>
                            </g>
                            <path d="M51.294,13.322 L30.07,13.322 C28.927,13.322 28,12.5384936 28,11.5715774 C28,10.6055064 28.927,9.822 30.07,9.822 L51.294,9.822 C52.438,9.822 53.364,10.6055064 53.364,11.5715774 C53.364,12.5384936 52.438,13.322 51.294,13.322" id="Fill-22" fill="#F2F2F2"></path>
                            <path d="M72,20.322 L30.071,20.322 C28.927,20.322 28,19.5384936 28,18.5724226 C28,17.6055064 28.927,16.822 30.071,16.822 L72,16.822 C73.144,16.822 74.07,17.6055064 74.07,18.5724226 C74.07,19.5384936 73.144,20.322 72,20.322" id="Fill-23" fill="#F2F2F2"></path>
                            <path d="M81.294,13.322 L60.071,13.322 C58.927,13.322 58,12.5384936 58,11.5715774 C58,10.6055064 58.927,9.822 60.071,9.822 L81.294,9.822 C82.438,9.822 83.365,10.6055064 83.365,11.5715774 C83.365,12.5384936 82.438,13.322 81.294,13.322" id="Fill-24" fill="#F2F2F2"></path>
                            <path d="M103.294,13.322 L82.071,13.322 C80.927,13.322 80,12.5384936 80,11.5715774 C80,10.6055064 80.927,9.822 82.071,9.822 L103.294,9.822 C104.438,9.822 105.365,10.6055064 105.365,11.5715774 C105.365,12.5384936 104.438,13.322 103.294,13.322" id="Fill-24-Copy" fill="#F2F2F2"></path>
                        </g>
                    </g>
                </g>
                <g id="Group-6" mask="url(#mask-4)">
                    <g transform="translate(9.021000, 90.338000)">
                        <polygon id="Fill-18" fill="#CCCFF1" points="0 27.09 136 27.09 136 7.28306304e-14 0 7.28306304e-14"></polygon>
                        <g id="Group-4" stroke-width="1" fill="none" transform="translate(7.979000, 1.840000)">
                            <g id="Group-5">
                                <path d="M21,11.4995714 C21,17.2987633 16.2987633,22 10.4995714,22 C4.70037958,22 0,17.2987633 0,11.4995714 C0,5.70037958 4.70037958,1 10.4995714,1 C16.2987633,1 21,5.70037958 21,11.4995714" id="Fill-19" fill="#FFFFFF"></path>
                                <g id="Group-39" transform="translate(0.163300, 0.780300)">
                                    <g id="Group-35" transform="translate(0.000000, 0.178000)">
                                        <mask id="mask-10" fill="white">
                                            <use xlink:href="#path-9"></use>
                                        </mask>
                                        <g id="Clip-34"></g>
                                        <path d="M14.625156,12.5274769 C14.597436,12.5570923 14.570556,12.5875538 14.541156,12.6163231 C13.490316,13.6824769 12.080796,14.2705538 10.572156,14.2705538 C9.063516,14.2705538 7.653996,13.6824769 6.603156,12.6163231 C6.573756,12.5875538 6.546876,12.5570923 6.519156,12.5274769 C3.753036,13.6207077 1.819356,16.0407077 1.819356,18.8330154 L1.819356,20.6319385 C1.819356,21.1387846 2.293956,21.5491692 2.880276,21.5491692 L18.264876,21.5491692 C18.850356,21.5491692 19.324956,21.1387846 19.324956,20.6319385 L19.324956,18.8330154 C19.324956,16.0407077 17.390436,13.6207077 14.625156,12.5274769" id="Fill-33" fill="#6F6AD8" mask="url(#mask-10)"></path>
                                    </g>
                                    <g id="Group-38" transform="translate(0.000000, 0.178000)">
                                        <mask id="mask-12" fill="white">
                                            <use xlink:href="#path-11"></use>
                                        </mask>
                                        <g id="Clip-37"></g>
                                        <path d="M10.572408,13.4838846 C11.790408,13.4838846 12.898368,13.0066538 13.725768,12.2273462 C14.637168,11.3685 15.209208,10.1424231 15.209208,8.78011538 C15.209208,6.18242308 13.132728,4.07634615 10.572408,4.07634615 C8.011248,4.07634615 5.935608,6.18242308 5.935608,8.78011538 C5.935608,10.1424231 6.506808,11.3685 7.419048,12.2273462 C8.245608,13.0066538 9.354408,13.4838846 10.572408,13.4838846" id="Fill-36" fill="#6F6AD8" mask="url(#mask-12)"></path>
                                    </g>
                                </g>
                            </g>
                            <path d="M57.941,6.322 L30.324,6.322 C29.04,6.322 28,5.64084464 28,4.80068761 L28,4.34331239 C28,3.50315536 29.04,2.822 30.324,2.822 L57.941,2.822 C59.225,2.822 60.266,3.50315536 60.266,4.34331239 L60.266,4.80068761 C60.266,5.64084464 59.225,6.322 57.941,6.322" id="Fill-20" fill="#B5B6C0"></path>
                            <g id="Group" transform="translate(64.000000, 2.822000)" fill="#B5B6C0">
                                <path d="M5.263,3.5 L2.675,3.5 C1.198,3.5 -6.03961325e-14,2.71676949 -6.03961325e-14,1.75032716 C-6.03961325e-14,0.783884838 1.198,0 2.675,0 L5.263,0 C6.74,0 7.937,0.783884838 7.937,1.75032716 C7.937,2.71676949 6.74,3.5 5.263,3.5" id="Fill-21"></path>
                                <path d="M8.263,3.5 L5.675,3.5 C4.198,3.5 3,2.71676949 3,1.75032716 C3,0.783884838 4.198,0 5.675,0 L8.263,0 C9.74,0 10.937,0.783884838 10.937,1.75032716 C10.937,2.71676949 9.74,3.5 8.263,3.5" id="Fill-21-Copy"></path>
                            </g>
                            <path d="M51.294,13.322 L30.07,13.322 C28.927,13.322 28,12.5384936 28,11.5715774 C28,10.6055064 28.927,9.822 30.07,9.822 L51.294,9.822 C52.438,9.822 53.364,10.6055064 53.364,11.5715774 C53.364,12.5384936 52.438,13.322 51.294,13.322" id="Fill-22" fill="#F2F2F2"></path>
                            <path d="M72,20.322 L30.071,20.322 C28.927,20.322 28,19.5384936 28,18.5724226 C28,17.6055064 28.927,16.822 30.071,16.822 L72,16.822 C73.144,16.822 74.07,17.6055064 74.07,18.5724226 C74.07,19.5384936 73.144,20.322 72,20.322" id="Fill-23" fill="#F2F2F2"></path>
                            <path d="M81.294,13.322 L60.071,13.322 C58.927,13.322 58,12.5384936 58,11.5715774 C58,10.6055064 58.927,9.822 60.071,9.822 L81.294,9.822 C82.438,9.822 83.365,10.6055064 83.365,11.5715774 C83.365,12.5384936 82.438,13.322 81.294,13.322" id="Fill-24" fill="#F2F2F2"></path>
                            <path d="M103.294,13.322 L82.071,13.322 C80.927,13.322 80,12.5384936 80,11.5715774 C80,10.6055064 80.927,9.822 82.071,9.822 L103.294,9.822 C104.438,9.822 105.365,10.6055064 105.365,11.5715774 C105.365,12.5384936 104.438,13.322 103.294,13.322" id="Fill-24-Copy" fill="#F2F2F2"></path>
                        </g>
                    </g>
                </g>
            </g>
        </g>
    </g>
</svg>