<?xml version="1.0" encoding="UTF-8"?>
<svg width="32px" height="32px" viewBox="0 0 32 32" version="1.1" xmlns="http://www.w3.org/2000/svg" xmlns:xlink="http://www.w3.org/1999/xlink">
    <!-- Generator: Sketch 63.1 (92452) - https://sketch.com -->
    <title>Icon/attachment/etc_delete</title>
    <desc>Created with Sketch.</desc>
    <g id="Icon/attachment/etc_delete" stroke="none" stroke-width="1" fill="none" fill-rule="evenodd">
        <rect id="Rectangle" fill="#000000" opacity="0.0956333705" x="0" y="2" width="30" height="30" rx="6"></rect>
        <path d="M19.9700128,18 C22.1957133,18 24,19.790861 24,22 C24,24.209139 22.1957133,26 19.9700128,26 C17.7443123,26 15.9400255,24.209139 15.9400255,22 C15.9400255,19.790861 17.7443123,18 19.9700128,18 Z M8.58850812,18.5038611 C8.97528024,17.8320463 9.95124039,17.8320463 10.3380125,18.5038611 L10.3380125,18.5038611 L13.7922873,24.5038611 C14.1760899,25.1705178 13.691114,26 12.9175351,26 L12.9175351,26 L6.00898554,26 C5.23540665,26 4.75043073,25.1705178 5.13423334,24.5038611 L5.13423334,24.5038611 Z M19.9700128,20 C18.8571625,20 17.9550191,20.8954305 17.9550191,22 C17.9550191,23.1045695 18.8571625,24 19.9700128,24 C21.082863,24 21.9850064,23.1045695 21.9850064,22 C21.9850064,20.8954305 21.082863,20 19.9700128,20 Z M9.46326031,21.016 L7.74447076,24 L11.1810424,24 L9.46326031,21.016 Z M9.46326031,8 C11.6889608,8 13.4932476,9.790861 13.4932476,12 C13.4932476,14.209139 11.6889608,16 9.46326031,16 C7.23755982,16 5.43327307,14.209139 5.43327307,12 C5.43327307,9.790861 7.23755982,8 9.46326031,8 Z M21.9850064,8 C23.0978566,8 24,8.8954305 24,10 L24,10 L24,14 C24,15.1045695 23.0978566,16 21.9850064,16 L21.9850064,16 L17.9550191,16 C16.8421689,16 15.9400255,15.1045695 15.9400255,14 L15.9400255,14 L15.9400255,10 C15.9400255,8.8954305 16.8421689,8 17.9550191,8 L17.9550191,8 Z M9.46326031,10 C8.35041007,10 7.44826669,10.8954305 7.44826669,12 C7.44826669,13.1045695 8.35041007,14 9.46326031,14 C10.5761106,14 11.4782539,13.1045695 11.4782539,12 C11.4782539,10.8954305 10.5761106,10 9.46326031,10 Z M21.9850064,10 L17.9550191,10 L17.9550191,14 L21.9850064,14 L21.9850064,10 Z" id="Combined-Shape" fill="#000000" opacity="0.252534412"></path>
        <g id="Group" transform="translate(19.000000, 0.000000)">
            <circle id="Oval" fill="#FFFFFF" cx="6.5" cy="6.5" r="6.5"></circle>
            <path d="M6.5,0 C10.0898509,-6.59444907e-16 13,2.91014913 13,6.5 C13,10.0898509 10.0898509,13 6.5,13 C2.91014913,13 4.39629938e-16,10.0898509 0,6.5 C-4.39629938e-16,2.91014913 2.91014913,6.59444907e-16 6.5,0 Z M6.5,9.38888889 C6.10112768,9.38888889 5.77777778,9.71223879 5.77777778,10.1111111 C5.77777778,10.5099834 6.10112768,10.8333333 6.5,10.8333333 C6.89887232,10.8333333 7.22222222,10.5099834 7.22222222,10.1111111 C7.22222222,9.71223879 6.89887232,9.38888889 6.5,9.38888889 Z M6.5,2.23888889 C6.10112768,2.23888889 5.77777778,2.56223879 5.77777778,2.96111111 L5.77777778,2.96111111 L5.77777778,8.01666667 C5.77777778,8.41553899 6.10112768,8.73888889 6.5,8.73888889 C6.89887232,8.73888889 7.22222222,8.41553899 7.22222222,8.01666667 L7.22222222,8.01666667 L7.22222222,2.96111111 C7.22222222,2.56223879 6.89887232,2.23888889 6.5,2.23888889 Z" id="Combined-Shape" fill="#000000" opacity="0.502022879"></path>
        </g>
    </g>
</svg>