<?xml version="1.0" encoding="UTF-8"?>
<svg width="32px" height="32px" viewBox="0 0 32 32" version="1.1" xmlns="http://www.w3.org/2000/svg" xmlns:xlink="http://www.w3.org/1999/xlink">
    <!-- Generator: Sketch 63.1 (92452) - https://sketch.com -->
    <title>Icon/attachment/image_delete</title>
    <desc>Created with Sketch.</desc>
    <g id="Icon/attachment/image_delete" stroke="none" stroke-width="1" fill="none" fill-rule="evenodd">
        <g id="Group-8" transform="translate(0.000000, 2.000000)">
            <rect id="Rectangle" fill="#FFFFFF" opacity="0.8" x="0" y="0" width="30" height="30" rx="6"></rect>
            <rect id="Rectangle" fill="#000000" opacity="0.100120908" x="0" y="0" width="30" height="30" rx="6"></rect>
            <path d="M24,6 C24.5522847,6 25,6.44771525 25,7 L25,23 C25,23.5522847 24.5522847,24 24,24 L6,24 C5.44771525,24 5,23.5522847 5,23 L5,7 C5,6.44771525 5.44771525,6 6,6 L24,6 Z M23,15.941 L17.4789023,19.8820338 C17.1534108,20.114308 16.7251208,20.1282322 16.3882017,19.9283711 L16.2795458,19.8538391 L12.971,17.249 L7,21.514 L7,22 L23,22 L23,15.941 Z M7,8 L7,19.056 L12.4187618,15.1862665 C12.7442707,14.9537602 13.1727363,14.9397282 13.5097852,15.1396447 L13.6184824,15.2142014 L16.927,17.819 L23,13.485 L23,8 L7,8 Z M10.5,10 C11.3284271,10 12,10.6715729 12,11.5 C12,12.3284271 11.3284271,13 10.5,13 C9.67157288,13 9,12.3284271 9,11.5 C9,10.6715729 9.67157288,10 10.5,10 Z" id="Combined-Shape" fill="#000000" opacity="0.25"></path>
        </g>
        <g id="Group" transform="translate(19.000000, 0.000000)">
            <circle id="Oval" fill="#FFFFFF" cx="6.5" cy="6.5" r="6.5"></circle>
            <path d="M6.5,0 C10.0898509,-6.59444907e-16 13,2.91014913 13,6.5 C13,10.0898509 10.0898509,13 6.5,13 C2.91014913,13 4.39629938e-16,10.0898509 0,6.5 C-4.39629938e-16,2.91014913 2.91014913,6.59444907e-16 6.5,0 Z M6.5,9.38888889 C6.10112768,9.38888889 5.77777778,9.71223879 5.77777778,10.1111111 C5.77777778,10.5099834 6.10112768,10.8333333 6.5,10.8333333 C6.89887232,10.8333333 7.22222222,10.5099834 7.22222222,10.1111111 C7.22222222,9.71223879 6.89887232,9.38888889 6.5,9.38888889 Z M6.5,2.23888889 C6.10112768,2.23888889 5.77777778,2.56223879 5.77777778,2.96111111 L5.77777778,2.96111111 L5.77777778,8.01666667 C5.77777778,8.41553899 6.10112768,8.73888889 6.5,8.73888889 C6.89887232,8.73888889 7.22222222,8.41553899 7.22222222,8.01666667 L7.22222222,8.01666667 L7.22222222,2.96111111 C7.22222222,2.56223879 6.89887232,2.23888889 6.5,2.23888889 Z" id="Combined-Shape" fill="#000000" opacity="0.502022879"></path>
        </g>
    </g>
</svg>