<?xml version="1.0" encoding="UTF-8"?>
<svg width="auto" height="auto" viewBox="0 0 43 30" version="1.1" xmlns="http://www.w3.org/2000/svg" xmlns:xlink="http://www.w3.org/1999/xlink">
    <!-- Generator: Sketch 63.1 (92452) - https://sketch.com -->
    <title>Icon/LNB/chatting</title>
    <desc>Created with Sketch.</desc>
    <g id="Icon/LNB/chatting" stroke="none" stroke-width="1" fill="none" fill-rule="evenodd">
        <g id="Group-4">
            <path d="M18.2394041,0 C19.8063684,0 21.098098,1.23576658 21.1883657,2.78017593 L21.1934041,2.953 L21.1934041,7.583 C24.2054041,9.743 26.1744041,13.266 26.1744041,17.254 C26.1744041,23.828 20.8444041,29.158 14.2704041,29.158 L14.0774041,29.148 L14.0774041,29.148 C11.8995218,29.1131765 9.87134186,28.4866298 8.12875851,27.4334337 L7.80540415,27.231 L1.26940415,29.536 L4.34740415,23.825 C3.91872194,23.1797458 3.55129584,22.4905521 3.25349516,21.7655456 L3.26548171,21.7631227 L3.45651605,21.6956222 L3.45651605,21.6956222 L3.41440415,21.709 L3.48193519,21.6844632 L3.58127235,21.6428491 L3.58127235,21.6428491 L3.72694815,21.572524 L3.87478507,21.4900797 L3.87478507,21.4900797 L4.03915409,21.3862491 L4.03915409,21.3862491 L4.23825843,21.2392471 L4.23825843,21.2392471 L4.39892302,21.1021402 L4.56115067,20.9435214 L4.56115067,20.9435214 L4.66184707,20.8327489 C4.74114576,20.741213 4.81179267,20.6489 4.87340415,20.5579 C5.71140415,19.3219 5.37740415,17.6749 4.06240415,16.5509 C3.74665415,16.28015 3.52821665,15.89465 3.33832602,15.4876344 L3.02272216,14.777917 L2.90760537,14.5347843 L2.90760537,14.5347843 L2.83036823,14.3841474 L2.83036823,14.3841474 L2.76098251,14.2582291 L2.77140415,14.219 C2.84673748,13.935 2.93007081,13.655 3.02407081,13.3801852 L3.17940415,12.954 C4.00107081,10.8365556 5.40519736,9.01078704 7.20223902,7.68056036 L7.52340415,7.451 L7.52340415,2.953 C7.52340415,1.329 8.85340415,0 10.4774041,0 C12.0434041,0 13.3350993,1.23576658 13.4253658,2.78017593 L13.4304041,2.953 L13.4304041,5.393 C13.7104041,5.373 13.9864041,5.351 14.2704041,5.351 C14.4990708,5.351 14.7250708,5.36077778 14.9495893,5.37559259 L15.2854041,5.401 L15.2854041,2.953 C15.2854041,1.329 16.6154041,0 18.2394041,0 Z M13.4331041,17.8304 C13.2381041,18.1714 13.3571041,18.6044 13.6981041,18.7974 C15.0581041,19.5714 16.6071041,19.9784 18.1811041,19.9784 C19.7511041,19.9784 21.3001041,19.5714 22.6581041,18.8004 C22.9991041,18.6074 23.1191041,18.1734 22.9261041,17.8334 C22.7311041,17.4914 22.2991041,17.3734 21.9581041,17.5654 C19.6641041,18.8664 16.6891041,18.8654 14.4001041,17.5644 C14.0581041,17.3684 13.6251041,17.4894 13.4331041,17.8304 Z M15.3956041,14.402 C14.9096041,14.402 14.5126041,14.798 14.5126041,15.284 C14.5126041,15.771 14.9096041,16.167 15.3956041,16.167 C15.8826041,16.167 16.2786041,15.771 16.2786041,15.284 C16.2786041,14.798 15.8826041,14.402 15.3956041,14.402 Z M20.6681041,14.402 C20.1821041,14.402 19.7851041,14.798 19.7851041,15.284 C19.7851041,15.771 20.1821041,16.167 20.6681041,16.167 C21.1541041,16.167 21.5511041,15.771 21.5511041,15.284 C21.5511041,14.798 21.1541041,14.402 20.6681041,14.402 Z" id="Shape" fill="#FFFFFF"></path>
            <path d="M34.8627041,3.5046 C36.4877041,3.5046 37.8167041,7.4516 37.8167041,7.4516 C39.6593153,8.72187778 41.119269,10.5005815 42.0095478,12.5838452 L42.1667041,12.9716 C42.3247041,13.3756 42.4547041,13.7926 42.5687041,14.2186 L42.6267041,14.4476 C42.6880375,14.6962667 42.7391486,14.9489333 42.7830004,15.2038222 L42.8847041,15.8566 C42.9207041,16.1632667 42.9482597,16.4721556 42.9626301,16.7838593 L42.9727041,17.2666 C42.9708153,19.5578222 42.3204603,21.6947327 41.1968629,23.5088473 L40.9937041,23.8256 L42.6597041,29.5366 L37.5347041,27.2316 C35.7217041,28.4066 33.5767041,29.1116 31.2637041,29.1486 L31.0707041,29.1586 C28.2812934,29.1586 25.7162542,28.1995781 23.6871346,26.5933112 C26.0671607,24.1940961 27.5393041,20.8927548 27.5393041,17.2538 C27.5393041,13.7482161 26.1310773,10.3948728 23.6925122,7.92829513 C23.8395308,7.80924757 23.9922275,7.69411178 24.1477041,7.5826 L24.2470857,7.29855952 C24.5840881,6.37320354 25.7386396,3.5046 27.1007041,3.5046 C28.7247041,3.5046 30.0547041,5.4016 30.0547041,5.4016 C30.3897041,5.3726 30.7267041,5.3506 31.0707041,5.3506 C31.3537041,5.3506 31.6307041,5.3726 31.9097041,5.3926 L31.9653302,5.31756333 C32.2329121,4.9666672 33.4335841,3.5046 34.8627041,3.5046 Z M0.905404147,14.4199 C1.29607081,14.4377 1.47838192,14.6722778 1.82620415,15.4498481 L2.08215615,16.026052 C2.30178815,16.501744 2.56983215,16.995468 2.98713015,17.414271 L3.17540415,17.5889 C3.95640415,18.2559 4.18440415,19.1419 3.74340415,19.7919 C3.52540415,20.1129 3.07640415,20.4959 2.52140415,20.5199 C1.84140415,20.5659 1.25140415,20.0149 0.880404147,19.5579 C-0.253595853,18.1609 -0.141595853,15.9939 0.376404147,14.9649 C0.523404147,14.6744 0.699497897,14.4750094 0.84506235,14.4297008 L0.905404147,14.4199 Z M38.2476041,17.5644 C35.9576041,18.8654 32.9836041,18.8664 30.6886041,17.5654 C30.3486041,17.3734 29.9156041,17.4914 29.7206041,17.8334 C29.5276041,18.1734 29.6476041,18.6074 29.9886041,18.8004 C31.3476041,19.5714 32.8966041,19.9784 34.4666041,19.9784 C36.0396041,19.9784 37.5886041,19.5714 38.9486041,18.7974 C39.2896041,18.6044 39.4086041,18.1714 39.2146041,17.8304 C39.0216041,17.4894 38.5886041,17.3684 38.2476041,17.5644 Z M38.2511041,14.402 C37.7651041,14.402 37.3691041,14.798 37.3691041,15.284 C37.3691041,15.771 37.7651041,16.167 38.2511041,16.167 C38.7371041,16.167 39.1341041,15.771 39.1341041,15.284 C39.1341041,14.798 38.7371041,14.402 38.2511041,14.402 Z M30.9786041,14.402 C30.4926041,14.402 30.0956041,14.798 30.0956041,15.284 C30.0956041,15.771 30.4926041,16.167 30.9786041,16.167 C31.4656041,16.167 31.8616041,15.771 31.8616041,15.284 C31.8616041,14.798 31.4656041,14.402 30.9786041,14.402 Z M10.7149041,2.2894 C11.1699041,2.2894 11.5429041,2.6614 11.5429041,3.1174 L11.5429041,5.1524 C11.5429041,5.6084 11.1699041,5.9814 10.7149041,5.9814 L10.4329041,5.9814 C9.97690415,5.9814 9.60490415,5.6084 9.60490415,5.1524 L9.60490415,3.1174 C9.60490415,2.6614 9.97690415,2.2894 10.4329041,2.2894 L10.7149041,2.2894 Z M18.3194041,2.2894 C18.7754041,2.2894 19.1484041,2.6614 19.1484041,3.1174 L19.1484041,5.1524 C19.1484041,5.6084 18.7754041,5.9814 18.3194041,5.9814 L18.0384041,5.9814 C17.5824041,5.9814 17.2094041,5.6084 17.2094041,5.1524 L17.2094041,3.1174 C17.2094041,2.6614 17.5824041,2.2894 18.0384041,2.2894 L18.3194041,2.2894 Z" id="Combined-Shape" fill="#C4C6F9"></path>
        </g>
    </g>
</svg>