<?xml version="1.0" encoding="UTF-8"?>
<svg width="auto" height="auto" viewBox="0 0 33 27" version="1.1" xmlns="http://www.w3.org/2000/svg" xmlns:xlink="http://www.w3.org/1999/xlink">
    <!-- Generator: Sketch 63.1 (92452) - https://sketch.com -->
    <title>Icon/LNB/people_list</title>
    <desc>Created with Sketch.</desc>
    <g id="Icon/LNB/people_list" stroke="none" stroke-width="1" fill="none" fill-rule="evenodd">
        <g id="Group-2">
            <path d="M25.5292,0 C26.9311231,0 28.0871142,1.10299556 28.1739627,2.48310907 L28.1792,2.65 L28.1792,6.803 C30.8802,8.74 32.6482,11.901 32.6482,15.479 C32.6482,21.281871 28.020182,26.0034836 22.2527476,26.1542841 L21.9682,26.158 L21.7942,26.15 C16.0774787,26.057541 11.450142,21.4779011 11.293301,15.7769656 L11.2892,15.479 C11.2892,15.054 11.3212,14.637 11.3682,14.226 L11.4062,13.984 C11.4552,13.638 11.5182,13.295 11.6002,12.961 L11.6532,12.755 L11.6532,12.755 C11.7205333,12.501 11.7949778,12.2496667 11.8792,12.0030741 L12.0192,11.621 L12.0192,11.621 C12.7533176,9.72829412 14.0065218,8.09513149 15.6104037,6.90326013 L15.9152,6.685 L15.9152,2.65 C15.9152,1.193 17.1092,0 18.5662,0 C19.9671615,0 21.1231157,1.10299556 21.2099628,2.48310907 L21.2152,2.65 L21.2152,4.838 C21.4652,4.821 21.7142,4.8 21.9682,4.8 C22.1735333,4.8 22.3762,4.80933333 22.5776815,4.82296296 L22.8792,4.846 L22.8792,2.65 C22.8792,1.193 24.0722,0 25.5292,0 Z M17.7098,15.9961 C17.5358,16.3021 17.6428,16.6911 17.9488,16.8631 C19.1688,17.5571 20.5588,17.9231 21.9688,17.9231 C23.3788,17.9231 24.7678,17.5581 25.9868,16.8661 C26.2928,16.6931 26.4008,16.3041 26.2268,15.9981 C26.0528,15.6921 25.6648,15.5851 25.3588,15.7581 C23.2998,16.9251 20.6318,16.9241 18.5788,15.7571 C18.2708,15.5811 17.8828,15.6901 17.7098,15.9961 Z M19.5747,12.9202 C19.1377,12.9202 18.7827,13.2742 18.7827,13.7122 C18.7827,14.1492 19.1377,14.5032 19.5747,14.5032 C20.0117,14.5032 20.3657,14.1492 20.3657,13.7122 C20.3657,13.2742 20.0117,12.9202 19.5747,12.9202 Z M24.0991,12.9202 C23.6621,12.9202 23.3071,13.2742 23.3071,13.7122 C23.3071,14.1492 23.6621,14.5032 24.0991,14.5032 C24.5351,14.5032 24.8901,14.1492 24.8901,13.7122 C24.8901,13.2742 24.5351,12.9202 24.0991,12.9202 Z" id="Shape" fill="#FFFFFF"></path>
            <path d="M9.6167,19.9902 C10.3657,19.9902 10.9777,20.6032 10.9777,21.3522 L10.9777,21.8082 C10.9777,22.5562 10.3657,23.1692 9.6167,23.1692 L1.3617,23.1692 C0.6137,23.1692 0.0007,22.5562 0.0007,21.8082 L0.0007,21.3522 C0.0007,20.6032 0.6137,19.9902 1.3617,19.9902 L9.6167,19.9902 Z M6.812,14.083 C7.561,14.083 8.173,14.697 8.173,15.445 L8.173,15.901 C8.173,16.65 7.561,17.262 6.812,17.262 L1.362,17.262 C0.614,17.262 3.77475828e-13,16.65 3.77475828e-13,15.901 L3.77475828e-13,15.445 C3.77475828e-13,14.697 0.614,14.083 1.362,14.083 L6.812,14.083 Z M8.8227,8.1767 C9.5707,8.1767 10.1837,8.7897 10.1837,9.5387 L10.1837,9.9947 C10.1837,10.7427 9.5707,11.3557 8.8227,11.3557 L1.3617,11.3557 C0.6137,11.3557 0.0007,10.7427 0.0007,9.9947 L0.0007,9.5387 C0.0007,8.7897 0.6137,8.1767 1.3617,8.1767 L8.8227,8.1767 Z M18.6518,2.0525 C19.1308,2.0525 19.5218,2.4445 19.5218,2.9235 L19.5218,4.4965 C19.5218,4.93773077 19.1886402,5.30483136 18.7606384,5.35869754 L18.6518,5.3655 C18.1728,5.3655 17.7828,4.9745 17.7828,4.4965 L17.7828,2.9235 C17.7828,2.4445 18.1728,2.0525 18.6518,2.0525 Z M25.4751,2.0525 C25.9541,2.0525 26.3441,2.4445 26.3441,2.9235 L26.3441,4.4965 C26.3441,4.93773077 26.0117923,5.30483136 25.5839216,5.35869754 L25.4751,5.3655 C24.9961,5.3655 24.6051,4.9745 24.6051,4.4965 L24.6051,2.9235 C24.6051,2.4445 24.9961,2.0525 25.4751,2.0525 Z" id="Combined-Shape" fill="#C4C6F9"></path>
        </g>
    </g>
</svg>