<?xml version="1.0" encoding="UTF-8"?>
<svg width="32px" height="32px" viewBox="0 0 32 32" version="1.1" xmlns="http://www.w3.org/2000/svg" xmlns:xlink="http://www.w3.org/1999/xlink">
    <!-- Generator: Sketch 63.1 (92452) - https://sketch.com -->
    <title>Icon/attachment/movie_delete</title>
    <desc>Created with Sketch.</desc>
    <g id="Icon/attachment/movie_delete" stroke="none" stroke-width="1" fill="none" fill-rule="evenodd">
        <rect id="Rectangle" fill="#000000" opacity="0.0956333705" x="0" y="2" width="30" height="30" rx="6"></rect>
        <path d="M24,7 C24.5522847,7 25,7.44771525 25,8 L25,26 C25,26.5522847 24.5522847,27 24,27 L6,27 C5.44771525,27 5,26.5522847 5,26 L5,8 C5,7.44771525 5.44771525,7 6,7 L24,7 Z M20,8.999 L10,9 L10,25 L20,25 L20,8.999 Z M23.5,22 L21.5,22 L21.5,24 L23.5,24 L23.5,22 Z M8.5,22 L6.5,22 L6.5,24 L8.5,24 L8.5,22 Z M23.5,18 L21.5,18 L21.5,20 L23.5,20 L23.5,18 Z M8.5,18 L6.5,18 L6.5,20 L8.5,20 L8.5,18 Z M13.1460501,14.5215423 L13.2236068,14.5527864 L17.2236068,16.5527864 C17.563783,16.7228745 17.5899505,17.1840649 17.302109,17.3989379 L17.2236068,17.4472136 L13.2236068,19.4472136 C12.9167294,19.6006523 12.5598305,19.4064689 12.5067388,19.0833416 L12.5,19 L12.5,15 C12.5,14.6569006 12.8332929,14.424522 13.1460501,14.5215423 Z M23.5,14 L21.5,14 L21.5,16 L23.5,16 L23.5,14 Z M8.5,14 L6.5,14 L6.5,16 L8.5,16 L8.5,14 Z M23.5,10 L21.5,10 L21.5,12 L23.5,12 L23.5,10 Z M8.5,10 L6.5,10 L6.5,12 L8.5,12 L8.5,10 Z" id="Combined-Shape" fill="#000000" opacity="0.252534412"></path>
        <g id="Group" transform="translate(19.000000, 0.000000)">
            <circle id="Oval" fill="#FFFFFF" cx="6.5" cy="6.5" r="6.5"></circle>
            <path d="M6.5,0 C10.0898509,-6.59444907e-16 13,2.91014913 13,6.5 C13,10.0898509 10.0898509,13 6.5,13 C2.91014913,13 4.39629938e-16,10.0898509 0,6.5 C-4.39629938e-16,2.91014913 2.91014913,6.59444907e-16 6.5,0 Z M6.5,9.38888889 C6.10112768,9.38888889 5.77777778,9.71223879 5.77777778,10.1111111 C5.77777778,10.5099834 6.10112768,10.8333333 6.5,10.8333333 C6.89887232,10.8333333 7.22222222,10.5099834 7.22222222,10.1111111 C7.22222222,9.71223879 6.89887232,9.38888889 6.5,9.38888889 Z M6.5,2.23888889 C6.10112768,2.23888889 5.77777778,2.56223879 5.77777778,2.96111111 L5.77777778,2.96111111 L5.77777778,8.01666667 C5.77777778,8.41553899 6.10112768,8.73888889 6.5,8.73888889 C6.89887232,8.73888889 7.22222222,8.41553899 7.22222222,8.01666667 L7.22222222,8.01666667 L7.22222222,2.96111111 C7.22222222,2.56223879 6.89887232,2.23888889 6.5,2.23888889 Z" id="Combined-Shape" fill="#000000" opacity="0.502022879"></path>
        </g>
    </g>
</svg>