<?xml version="1.0" encoding="UTF-8"?>
<svg width="32px" height="32px" viewBox="0 0 32 32" version="1.1" xmlns="http://www.w3.org/2000/svg" xmlns:xlink="http://www.w3.org/1999/xlink">
    <!-- Generator: Sketch 63.1 (92452) - https://sketch.com -->
    <title>Icon/attachment/pdf_delete</title>
    <desc>Created with Sketch.</desc>
    <g id="Icon/attachment/pdf_delete" stroke="none" stroke-width="1" fill="none" fill-rule="evenodd">
        <rect id="Rectangle" fill="#000000" opacity="0.0956333705" x="0" y="2" width="30" height="30" rx="6"></rect>
        <path d="M20.514,7 L26,12.485 L26,26 C26,26.5522847 25.5522847,27 25,27 L9,27 L8.983,26.999 L6,27 C4.8954305,27 4,26.1045695 4,25 L4,18 C4,16.8954305 4.8954305,16 6,16 L8,15.999 L8,8 C8,7.44771525 8.44771525,7 9,7 L20.514,7 Z M18,9 L10,9 L10,15.999 L20,16 C21.1045695,16 22,16.8954305 22,18 L22,25 L24,25 L24,15 L19,15 C18.4477153,15 18,14.5522847 18,14 L18,9 Z M7.57033316,19 L6.5,19 C5.94771525,19 5.5,19.4477153 5.5,20 L5.5,24.1916975 C5.5,24.5837876 5.81785178,24.9016393 6.20994183,24.9016393 C6.60203188,24.9016393 6.91988366,24.5837876 6.91988366,24.1916975 L6.91988366,22.9423585 L7.60999471,22.9423585 C8.85536753,22.9423585 9.94209413,22.3236383 9.94209413,20.9196192 C9.94209413,19.460074 8.87123215,19 7.57033316,19 Z M12.6470122,19 L11.9494976,19 C11.3972129,19 10.9494976,19.4477153 10.9494976,20 L10.9494976,23.9016393 C10.9494976,24.4539241 11.3972129,24.9016393 11.9494976,24.9016393 L12.7263353,24.9016393 C14.4476467,24.9016393 15.6374934,23.973559 15.6374934,21.9190904 C15.6374934,19.8646219 14.4476467,19 12.6470122,19 Z M19.913009,19 L17.7321523,19 C17.1798676,19 16.7321523,19.4477153 16.7321523,20 L16.7321523,24.1916975 C16.7321523,24.5837876 17.0500041,24.9016393 17.4420941,24.9016393 C17.8341842,24.9016393 18.152036,24.5837876 18.152036,24.1916975 L18.152036,22.648863 L19.5758858,22.648863 C19.9022624,22.648863 20.1668429,22.3842825 20.1668429,22.0579059 C20.1668429,21.7315292 19.9022624,21.4669487 19.5758858,21.4669487 L18.152036,21.4669487 L18.152036,20.173982 L19.913009,20.173982 C20.2371952,20.173982 20.5,19.9111772 20.5,19.586991 C20.5,19.2628048 20.2371952,19 19.913009,19 Z M12.5597567,20.1263882 C13.5116341,20.1263882 14.1858805,20.5150714 14.1858805,21.9190904 C14.1858805,23.3231095 13.5116341,23.7593866 12.5597567,23.7593866 L12.3693813,23.7593866 L12.3693813,20.1263882 L12.5597567,20.1263882 Z M7.49894236,20.1184558 C8.1811211,20.1184558 8.56187203,20.3246959 8.56187203,20.9196192 C8.56187203,21.4986779 8.22871497,21.8239027 7.53860391,21.8239027 L6.91988366,21.8239027 L6.91988366,20.1184558 L7.49894236,20.1184558 Z M20.473,9.788 L20.4737054,12.9097067 L23.595,12.909 L20.473,9.788 Z" id="Combined-Shape" fill="#000000" opacity="0.252534412"></path>
        <g id="Group" transform="translate(19.000000, 0.000000)">
            <circle id="Oval" fill="#FFFFFF" cx="6.5" cy="6.5" r="6.5"></circle>
            <path d="M6.5,0 C10.0898509,-6.59444907e-16 13,2.91014913 13,6.5 C13,10.0898509 10.0898509,13 6.5,13 C2.91014913,13 4.39629938e-16,10.0898509 0,6.5 C-4.39629938e-16,2.91014913 2.91014913,6.59444907e-16 6.5,0 Z M6.5,9.38888889 C6.10112768,9.38888889 5.77777778,9.71223879 5.77777778,10.1111111 C5.77777778,10.5099834 6.10112768,10.8333333 6.5,10.8333333 C6.89887232,10.8333333 7.22222222,10.5099834 7.22222222,10.1111111 C7.22222222,9.71223879 6.89887232,9.38888889 6.5,9.38888889 Z M6.5,2.23888889 C6.10112768,2.23888889 5.77777778,2.56223879 5.77777778,2.96111111 L5.77777778,2.96111111 L5.77777778,8.01666667 C5.77777778,8.41553899 6.10112768,8.73888889 6.5,8.73888889 C6.89887232,8.73888889 7.22222222,8.41553899 7.22222222,8.01666667 L7.22222222,8.01666667 L7.22222222,2.96111111 C7.22222222,2.56223879 6.89887232,2.23888889 6.5,2.23888889 Z" id="Combined-Shape" fill="#000000" opacity="0.502022879"></path>
        </g>
    </g>
</svg>