<?xml version="1.0" encoding="UTF-8"?>
<svg width="32px" height="32px" viewBox="0 0 32 32" version="1.1" xmlns="http://www.w3.org/2000/svg" xmlns:xlink="http://www.w3.org/1999/xlink">
    <!-- Generator: Sketch 63.1 (92452) - https://sketch.com -->
    <title>Icon/attachment/tocell_delete</title>
    <desc>Created with Sketch.</desc>
    <g id="Icon/attachment/tocell_delete" stroke="none" stroke-width="1" fill="none" fill-rule="evenodd">
        <g id="Group-8" transform="translate(0.000000, 2.000000)">
            <rect id="Rectangle" fill="#FFFFFF" opacity="0.8" x="0" y="0" width="30" height="30" rx="6"></rect>
            <rect id="Rectangle" fill="#000000" opacity="0.100120908" x="0" y="0" width="30" height="30" rx="6"></rect>
        </g>
        <path d="M9.38537421,17.6930693 C10.4101858,17.6930693 11.1875535,18.0222259 11.921434,18.6932404 L11.921434,18.6932404 L11.9877307,18.7730944 C12.0819483,18.9158969 12.0998952,19.0969047 12.0346107,19.2543773 L12.0346107,19.2543773 L12.0139191,19.3074671 C11.955871,19.4793839 11.6726721,19.8179189 11.4387604,20.0547468 C11.3931558,20.10092 11.3101966,20.1559994 11.174027,20.2350805 C10.9538944,20.3629785 10.6778253,20.3426283 10.4831865,20.1872155 L10.4831865,20.1872155 L10.3647489,20.0978671 C10.0956309,19.9082311 9.88448301,19.8551275 9.4207603,19.8551275 C8.34796502,19.8551275 7.55459131,20.8240651 7.55459131,22.3234494 C7.55459131,23.9072771 8.26196323,24.8263992 9.39716957,24.8263992 C9.72475933,24.8263992 9.89149974,24.7977686 10.0597425,24.721441 C10.1131231,24.6972236 10.1695928,24.6673357 10.2499061,24.6214305 L10.2499061,24.6214305 L10.5045233,24.4743722 L10.6127182,24.408523 C10.9462473,24.2365682 11.3524814,24.2941493 11.6209984,24.5596513 L11.6209984,24.5596513 L11.7992211,24.7284783 L12.0911072,25.0659635 L12.1234038,25.1132942 C12.3071181,25.3992776 12.2665269,25.7746635 12.0229569,26.0176664 L12.0229569,26.0176664 L11.9005694,26.1347167 C11.2500152,26.7304219 10.4877491,27 9.31460202,27 C6.96553271,27 5,25.1481427 5,22.3927051 C5,19.5794802 6.88786053,17.6930693 9.38537421,17.6930693 Z M24.009901,7 C24.5567176,7 25,7.44328243 25,7.99009901 L25,25.8118812 C25,26.3196394 24.617782,26.7381259 24.1253675,26.7953191 L24.009901,26.8019802 L14.1089109,26.8019802 C13.5620943,26.8019802 13.1188119,26.3586978 13.1188119,25.8118812 C13.1188119,25.2650646 13.5620943,24.8217822 14.1089109,24.8217822 L23.0190198,24.821 L23.0190198,8.98 L7.1780198,8.98 L7.17821782,16.9009901 C7.17821782,17.4478067 6.7349354,17.8910891 6.18811881,17.8910891 C5.64130223,17.8910891 5.1980198,17.4478067 5.1980198,16.9009901 L5.1980198,7.99009901 C5.1980198,7.44328243 5.64130223,7 6.18811881,7 L24.009901,7 Z M14.1089109,16.9009901 C14.6557275,16.9009901 15.0990099,17.3442725 15.0990099,17.8910891 C15.0990099,18.4379057 14.6557275,18.8811881 14.1089109,18.8811881 C13.5620943,18.8811881 13.1188119,18.4379057 13.1188119,17.8910891 C13.1188119,17.3442725 13.5620943,16.9009901 14.1089109,16.9009901 Z M17.0792079,16.9009901 C17.6260245,16.9009901 18.0693069,17.3442725 18.0693069,17.8910891 C18.0693069,18.4379057 17.6260245,18.8811881 17.0792079,18.8811881 C16.5323913,18.8811881 16.0891089,18.4379057 16.0891089,17.8910891 C16.0891089,17.3442725 16.5323913,16.9009901 17.0792079,16.9009901 Z M20.049505,16.9009901 C20.5963215,16.9009901 21.039604,17.3442725 21.039604,17.8910891 C21.039604,18.4379057 20.5963215,18.8811881 20.049505,18.8811881 C19.5026884,18.8811881 19.0594059,18.4379057 19.0594059,17.8910891 C19.0594059,17.3442725 19.5026884,16.9009901 20.049505,16.9009901 Z M14.1089109,13.9306931 C14.6557275,13.9306931 15.0990099,14.3739755 15.0990099,14.9207921 C15.0990099,15.4676087 14.6557275,15.9108911 14.1089109,15.9108911 C13.5620943,15.9108911 13.1188119,15.4676087 13.1188119,14.9207921 C13.1188119,14.3739755 13.5620943,13.9306931 14.1089109,13.9306931 Z M11.1386139,13.9306931 C11.6854304,13.9306931 12.1287129,14.3739755 12.1287129,14.9207921 C12.1287129,15.4676087 11.6854304,15.9108911 11.1386139,15.9108911 C10.5917973,15.9108911 10.1485149,15.4676087 10.1485149,14.9207921 C10.1485149,14.3739755 10.5917973,13.9306931 11.1386139,13.9306931 Z M17.0792079,13.9306931 C17.6260245,13.9306931 18.0693069,14.3739755 18.0693069,14.9207921 C18.0693069,15.4676087 17.6260245,15.9108911 17.0792079,15.9108911 C16.5323913,15.9108911 16.0891089,15.4676087 16.0891089,14.9207921 C16.0891089,14.3739755 16.5323913,13.9306931 17.0792079,13.9306931 Z M20.049505,13.9306931 C20.5963215,13.9306931 21.039604,14.3739755 21.039604,14.9207921 C21.039604,15.4676087 20.5963215,15.9108911 20.049505,15.9108911 C19.5026884,15.9108911 19.0594059,15.4676087 19.0594059,14.9207921 C19.0594059,14.3739755 19.5026884,13.9306931 20.049505,13.9306931 Z M14.1089109,10.960396 C14.6557275,10.960396 15.0990099,11.4036785 15.0990099,11.950495 C15.0990099,12.4973116 14.6557275,12.9405941 14.1089109,12.9405941 C13.5620943,12.9405941 13.1188119,12.4973116 13.1188119,11.950495 C13.1188119,11.4036785 13.5620943,10.960396 14.1089109,10.960396 Z M11.1386139,10.960396 C11.6854304,10.960396 12.1287129,11.4036785 12.1287129,11.950495 C12.1287129,12.4973116 11.6854304,12.9405941 11.1386139,12.9405941 C10.5917973,12.9405941 10.1485149,12.4973116 10.1485149,11.950495 C10.1485149,11.4036785 10.5917973,10.960396 11.1386139,10.960396 Z M17.0792079,10.960396 C17.6260245,10.960396 18.0693069,11.4036785 18.0693069,11.950495 C18.0693069,12.4973116 17.6260245,12.9405941 17.0792079,12.9405941 C16.5323913,12.9405941 16.0891089,12.4973116 16.0891089,11.950495 C16.0891089,11.4036785 16.5323913,10.960396 17.0792079,10.960396 Z M20.049505,10.960396 C20.5963215,10.960396 21.039604,11.4036785 21.039604,11.950495 C21.039604,12.4973116 20.5963215,12.9405941 20.049505,12.9405941 C19.5026884,12.9405941 19.0594059,12.4973116 19.0594059,11.950495 C19.0594059,11.4036785 19.5026884,10.960396 20.049505,10.960396 Z" id="Combined-Shape" fill="#000000" opacity="0.24844215"></path>
        <g id="Group" transform="translate(19.000000, 0.000000)">
            <circle id="Oval" fill="#FFFFFF" cx="6.5" cy="6.5" r="6.5"></circle>
            <path d="M6.5,0 C10.0898509,-6.59444907e-16 13,2.91014913 13,6.5 C13,10.0898509 10.0898509,13 6.5,13 C2.91014913,13 4.39629938e-16,10.0898509 0,6.5 C-4.39629938e-16,2.91014913 2.91014913,6.59444907e-16 6.5,0 Z M6.5,9.38888889 C6.10112768,9.38888889 5.77777778,9.71223879 5.77777778,10.1111111 C5.77777778,10.5099834 6.10112768,10.8333333 6.5,10.8333333 C6.89887232,10.8333333 7.22222222,10.5099834 7.22222222,10.1111111 C7.22222222,9.71223879 6.89887232,9.38888889 6.5,9.38888889 Z M6.5,2.23888889 C6.10112768,2.23888889 5.77777778,2.56223879 5.77777778,2.96111111 L5.77777778,2.96111111 L5.77777778,8.01666667 C5.77777778,8.41553899 6.10112768,8.73888889 6.5,8.73888889 C6.89887232,8.73888889 7.22222222,8.41553899 7.22222222,8.01666667 L7.22222222,8.01666667 L7.22222222,2.96111111 C7.22222222,2.56223879 6.89887232,2.23888889 6.5,2.23888889 Z" id="Combined-Shape" fill="#000000" opacity="0.502022879"></path>
        </g>
    </g>
</svg>