<?xml version="1.0" encoding="UTF-8"?>
<svg width="32px" height="32px" viewBox="0 0 32 32" version="1.1" xmlns="http://www.w3.org/2000/svg" xmlns:xlink="http://www.w3.org/1999/xlink">
    <!-- Generator: Sketch 63.1 (92452) - https://sketch.com -->
    <title>tohangul_delete</title>
    <desc>Created with Sketch.</desc>
    <g id="TeeTalk" stroke="none" stroke-width="1" fill="none" fill-rule="evenodd">
        <g id="03_05_05_File-extension-icons" transform="translate(-1173.000000, -419.000000)" fill-rule="nonzero">
            <g id="tohangul_delete" transform="translate(1173.000000, 419.000000)">
                <g id="tohangul" transform="translate(0.000000, 2.000000)" fill="#000000">
                    <rect id="Rectangle" opacity="0.103794643" x="0" y="0" width="30" height="30" rx="6"></rect>
                    <path d="M11,17 C11.5522847,17 12,17.4477153 12,18 L12,24 C12,24.5522847 11.5522847,25 11,25 C10.4477153,25 10,24.5522847 10,24 L10,22 L7,22 L7,24 C7,24.5522847 6.55228475,25 6,25 C5.44771525,25 5,24.5522847 5,24 L5,18 C5,17.4477153 5.44771525,17 6,17 C6.55228475,17 7,17.4477153 7,18 L7,20 L7,20 L10,20 L10,18 C10,17.4477153 10.4477153,17 11,17 Z M24,5 C24.5522847,5 25,5.44771525 25,6 L25,24 C25,24.5128358 24.6139598,24.9355072 24.1166211,24.9932723 L24,25 L15,25 C14.4477153,25 14,24.5522847 14,24 C14,23.4477153 14.4477153,23 15,23 L23,23 L23,7 L7,7 L7,15 C7,15.5522847 6.55228475,16 6,16 C5.44771525,16 5,15.5522847 5,15 L5,6 C5,5.44771525 5.44771525,5 6,5 L24,5 Z M14.8,18 C14.3581722,18 14,17.5522847 14,17 C14,16.4477153 14.3581722,16 14.8,16 L20,16 C20.5522847,16 21,16.4477153 21,17 C21,17.5522847 20.5522847,18 20,18 L14.8,18 Z M20,13 C20.5522847,13 21,13.4477153 21,14 C21,14.5522847 20.5522847,15 20,15 L10,15 C9.44771525,15 9,14.5522847 9,14 C9,13.4477153 9.44771525,13 10,13 L20,13 Z M20,10 C20.5522847,10 21,10.4477152 21,11 C21,11.5522848 20.5522847,12 20,12 L10,12 C9.44771525,12 9,11.5522848 9,11 C9,10.4477152 9.44771525,10 10,10 L20,10 Z" id="Combined-Shape" opacity="0.25"></path>
                </g>
                <g id="Group" transform="translate(19.000000, 0.000000)">
                    <circle id="Oval" fill="#FFFFFF" cx="6.5" cy="6.5" r="6.5"></circle>
                    <path d="M6.5,0 C10.0898509,0 13,2.91014913 13,6.5 C13,10.0898509 10.0898509,13 6.5,13 C2.91014913,13 0,10.0898509 0,6.5 C0,2.91014913 2.91014913,0 6.5,0 Z M6.5,9.38888889 C6.10112768,9.38888889 5.77777778,9.71223879 5.77777778,10.1111111 C5.77777778,10.5099834 6.10112768,10.8333333 6.5,10.8333333 C6.89887232,10.8333333 7.22222222,10.5099834 7.22222222,10.1111111 C7.22222222,9.71223879 6.89887232,9.38888889 6.5,9.38888889 Z M6.5,2.23888889 C6.10112768,2.23888889 5.77777778,2.56223879 5.77777778,2.96111111 L5.77777778,2.96111111 L5.77777778,8.01666667 C5.77777778,8.41553899 6.10112768,8.73888889 6.5,8.73888889 C6.89887232,8.73888889 7.22222222,8.41553899 7.22222222,8.01666667 L7.22222222,8.01666667 L7.22222222,2.96111111 C7.22222222,2.56223879 6.89887232,2.23888889 6.5,2.23888889 Z" id="Combined-Shape" fill="#000000" opacity="0.502022879"></path>
                </g>
            </g>
        </g>
    </g>
</svg>