<?xml version="1.0" encoding="UTF-8"?>
<svg width="32px" height="32px" viewBox="0 0 32 32" version="1.1" xmlns="http://www.w3.org/2000/svg" xmlns:xlink="http://www.w3.org/1999/xlink">
    <!-- Generator: Sketch 63.1 (92452) - https://sketch.com -->
    <title>Icon/attachment/topoint_delete</title>
    <desc>Created with Sketch.</desc>
    <g id="Icon/attachment/topoint_delete" stroke="none" stroke-width="1" fill="none" fill-rule="evenodd">
        <g id="Group-8" transform="translate(0.000000, 2.000000)">
            <rect id="Rectangle" fill="#FFFFFF" opacity="0.8" x="0" y="0" width="30" height="30" rx="6"></rect>
            <rect id="Rectangle" fill="#000000" opacity="0.1" x="0" y="0" width="30" height="30" rx="6"></rect>
        </g>
        <path d="M24.0049751,7 C24.5545122,7 25,7.44548781 25,7.99502488 L25,26.0049751 C25,26.5545122 24.5545122,27 24.0049751,27 L9.08457711,27 C8.53229236,27 8.08457711,26.5522847 8.08457711,26 C8.08457711,25.4477153 8.53229236,25 9.08457711,25 L23.0095025,25 L23.0095025,9 L7.08950249,9 L7.08955224,15.0049751 C7.08955224,15.5545122 6.64406443,16 6.09452736,16 C5.5449903,16 5.09950249,15.5545122 5.09950249,15.0049751 L5.09950249,7.99502488 C5.09950249,7.44548781 5.5449903,7 6.09452736,7 L24.0049751,7 Z M8.34577114,16.9 C10.7518073,16.9 12.1641791,17.8495245 12.1641791,19.9274194 C12.1641791,21.8948479 10.7348424,23.0344854 8.62826681,23.1082752 L8.4079602,23.1120968 L7.18905473,23.112 L7.18905473,25.5 C7.18905473,26.0265115 6.8209828,26.4666253 6.32932918,26.5746288 L6.21378818,26.5935453 L6.09452736,26.6 C5.53033598,26.6 5.0658469,26.1709893 5.00642254,25.6198571 L5,25.5 L5,18 C5,17.4329877 5.42687632,16.9661761 5.97526655,16.9064547 L6.09452736,16.9 L8.34577114,16.9 Z M14.0547264,14 C14.6042634,14 15.0497512,14.4454878 15.0497512,14.9950249 L15.0497512,22.0049751 C15.0497512,22.5545122 14.6042634,23 14.0547264,23 C13.5051893,23 13.0597015,22.5545122 13.0597015,22.0049751 L13.0597015,14.9950249 C13.0597015,14.4454878 13.5051893,14 14.0547264,14 Z M20.0248756,17 C20.5744127,17 21.0199005,17.4454878 21.0199005,17.9950249 L21.0199005,22.0049751 C21.0199005,22.5545122 20.5744127,23 20.0248756,23 C19.4753386,23 19.0298507,22.5545122 19.0298507,22.0049751 L19.0298507,17.9950249 C19.0298507,17.4454878 19.4753386,17 20.0248756,17 Z M17.039801,12 C17.5893381,12 18.0348259,12.4454878 18.0348259,12.9950249 L18.0348259,22.0049751 C18.0348259,22.5545122 17.5893381,23 17.039801,23 C16.4902639,23 16.0447761,22.5545122 16.0447761,22.0049751 L16.0447761,12.9950249 C16.0447761,12.4454878 16.4902639,12 17.039801,12 Z M7.96813036,18.8056452 L7.18905473,18.805 L7.18905473,21.206 L8.04023361,21.2064516 C9.22165602,21.2064516 9.80099502,20.7659443 9.80099502,19.9274194 C9.80099502,19.1768706 9.29573668,18.8416141 8.16278807,18.808403 L7.96813036,18.8056452 Z" id="Combined-Shape" fill="#000000" opacity="0.24625651"></path>
        <g id="Group" transform="translate(19.000000, 0.000000)">
            <circle id="Oval" fill="#FFFFFF" cx="6.5" cy="6.5" r="6.5"></circle>
            <path d="M6.5,0 C10.0898509,-6.59444907e-16 13,2.91014913 13,6.5 C13,10.0898509 10.0898509,13 6.5,13 C2.91014913,13 4.39629938e-16,10.0898509 0,6.5 C-4.39629938e-16,2.91014913 2.91014913,6.59444907e-16 6.5,0 Z M6.5,9.38888889 C6.10112768,9.38888889 5.77777778,9.71223879 5.77777778,10.1111111 C5.77777778,10.5099834 6.10112768,10.8333333 6.5,10.8333333 C6.89887232,10.8333333 7.22222222,10.5099834 7.22222222,10.1111111 C7.22222222,9.71223879 6.89887232,9.38888889 6.5,9.38888889 Z M6.5,2.23888889 C6.10112768,2.23888889 5.77777778,2.56223879 5.77777778,2.96111111 L5.77777778,2.96111111 L5.77777778,8.01666667 C5.77777778,8.41553899 6.10112768,8.73888889 6.5,8.73888889 C6.89887232,8.73888889 7.22222222,8.41553899 7.22222222,8.01666667 L7.22222222,8.01666667 L7.22222222,2.96111111 C7.22222222,2.56223879 6.89887232,2.23888889 6.5,2.23888889 Z" id="Combined-Shape" fill="#000000" opacity="0.502022879"></path>
        </g>
    </g>
</svg>