<?xml version="1.0" encoding="UTF-8"?>
<svg width="32px" height="32px" viewBox="0 0 32 32" version="1.1" xmlns="http://www.w3.org/2000/svg" xmlns:xlink="http://www.w3.org/1999/xlink">
    <!-- Generator: Sketch 63.1 (92452) - https://sketch.com -->
    <title>Icon/attachment/zip_delete</title>
    <desc>Created with Sketch.</desc>
    <g id="Icon/attachment/zip_delete" stroke="none" stroke-width="1" fill="none" fill-rule="evenodd">
        <g id="Group-8" transform="translate(0.000000, 2.000000)">
            <rect id="Rectangle" fill="#FFFFFF" opacity="0.8" x="0" y="0" width="30" height="30" rx="6"></rect>
            <rect id="Rectangle" fill="#000000" opacity="0.100120908" x="0" y="0" width="30" height="30" rx="6"></rect>
            <path d="M23,5 C23.5522847,5 24,5.44771525 24,6 L24,24 C24,24.5522847 23.5522847,25 23,25 L7,25 C6.44771525,25 6,24.5522847 6,24 L6,6 C6,5.44771525 6.44771525,5 7,5 L23,5 Z M14,7 L8,7 L8,23 L22,23 L22,7 L16,7 L16,7 C16,7.55228475 15.5522847,8 15,8 C14.4477153,8 14,7.55228475 14,7 Z M15,15 C16.6568542,15 18,16.3431458 18,18 C18,19.6568542 16.6568542,21 15,21 C13.3431458,21 12,19.6568542 12,18 C12,16.3431458 13.3431458,15 15,15 Z M15,17 C14.4477153,17 14,17.4477153 14,18 C14,18.5522847 14.4477153,19 15,19 C15.5522847,19 16,18.5522847 16,18 C16,17.4477153 15.5522847,17 15,17 Z M15,12 C15.5522847,12 16,12.4477153 16,13 C16,13.5522847 15.5522847,14 15,14 C14.4477153,14 14,13.5522847 14,13 C14,12.4477153 14.4477153,12 15,12 Z M15,9 C15.5522847,9 16,9.44771525 16,10 C16,10.5522847 15.5522847,11 15,11 C14.4477153,11 14,10.5522847 14,10 C14,9.44771525 14.4477153,9 15,9 Z" id="Combined-Shape" fill="#000000" opacity="0.25"></path>
        </g>
        <g id="Group" transform="translate(19.000000, 0.000000)">
            <circle id="Oval" fill="#FFFFFF" cx="6.5" cy="6.5" r="6.5"></circle>
            <path d="M6.5,0 C10.0898509,-6.59444907e-16 13,2.91014913 13,6.5 C13,10.0898509 10.0898509,13 6.5,13 C2.91014913,13 4.39629938e-16,10.0898509 0,6.5 C-4.39629938e-16,2.91014913 2.91014913,6.59444907e-16 6.5,0 Z M6.5,9.38888889 C6.10112768,9.38888889 5.77777778,9.71223879 5.77777778,10.1111111 C5.77777778,10.5099834 6.10112768,10.8333333 6.5,10.8333333 C6.89887232,10.8333333 7.22222222,10.5099834 7.22222222,10.1111111 C7.22222222,9.71223879 6.89887232,9.38888889 6.5,9.38888889 Z M6.5,2.23888889 C6.10112768,2.23888889 5.77777778,2.56223879 5.77777778,2.96111111 L5.77777778,2.96111111 L5.77777778,8.01666667 C5.77777778,8.41553899 6.10112768,8.73888889 6.5,8.73888889 C6.89887232,8.73888889 7.22222222,8.41553899 7.22222222,8.01666667 L7.22222222,8.01666667 L7.22222222,2.96111111 C7.22222222,2.56223879 6.89887232,2.23888889 6.5,2.23888889 Z" id="Combined-Shape" fill="#000000" opacity="0.502022879"></path>
        </g>
    </g>
</svg>