<?xml version="1.0" encoding="UTF-8"?>
<svg width="24px" height="24px" viewBox="0 0 24 24" version="1.1" xmlns="http://www.w3.org/2000/svg" xmlns:xlink="http://www.w3.org/1999/xlink">
    <title>Icon/apps/meeting</title>
    <g id="Icon/apps/meeting" stroke="none" stroke-width="1" fill="none" fill-rule="evenodd">
        <path d="M16.667,0.9999 C20.159,0.9999 23,4.0669 23,7.8379 L23,7.8379 L23,13.3619 C23,17.1329 20.159,20.2009 16.667,20.2009 L16.667,20.2009 L13.292,20.2009 L7.458,23.8499 C7.296,23.9509 7.112,24.0019 6.928,24.0019 C6.761,24.0019 6.594,23.9609 6.443,23.8769 C6.125,23.7009 5.928,23.3659 5.928,23.0019 L5.928,23.0019 L5.928,19.9939 C3.103,19.2949 1,16.5569 1,13.3619 L1,13.3619 L1,7.8379 C1,4.0669 3.842,0.9999 7.334,0.9999 L7.334,0.9999 Z M16.667,2.9999 L7.334,2.9999 C4.944,2.9999 3,5.1709 3,7.8379 L3,7.8379 L3,13.3619 C3,15.8629 4.762,17.9709 7.012,18.1589 C7.066,18.1639 7.111,18.1909 7.163,18.2029 C7.229,18.2199 7.294,18.2309 7.354,18.2589 C7.412,18.2859 7.459,18.3269 7.51,18.3639 C7.562,18.4029 7.615,18.4369 7.659,18.4839 C7.702,18.5309 7.73,18.5859 7.764,18.6399 C7.798,18.6949 7.834,18.7459 7.857,18.8079 C7.881,18.8689 7.886,18.9339 7.896,18.9999 C7.905,19.0529 7.928,19.1009 7.928,19.1559 L7.928,19.1559 L7.928,21.1969 L12.475,18.3529 C12.497,18.3389 12.522,18.3379 12.546,18.3259 C12.605,18.2949 12.668,18.2749 12.733,18.2549 C12.8,18.2359 12.863,18.2209 12.93,18.2159 C12.956,18.2139 12.979,18.2009 13.005,18.2009 L13.005,18.2009 L16.667,18.2009 C19.057,18.2009 21,16.0299 21,13.3619 L21,13.3619 L21,7.8379 C21,5.1709 19.057,2.9999 16.667,2.9999 L16.667,2.9999 Z M13.21,6.1094 C13.993,6.1094 14.665,6.5664 14.992,7.2244 L14.992,7.2244 L15.949,6.8054 C16.568,6.5354 17.276,6.5924 17.844,6.9634 C18.411,7.3344 18.749,7.9594 18.749,8.6364 L18.749,8.6364 L18.749,12.5714 C18.749,13.2474 18.411,13.8724 17.845,14.2434 C17.514,14.4604 17.134,14.5704 16.751,14.5704 C16.48,14.5704 16.207,14.5144 15.95,14.4024 L15.95,14.4024 L14.992,13.9834 C14.665,14.6404 13.992,15.0974 13.21,15.0974 L13.21,15.0974 L7.221,15.0974 C6.119,15.0974 5.223,14.2004 5.223,13.0994 L5.223,13.0994 L5.223,8.1084 C5.223,7.0064 6.119,6.1094 7.221,6.1094 L7.221,6.1094 Z M13.208,8.1084 L7.221,8.1094 L7.223,13.0994 L13.21,13.0974 L13.208,12.5484 L13.208,8.1084 Z M16.749,8.6384 L15.208,9.3134 L15.208,11.8944 L16.751,12.5694 L16.749,8.6384 Z M11.0134,9.6036 C11.5664,9.6036 12.0134,10.0516 12.0134,10.6036 C12.0134,11.1556 11.5664,11.6036 11.0134,11.6036 L11.0134,11.6036 L9.3164,11.6036 C8.7634,11.6036 8.3164,11.1556 8.3164,10.6036 C8.3164,10.0516 8.7634,9.6036 9.3164,9.6036 L9.3164,9.6036 Z" id="Combined-Shape" fill="#fff"></path>
    </g>
</svg>