<?xml version="1.0" encoding="UTF-8"?>
<svg width="184px" height="35px" viewBox="0 0 184 35" version="1.1" xmlns="http://www.w3.org/2000/svg" xmlns:xlink="http://www.w3.org/1999/xlink">
    <!-- Generator: Sketch 63.1 (92452) - https://sketch.com -->
    <title>Icon/logo/TeeSpace</title>
    <desc>Created with Sketch.</desc>
    <defs>
        <polygon id="path-1" points="0.312012834 0.172200855 21.9246332 0.172200855 21.9246332 35 0.312012834 35"></polygon>
        <polygon id="path-3" points="0 35 183.911444 35 183.911444 0.171709402 0 0.171709402"></polygon>
    </defs>
    <g id="02.-Main-Page" stroke="none" stroke-width="1" fill="none" fill-rule="evenodd">
        <g id="02_02_01_login_main" transform="translate(-221.000000, -241.000000)">
            <g id="Group-10" transform="translate(176.000000, 140.000000)">
                <g id="Icon/logo/TeeSpace" transform="translate(45.000000, 101.000000)">
                    <g>
                        <polygon id="Fill-1" fill="#6C56E5" points="26.8333333 0.769230769 26.8333333 34.6153846 46 34.6153846 46 30.2072439 31.9837516 30.2072439 31.9837516 26.5571974 31.9798011 26.5571974 31.9798011 9.96554118 31.9837516 9.96554118 31.9837516 5.13121804 46 5.13121804 46 0.769230769"></polygon>
                        <g id="Group-18">
                            <g id="Group-4" transform="translate(67.893048, 0.000000)">
                                <mask id="mask-2" fill="white">
                                    <use xlink:href="#path-1"></use>
                                </mask>
                                <g id="Clip-3"></g>
                                <path d="M21.9246332,25.3680128 C21.9246332,28.3737393 20.8324406,30.729765 18.6470717,32.4370726 C16.4617027,34.1463462 13.4694888,35.0004915 9.66944599,35.0004915 C7.80091123,35.0004915 6.05930695,34.8491239 4.44463316,34.5493376 C2.8289754,34.2485684 1.45241925,33.8141239 0.312012834,33.2440385 L0.312012834,28.4042094 C1.57836578,28.973312 3.06709305,29.4883547 4.7772107,29.9463889 C6.48732834,30.405406 8.22893262,30.6344231 10.0020235,30.6344231 C12.2818524,30.6344231 13.9919701,30.1921154 15.1323765,29.3065171 C16.2717989,28.4199359 16.8415102,27.2345513 16.8415102,25.7474145 C16.8415102,24.7035684 16.5886332,23.8258333 16.0818952,23.1142094 C15.5751572,22.4016026 14.7594567,21.738141 13.6357775,21.1208761 C12.5111144,20.504594 11.0469861,19.8480128 9.2414246,19.1521154 C7.59526417,18.5191239 6.12228021,17.7750641 4.82444064,16.9219017 C3.52561711,16.0677564 2.51214118,15.0081838 1.78401283,13.7431838 C1.05588449,12.4781838 0.691820321,10.928141 0.691820321,9.09207265 C0.691820321,6.30848291 1.70529626,4.12741453 3.73224813,2.54395299 C5.75821604,0.963440171 8.41785241,0.172200855 11.7121412,0.172200855 C13.5482053,0.172200855 15.2504513,0.361901709 16.8188791,0.741303419 C18.385339,1.12070513 19.881938,1.61215812 21.307692,2.21173077 L19.6920342,6.43527778 C18.3932107,5.89762821 17.0717561,5.45532051 15.7257027,5.10737179 C14.3796492,4.75844017 12.9942374,4.58446581 11.5694674,4.58446581 C9.70093262,4.58446581 8.27517861,4.99630342 7.29417326,5.81801282 C6.31218396,6.64070513 5.82217326,7.71698718 5.82217326,9.04587607 C5.82217326,10.0887393 6.05930695,10.9674573 6.53455829,11.6780983 C7.00882567,12.3907051 7.7694246,13.0394231 8.81438717,13.6242521 C9.85934973,14.2090812 11.2368898,14.8342094 12.9470075,15.4986538 C14.8470289,16.2564744 16.4695743,17.0565598 17.8156278,17.8939957 C19.1606973,18.7333974 20.1820449,19.7448077 20.8796706,20.9311752 C21.5763123,22.1175427 21.9246332,23.5958333 21.9246332,25.3680128" id="Fill-2" fill="#BCBEFF" mask="url(#mask-2)"></path>
                            </g>
                            <path d="M100.500505,4.96416239 L96.5095743,4.96416239 L96.5095743,17.3487778 L99.598216,17.3487778 C102.478259,17.3487778 104.65674,16.8661709 106.12874,15.9019402 C107.601724,14.9367265 108.337724,13.2992051 108.337724,10.990359 C108.337724,8.96655556 107.704056,7.45582906 106.437703,6.45916239 C105.17135,5.46249573 103.190644,4.96416239 100.500505,4.96416239 L100.500505,4.96416239 Z M100.880312,0.64625641 C105.314024,0.64625641 108.543371,1.54070085 110.570323,3.32762393 C112.596291,5.11454701 113.609767,7.60621368 113.609767,10.8006581 C113.609767,12.6986496 113.190601,14.4708291 112.351286,16.1152308 C111.51197,17.7606154 110.110815,19.0973675 108.14782,20.1245043 C106.183842,21.1536068 103.524205,21.6666838 100.167927,21.6666838 L96.5095743,21.6666838 L96.5095743,34.5250598 L91.3802053,34.5250598 L91.3802053,0.64625641 L100.880312,0.64625641 Z" id="Fill-5" fill="#BCBEFF"></path>
                            <path d="M153.633211,4.58495726 C150.275949,4.58495726 147.639927,5.74773504 145.724163,8.07230769 C143.808398,10.3968803 142.851007,13.5844444 142.851007,17.6330342 C142.851007,21.6511538 143.736569,24.8141453 145.510644,27.1239744 C147.283735,29.4328205 149.975842,30.5867521 153.585981,30.5867521 C155.042237,30.5867521 156.443393,30.452094 157.789446,30.1837607 C159.135499,29.9154274 160.504184,29.5596154 161.898451,29.1163248 L161.898451,33.5285897 C160.568141,34.0357692 159.206344,34.4073077 157.813061,34.644188 C156.419778,34.8810684 154.80412,35 152.968056,35 C149.483863,35 146.594965,34.2805128 144.299393,32.8415385 C142.002836,31.4015812 140.292719,29.3777778 139.16904,26.7671795 C138.044376,24.1575641 137.482537,21.0977778 137.482537,17.5868376 C137.482537,14.1702564 138.108334,11.1566667 139.359927,8.54705128 C140.610537,5.9374359 142.438729,3.89004274 144.845489,2.40192308 C147.252248,0.915769231 150.197232,0.172692308 153.680441,0.172692308 C155.390558,0.172692308 157.060334,0.354529915 158.692719,0.717222222 C160.322152,1.08188034 161.818751,1.59594017 163.180548,2.26038462 L161.280526,6.53012821 C160.171606,6.02491453 158.98397,5.57376068 157.717617,5.17863248 C156.451264,4.78252137 155.089467,4.58495726 153.633211,4.58495726" id="Fill-7" fill="#BCBEFF"></path>
                            <mask id="mask-4" fill="white">
                                <use xlink:href="#path-3"></use>
                            </mask>
                            <g id="Clip-10"></g>
                            <polygon id="Fill-9" fill="#6C56E5" mask="url(#mask-4)" points="35.3712941 19.7924786 46.0511658 19.7924786 46.0511658 15.3802137 35.3712941 15.3802137"></polygon>
                            <polygon id="Fill-11" fill="#6C56E5" mask="url(#mask-4)" points="52.4768 26.3519017 52.4738481 26.3519017 52.4738481 9.74472222 52.4768 9.74472222 52.4768 4.90489316 66.4421048 4.90489316 66.4421048 0.539807692 47.347431 0.539807692 47.347431 34.4186111 66.4421048 34.4186111 66.4421048 30.0063462 52.4768 30.0063462"></polygon>
                            <polygon id="Fill-12" fill="#BCBEFF" mask="url(#mask-4)" points="169.946336 26.4594316 169.944368 26.4594316 169.944368 9.85225214 169.946336 9.85225214 169.946336 5.01242308 183.911641 5.01242308 183.911641 0.646354701 164.816967 0.646354701 164.816967 34.5251581 183.911641 34.5251581 183.911641 30.1128932 169.946336 30.1128932"></polygon>
                            <path d="M115.93535,29.9264359 L117.506729,25.6714359 L119.372312,20.2900256 L119.366409,20.2900256 L119.533681,19.8251111 L119.534665,19.8231453 L122.786644,10.7528889 C122.976548,10.2152393 123.230409,9.39352991 123.546259,8.28579487 C123.863093,7.17904274 124.147457,6.13519658 124.401318,5.15425641 C124.527264,5.62801709 124.702409,6.24528205 124.924783,7.00506838 C125.145189,7.76387179 125.367564,8.49122222 125.588954,9.18711966 C125.810344,9.88301709 125.984505,10.4059231 126.112419,10.7528889 L129.531671,20.2900256 L129.520847,20.2900256 L131.53304,26.308359 L132.86827,29.9264359 L115.93535,29.9264359 Z M127.109168,0.504128205 L121.788911,0.504128205 L108.916783,34.525453 L113.286537,34.525453 L114.23704,34.525453 L134.567564,34.525453 L136.202901,34.525453 L139.934066,34.525453 L127.109168,0.504128205 Z" id="Fill-13" fill="#BCBEFF" mask="url(#mask-4)"></path>
                            <polygon id="Fill-14" fill="#FF486D" mask="url(#mask-4)" points="10.165262 34.5252564 15.294631 34.5252564 15.294631 8.10474359 10.165262 8.10474359"></polygon>
                            <polygon id="Fill-15" fill="#FF486D" mask="url(#mask-4)" points="-9.83957219e-05 0.646649573 -9.83957219e-05 5.05891453 8.9332492 5.05891453 10.1651636 5.05891453 15.2945326 5.05891453 17.0587679 5.05891453 25.4597947 5.05891453 25.4597947 0.646649573"></polygon>
                            <polygon id="Fill-16" fill="#6C56E5" mask="url(#mask-4)" points="55.7618396 19.7924786 66.4417112 19.7924786 66.4417112 15.3802137 55.7618396 15.3802137"></polygon>
                            <polygon id="Fill-17" fill="#BCBEFF" mask="url(#mask-4)" points="173.232556 19.7924786 183.912428 19.7924786 183.912428 15.3802137 173.232556 15.3802137"></polygon>
                        </g>
                    </g>
                </g>
            </g>
        </g>
    </g>
</svg>