<?xml version="1.0" encoding="UTF-8"?>
<svg width="24px" height="24px" viewBox="0 0 24 24" version="1.1" xmlns="http://www.w3.org/2000/svg" xmlns:xlink="http://www.w3.org/1999/xlink">
    <title>Icon/common/call</title>
    <g id="Icon/common/call" stroke="none" stroke-width="1" fill="none" fill-rule="evenodd">
        <path d="M12.3327,15.7102 C13.1157,16.4842 14.3057,16.6782 15.2957,16.1892 L16.2117,15.7362 C16.3767,15.6552 16.5647,15.6362 16.7437,15.6892 L19.4647,16.4552 C19.7877,16.5472 20.0117,16.8382 19.9967,17.1472 C19.9427,18.2852 19.2107,19.2102 17.8247,19.8962 C16.8307,20.3832 13.9187,19.2842 10.2747,16.2352 C6.2997,12.9082 3.5637,8.9932 4.0467,7.3222 C4.6517,5.2302 5.6277,4.0502 6.7947,4.0012 L6.8187,4.0012 C7.1047,4.0012 7.3717,4.2162 7.4597,4.5212 L8.2657,7.3052 C8.3147,7.4752 8.2977,7.6562 8.2177,7.8152 L7.7637,8.7112 C7.2627,9.7022 7.4557,10.8922 8.2467,11.6742 L12.3327,15.7102 Z M6.7107,2.0032 C5.4987,2.0542 3.2897,2.7402 2.1257,6.7672 C1.1597,10.1072 5.9867,15.2552 8.9917,17.7702 C10.3017,18.8662 14.3057,21.9962 17.2797,21.9962 C17.7937,21.9962 18.2767,21.9022 18.7097,21.6892 C21.3107,20.4042 21.9317,18.5622 21.9947,17.2422 C22.0547,15.9932 21.2377,14.8792 20.0087,14.5302 L17.2867,13.7632 C16.6307,13.5782 15.9347,13.6432 15.3257,13.9432 L14.4097,14.3972 C14.1857,14.5052 13.9157,14.4632 13.7387,14.2872 L9.6517,10.2512 C9.4817,10.0832 9.4407,9.8272 9.5477,9.6142 L10.0017,8.7182 C10.3117,8.1062 10.3767,7.4062 10.1867,6.7492 L9.3807,3.9652 L9.3807,3.9642 C9.0317,2.7582 7.9297,1.9422 6.7107,2.0032 L6.7107,2.0032 Z" id="Fill-1" fill="#ffffff"></path>
    </g>
</svg>