<?xml version="1.0" encoding="UTF-8"?>
<svg width="24px" height="24px" viewBox="0 0 24 24" version="1.1" xmlns="http://www.w3.org/2000/svg" xmlns:xlink="http://www.w3.org/1999/xlink">
    <title>Icon/common/camera</title>
    <g id="Icon/common/camera" stroke="none" stroke-width="1" fill="none" fill-rule="evenodd">
        <path d="M14.491,3.0003 C15.824,3.0003 17.011,3.9023 17.376,5.1943 L17.376,5.1943 L17.881,6.9803 L18.999,6.9853 C21.205,6.9853 22.999,8.7953 22.999,11.0193 L22.999,11.0193 L22.999,16.9663 C22.999,19.1903 21.205,21.0003 18.999,21.0003 L18.999,21.0003 L5,21.0003 C2.794,21.0003 1,19.1903 1,16.9663 L1,16.9663 L1,11.0193 C1,8.7953 2.794,6.9853 5,6.9853 L5,6.9853 L6.119,6.9853 L6.623,5.1953 C6.988,3.9023 8.175,3.0003 9.508,3.0003 L9.508,3.0003 Z M14.491,5.0003 L9.508,5.0003 C9.065,5.0003 8.67,5.3033 8.547,5.7393 L8.547,5.7393 L8.043,7.5243 C7.8,8.3843 7.009,8.9853 6.119,8.9853 L6.119,8.9853 L5,8.9853 C3.897,8.9853 3,9.8973 3,11.0193 L3,11.0193 L3,16.9663 C3,18.0883 3.897,19.0003 5,19.0003 L5,19.0003 L18.999,19.0003 C20.102,19.0003 20.999,18.0883 20.999,16.9663 L20.999,16.9663 L20.999,11.0193 C20.999,9.8973 20.102,8.9853 18.999,8.9853 L18.999,8.9853 L17.88,8.9853 C16.99,8.9853 16.199,8.3843 15.956,7.5233 L15.956,7.5233 L15.452,5.7383 C15.329,5.3033 14.934,5.0003 14.491,5.0003 L14.491,5.0003 Z M11.9995,9.2114 C14.3135,9.2114 16.1975,11.0944 16.1975,13.4094 C16.1975,15.7244 14.3135,17.6074 11.9995,17.6074 C9.6855,17.6074 7.8015,15.7244 7.8015,13.4094 C7.8015,11.0944 9.6855,9.2114 11.9995,9.2114 Z M11.9995,11.2114 C10.7875,11.2114 9.8015,12.1974 9.8015,13.4094 C9.8015,14.6214 10.7875,15.6074 11.9995,15.6074 C13.2115,15.6074 14.1975,14.6214 14.1975,13.4094 C14.1975,12.1974 13.2115,11.2114 11.9995,11.2114 Z" id="Combined-Shape" fill="#ffffff"></path>
    </g>
</svg>