<?xml version="1.0" encoding="UTF-8"?>
<svg width="20px" height="20px" viewBox="0 0 20 20" version="1.1" xmlns="http://www.w3.org/2000/svg" xmlns:xlink="http://www.w3.org/1999/xlink">
    <title>Icon/system/convert space</title>
    <g id="Icon/system/convert-space" stroke="none" stroke-width="1" fill="none" fill-rule="evenodd">
        <path d="M16.6927889,10.2191275 C17.136755,10.2191275 17.5,10.5815436 17.5,11.0244966 L17.5,11.0244966 L17.5,14.2459732 C17.5,14.6889262 17.136755,15.0513423 16.6927889,15.0513423 L16.6927889,15.0513423 L5.25460783,15.0513423 L6.57937576,16.3788591 C6.89418808,16.692953 6.89418808,17.2003356 6.57937576,17.5144295 C6.26456343,17.8285235 5.75602045,17.8285235 5.44120813,17.5144295 L5.44120813,17.5144295 L2.73610924,14.8177852 C2.42129692,14.5036913 2.42129692,13.9963087 2.73610924,13.6822148 L2.73610924,13.6822148 L5.44120813,10.9855705 C5.75602045,10.6714765 6.26456343,10.6714765 6.57937576,10.9855705 C6.89418808,11.2996644 6.89418808,11.807047 6.57937576,12.1211409 L6.57937576,12.1211409 L5.25460783,13.440604 L15.8855778,13.440604 L15.8855778,11.0244966 C15.8855778,10.5815436 16.2488228,10.2191275 16.6927889,10.2191275 Z M13.4206242,2.48557047 C13.7354366,2.17147651 14.2439796,2.17147651 14.5587919,2.48557047 L14.5587919,2.48557047 L17.2638908,5.18221477 C17.5787031,5.49630872 17.5787031,6.00369128 17.2638908,6.31778523 L17.2638908,6.31778523 L14.5587919,9.01442953 C14.2439796,9.32852349 13.7354366,9.32852349 13.4206242,9.01442953 C13.1058119,8.70033557 13.1058119,8.19295302 13.4206242,7.87885906 L13.4206242,7.87885906 L14.7453922,6.55939597 L4.11442217,6.55939597 L4.11442217,8.97550336 C4.11442217,9.41845638 3.75117718,9.78087248 3.30721109,9.78087248 C2.86324499,9.78087248 2.5,9.41845638 2.5,8.97550336 L2.5,8.97550336 L2.5,5.75402685 C2.5,5.31107383 2.86324499,4.94865772 3.30721109,4.94865772 L3.30721109,4.94865772 L14.7453922,4.94865772 L13.4206242,3.62114094 C13.1058119,3.30704698 13.1058119,2.79966443 13.4206242,2.48557047 Z" id="Combined-Shape" fill="#777777"></path>
    </g>
</svg>