<?xml version="1.0" encoding="UTF-8"?>
<svg width="24px" height="24px" viewBox="0 0 24 24" version="1.1" xmlns="http://www.w3.org/2000/svg" xmlns:xlink="http://www.w3.org/1999/xlink">
    <title>Icon/common/write to me</title>
    <g id="Icon/common/write-to-me" stroke="none" stroke-width="1" fill="none" fill-rule="evenodd">
        <path d="M21.002,12.0007 C21.555,12.0007 22.002,12.4477 22.002,13.0007 C22.002,16.3097 19.311,19.0007 16.002,19.0007 L16.002,19.0007 L5.256,19.0007 L7.672,21.2717 C8.074,21.6497 8.094,22.2827 7.716,22.6857 C7.52,22.8957 7.253,23.0007 6.987,23.0007 C6.741,23.0007 6.495,22.9107 6.303,22.7297 L6.303,22.7297 L2.499,19.1527 C2.17,18.8317 1.999,18.4217 2.00098266,17.9847 C2.002,17.5487 2.177,17.1407 2.492,16.8367 L2.492,16.8367 L6.304,13.2707 C6.708,12.8937 7.339,12.9147 7.718,13.3167 C8.095,13.7207 8.074,14.3537 7.671,14.7307 L7.671,14.7307 L5.244,17.0007 L16.002,17.0007 C18.208,17.0007 20.002,15.2067 20.002,13.0007 C20.002,12.4477 20.449,12.0007 21.002,12.0007 Z M16.286,1.3157 C16.664,0.9107 17.299,0.8947 17.699,1.2717 L17.699,1.2717 L21.503,4.8487 C21.832,5.1697 22.003,5.5797 22.0010173,6.0167 C22,6.4527 21.825,6.8607 21.51,7.1647 L21.51,7.1647 L17.698,10.7307 C17.505,10.9117 17.26,11.0007 17.015,11.0007 C16.748,11.0007 16.481,10.8947 16.284,10.6847 C15.907,10.2807 15.928,9.6477 16.331,9.2707 L16.331,9.2707 L18.758,7.0007 L8,7.0007 C5.794,7.0007 4,8.7947 4,11.0007 C4,11.5537 3.553,12.0007 3,12.0007 C2.447,12.0007 2,11.5537 2,11.0007 C2,7.6917 4.691,5.0007 8,5.0007 L8,5.0007 L18.746,5.0007 L16.33,2.7297 C15.928,2.3517 15.908,1.7187 16.286,1.3157 Z" id="Combined-Shape" fill="#7B7671"></path>
    </g>
</svg>