<?xml version="1.0" encoding="UTF-8"?>
<svg width="20px" height="20px" viewBox="0 0 20 20" version="1.1" xmlns="http://www.w3.org/2000/svg" xmlns:xlink="http://www.w3.org/1999/xlink">
    <title>Icon/system/enter</title>
    <g id="Icon/system/enter" stroke="none" stroke-width="1" fill="none" fill-rule="evenodd">
        <g id="login-24px">
            <g id="Group">
                <rect id="Rectangle" x="0" y="0" width="20" height="20"></rect>
                <rect id="Rectangle" x="0" y="0" width="20" height="20"></rect>
            </g>
            <path d="M8.58333333,6.41666667 L8.58333333,6.41666667 C8.25833333,6.74166667 8.25833333,7.25833333 8.58333333,7.58333333 L10.1666667,9.16666667 L2.5,9.16666667 C2.04166667,9.16666667 1.66666667,9.54166667 1.66666667,10 L1.66666667,10 C1.66666667,10.4583333 2.04166667,10.8333333 2.5,10.8333333 L10.1666667,10.8333333 L8.58333333,12.4166667 C8.25833333,12.7416667 8.25833333,13.2583333 8.58333333,13.5833333 L8.58333333,13.5833333 C8.90833333,13.9083333 9.425,13.9083333 9.75,13.5833333 L12.7416667,10.5916667 C13.0666667,10.2666667 13.0666667,9.74166667 12.7416667,9.41666667 L9.75,6.41666667 C9.425,6.09166667 8.90833333,6.09166667 8.58333333,6.41666667 Z M16.6666667,15.8333333 L10.8333333,15.8333333 C10.375,15.8333333 10,16.2083333 10,16.6666667 L10,16.6666667 C10,17.125 10.375,17.5 10.8333333,17.5 L16.6666667,17.5 C17.5833333,17.5 18.3333333,16.75 18.3333333,15.8333333 L18.3333333,4.16666667 C18.3333333,3.25 17.5833333,2.5 16.6666667,2.5 L10.8333333,2.5 C10.375,2.5 10,2.875 10,3.33333333 L10,3.33333333 C10,3.79166667 10.375,4.16666667 10.8333333,4.16666667 L16.6666667,4.16666667 L16.6666667,15.8333333 Z" id="Shape" fill="#6C50E9"></path>
        </g>
    </g>
</svg>