<?xml version="1.0" encoding="UTF-8"?>
<svg width="24px" height="24px" viewBox="0 0 24 24" version="1.1" xmlns="http://www.w3.org/2000/svg" xmlns:xlink="http://www.w3.org/1999/xlink">
    <title>Icon/common/favorites_1</title>
    <g id="Icon/common/favorites_1" stroke="none" stroke-width="1" fill="none" fill-rule="evenodd">
        <path d="M20.9434,10.1992 L17.4904,13.4042 C16.9484,13.9072 16.7014,14.6302 16.8294,15.3382 L17.6314,19.7942 C17.6354,19.8132 17.6434,19.8602 17.5574,19.9252 C17.4634,19.9952 17.2894,20.0462 17.1134,19.9582 L13.0904,17.9442 C12.4064,17.6022 11.5924,17.6022 10.9084,17.9442 L6.8854,19.9582 C6.7094,20.0462 6.5364,19.9952 6.4414,19.9252 C6.3554,19.8602 6.3634,19.8132 6.3674,19.7932 L7.1694,15.3382 C7.2974,14.6302 7.0504,13.9072 6.5084,13.4042 L3.0554,10.1992 C2.9854,10.1342 2.9974,10.0982 3.0054,10.0742 C3.0254,10.0092 3.1034,9.9312 3.2614,9.9092 L7.9104,9.2662 C8.6684,9.1612 9.3224,8.7112 9.6594,8.0612 L11.6874,4.1482 C11.7604,4.0072 11.9604,4.0002 11.9994,4.0002 C12.0384,4.0002 12.2384,4.0072 12.3114,4.1482 L14.3394,8.0622 C14.6764,8.7112 15.3314,9.1612 16.0894,9.2662 L20.7374,9.9092 C20.8954,9.9312 20.9734,10.0092 20.9944,10.0742 C21.0024,10.0982 21.0134,10.1342 20.9434,10.1992 M22.9014,9.4732 C22.6404,8.6452 21.9164,8.0532 21.0114,7.9282 L16.3634,7.2852 C16.2344,7.2672 16.1454,7.1992 16.1144,7.1412 L14.0874,3.2282 C13.6944,2.4702 12.8944,2.0002 11.9994,2.0002 C11.1044,2.0002 10.3044,2.4702 9.9124,3.2282 L7.8844,7.1402 C7.8534,7.1992 7.7644,7.2672 7.6354,7.2852 L2.9874,7.9282 C2.0834,8.0532 1.3584,8.6452 1.0974,9.4732 C0.8514,10.2542 1.0804,11.0942 1.6954,11.6652 L5.1484,14.8692 C5.1674,14.8872 5.2104,14.9342 5.2014,14.9832 L4.3994,19.4382 C4.2544,20.2412 4.5694,21.0222 5.2434,21.5262 C5.6644,21.8412 6.1754,22.0022 6.6914,22.0022 C7.0644,22.0022 7.4384,21.9182 7.7814,21.7462 L11.8044,19.7322 C11.9224,19.6722 12.0764,19.6722 12.1944,19.7322 L16.2174,21.7462 C17.0344,22.1562 18.0304,22.0682 18.7554,21.5262 C19.4294,21.0222 19.7444,20.2412 19.6004,19.4392 L18.7974,14.9832 C18.7884,14.9342 18.8324,14.8872 18.8514,14.8692 L22.3034,11.6652 C22.9194,11.0942 23.1484,10.2542 22.9014,9.4732" id="Fill-1" fill="#ffffff"></path>
    </g>
</svg>