<?xml version="1.0" encoding="UTF-8"?>
<svg width="24px" height="24px" viewBox="0 0 24 24" version="1.1" xmlns="http://www.w3.org/2000/svg" xmlns:xlink="http://www.w3.org/1999/xlink">
    <title>Icon/common/favorites_2</title>
    <g id="Icon/common/favorites_2" stroke="none" stroke-width="1" fill="none" fill-rule="evenodd">
        <path d="M13.3198,2.7651 L15.5498,7.1111 C15.7568,7.5121 16.1688,7.7931 16.6498,7.8601 L21.7618,8.5751 C22.9328,8.7381 23.4118,10.0371 22.5868,10.8111 L18.7888,14.3701 C18.4668,14.6721 18.3208,15.0941 18.3958,15.5081 L19.2778,20.4571 C19.4728,21.5511 18.1968,22.3681 17.1328,21.8301 L12.7068,19.5931 C12.2668,19.3701 11.7328,19.3701 11.2928,19.5931 L6.8668,21.8301 C5.8028,22.3681 4.5268,21.5511 4.7218,20.4571 L5.6048,15.5081 C5.6788,15.0941 5.5328,14.6721 5.2118,14.3701 L1.4138,10.8111 C0.5888,10.0371 1.0678,8.7381 2.2378,8.5751 L7.3508,7.8601 C7.8318,7.7931 8.2438,7.5121 8.4498,7.1111 L10.6798,2.7651 C11.2038,1.7451 12.7968,1.7451 13.3198,2.7651" id="Fill-1" fill="#ffffff"></path>
    </g>
</svg>