<?xml version="1.0" encoding="UTF-8"?>
<svg width="200px" height="200px" viewBox="0 0 200 200" version="1.1" xmlns="http://www.w3.org/2000/svg" xmlns:xlink="http://www.w3.org/1999/xlink">
    <title>Group 23</title>
    <defs>
        <polygon id="path-1" points="0 0.144323029 119.660077 0.144323029 119.660077 102.798792 0 102.798792"></polygon>
        <polygon id="path-3" points="0 102.798792 119.72973 102.798792 119.72973 0.144080197 0 0.144080197"></polygon>
        <path d="M0.217297297,8.88260017 C0.217297297,13.5167025 3.77513514,17.2727499 8.16389189,17.2727499 L8.16389189,17.2727499 C12.5526486,17.2727499 16.1104865,13.5167025 16.1104865,8.88260017 L16.1104865,8.88260017 C16.1104865,4.24849787 12.5526486,0.492450422 8.16389189,0.492450422 L8.16389189,0.492450422 C3.77513514,0.492450422 0.217297297,4.24849787 0.217297297,8.88260017" id="path-5"></path>
        <path d="M0.217297297,8.88260017 C0.217297297,13.5167025 3.77513514,17.2727499 8.16389189,17.2727499 L8.16389189,17.2727499 C12.5526486,17.2727499 16.1104865,13.5167025 16.1104865,8.88260017 L16.1104865,8.88260017 C16.1104865,4.24849787 12.5526486,0.492450422 8.16389189,0.492450422 L8.16389189,0.492450422 C3.77513514,0.492450422 0.217297297,4.24849787 0.217297297,8.88260017" id="path-7"></path>
        <path d="M0.217297297,8.88260017 C0.217297297,13.5167025 3.77513514,17.2727499 8.16389189,17.2727499 L8.16389189,17.2727499 C12.5526486,17.2727499 16.1104865,13.5167025 16.1104865,8.88260017 L16.1104865,8.88260017 C16.1104865,4.24849787 12.5526486,0.492450422 8.16389189,0.492450422 L8.16389189,0.492450422 C3.77513514,0.492450422 0.217297297,4.24849787 0.217297297,8.88260017" id="path-9"></path>
        <path d="M0.217297297,8.88260017 C0.217297297,13.5167025 3.77513514,17.2727499 8.16389189,17.2727499 L8.16389189,17.2727499 C12.5526486,17.2727499 16.1104865,13.5167025 16.1104865,8.88260017 L16.1104865,8.88260017 C16.1104865,4.24849787 12.5526486,0.492450422 8.16389189,0.492450422 L8.16389189,0.492450422 C3.77513514,0.492450422 0.217297297,4.24849787 0.217297297,8.88260017" id="path-11"></path>
    </defs>
    <g id="02.-Common-UI-Layout" stroke="none" stroke-width="1" fill="none" fill-rule="evenodd">
        <g id="Group-40" transform="translate(39.768340, 47.389558)">
            <g id="Group-25" transform="translate(0.000000, 0.665359)">
                <g id="Group-3">
                    <mask id="mask-2" fill="white">
                        <use xlink:href="#path-1"></use>
                    </mask>
                    <g id="Clip-2"></g>
                    <path d="M119.660077,11.8787647 L119.660077,102.799035 L-0.000154440154,102.799035 L-0.000154440154,11.8787647 C-0.000154440154,5.39839357 3.88401544,0.144323029 8.67474903,0.144323029 L110.985946,0.144323029 C115.775907,0.144323029 119.660077,5.39839357 119.660077,11.8787647" id="Fill-1" fill="#E6E6ED" mask="url(#mask-2)"></path>
                </g>
                <mask id="mask-4" fill="white">
                    <use xlink:href="#path-3"></use>
                </mask>
                <g id="Clip-5"></g>
                <polygon id="Fill-6" fill="#E6E6ED" mask="url(#mask-4)" points="8.51042471 74.0815043 107.441699 74.0815043 107.441699 52.0113322 8.51042471 52.0113322"></polygon>
                <path d="M119.729421,11.8787647 L119.729421,15.7867376 L-0.000308880309,15.7867376 L-0.000308880309,11.8787647 C-0.000308880309,5.39839357 3.88617761,0.144323029 8.6792278,0.144323029 L111.049884,0.144323029 C115.842934,0.144323029 119.729421,5.39839357 119.729421,11.8787647" id="Fill-7" fill="#8F8F96" mask="url(#mask-4)"></path>
                <path d="M12.5002317,9.01254008 C12.5002317,10.4395816 11.3959846,11.5954609 10.0330502,11.5954609 C8.67088803,11.5954609 7.56586873,10.4395816 7.56586873,9.01254008 C7.56586873,7.58549858 8.67088803,6.42961925 10.0330502,6.42961925 C11.3959846,6.42961925 12.5002317,7.58549858 12.5002317,9.01254008" id="Fill-8" fill="#EF7894" mask="url(#mask-4)"></path>
                <path d="M19.7418533,9.01254008 C19.7418533,10.4395816 18.636834,11.5954609 17.2746718,11.5954609 C15.9125097,11.5954609 14.8074903,10.4395816 14.8074903,9.01254008 C14.8074903,7.58549858 15.9125097,6.42961925 17.2746718,6.42961925 C18.636834,6.42961925 19.7418533,7.58549858 19.7418533,9.01254008" id="Fill-9" fill="#E6E6E6" mask="url(#mask-4)"></path>
                <path d="M26.9834749,9.01254008 C26.9834749,10.4395816 25.8784556,11.5954609 24.5162934,11.5954609 C23.1541313,11.5954609 22.049112,10.4395816 22.049112,9.01254008 C22.049112,7.58549858 23.1541313,6.42961925 24.5162934,6.42961925 C25.8784556,6.42961925 26.9834749,7.58549858 26.9834749,9.01254008" id="Fill-10" fill="#E6E6E6" mask="url(#mask-4)"></path>
                <g id="Group-6" mask="url(#mask-4)">
                    <g transform="translate(33.993050, 85.264718)" id="Group-4">
                        <g transform="translate(0.755985, 0.679929)">
                            <path d="M17.9876448,3.49839669 L1.5984556,3.49839669 C0.715830116,3.49839669 0,2.86419581 0,2.08153583 C0,1.29955999 0.715830116,0.665359111 1.5984556,0.665359111 L17.9876448,0.665359111 C18.8710425,0.665359111 19.5861004,1.29955999 19.5861004,2.08153583 C19.5861004,2.86419581 18.8710425,3.49839669 17.9876448,3.49839669" id="Fill-22" fill="#F2F2F2"></path>
                            <path d="M33.976834,9.16447184 L1.5992278,9.16447184 C0.715830116,9.16447184 0,8.53027096 0,7.74829512 C0,6.96563514 0.715830116,6.33143426 1.5992278,6.33143426 L33.976834,6.33143426 C34.8602317,6.33143426 35.5752896,6.96563514 35.5752896,7.74829512 C35.5752896,8.53027096 34.8602317,9.16447184 33.976834,9.16447184" id="Fill-23" fill="#F2F2F2"></path>
                            <path d="M41.153668,3.49839669 L24.765251,3.49839669 C23.8818533,3.49839669 23.1660232,2.86419581 23.1660232,2.08153583 C23.1660232,1.29955999 23.8818533,0.665359111 24.765251,0.665359111 L41.153668,0.665359111 C42.0370656,0.665359111 42.7528958,1.29955999 42.7528958,2.08153583 C42.7528958,2.86419581 42.0370656,3.49839669 41.153668,3.49839669" id="Fill-24" fill="#F2F2F2"></path>
                            <path d="M58.1420849,3.49839669 L41.753668,3.49839669 C40.8702703,3.49839669 40.1544402,2.86419581 40.1544402,2.08153583 C40.1544402,1.29955999 40.8702703,0.665359111 41.753668,0.665359111 L58.1420849,0.665359111 C59.0254826,0.665359111 59.7413127,1.29955999 59.7413127,2.08153583 C59.7413127,2.86419581 59.0254826,3.49839669 58.1420849,3.49839669" id="Fill-24-Copy" fill="#F2F2F2"></path>
                        </g>
                    </g>
                </g>
                <g id="Group-6" mask="url(#mask-4)">
                    <g transform="translate(6.966023, 48.030510)">
                        <polygon id="Fill-18" fill="#CCCFF1" points="0 21.9277108 105.019305 21.9277108 105.019305 5.89519751e-14 0 5.89519751e-14"></polygon>
                        <g id="Group-4" stroke-width="1" fill="none" transform="translate(6.161390, 1.489368)">
                            <g id="Group-5">
                                <path d="M16.2162162,9.30820515 C16.2162162,14.002299 12.5859176,17.8076648 8.10777718,17.8076648 C3.62963674,17.8076648 0,14.002299 0,9.30820515 C0,4.6141113 3.62963674,0.809439308 8.10777718,0.809439308 C12.5859176,0.809439308 16.2162162,4.6141113 16.2162162,9.30820515" id="Fill-19" fill="#FFFFFF"></path>
                                <g id="Group-39" transform="translate(0.126100, 0.631605)">
                                    <g id="Group-35" transform="translate(0.000000, 0.144080)">
                                        <mask id="mask-6" fill="white">
                                            <use xlink:href="#path-5"></use>
                                        </mask>
                                        <g id="Clip-34"></g>
                                        <path d="M11.2935568,10.1402322 C11.2721514,10.1642041 11.2513946,10.1888609 11.2286919,10.2121478 C10.4172324,11.0751346 9.3288,11.5511472 8.16382703,11.5511472 C6.99885405,11.5511472 5.91042162,11.0751346 5.09896216,10.2121478 C5.07625946,10.1888609 5.0555027,10.1642041 5.0340973,10.1402322 C2.8980973,11.0251362 1.40490811,12.9839793 1.40490811,15.2441829 L1.40490811,16.700302 C1.40490811,17.1105632 1.77139459,17.4427446 2.22415135,17.4427446 L14.1041514,17.4427446 C14.5562595,17.4427446 14.9227459,17.1105632 14.9227459,16.700302 L14.9227459,15.2441829 C14.9227459,12.9839793 13.4289081,11.0251362 11.2935568,10.1402322" id="Fill-33" fill="#6F6AD8" mask="url(#mask-6)"></path>
                                    </g>
                                    <g id="Group-38" transform="translate(0.000000, 0.144080)">
                                        <mask id="mask-8" fill="white">
                                            <use xlink:href="#path-7"></use>
                                        </mask>
                                        <g id="Clip-37"></g>
                                        <path d="M8.16402162,10.9143862 C9.10456216,10.9143862 9.96012973,10.5280969 10.5990486,9.8972946 C11.3028324,9.20211077 11.7445622,8.20967591 11.7445622,7.10697052 C11.7445622,5.00429625 10.1411027,3.29955481 8.16402162,3.29955481 C6.18629189,3.29955481 4.58348108,5.00429625 4.58348108,7.10697052 C4.58348108,8.20967591 5.02456216,9.20211077 5.72899459,9.8972946 C6.36726486,10.5280969 7.22348108,10.9143862 8.16402162,10.9143862" id="Fill-36" fill="#6F6AD8" mask="url(#mask-8)"></path>
                                    </g>
                                </g>
                            </g>
                            <path d="M57.8694981,5.1172753 L36.5436293,5.1172753 C35.5521236,5.1172753 34.7490347,4.56592138 34.7490347,3.88586525 L34.7490347,3.51564778 C34.7490347,2.83559165 35.5521236,2.28423773 36.5436293,2.28423773 L57.8694981,2.28423773 C58.8610039,2.28423773 59.6648649,2.83559165 59.6648649,3.51564778 L59.6648649,3.88586525 C59.6648649,4.56592138 58.8610039,5.1172753 57.8694981,5.1172753" id="Fill-20" fill="#B5B6C0"></path>
                            <g id="Group" transform="translate(21.621622, 2.284238)" fill="#B5B6C0">
                                <path d="M4.06409266,2.83303758 L2.06563707,2.83303758 C0.925096525,2.83303758 -4.66379402e-14,2.19906001 -4.66379402e-14,1.41678361 C-4.66379402e-14,0.634507201 0.925096525,0 2.06563707,0 L4.06409266,0 C5.2046332,0 6.12895753,0.634507201 6.12895753,1.41678361 C6.12895753,2.19906001 5.2046332,2.83303758 4.06409266,2.83303758" id="Fill-21"></path>
                                <path d="M6.38069498,2.83303758 L4.38223938,2.83303758 C3.24169884,2.83303758 2.31660232,2.19906001 2.31660232,1.41678361 C2.31660232,0.634507201 3.24169884,0 4.38223938,0 L6.38069498,0 C7.52123552,0 8.44555985,0.634507201 8.44555985,1.41678361 C8.44555985,2.19906001 7.52123552,2.83303758 6.38069498,2.83303758" id="Fill-21-Copy"></path>
                            </g>
                            <path d="M39.6092664,10.7833505 L23.2200772,10.7833505 C22.3374517,10.7833505 21.6216216,10.1491496 21.6216216,9.3664896 C21.6216216,8.58451376 22.3374517,7.95031288 23.2200772,7.95031288 L39.6092664,7.95031288 C40.4926641,7.95031288 41.207722,8.58451376 41.207722,9.3664896 C41.207722,10.1491496 40.4926641,10.7833505 39.6092664,10.7833505" id="Fill-22" fill="#F2F2F2"></path>
                            <path d="M55.5984556,16.4494256 L23.2208494,16.4494256 C22.3374517,16.4494256 21.6216216,15.8152247 21.6216216,15.0332489 C21.6216216,14.2505889 22.3374517,13.616388 23.2208494,13.616388 L55.5984556,13.616388 C56.4818533,13.616388 57.1969112,14.2505889 57.1969112,15.0332489 C57.1969112,15.8152247 56.4818533,16.4494256 55.5984556,16.4494256" id="Fill-23" fill="#F2F2F2"></path>
                            <path d="M62.7752896,10.7833505 L46.3868726,10.7833505 C45.5034749,10.7833505 44.7876448,10.1491496 44.7876448,9.3664896 C44.7876448,8.58451376 45.5034749,7.95031288 46.3868726,7.95031288 L62.7752896,7.95031288 C63.6586873,7.95031288 64.3745174,8.58451376 64.3745174,9.3664896 C64.3745174,10.1491496 63.6586873,10.7833505 62.7752896,10.7833505" id="Fill-24" fill="#F2F2F2"></path>
                            <path d="M79.7637066,10.7833505 L63.3752896,10.7833505 C62.4918919,10.7833505 61.7760618,10.1491496 61.7760618,9.3664896 C61.7760618,8.58451376 62.4918919,7.95031288 63.3752896,7.95031288 L79.7637066,7.95031288 C80.6471042,7.95031288 81.3629344,8.58451376 81.3629344,9.3664896 C81.3629344,10.1491496 80.6471042,10.7833505 79.7637066,10.7833505" id="Fill-24-Copy" fill="#F2F2F2"></path>
                        </g>
                    </g>
                </g>
                <g id="Group-6" mask="url(#mask-4)">
                    <g transform="translate(6.966023, 73.123128)">
                        <polygon id="Fill-18" fill="#CCCFF1" points="0 21.9277108 105.019305 21.9277108 105.019305 5.89519751e-14 0 5.89519751e-14"></polygon>
                        <g id="Group-4" stroke-width="1" fill="none" transform="translate(6.161390, 1.489368)">
                            <g id="Group-5">
                                <path d="M16.2162162,9.30820515 C16.2162162,14.002299 12.5859176,17.8076648 8.10777718,17.8076648 C3.62963674,17.8076648 0,14.002299 0,9.30820515 C0,4.6141113 3.62963674,0.809439308 8.10777718,0.809439308 C12.5859176,0.809439308 16.2162162,4.6141113 16.2162162,9.30820515" id="Fill-19" fill="#FFFFFF"></path>
                                <g id="Group-39" transform="translate(0.126100, 0.631605)">
                                    <g id="Group-35" transform="translate(0.000000, 0.144080)">
                                        <mask id="mask-10" fill="white">
                                            <use xlink:href="#path-9"></use>
                                        </mask>
                                        <g id="Clip-34"></g>
                                        <path d="M11.2935568,10.1402322 C11.2721514,10.1642041 11.2513946,10.1888609 11.2286919,10.2121478 C10.4172324,11.0751346 9.3288,11.5511472 8.16382703,11.5511472 C6.99885405,11.5511472 5.91042162,11.0751346 5.09896216,10.2121478 C5.07625946,10.1888609 5.0555027,10.1642041 5.0340973,10.1402322 C2.8980973,11.0251362 1.40490811,12.9839793 1.40490811,15.2441829 L1.40490811,16.700302 C1.40490811,17.1105632 1.77139459,17.4427446 2.22415135,17.4427446 L14.1041514,17.4427446 C14.5562595,17.4427446 14.9227459,17.1105632 14.9227459,16.700302 L14.9227459,15.2441829 C14.9227459,12.9839793 13.4289081,11.0251362 11.2935568,10.1402322" id="Fill-33" fill="#6F6AD8" mask="url(#mask-10)"></path>
                                    </g>
                                    <g id="Group-38" transform="translate(0.000000, 0.144080)">
                                        <mask id="mask-12" fill="white">
                                            <use xlink:href="#path-11"></use>
                                        </mask>
                                        <g id="Clip-37"></g>
                                        <path d="M8.16402162,10.9143862 C9.10456216,10.9143862 9.96012973,10.5280969 10.5990486,9.8972946 C11.3028324,9.20211077 11.7445622,8.20967591 11.7445622,7.10697052 C11.7445622,5.00429625 10.1411027,3.29955481 8.16402162,3.29955481 C6.18629189,3.29955481 4.58348108,5.00429625 4.58348108,7.10697052 C4.58348108,8.20967591 5.02456216,9.20211077 5.72899459,9.8972946 C6.36726486,10.5280969 7.22348108,10.9143862 8.16402162,10.9143862" id="Fill-36" fill="#6F6AD8" mask="url(#mask-12)"></path>
                                    </g>
                                </g>
                            </g>
                            <path d="M44.7420849,5.1172753 L23.4162162,5.1172753 C22.4247104,5.1172753 21.6216216,4.56592138 21.6216216,3.88586525 L21.6216216,3.51564778 C21.6216216,2.83559165 22.4247104,2.28423773 23.4162162,2.28423773 L44.7420849,2.28423773 C45.7335907,2.28423773 46.5374517,2.83559165 46.5374517,3.51564778 L46.5374517,3.88586525 C46.5374517,4.56592138 45.7335907,5.1172753 44.7420849,5.1172753" id="Fill-20" fill="#B5B6C0"></path>
                            <g id="Group" transform="translate(49.420849, 2.284238)" fill="#B5B6C0">
                                <path d="M4.06409266,2.83303758 L2.06563707,2.83303758 C0.925096525,2.83303758 -4.66379402e-14,2.19906001 -4.66379402e-14,1.41678361 C-4.66379402e-14,0.634507201 0.925096525,0 2.06563707,0 L4.06409266,0 C5.2046332,0 6.12895753,0.634507201 6.12895753,1.41678361 C6.12895753,2.19906001 5.2046332,2.83303758 4.06409266,2.83303758" id="Fill-21"></path>
                                <path d="M6.38069498,2.83303758 L4.38223938,2.83303758 C3.24169884,2.83303758 2.31660232,2.19906001 2.31660232,1.41678361 C2.31660232,0.634507201 3.24169884,0 4.38223938,0 L6.38069498,0 C7.52123552,0 8.44555985,0.634507201 8.44555985,1.41678361 C8.44555985,2.19906001 7.52123552,2.83303758 6.38069498,2.83303758" id="Fill-21-Copy"></path>
                            </g>
                            <path d="M39.6092664,10.7833505 L23.2200772,10.7833505 C22.3374517,10.7833505 21.6216216,10.1491496 21.6216216,9.3664896 C21.6216216,8.58451376 22.3374517,7.95031288 23.2200772,7.95031288 L39.6092664,7.95031288 C40.4926641,7.95031288 41.207722,8.58451376 41.207722,9.3664896 C41.207722,10.1491496 40.4926641,10.7833505 39.6092664,10.7833505" id="Fill-22" fill="#F2F2F2"></path>
                            <path d="M55.5984556,16.4494256 L23.2208494,16.4494256 C22.3374517,16.4494256 21.6216216,15.8152247 21.6216216,15.0332489 C21.6216216,14.2505889 22.3374517,13.616388 23.2208494,13.616388 L55.5984556,13.616388 C56.4818533,13.616388 57.1969112,14.2505889 57.1969112,15.0332489 C57.1969112,15.8152247 56.4818533,16.4494256 55.5984556,16.4494256" id="Fill-23" fill="#F2F2F2"></path>
                            <path d="M62.7752896,10.7833505 L46.3868726,10.7833505 C45.5034749,10.7833505 44.7876448,10.1491496 44.7876448,9.3664896 C44.7876448,8.58451376 45.5034749,7.95031288 46.3868726,7.95031288 L62.7752896,7.95031288 C63.6586873,7.95031288 64.3745174,8.58451376 64.3745174,9.3664896 C64.3745174,10.1491496 63.6586873,10.7833505 62.7752896,10.7833505" id="Fill-24" fill="#F2F2F2"></path>
                            <path d="M79.7637066,10.7833505 L63.3752896,10.7833505 C62.4918919,10.7833505 61.7760618,10.1491496 61.7760618,9.3664896 C61.7760618,8.58451376 62.4918919,7.95031288 63.3752896,7.95031288 L79.7637066,7.95031288 C80.6471042,7.95031288 81.3629344,8.58451376 81.3629344,9.3664896 C81.3629344,10.1491496 80.6471042,10.7833505 79.7637066,10.7833505" id="Fill-24-Copy" fill="#F2F2F2"></path>
                        </g>
                    </g>
                </g>
            </g>
        </g>
    </g>
</svg>