<?xml version="1.0" encoding="UTF-8"?>
<svg width="auto" height="auto" viewBox="0 0 29 31" version="1.1" xmlns="http://www.w3.org/2000/svg" xmlns:xlink="http://www.w3.org/1999/xlink">
    <!-- Generator: Sketch 63.1 (92452) - https://sketch.com -->
    <title>Icon/LNB/mail</title>
    <desc>Created with Sketch.</desc>
    <g id="Icon/LNB/mail" stroke="none" stroke-width="1" fill="none" fill-rule="evenodd">
        <path d="M23.0125663,10.2556213 L23.7409624,10.2562056 C26.0137671,10.2562056 27.8868471,12.0938644 27.9950621,14.3802903 L28,14.5893448 L28,26.6668608 C28,28.9801883 26.1937672,30.8849359 23.9464418,30.9949788 L23.7409624,31 L4.25903764,31 C1.98527069,31 0.11309634,29.1632914 0.0049353637,26.8759992 L0,26.6668608 L0,14.5893448 C0,12.2769963 1.80529885,10.3713273 4.05347578,10.2612294 L4.25903764,10.2562056 L4.97881837,10.255878 C4.77618408,10.9728643 4.65417284,11.7243726 4.62344788,12.4996204 L4.61574195,12.8891727 L4.6152141,14.8630911 L4.45394611,14.7580911 C4.31454057,14.6668475 4.16086831,14.616093 4.00632964,14.6029774 L3.89047258,14.6001535 C3.5822039,14.6112049 3.28386993,14.7699621 3.10267323,15.0536241 C2.83179331,15.4791172 2.92161732,16.0361041 3.29416926,16.3541014 L3.39315229,16.4284073 L13.8077683,23.2831592 C13.9693659,23.3890669 14.1537655,23.4425251 14.3381652,23.4425251 L14.4517871,23.4357551 C14.565187,23.4222231 14.6772306,23.3884295 14.7817079,23.334592 L14.8834331,23.2740814 L24.6219169,16.6250931 C25.0690366,16.3194737 25.1880041,15.7011743 24.8886025,15.2452667 C24.6104015,14.82536 24.0728654,14.6882081 23.6378027,14.9107638 L23.5313812,14.9739412 L23.3833336,15.0738979 L23.3838615,12.8891727 C23.3838615,12.8518528 23.3808873,12.8155416 23.3759303,12.7792304 C23.3659472,11.9050679 23.2398269,11.0587758 23.0125663,10.2556213 Z M13.9523625,0 C14.806687,0 15.5323935,0.503952996 15.7999074,1.19824891 L15.8446164,1.33058341 L15.8502369,1.3152991 C16.159623,0.423714818 17.1834178,-0.0949514457 18.1736919,0.116006038 L18.3148508,0.151144765 L18.4525544,0.190204648 C19.437046,0.471458963 20.0084266,1.39951715 19.7764369,2.29641678 L19.7377883,2.42426013 L18.8284312,5.04322532 C17.4145063,4.17687343 15.7111681,3.67052514 13.8797636,3.67052514 C12.0475699,3.67052514 10.3434713,4.17550581 8.92870304,5.04020845 L8.02173892,2.42426013 C7.71145867,1.53186531 8.22398604,0.576028011 9.16824687,0.234710656 L9.30603601,0.190204648 L9.4446764,0.151144765 C10.4291679,-0.130109551 11.4836493,0.335245867 11.8593764,1.19050529 L11.9139741,1.33058341 C12.1238082,0.613719671 12.8116035,0.0675982194 13.6477854,0.00582913421 L13.806228,0 L13.9523625,0 Z" id="Combined-Shape" fill="#C4C6F9"></path>
        <path d="M14,5 C18.3241256,5 21.8564009,8.37380845 21.988155,12.5708742 L21.9940992,12.8657092 L22,12.9160376 L22,16.1449089 L14.3756434,21 L6,15.9750199 L6,12.8011416 C6,8.49892592 9.58769617,5 14,5 Z M16.2216196,14.3762966 L11.7781795,14.3762966 C11.4907219,14.3762966 11.2504507,14.5831093 11.2052711,14.8514091 L11.1976397,14.9429203 L11.1976397,15.274842 C11.1976397,15.5550114 11.4091651,15.789841 11.6843109,15.8340053 L11.7781795,15.8414657 L16.2216196,15.8414657 C16.5081733,15.8414657 16.748354,15.6346529 16.7935247,15.3663532 L16.8011551,15.274842 L16.8011551,14.9429203 C16.8011551,14.6627509 16.5896296,14.4279212 16.3152161,14.383757 L16.2216196,14.3762966 Z M17.7076208,10.515301 L10.2921783,10.515301 C10.0056246,10.515301 9.76544382,10.7221138 9.7202732,10.9911294 L9.71264281,11.0829068 L9.71264281,11.4148285 C9.71264281,11.6949979 9.92416824,11.9298275 10.1985818,11.9739918 L10.2921783,11.9814522 L17.7076208,11.9814522 C17.9941745,11.9814522 18.2343553,11.7746394 18.2795259,11.5063397 L18.2871563,11.4148285 L18.2871563,11.0829068 C18.2871563,10.8018536 18.0756309,10.5669355 17.8012173,10.5227624 L17.7076208,10.515301 Z" id="Shape" fill="#FFFFFF"></path>
    </g>
</svg>