<?xml version="1.0" encoding="UTF-8"?>
<svg width="222px" height="119px" viewBox="0 0 222 119" version="1.1" xmlns="http://www.w3.org/2000/svg" xmlns:xlink="http://www.w3.org/1999/xlink" style="background: #9B9B9B;">
    <!-- Generator: Sketch 63.1 (92452) - https://sketch.com -->
    <title>illust/b2c/invitation</title>
    <desc>Created with Sketch.</desc>
    <g id="illust/b2c/invitation" stroke="none" stroke-width="1" fill="none" fill-rule="evenodd">
        <rect fill="#9B9B9B" x="0" y="0" width="222" height="119"></rect>
        <g id="Group-230">
            <g id="Group-229" transform="translate(0.000000, 0.869000)">
                <path d="M58.0044,53.896 C53.4674,57.86 52.9484,65.08 53.4864,70.683 C54.1934,78.053 57.8314,85.037 63.3494,89.958 C68.9674,94.966 76.2524,97.568 83.6794,98.216 C87.0324,98.508 91.5904,99.069 94.6864,97.423 C97.2564,96.057 97.9844,93.071 97.4864,90.361 C96.3564,84.201 88.2924,80.216 83.0194,84.292 C80.5804,86.176 80.4584,89.236 80.5104,92.073 C80.5814,95.837 81.3404,99.575 83.2584,102.849 C88.7884,112.288 100.0674,115.646 110.3984,115.897 C118.5734,116.095 133.8754,114.031 133.796705,103.173 C133.7914,102.426 132.6334,102.485 132.6394,103.23 C132.7034,112.112 120.4204,114.426 113.5784,114.717 C106.0174,115.038 97.8374,113.804 91.3914,109.631 C86.3434,106.366 82.7384,101.288 81.9084,95.274 C81.4964,92.286 80.9544,87.808 83.3674,85.532 C85.8854,83.158 90.2854,83.546 92.9764,85.376 C95.8724,87.346 97.9924,92.402 95.3854,95.447 C93.2704,97.918 88.4064,97.328 85.5024,97.187 C78.6884,96.858 71.8764,94.932 66.3244,90.872 C60.1744,86.373 55.8394,79.394 54.7854,71.822 C54.0044,66.212 54.2774,58.68 58.8634,54.674 C59.4244,54.184 58.5604,53.41 58.0044,53.896" id="Fill-5" fill="#C6CED6"></path>
                <path d="M123.2173,108.4682 C123.1083,110.1392 121.6653,111.4042 119.9943,111.2942 C118.3243,111.1842 117.0593,109.7412 117.1693,108.0722 C117.2793,106.4022 118.7223,105.1362 120.3923,105.2462 C122.0623,105.3562 123.3273,106.7982 123.2173,108.4682" id="Fill-7" fill="#FFFFFF"></path>
                <path d="M120.0586,105.6294 C119.4656,105.6574 118.9036,105.8854 118.4506,106.2814 C117.9196,106.7474 117.6006,107.3924 117.5556,108.0964 C117.5086,108.8014 117.7396,109.4824 118.2056,110.0134 C118.6706,110.5444 119.3156,110.8614 120.0196,110.9084 C121.4776,111.0024 122.7366,109.8984 122.8316,108.4434 C122.9276,106.9884 121.8216,105.7274 120.3666,105.6314 C120.2636,105.6244 120.1606,105.6234 120.0586,105.6294 M120.3636,111.6834 C120.2336,111.6894 120.1016,111.6884 119.9696,111.6794 C119.0586,111.6194 118.2256,111.2084 117.6246,110.5234 C117.0226,109.8364 116.7246,108.9564 116.7846,108.0464 C116.9076,106.1664 118.5426,104.7364 120.4166,104.8604 C122.2976,104.9844 123.7266,106.6144 123.6026,108.4934 C123.4886,110.2404 122.0716,111.5994 120.3636,111.6834" id="Fill-9" fill="#1A1A1A"></path>
                <path d="M120.0586,105.6294 C119.4656,105.6574 118.9036,105.8854 118.4506,106.2814 C117.9196,106.7474 117.6006,107.3924 117.5556,108.0964 C117.5086,108.8014 117.7396,109.4824 118.2056,110.0134 C118.6706,110.5444 119.3156,110.8614 120.0196,110.9084 C121.4776,111.0024 122.7366,109.8984 122.8316,108.4434 C122.9276,106.9884 121.8216,105.7274 120.3666,105.6314 C120.2636,105.6244 120.1606,105.6234 120.0586,105.6294 Z M120.3636,111.6834 C120.2336,111.6894 120.1016,111.6884 119.9696,111.6794 C119.0586,111.6194 118.2256,111.2084 117.6246,110.5234 C117.0226,109.8364 116.7246,108.9564 116.7846,108.0464 C116.9076,106.1664 118.5426,104.7364 120.4166,104.8604 C122.2976,104.9844 123.7266,106.6144 123.6026,108.4934 C123.4886,110.2404 122.0716,111.5994 120.3636,111.6834 Z" id="Stroke-11" stroke="#1A1A1A" stroke-width="0.25"></path>
                <path d="M122.6372,85.4292 L115.9142,74.1062 L112.6602,70.8962 L111.8392,71.3842 L111.1692,74.9292 L111.6332,77.7192 L113.7392,81.6772 L115.8912,87.5822 L113.8372,88.7122 L112.7402,89.7662 L104.1992,84.1602 C104.1992,84.1602 104.1282,80.2792 102.3732,80.3162 C100.6192,80.3532 100.5492,81.6152 100.0412,83.4122 C99.5332,85.2102 98.7542,87.5342 99.1772,88.0442 C99.5992,88.5532 109.6992,98.8562 109.6992,98.8562 C109.6992,98.8562 112.9772,103.5322 114.2512,104.4952 C115.5242,105.4602 120.9652,107.4242 123.8722,106.5122 C126.7792,105.6012 128.5002,103.8932 128.5002,103.8932 C128.5002,103.8932 129.5232,104.1402 130.0972,104.0292 C130.6722,103.9182 131.8402,103.7442 132.7442,102.6072 C133.6492,101.4682 135.2032,97.4762 135.0142,96.6182 C134.8252,95.7622 122.6372,85.4292 122.6372,85.4292" id="Fill-13" fill="#FFFFFF"></path>
                <path d="M128.0249,103.9467 C127.7119,103.8087 127.3949,103.6417 127.0759,103.4477 C124.5679,101.9137 122.4729,96.8717 121.7849,95.2157 L121.7329,95.0927 C121.4259,94.3547 120.7449,93.8807 120.0859,93.4227 C119.6379,93.1107 119.1749,92.7897 118.8319,92.3847 C118.3649,91.8367 118.3839,90.8957 118.8769,90.1497 C119.1829,89.6867 120.4209,88.2497 123.5159,89.2067 C127.6209,90.4767 129.4239,93.9197 129.4979,94.0647 C129.5949,94.2557 129.5209,94.4877 129.3299,94.5857 C129.1409,94.6817 128.9089,94.6077 128.8099,94.4177 C128.7939,94.3847 127.0749,91.1147 123.2879,89.9447 C121.5459,89.4057 120.1379,89.6417 119.5219,90.5757 C119.1899,91.0797 119.2099,91.6367 119.4209,91.8847 C119.6979,92.2127 120.1009,92.4917 120.5259,92.7887 C121.2419,93.2857 122.0529,93.8497 122.4469,94.7957 L122.4989,94.9187 C124.2809,99.2097 125.9569,101.8567 127.4789,102.7877 C128.7859,103.5877 130.0199,103.8457 131.0529,103.5407 C131.9299,103.2807 132.6279,102.6217 133.1259,101.5827 C134.4939,98.7237 134.8029,96.1497 133.9759,94.5207 C133.8789,94.3307 133.9549,94.0977 134.1449,94.0017 C134.3349,93.9047 134.5679,93.9797 134.6649,94.1717 C135.9479,96.6967 134.6879,100.1077 133.8219,101.9167 C133.2349,103.1437 132.3529,103.9617 131.2729,104.2817 C130.2899,104.5717 129.1819,104.4557 128.0249,103.9467" id="Fill-15" fill="#1A1A1A"></path>
                <path d="M128.0249,103.9467 C127.7119,103.8087 127.3949,103.6417 127.0759,103.4477 C124.5679,101.9137 122.4729,96.8717 121.7849,95.2157 L121.7329,95.0927 C121.4259,94.3547 120.7449,93.8807 120.0859,93.4227 C119.6379,93.1107 119.1749,92.7897 118.8319,92.3847 C118.3649,91.8367 118.3839,90.8957 118.8769,90.1497 C119.1829,89.6867 120.4209,88.2497 123.5159,89.2067 C127.6209,90.4767 129.4239,93.9197 129.4979,94.0647 C129.5949,94.2557 129.5209,94.4877 129.3299,94.5857 C129.1409,94.6817 128.9089,94.6077 128.8099,94.4177 C128.7939,94.3847 127.0749,91.1147 123.2879,89.9447 C121.5459,89.4057 120.1379,89.6417 119.5219,90.5757 C119.1899,91.0797 119.2099,91.6367 119.4209,91.8847 C119.6979,92.2127 120.1009,92.4917 120.5259,92.7887 C121.2419,93.2857 122.0529,93.8497 122.4469,94.7957 L122.4989,94.9187 C124.2809,99.2097 125.9569,101.8567 127.4789,102.7877 C128.7859,103.5877 130.0199,103.8457 131.0529,103.5407 C131.9299,103.2807 132.6279,102.6217 133.1259,101.5827 C134.4939,98.7237 134.8029,96.1497 133.9759,94.5207 C133.8789,94.3307 133.9549,94.0977 134.1449,94.0017 C134.3349,93.9047 134.5679,93.9797 134.6649,94.1717 C135.9479,96.6967 134.6879,100.1077 133.8219,101.9167 C133.2349,103.1437 132.3529,103.9617 131.2729,104.2817 C130.2899,104.5717 129.1819,104.4557 128.0249,103.9467 Z" id="Stroke-17" stroke="#1A1A1A" stroke-width="0.25"></path>
                <path d="M115.4766,105.6753 C112.3186,104.2873 107.1156,96.9013 106.6936,96.2963 C106.2496,95.8533 99.9686,89.5773 99.1146,88.7113 C98.2476,87.8323 98.8196,86.1033 99.3726,84.4313 C99.5116,84.0113 99.6426,83.6133 99.7476,83.2403 L99.7756,83.1403 C100.2786,81.3473 100.7546,79.6543 102.6676,79.8073 C104.4066,79.9443 104.6566,83.0703 104.6916,83.9823 L112.6666,89.2163 C112.9906,88.8033 113.6906,88.0963 115.0576,87.4023 C117.0546,86.3863 120.2476,85.6363 120.3826,85.6053 C120.5916,85.5563 120.7986,85.6863 120.8466,85.8943 C120.8946,86.1023 120.7656,86.3093 120.5576,86.3583 C120.5256,86.3643 117.3206,87.1173 115.4076,88.0903 C113.5996,89.0103 113.1226,89.9103 113.1186,89.9203 L112.9216,90.3033 L112.5596,90.0713 L103.9276,84.4043 L103.9246,84.1983 C103.9106,83.0513 103.5696,80.6553 102.6066,80.5773 C101.3836,80.4803 101.0496,81.4603 100.5196,83.3493 L100.4906,83.4503 C100.3816,83.8393 100.2476,84.2443 100.1056,84.6733 C99.6706,85.9883 99.1306,87.6263 99.6646,88.1683 C100.5436,89.0613 107.1976,95.7063 107.2646,95.7743 L107.3086,95.8263 C107.3626,95.9043 112.7626,103.6373 115.7866,104.9673 C115.7906,104.9693 115.7946,104.9713 115.7976,104.9723 C118.8186,106.2873 125.7956,107.6623 128.0826,103.5223 C128.1866,103.3353 128.4256,103.2673 128.6086,103.3703 C128.7956,103.4743 128.8626,103.7083 128.7596,103.8963 C126.2156,108.5013 118.7206,107.0873 115.4896,105.6813 C115.4856,105.6793 115.4806,105.6773 115.4766,105.6753" id="Fill-19" fill="#1A1A1A"></path>
                <path d="M115.4766,105.6753 C112.3186,104.2873 107.1156,96.9013 106.6936,96.2963 C106.2496,95.8533 99.9686,89.5773 99.1146,88.7113 C98.2476,87.8323 98.8196,86.1033 99.3726,84.4313 C99.5116,84.0113 99.6426,83.6133 99.7476,83.2403 L99.7756,83.1403 C100.2786,81.3473 100.7546,79.6543 102.6676,79.8073 C104.4066,79.9443 104.6566,83.0703 104.6916,83.9823 L112.6666,89.2163 C112.9906,88.8033 113.6906,88.0963 115.0576,87.4023 C117.0546,86.3863 120.2476,85.6363 120.3826,85.6053 C120.5916,85.5563 120.7986,85.6863 120.8466,85.8943 C120.8946,86.1023 120.7656,86.3093 120.5576,86.3583 C120.5256,86.3643 117.3206,87.1173 115.4076,88.0903 C113.5996,89.0103 113.1226,89.9103 113.1186,89.9203 L112.9216,90.3033 L112.5596,90.0713 L103.9276,84.4043 L103.9246,84.1983 C103.9106,83.0513 103.5696,80.6553 102.6066,80.5773 C101.3836,80.4803 101.0496,81.4603 100.5196,83.3493 L100.4906,83.4503 C100.3816,83.8393 100.2476,84.2443 100.1056,84.6733 C99.6706,85.9883 99.1306,87.6263 99.6646,88.1683 C100.5436,89.0613 107.1976,95.7063 107.2646,95.7743 L107.3086,95.8263 C107.3626,95.9043 112.7626,103.6373 115.7866,104.9673 C115.7906,104.9693 115.7946,104.9713 115.7976,104.9723 C118.8186,106.2873 125.7956,107.6623 128.0826,103.5223 C128.1866,103.3353 128.4256,103.2673 128.6086,103.3703 C128.7956,103.4743 128.8626,103.7083 128.7596,103.8963 C126.2156,108.5013 118.7206,107.0873 115.4896,105.6813 C115.4856,105.6793 115.4806,105.6773 115.4766,105.6753 Z" id="Stroke-21" stroke="#1A1A1A" stroke-width="0.25"></path>
                <path d="M116.2886,94.4438 C116.2886,94.4438 112.8596,91.6908 109.4186,93.9118 C105.9776,96.1318 103.9856,100.8588 103.9856,100.8588 C103.9856,100.8588 101.8706,99.9718 100.9236,102.0688 C99.9766,104.1648 102.0226,106.0248 105.0956,107.1408 C108.1676,108.2568 109.1306,106.4308 109.5676,105.7698 C110.0036,105.1088 112.7946,101.6638 113.9476,101.5858" id="Fill-23" fill="#FFFFFF"></path>
                <path d="M104.0747,107.1489 C102.2507,106.3459 101.0057,105.3089 100.5277,104.1759 C100.2137,103.4319 100.2287,102.6689 100.5717,101.9099 C101.3347,100.2189 102.8407,100.1359 103.7757,100.3809 C104.3007,99.2529 106.1987,95.5299 109.2087,93.5869 C112.8417,91.2429 116.4947,94.1129 116.5307,94.1419 C116.6977,94.2759 116.7237,94.5179 116.5907,94.6849 C116.4577,94.8519 116.2137,94.8789 116.0477,94.7459 C115.9157,94.6409 112.7877,92.1979 109.6287,94.2369 C106.3307,96.3649 104.3607,100.9619 104.3417,101.0089 L104.1917,101.3639 L103.8357,101.2139 C103.6557,101.1409 102.0397,100.5359 101.2757,102.2269 C101.0217,102.7909 101.0097,103.3309 101.2407,103.8769 C101.6997,104.9659 103.1507,106.0239 105.2277,106.7779 C107.8467,107.7299 108.7067,106.3929 109.1687,105.6749 L109.2447,105.5569 C109.2727,105.5149 112.3877,101.3029 113.9217,101.2009 C114.1337,101.1859 114.3187,101.3469 114.3327,101.5599 C114.3467,101.7729 114.1857,101.9579 113.9727,101.9709 C113.1127,102.0289 110.4947,105.0669 109.8897,105.9829 L109.8187,106.0929 C109.3237,106.8639 108.1637,108.6679 104.9637,107.5039 C104.6537,107.3919 104.3577,107.2729 104.0747,107.1489" id="Fill-25" fill="#1A1A1A"></path>
                <path d="M104.0747,107.1489 C102.2507,106.3459 101.0057,105.3089 100.5277,104.1759 C100.2137,103.4319 100.2287,102.6689 100.5717,101.9099 C101.3347,100.2189 102.8407,100.1359 103.7757,100.3809 C104.3007,99.2529 106.1987,95.5299 109.2087,93.5869 C112.8417,91.2429 116.4947,94.1129 116.5307,94.1419 C116.6977,94.2759 116.7237,94.5179 116.5907,94.6849 C116.4577,94.8519 116.2137,94.8789 116.0477,94.7459 C115.9157,94.6409 112.7877,92.1979 109.6287,94.2369 C106.3307,96.3649 104.3607,100.9619 104.3417,101.0089 L104.1917,101.3639 L103.8357,101.2139 C103.6557,101.1409 102.0397,100.5359 101.2757,102.2269 C101.0217,102.7909 101.0097,103.3309 101.2407,103.8769 C101.6997,104.9659 103.1507,106.0239 105.2277,106.7779 C107.8467,107.7299 108.7067,106.3929 109.1687,105.6749 L109.2447,105.5569 C109.2727,105.5149 112.3877,101.3029 113.9217,101.2009 C114.1337,101.1859 114.3187,101.3469 114.3327,101.5599 C114.3467,101.7729 114.1857,101.9579 113.9727,101.9709 C113.1127,102.0289 110.4947,105.0669 109.8897,105.9829 L109.8187,106.0929 C109.3237,106.8639 108.1637,108.6679 104.9637,107.5039 C104.6537,107.3919 104.3577,107.2729 104.0747,107.1489 Z" id="Stroke-27" stroke="#1A1A1A" stroke-width="0.25"></path>
                <path d="M115.6147,87.5688 C115.5177,87.5268 115.4387,87.4448 115.4037,87.3378 C115.3787,87.2638 112.9617,80.0048 111.6267,78.3028 C110.1067,76.3668 110.7197,73.1048 111.3227,71.4828 C111.3997,71.2748 111.6347,70.6418 112.2207,70.5328 C113.1217,70.3638 114.1217,71.4908 116.1157,73.7368 C118.5637,76.4948 122.6797,85.6648 122.8537,86.0528 C122.9417,86.2488 122.8537,86.4768 122.6587,86.5638 C122.4647,86.6508 122.2357,86.5638 122.1487,86.3688 C122.1067,86.2748 117.9077,76.9188 115.5387,74.2508 C114.1487,72.6838 112.8347,71.2028 112.3637,71.2928 C112.2637,71.3108 112.1487,71.4778 112.0467,71.7518 C111.5387,73.1218 110.9237,76.1548 112.2347,77.8258 C113.6527,79.6318 116.0357,86.7898 116.1367,87.0938 C116.2037,87.2968 116.0947,87.5148 115.8917,87.5828 C115.7977,87.6138 115.6987,87.6068 115.6147,87.5688" id="Fill-29" fill="#1A1A1A"></path>
                <path d="M115.6147,87.5688 C115.5177,87.5268 115.4387,87.4448 115.4037,87.3378 C115.3787,87.2638 112.9617,80.0048 111.6267,78.3028 C110.1067,76.3668 110.7197,73.1048 111.3227,71.4828 C111.3997,71.2748 111.6347,70.6418 112.2207,70.5328 C113.1217,70.3638 114.1217,71.4908 116.1157,73.7368 C118.5637,76.4948 122.6797,85.6648 122.8537,86.0528 C122.9417,86.2488 122.8537,86.4768 122.6587,86.5638 C122.4647,86.6508 122.2357,86.5638 122.1487,86.3688 C122.1067,86.2748 117.9077,76.9188 115.5387,74.2508 C114.1487,72.6838 112.8347,71.2028 112.3637,71.2928 C112.2637,71.3108 112.1487,71.4778 112.0467,71.7518 C111.5387,73.1218 110.9237,76.1548 112.2347,77.8258 C113.6527,79.6318 116.0357,86.7898 116.1367,87.0938 C116.2037,87.2968 116.0947,87.5148 115.8917,87.5828 C115.7977,87.6138 115.6987,87.6068 115.6147,87.5688 Z" id="Stroke-31" stroke="#1A1A1A" stroke-width="0.25"></path>
                <path d="M75.8447,6.6382 C87.9287,16.1092 90.0467,33.5832 80.5757,45.6662 C71.1057,57.7492 53.6337,59.8672 41.5497,50.3962 C29.4677,40.9272 27.3487,23.4532 36.8197,11.3702 C46.2907,-0.7118 63.7627,-2.8308 75.8447,6.6382" id="Fill-33" fill="#BCBEFF"></path>
                <path d="M57.063,34.7632 C57.359,36.1272 57.783,37.4062 58.192,38.6422 C59.104,41.3932 59.891,43.7692 58.821,45.8242 C56.618,50.0562 54.851,52.4022 53.795,53.8032 C53.357,54.3862 53.003,55.1392 53.176,55.1702 C62.39,56.8342 69.892,54.9642 76.106,49.4542 C84.687,41.8522 87.866,30.9082 84.609,20.1792 C83.691,17.1492 80.808,12.4712 79.305,10.7042 C79.137,10.5072 78.989,10.4172 78.865,10.4372 C78.305,10.5332 77.586,12.2992 76.894,14.0112 C75.4,17.7082 73.355,22.7722 69.28,22.1612 C68.084,21.9832 67.008,22.6762 66.776,23.7722 L66.305,27.0222 C64.277,28.2122 61.789,31.6832 61.789,31.6832 C61.026,31.8792 58.665,32.2682 58.665,32.2682 C57.536,32.5142 56.816,33.6342 57.063,34.7632" id="Fill-35" fill="#FFFFFF"></path>
                <path d="M56.2617,33.542 C56.1367,33.998 56.1247,34.483 56.2257,34.946 C56.5317,36.351 56.9607,37.648 57.3767,38.903 C58.1287,41.172 58.7747,43.124 58.3387,44.721 C58.2707,44.969 58.1797,45.201 58.0617,45.428 C55.8897,49.601 54.1507,51.909 53.1117,53.288 C52.8077,53.692 52.4467,54.298 52.3247,54.744 C52.2357,55.074 52.2667,55.364 52.4187,55.606 C52.5537,55.819 52.7737,55.968 53.0217,56.013 C62.5137,57.728 70.2507,55.792 76.6747,50.096 C81.1287,46.15 84.2627,41.207 85.7397,35.802 C87.1367,30.689 87.0287,25.201 85.4287,19.93 C84.4657,16.751 81.5447,12.014 79.9577,10.149 C79.4907,9.601 79.0327,9.543 78.7297,9.592 C77.7787,9.753 77.2257,10.904 76.0997,13.69 C74.7117,17.126 72.8127,21.825 69.4077,21.314 C67.8197,21.078 66.3777,21.968 65.9787,23.43 C65.9637,23.484 65.9497,23.539 65.9387,23.595 L65.9327,23.622 L65.9287,23.649 L65.5137,26.511 C63.7647,27.703 61.8887,30.115 61.2867,30.921 C60.5287,31.084 59.0877,31.331 58.5257,31.423 L58.5037,31.427 L58.4827,31.432 C57.4047,31.667 56.5537,32.475 56.2617,33.542 M57.0877,33.768 C57.2877,33.038 57.8757,32.44 58.6647,32.269 C58.6647,32.269 61.0267,31.879 61.7887,31.684 C61.7887,31.684 64.2767,28.212 66.3047,27.022 L66.7767,23.772 C66.7847,23.733 66.7947,23.694 66.8047,23.656 C67.0857,22.628 68.1267,21.99 69.2807,22.162 C73.3557,22.772 75.3997,17.708 76.8937,14.011 C77.5867,12.299 78.3047,10.533 78.8657,10.438 C78.9897,10.418 79.1367,10.507 79.3047,10.705 C80.8077,12.471 83.6907,17.15 84.6097,20.179 C86.1937,25.397 86.2547,30.665 84.9127,35.576 C83.4967,40.762 80.5137,45.55 76.1067,49.455 C69.8927,54.964 62.3897,56.834 53.1757,55.17 C53.1237,55.162 53.1197,55.085 53.1517,54.969 C53.2247,54.7 53.4897,54.21 53.7957,53.803 C54.8507,52.402 56.6177,50.057 58.8217,45.824 C58.9697,45.538 59.0827,45.246 59.1647,44.947 C59.6687,43.101 58.9767,41.01 58.1927,38.643 C57.7827,37.406 57.3587,36.127 57.0627,34.763 C56.9887,34.422 57.0017,34.083 57.0877,33.768" id="Fill-37" fill="#1A1A1A"></path>
                <path d="M56.2617,33.542 C56.1367,33.998 56.1247,34.483 56.2257,34.946 C56.5317,36.351 56.9607,37.648 57.3767,38.903 C58.1287,41.172 58.7747,43.124 58.3387,44.721 C58.2707,44.969 58.1797,45.201 58.0617,45.428 C55.8897,49.601 54.1507,51.909 53.1117,53.288 C52.8077,53.692 52.4467,54.298 52.3247,54.744 C52.2357,55.074 52.2667,55.364 52.4187,55.606 C52.5537,55.819 52.7737,55.968 53.0217,56.013 C62.5137,57.728 70.2507,55.792 76.6747,50.096 C81.1287,46.15 84.2627,41.207 85.7397,35.802 C87.1367,30.689 87.0287,25.201 85.4287,19.93 C84.4657,16.751 81.5447,12.014 79.9577,10.149 C79.4907,9.601 79.0327,9.543 78.7297,9.592 C77.7787,9.753 77.2257,10.904 76.0997,13.69 C74.7117,17.126 72.8127,21.825 69.4077,21.314 C67.8197,21.078 66.3777,21.968 65.9787,23.43 C65.9637,23.484 65.9497,23.539 65.9387,23.595 L65.9327,23.622 L65.9287,23.649 L65.5137,26.511 C63.7647,27.703 61.8887,30.115 61.2867,30.921 C60.5287,31.084 59.0877,31.331 58.5257,31.423 L58.5037,31.427 L58.4827,31.432 C57.4047,31.667 56.5537,32.475 56.2617,33.542 Z M57.0877,33.768 C57.2877,33.038 57.8757,32.44 58.6647,32.269 C58.6647,32.269 61.0267,31.879 61.7887,31.684 C61.7887,31.684 64.2767,28.212 66.3047,27.022 L66.7767,23.772 C66.7847,23.733 66.7947,23.694 66.8047,23.656 C67.0857,22.628 68.1267,21.99 69.2807,22.162 C73.3557,22.772 75.3997,17.708 76.8937,14.011 C77.5867,12.299 78.3047,10.533 78.8657,10.438 C78.9897,10.418 79.1367,10.507 79.3047,10.705 C80.8077,12.471 83.6907,17.15 84.6097,20.179 C86.1937,25.397 86.2547,30.665 84.9127,35.576 C83.4967,40.762 80.5137,45.55 76.1067,49.455 C69.8927,54.964 62.3897,56.834 53.1757,55.17 C53.1237,55.162 53.1197,55.085 53.1517,54.969 C53.2247,54.7 53.4897,54.21 53.7957,53.803 C54.8507,52.402 56.6177,50.057 58.8217,45.824 C58.9697,45.538 59.0827,45.246 59.1647,44.947 C59.6687,43.101 58.9767,41.01 58.1927,38.643 C57.7827,37.406 57.3587,36.127 57.0627,34.763 C56.9887,34.422 57.0017,34.083 57.0877,33.768 L57.0877,33.768 Z" id="Stroke-39" stroke="#1A1A1A" stroke-width="0.25"></path>
                <path d="M67.9282,37.0459 C69.2432,38.3559 69.2482,40.4849 67.9382,41.7989 C66.6282,43.1159 64.4992,43.1209 63.1832,41.8099 C61.8682,40.5009 61.8632,38.3709 63.1742,37.0559 C64.4842,35.7399 66.6122,35.7349 67.9282,37.0459" id="Fill-41" fill="#FFB3B3"></path>
                <path d="M77.73,27.2016 C79.045,28.5116 79.049,30.6396 77.739,31.9556 C76.43,33.2716 74.301,33.2766 72.986,31.9666 C71.67,30.6566 71.666,28.5286 72.975,27.2116 C74.284,25.8956 76.414,25.8916 77.73,27.2016" id="Fill-43" fill="#FFB3B3"></path>
                <g id="Group-48" transform="translate(67.000000, 31.000000)">
                    <path d="M1.897,0.583 C2.276,0.96 2.278,1.576 1.9,1.955 C1.521,2.334 0.907,2.337 0.527,1.958 C0.147,1.581 0.147,0.966 0.525,0.586 C0.903,0.207 1.517,0.205 1.897,0.583" id="Fill-45" fill="#1A1A1A"></path>
                    <path d="M1.897,0.583 C2.276,0.96 2.278,1.576 1.9,1.955 C1.521,2.334 0.907,2.337 0.527,1.958 C0.147,1.581 0.147,0.966 0.525,0.586 C0.903,0.207 1.517,0.205 1.897,0.583" id="Stroke-47" stroke="#1A1A1A" stroke-width="0.25"></path>
                </g>
                <path d="M70.8804,34.9277 C69.2394,36.5747 67.3474,37.7717 65.6894,38.2087 C65.4534,38.2687 65.2134,38.1297 65.1524,37.8937 C65.0894,37.6607 65.2294,37.4207 65.4654,37.3587 C66.9764,36.9607 68.7244,35.8487 70.2584,34.3087 C71.7924,32.7667 72.8974,31.0147 73.2874,29.5017 C73.3474,29.2657 73.5874,29.1267 73.8224,29.1877 C74.0564,29.2477 74.1974,29.4867 74.1384,29.7217 C73.7094,31.3817 72.5204,33.2787 70.8804,34.9277" id="Fill-49" fill="#1A1A1A"></path>
                <path d="M70.8804,34.9277 C69.2394,36.5747 67.3474,37.7717 65.6894,38.2087 C65.4534,38.2687 65.2134,38.1297 65.1524,37.8937 C65.0894,37.6607 65.2294,37.4207 65.4654,37.3587 C66.9764,36.9607 68.7244,35.8487 70.2584,34.3087 C71.7924,32.7667 72.8974,31.0147 73.2874,29.5017 C73.3474,29.2657 73.5874,29.1267 73.8224,29.1877 C74.0564,29.2477 74.1974,29.4867 74.1384,29.7217 C73.7094,31.3817 72.5204,33.2787 70.8804,34.9277 Z" id="Stroke-51" stroke="#1A1A1A" stroke-width="0.25"></path>
                <g id="Group-56" transform="translate(68.000000, 32.000000)">
                    <line x1="0.3428" y1="0.4008" x2="2.4568" y2="2.5058" id="Fill-53" fill="#1A1A1A"></line>
                    <line x1="0.3428" y1="0.4008" x2="2.4568" y2="2.5058" id="Stroke-55" stroke="#1A1A1A" stroke-width="0.25"></line>
                </g>
                <path d="M70.7666,34.8149 C70.5966,34.9869 70.3186,34.9879 70.1466,34.8169 L68.0326,32.7119 C67.8606,32.5399 67.8616,32.2639 68.0316,32.0919 C68.2026,31.9199 68.4806,31.9189 68.6516,32.0899 L70.7656,34.1929 C70.9376,34.3659 70.9386,34.6439 70.7666,34.8149" id="Fill-57" fill="#1A1A1A"></path>
                <path d="M70.7666,34.8149 C70.5966,34.9869 70.3186,34.9879 70.1466,34.8169 L68.0326,32.7119 C67.8606,32.5399 67.8616,32.2639 68.0316,32.0919 C68.2026,31.9199 68.4806,31.9189 68.6516,32.0899 L70.7656,34.1929 C70.9376,34.3659 70.9386,34.6439 70.7666,34.8149 Z" id="Stroke-59" stroke="#1A1A1A" stroke-width="0.25"></path>
                <path d="M63.5317,36.6157 C63.4487,36.6627 63.3427,36.6687 63.2507,36.6197 C63.1087,36.5437 63.0547,36.3677 63.1307,36.2257 L64.5537,33.5517 C64.6287,33.4097 64.8037,33.3557 64.9487,33.4307 C65.0897,33.5067 65.1437,33.6827 65.0677,33.8237 L63.6447,36.4997 C63.6177,36.5497 63.5777,36.5897 63.5317,36.6157" id="Fill-61" fill="#1A1A1A"></path>
                <path d="M63.5317,36.6157 C63.4487,36.6627 63.3427,36.6687 63.2507,36.6197 C63.1087,36.5437 63.0547,36.3677 63.1307,36.2257 L64.5537,33.5517 C64.6287,33.4097 64.8037,33.3557 64.9487,33.4307 C65.0897,33.5067 65.1437,33.6827 65.0677,33.8237 L63.6447,36.4997 C63.6177,36.5497 63.5777,36.5897 63.5317,36.6157 Z" id="Stroke-63" stroke="#1A1A1A" stroke-width="0.25"></path>
                <path d="M72.4272,27.6816 C72.4252,27.6826 72.4232,27.6836 72.4212,27.6846 L69.7522,29.1196 C69.6102,29.1966 69.4342,29.1436 69.3582,29.0016 C69.2822,28.8606 69.3462,28.6776 69.4762,28.6076 L72.1452,27.1726 C72.2872,27.0966 72.4642,27.1496 72.5392,27.2906 C72.6142,27.4306 72.5642,27.6036 72.4272,27.6816" id="Fill-65" fill="#1A1A1A"></path>
                <path d="M72.4272,27.6816 C72.4252,27.6826 72.4232,27.6836 72.4212,27.6846 L69.7522,29.1196 C69.6102,29.1966 69.4342,29.1436 69.3582,29.0016 C69.2822,28.8606 69.3462,28.6776 69.4762,28.6076 L72.1452,27.1726 C72.2872,27.0966 72.4642,27.1496 72.5392,27.2906 C72.6142,27.4306 72.5642,27.6036 72.4272,27.6816 Z" id="Stroke-67" stroke="#1A1A1A" stroke-width="0.25"></path>
                <path d="M60.8149,33.2661 C60.7359,33.3111 60.6369,33.3181 60.5479,33.2771 C60.4029,33.2091 60.3399,33.0361 60.4069,32.8911 C61.1899,31.2041 62.2189,29.7151 63.4659,28.4621 C64.8479,27.0751 66.5169,25.9571 68.4319,25.1361 C68.5799,25.0731 68.7519,25.1411 68.8149,25.2891 C68.8779,25.4371 68.7999,25.6121 68.6619,25.6711 C66.8159,26.4621 65.2069,27.5391 63.8789,28.8721 C62.6799,30.0771 61.6889,31.5111 60.9349,33.1361 C60.9089,33.1921 60.8659,33.2371 60.8149,33.2661" id="Fill-69" fill="#1A1A1A"></path>
                <path d="M60.8149,33.2661 C60.7359,33.3111 60.6369,33.3181 60.5479,33.2771 C60.4029,33.2091 60.3399,33.0361 60.4069,32.8911 C61.1899,31.2041 62.2189,29.7151 63.4659,28.4621 C64.8479,27.0751 66.5169,25.9571 68.4319,25.1361 C68.5799,25.0731 68.7519,25.1411 68.8149,25.2891 C68.8779,25.4371 68.7999,25.6121 68.6619,25.6711 C66.8159,26.4621 65.2069,27.5391 63.8789,28.8721 C62.6799,30.0771 61.6889,31.5111 60.9349,33.1361 C60.9089,33.1921 60.8659,33.2371 60.8149,33.2661 Z" id="Stroke-71" stroke="#1A1A1A" stroke-width="0.25"></path>
                <path d="M60.2754,32.9048 L60.2754,32.9048 C60.2224,33.0988 60.3164,33.3008 60.4984,33.3848 C60.6184,33.4408 60.7584,33.4348 60.8734,33.3698 C60.9484,33.3268 61.0064,33.2628 61.0434,33.1858 C61.7914,31.5738 62.7734,30.1518 63.9634,28.9568 C65.2804,27.6338 66.8764,26.5658 68.7084,25.7808 C68.8204,25.7328 68.9074,25.6308 68.9414,25.5088 C68.9654,25.4188 68.9594,25.3268 68.9234,25.2428 C68.8804,25.1418 68.8004,25.0638 68.6994,25.0228 C68.5974,24.9828 68.4854,24.9838 68.3854,25.0268 C66.4564,25.8538 64.7734,26.9808 63.3814,28.3778 C62.1254,29.6398 61.0874,31.1418 60.2994,32.8408 C60.2894,32.8618 60.2814,32.8838 60.2754,32.9048 M60.3904,32.9368 C60.3944,32.9208 60.4004,32.9058 60.4074,32.8908 C61.1904,31.2048 62.2194,29.7148 63.4664,28.4618 C64.8474,27.0748 66.5174,25.9568 68.4324,25.1358 C68.5794,25.0728 68.7514,25.1408 68.8144,25.2888 C68.8404,25.3508 68.8424,25.4168 68.8264,25.4778 C68.8024,25.5628 68.7424,25.6358 68.6614,25.6718 C66.8164,26.4628 65.2074,27.5388 63.8794,28.8728 C62.6794,30.0768 61.6894,31.5118 60.9354,33.1358 C60.9084,33.1928 60.8654,33.2368 60.8154,33.2658 C60.7354,33.3108 60.6374,33.3188 60.5484,33.2768 C60.4184,33.2158 60.3534,33.0708 60.3904,32.9368" id="Fill-73" fill="#1A1A1A"></path>
                <path d="M60.2754,32.9048 L60.2754,32.9048 C60.2224,33.0988 60.3164,33.3008 60.4984,33.3848 C60.6184,33.4408 60.7584,33.4348 60.8734,33.3698 C60.9484,33.3268 61.0064,33.2628 61.0434,33.1858 C61.7914,31.5738 62.7734,30.1518 63.9634,28.9568 C65.2804,27.6338 66.8764,26.5658 68.7084,25.7808 C68.8204,25.7328 68.9074,25.6308 68.9414,25.5088 C68.9654,25.4188 68.9594,25.3268 68.9234,25.2428 C68.8804,25.1418 68.8004,25.0638 68.6994,25.0228 C68.5974,24.9828 68.4854,24.9838 68.3854,25.0268 C66.4564,25.8538 64.7734,26.9808 63.3814,28.3778 C62.1254,29.6398 61.0874,31.1418 60.2994,32.8408 C60.2894,32.8618 60.2814,32.8838 60.2754,32.9048 Z M60.3904,32.9368 C60.3944,32.9208 60.4004,32.9058 60.4074,32.8908 C61.1904,31.2048 62.2194,29.7148 63.4664,28.4618 C64.8474,27.0748 66.5174,25.9568 68.4324,25.1358 C68.5794,25.0728 68.7514,25.1408 68.8144,25.2888 C68.8404,25.3508 68.8424,25.4168 68.8264,25.4778 C68.8024,25.5628 68.7424,25.6358 68.6614,25.6718 C66.8164,26.4628 65.2074,27.5388 63.8794,28.8728 C62.6794,30.0768 61.6894,31.5118 60.9354,33.1358 C60.9084,33.1928 60.8654,33.2368 60.8154,33.2658 C60.7354,33.3108 60.6374,33.3188 60.5484,33.2768 C60.4184,33.2158 60.3534,33.0708 60.3904,32.9368 L60.3904,32.9368 Z" id="Stroke-75" stroke="#1A1A1A" stroke-width="0.25"></path>
                <path d="M32.3281,21.3125 C31.4071,24.6835 31.1411,28.2325 31.5751,31.8065 C32.4531,39.0515 36.0991,45.5205 41.8431,50.0215 C53.7011,59.3145 70.9091,57.2295 80.2021,45.3725 C84.7041,39.6285 86.7001,32.4745 85.8211,25.2295 C84.9431,17.9845 81.2951,11.5145 75.5511,7.0125 C63.6951,-2.2795 46.4881,-0.1925 37.1941,11.6645 C34.9121,14.5755 33.2741,17.8485 32.3281,21.3125 M85.9861,35.9755 C85.0071,39.5605 83.3121,42.9475 80.9511,45.9595 C71.3341,58.2295 53.5271,60.3885 41.2561,50.7705 C35.3121,46.1125 31.5381,39.4185 30.6301,31.9205 C29.7211,24.4225 31.7871,17.0205 36.4451,11.0775 C46.0631,-1.1925 63.8691,-3.3525 76.1381,6.2635 C82.0821,10.9225 85.8571,17.6175 86.7661,25.1155 C87.2141,28.8125 86.9391,32.4885 85.9861,35.9755" id="Fill-77" fill="#1A1A1A"></path>
                <path d="M32.3281,21.3125 C31.4071,24.6835 31.1411,28.2325 31.5751,31.8065 C32.4531,39.0515 36.0991,45.5205 41.8431,50.0215 C53.7011,59.3145 70.9091,57.2295 80.2021,45.3725 C84.7041,39.6285 86.7001,32.4745 85.8211,25.2295 C84.9431,17.9845 81.2951,11.5145 75.5511,7.0125 C63.6951,-2.2795 46.4881,-0.1925 37.1941,11.6645 C34.9121,14.5755 33.2741,17.8485 32.3281,21.3125 Z M85.9861,35.9755 C85.0071,39.5605 83.3121,42.9475 80.9511,45.9595 C71.3341,58.2295 53.5271,60.3885 41.2561,50.7705 C35.3121,46.1125 31.5381,39.4185 30.6301,31.9205 C29.7211,24.4225 31.7871,17.0205 36.4451,11.0775 C46.0631,-1.1925 63.8691,-3.3525 76.1381,6.2635 C82.0821,10.9225 85.8571,17.6175 86.7661,25.1155 C87.2141,28.8125 86.9391,32.4885 85.9861,35.9755 Z" id="Stroke-79" stroke="#1A1A1A" stroke-width="0.25"></path>
                <path d="M129.3037,104.1948 C126.6187,102.1318 123.6847,100.3388 121.3037,97.9088 C118.4707,95.0188 117.2527,91.2998 116.9147,87.3368 C116.8517,86.5948 115.6937,86.6488 115.7567,87.3938 C116.0697,91.0628 117.0737,94.6808 119.4447,97.5718 C121.9517,100.6288 125.4257,102.6718 128.5247,105.0528 C129.1137,105.5058 129.8957,104.6498 129.3037,104.1948" id="Fill-81" fill="#C6CED6"></path>
                <path d="M117.629359,86.3891 C117.6744,90.6381 117.3784,94.7261 119.3984,98.6181 C121.0194,101.7411 123.6384,104.0751 126.5984,105.9011 C127.2344,106.2931 127.7654,105.2621 127.1334,104.8721 C124.2754,103.1091 121.7794,100.8331 120.2764,97.7851 C118.4814,94.1441 118.8294,90.2631 118.7874,86.3321 C118.7794,85.5851 117.6214,85.6441 117.629359,86.3891" id="Fill-83" fill="#C6CED6"></path>
                <path d="M117.1875,90.8559 C117.0285,89.1929 116.4265,87.5609 115.3065,86.2999 C114.7435,85.6669 113.6885,84.8639 112.7815,85.0749 C111.4845,85.3769 111.9315,87.1249 112.4725,87.8859 C113.4855,89.3159 115.1635,90.3449 116.6055,91.2919 C117.2305,91.7009 117.7595,90.6689 117.1415,90.2619 C116.2155,89.6559 115.3035,89.0259 114.4705,88.2939 C114.0745,87.9469 113.6325,87.5789 113.3515,87.1259 C113.0915,86.7049 112.7415,86.0269 113.4235,86.3179 C115.0945,87.0309 115.8715,89.2569 116.0295,90.9129 C116.1005,91.6529 117.2585,91.5999 117.1875,90.8559" id="Fill-85" fill="#C6CED6"></path>
                <path d="M116.0483,89.4575 C114.5323,88.8435 112.8633,88.5915 111.2343,88.8415 C110.3323,88.9795 108.9663,89.5425 109.3033,90.7265 C109.6303,91.8765 111.5693,92.2655 112.5413,92.3765 C114.1963,92.5655 115.7953,92.1275 117.1893,91.2395 C117.8183,90.8395 117.1863,89.8665 116.5553,90.2695 C115.7643,90.7725 114.9083,91.1265 113.9703,91.2285 C113.2803,91.3055 111.4863,91.3645 110.9993,90.7605 C110.3363,89.9355 111.7773,89.9275 112.4033,89.9225 C113.4973,89.9135 114.4933,90.0725 115.5133,90.4855 C116.2003,90.7645 116.7403,89.7375 116.0483,89.4575" id="Fill-87" fill="#C6CED6"></path>
                <polygon id="Fill-89" fill="#FFFFFF" points="94.1089 63.0805 106.4759 54.0185 119.0889 71.2325 106.7219 80.2945"></polygon>
                <path d="M106.3936,54.5551 L94.6446,63.1631 L106.8046,79.7591 L118.5536,71.1501 L106.3936,54.5551 Z M93.7346,63.1631 C93.7026,63.0201 93.7556,62.8651 93.8826,62.7711 L106.2496,53.7091 C106.3316,53.6501 106.4346,53.6241 106.5346,53.6401 C106.6356,53.6561 106.7256,53.7101 106.7856,53.7921 L119.3976,71.0061 C119.4586,71.0881 119.4826,71.1911 119.4686,71.2911 C119.4526,71.3921 119.3976,71.4821 119.3156,71.5421 L106.9476,80.6041 C106.8656,80.6631 106.7636,80.6891 106.6636,80.6731 C106.5626,80.6581 106.4726,80.6031 106.4126,80.5211 L93.8006,63.3071 C93.7676,63.2631 93.7456,63.2141 93.7346,63.1631 L93.7346,63.1631 Z" id="Fill-91" fill="#1A1A1A"></path>
                <path d="M106.3936,54.5551 L94.6446,63.1631 L106.8046,79.7591 L118.5536,71.1501 L106.3936,54.5551 Z M93.7346,63.1631 C93.7026,63.0201 93.7556,62.8651 93.8826,62.7711 L106.2496,53.7091 C106.3316,53.6501 106.4346,53.6241 106.5346,53.6401 C106.6356,53.6561 106.7256,53.7101 106.7856,53.7921 L119.3976,71.0061 C119.4586,71.0881 119.4826,71.1911 119.4686,71.2911 C119.4526,71.3921 119.3976,71.4821 119.3156,71.5421 L106.9476,80.6041 C106.8656,80.6631 106.7636,80.6891 106.6636,80.6731 C106.5626,80.6581 106.4726,80.6031 106.4126,80.5211 L93.8006,63.3071 C93.7676,63.2631 93.7456,63.2141 93.7346,63.1631 Z" id="Stroke-93" stroke="#1A1A1A" stroke-width="0.25"></path>
                <path d="M106.2251,67.2397 C106.2191,67.2137 106.2161,67.1867 106.2161,67.1607 L106.093083,54.0227 C106.0911,53.8107 106.2611,53.6377 106.4721,53.6356825 C106.6841,53.6337 106.8541,53.8037 106.8591,54.0147 L106.9791,66.8777 L119.2081,70.8687 C119.4101,70.9337 119.5191,71.1507 119.4541,71.3517 C119.3881,71.5527 119.1721,71.6627 118.9711,71.5967 L106.4801,67.5207 C106.3501,67.4777 106.2541,67.3697 106.2251,67.2397" id="Fill-95" fill="#1A1A1A"></path>
                <path d="M106.2251,67.2397 C106.2191,67.2137 106.2161,67.1867 106.2161,67.1607 L106.093083,54.0227 C106.0911,53.8107 106.2611,53.6377 106.4721,53.6356825 C106.6841,53.6337 106.8541,53.8037 106.8591,54.0147 L106.9791,66.8777 L119.2081,70.8687 C119.4101,70.9337 119.5191,71.1507 119.4541,71.3517 C119.3881,71.5527 119.1721,71.6627 118.9711,71.5967 L106.4801,67.5207 C106.3501,67.4777 106.2541,67.3697 106.2251,67.2397 Z" id="Stroke-97" stroke="#1A1A1A" stroke-width="0.25"></path>
                <path d="M95.2378,62.061 C95.2238,61.999 95.2258,61.931 95.2468,61.865 C95.3088,61.663 95.5248,61.549 95.7258,61.613 L106.6958,65.027 C106.8988,65.09 107.0108,65.305 106.9478,65.507 C106.8858,65.709 106.6708,65.823 106.4688,65.759 L95.4988,62.345 C95.3628,62.302 95.2668,62.191 95.2378,62.061" id="Fill-99" fill="#1A1A1A"></path>
                <path d="M95.2378,62.061 C95.2238,61.999 95.2258,61.931 95.2468,61.865 C95.3088,61.663 95.5248,61.549 95.7258,61.613 L106.6958,65.027 C106.8988,65.09 107.0108,65.305 106.9478,65.507 C106.8858,65.709 106.6708,65.823 106.4688,65.759 L95.4988,62.345 C95.3628,62.302 95.2668,62.191 95.2378,62.061 Z" id="Stroke-101" stroke="#1A1A1A" stroke-width="0.25"></path>
                <path d="M107.8237,79.2964 C107.8177,79.2674 107.8147,79.2364 107.8147,79.2054 L108.0287,67.7414 C108.0317,67.5294 108.2067,67.3604 108.4187,67.3643304 C108.6297,67.3694 108.8007,67.5444 108.7947,67.7554 L108.5807,79.2204 C108.5777,79.4324 108.4027,79.6004 108.1907,79.59647 C108.0107,79.5924 107.8607,79.4654 107.8237,79.2964" id="Fill-103" fill="#1A1A1A"></path>
                <path d="M107.8237,79.2964 C107.8177,79.2674 107.8147,79.2364 107.8147,79.2054 L108.0287,67.7414 C108.0317,67.5294 108.2067,67.3604 108.4187,67.3643304 C108.6297,67.3694 108.8007,67.5444 108.7947,67.7554 L108.5807,79.2204 C108.5777,79.4324 108.4027,79.6004 108.1907,79.59647 C108.0107,79.5924 107.8607,79.4654 107.8237,79.2964 Z" id="Stroke-105" stroke="#1A1A1A" stroke-width="0.25"></path>
                <path d="M183.1328,7.3598 C171.5248,2.2538 158.6168,1.6788 146.5298,5.7758 C133.7158,10.1188 123.3598,19.1918 117.3698,31.3228 C111.3798,43.4548 110.4718,57.1928 114.8148,70.0068 C119.1578,82.8208 128.2308,93.1768 140.3618,99.1668 C165.4068,111.5308 195.8408,101.2178 208.2068,76.1738 L208.5528,76.3458 L208.2068,76.1738 C220.5718,51.1308 210.2578,20.6958 185.2138,8.3308 C184.5258,7.9908 183.8308,7.6668 183.1328,7.3598" id="Fill-107" fill="#BCBEFF"></path>
                <path d="M166.5503,44.4785 C164.4733,51.6405 160.8473,55.0985 157.5053,53.7335 C155.1183,52.7605 152.7633,49.8505 151.0753,44.7825 C147.8703,35.1575 148.0843,21.2155 151.4093,15.2015 C154.1003,10.3365 156.4613,10.0385 158.1363,10.1295 C159.8073,9.9735 162.1773,10.1775 165.0573,14.9345 C168.6153,20.8125 169.3763,34.7355 166.5503,44.4785" id="Fill-109" fill="#FFE8BD"></path>
                <path d="M159.4633,10.5745 C158.9413,10.4985 158.5083,10.5395 158.1773,10.5695 C158.1553,10.5725 158.1343,10.5725 158.1123,10.5715 C156.9663,10.5085 154.5813,10.3785 151.7963,15.4155 C148.5183,21.3435 148.3753,35.2735 151.4953,44.6425 C153.0263,49.2405 155.2203,52.3245 157.6723,53.3255 C158.6143,53.7105 159.5853,53.6675 160.5553,53.1975 C162.7773,52.1225 164.8083,48.8995 166.1263,44.3555 C168.8763,34.8725 168.1863,20.9575 164.6783,15.1635 C162.5603,11.6635 160.7453,10.7635 159.4633,10.5745 L159.4633,10.5745 Z M158.3493,54.4225 C158.0083,54.3715 157.6703,54.2785 157.3383,54.1445 C154.6433,53.0435 152.2703,49.7695 150.6563,44.9215 C147.4153,35.1895 147.5863,21.2025 151.0233,14.9875 C153.6993,10.1475 156.1143,9.5845 158.1283,9.6865 C160.1363,9.5055 162.5713,9.9755 165.4343,14.7055 C169.1123,20.7795 169.8323,34.7505 166.9753,44.6025 C165.5673,49.4565 163.4243,52.7915 160.9403,53.9935 C160.0893,54.4045 159.2093,54.5485 158.3493,54.4225 L158.3493,54.4225 Z" id="Fill-111" fill="#1A1A1A"></path>
                <path d="M159.4633,10.5745 C158.9413,10.4985 158.5083,10.5395 158.1773,10.5695 C158.1553,10.5725 158.1343,10.5725 158.1123,10.5715 C156.9663,10.5085 154.5813,10.3785 151.7963,15.4155 C148.5183,21.3435 148.3753,35.2735 151.4953,44.6425 C153.0263,49.2405 155.2203,52.3245 157.6723,53.3255 C158.6143,53.7105 159.5853,53.6675 160.5553,53.1975 C162.7773,52.1225 164.8083,48.8995 166.1263,44.3555 C168.8763,34.8725 168.1863,20.9575 164.6783,15.1635 C162.5603,11.6635 160.7453,10.7635 159.4633,10.5745 Z M158.3493,54.4225 C158.0083,54.3715 157.6703,54.2785 157.3383,54.1445 C154.6433,53.0435 152.2703,49.7695 150.6563,44.9215 C147.4153,35.1895 147.5863,21.2025 151.0233,14.9875 C153.6993,10.1475 156.1143,9.5845 158.1283,9.6865 C160.1363,9.5055 162.5713,9.9755 165.4343,14.7055 C169.1123,20.7795 169.8323,34.7505 166.9753,44.6025 C165.5673,49.4565 163.4243,52.7915 160.9403,53.9935 C160.0893,54.4045 159.2093,54.5485 158.3493,54.4225 Z" id="Stroke-113" stroke="#1A1A1A" stroke-width="0.25"></path>
                <path d="M175.7334,74.5903 C175.6804,71.1223 174.9384,67.7593 173.7434,64.5883 C175.7844,64.5443 178.2424,64.0153 181.1074,62.8503 C190.8584,58.8853 201.7074,49.3113 204.2064,42.6323 C206.2274,37.2293 204.8704,35.1673 203.6674,33.9073 C202.6644,32.4843 200.9034,30.7523 195.2114,31.6913 C188.1744,32.8503 176.6834,41.6423 170.9064,50.4433 C169.7574,52.1943 168.9234,53.8403 168.3484,55.3613 C165.9154,52.4913 163.0144,50.0633 159.7574,48.3303 C153.1684,44.8253 145.3134,43.3203 137.6094,45.2313 C122.9814,48.8583 113.8244,63.2323 117.8834,75.5033 C121.1674,85.4303 126.8084,90.1613 131.0234,93.2153 C135.0524,96.5103 141.0674,100.7553 151.5044,101.3953 C164.4054,102.1853 175.9634,89.6603 175.7334,74.5903" id="Fill-115" fill="#FFE8BD"></path>
                <path d="M131.2822,92.8579 C135.7752,96.5319 141.6762,100.3499 151.5312,100.9539 C157.0582,101.2919 162.5462,99.1439 166.9832,94.9059 C172.3822,89.7509 175.4092,82.3469 175.2912,74.5959 C175.2422,71.3839 174.5822,68.0699 173.3302,64.7449 C173.2792,64.6099 173.2972,64.4599 173.3772,64.3409 C173.4572,64.2219 173.5902,64.1499 173.7342,64.1469 C175.8452,64.1009 178.2702,63.5269 180.9402,62.4409 C190.4352,58.5809 201.3282,49.0649 203.7922,42.4779 C205.8882,36.8739 204.1732,35.0759 203.3482,34.2119 C203.3332,34.1959 203.3192,34.1789 203.3062,34.1619 C202.6172,33.1849 201.1872,31.1539 195.2832,32.1269 C188.3432,33.2709 176.9002,42.1169 171.2762,50.6859 C170.2002,52.3259 169.3542,53.9519 168.7612,55.5169 C168.7062,55.6639 168.5772,55.7699 168.4232,55.7959 C168.2682,55.8229 168.1122,55.7659 168.0112,55.6469 C165.5272,52.7159 162.6802,50.3859 159.5502,48.7209 C152.5422,44.9929 144.7882,43.9059 137.7172,45.6599 C130.1922,47.5249 123.8092,52.3439 120.2032,58.8799 C117.2392,64.2539 116.5642,70.1079 118.3032,75.3649 C121.4042,84.7379 126.6052,89.4679 131.2822,92.8579 M132.0192,94.5719 C131.5802,94.2339 131.1562,93.8949 130.7432,93.5579 C125.9702,90.1009 120.6442,85.2539 117.4642,75.6419 C115.6472,70.1489 116.3442,64.0449 119.4292,58.4539 C123.1542,51.7019 129.7412,46.7269 137.5032,44.8019 C144.7882,42.9959 152.7642,44.1099 159.9652,47.9399 C162.9952,49.5519 165.7642,51.7639 168.2062,54.5229 C168.7982,53.1089 169.5802,51.6589 170.5372,50.2009 C176.3752,41.3059 187.8712,32.4529 195.1392,31.2539 C200.7942,30.3229 202.8022,31.9239 204.0102,33.6259 C205.4452,35.1399 206.6282,37.4199 204.6202,42.7879 C202.0392,49.6859 191.1292,59.2529 181.2732,63.2599 C178.7552,64.2839 176.4352,64.8699 174.3662,65.0039 C175.5192,68.2339 176.1282,71.4539 176.1752,74.5839 C176.2972,82.5799 173.1692,90.2199 167.5942,95.5459 C162.9762,99.9559 157.2522,102.1889 151.4772,101.8359 C142.2822,101.2729 136.4482,97.9819 132.0192,94.5719" id="Fill-117" fill="#1A1A1A"></path>
                <path d="M131.2822,92.8579 C135.7752,96.5319 141.6762,100.3499 151.5312,100.9539 C157.0582,101.2919 162.5462,99.1439 166.9832,94.9059 C172.3822,89.7509 175.4092,82.3469 175.2912,74.5959 C175.2422,71.3839 174.5822,68.0699 173.3302,64.7449 C173.2792,64.6099 173.2972,64.4599 173.3772,64.3409 C173.4572,64.2219 173.5902,64.1499 173.7342,64.1469 C175.8452,64.1009 178.2702,63.5269 180.9402,62.4409 C190.4352,58.5809 201.3282,49.0649 203.7922,42.4779 C205.8882,36.8739 204.1732,35.0759 203.3482,34.2119 C203.3332,34.1959 203.3192,34.1789 203.3062,34.1619 C202.6172,33.1849 201.1872,31.1539 195.2832,32.1269 C188.3432,33.2709 176.9002,42.1169 171.2762,50.6859 C170.2002,52.3259 169.3542,53.9519 168.7612,55.5169 C168.7062,55.6639 168.5772,55.7699 168.4232,55.7959 C168.2682,55.8229 168.1122,55.7659 168.0112,55.6469 C165.5272,52.7159 162.6802,50.3859 159.5502,48.7209 C152.5422,44.9929 144.7882,43.9059 137.7172,45.6599 C130.1922,47.5249 123.8092,52.3439 120.2032,58.8799 C117.2392,64.2539 116.5642,70.1079 118.3032,75.3649 C121.4042,84.7379 126.6052,89.4679 131.2822,92.8579 Z M132.0192,94.5719 C131.5802,94.2339 131.1562,93.8949 130.7432,93.5579 C125.9702,90.1009 120.6442,85.2539 117.4642,75.6419 C115.6472,70.1489 116.3442,64.0449 119.4292,58.4539 C123.1542,51.7019 129.7412,46.7269 137.5032,44.8019 C144.7882,42.9959 152.7642,44.1099 159.9652,47.9399 C162.9952,49.5519 165.7642,51.7639 168.2062,54.5229 C168.7982,53.1089 169.5802,51.6589 170.5372,50.2009 C176.3752,41.3059 187.8712,32.4529 195.1392,31.2539 C200.7942,30.3229 202.8022,31.9239 204.0102,33.6259 C205.4452,35.1399 206.6282,37.4199 204.6202,42.7879 C202.0392,49.6859 191.1292,59.2529 181.2732,63.2599 C178.7552,64.2839 176.4352,64.8699 174.3662,65.0039 C175.5192,68.2339 176.1282,71.4539 176.1752,74.5839 C176.2972,82.5799 173.1692,90.2199 167.5942,95.5459 C162.9762,99.9559 157.2522,102.1889 151.4772,101.8359 C142.2822,101.2729 136.4482,97.9819 132.0192,94.5719 Z" id="Stroke-119" stroke="#1A1A1A" stroke-width="0.25"></path>
                <path d="M169.5625,52.688 C167.9105,55.75 167.2355,58.428 167.4945,60.451" id="Fill-121" fill="#FFE8BD"></path>
                <path d="M167.2246,60.8012 C167.1346,60.7322 167.0716,60.6282 167.0556,60.5072 C166.7786,58.3362 167.5106,55.5602 169.1736,52.4782 C169.2896,52.2632 169.5576,52.1832 169.7726,52.2992 C169.9866,52.4162 170.0676,52.6832 169.9516,52.8982 C168.3766,55.8162 167.6786,58.4082 167.9326,60.3952 C167.9636,60.6372 167.7926,60.8592 167.5506,60.8892 C167.4296,60.9052 167.3136,60.8692 167.2246,60.8012" id="Fill-123" fill="#1A1A1A"></path>
                <path d="M167.2246,60.8012 C167.1346,60.7322 167.0716,60.6282 167.0556,60.5072 C166.7786,58.3362 167.5106,55.5602 169.1736,52.4782 C169.2896,52.2632 169.5576,52.1832 169.7726,52.2992 C169.9866,52.4162 170.0676,52.6832 169.9516,52.8982 C168.3766,55.8162 167.6786,58.4082 167.9326,60.3952 C167.9636,60.6372 167.7926,60.8592 167.5506,60.8892 C167.4296,60.9052 167.3136,60.8692 167.2246,60.8012 Z" id="Stroke-125" stroke="#1A1A1A" stroke-width="0.25"></path>
                <path d="M171.2026,64.3637 C172.5106,64.6767 174.1086,64.7027 175.9736,64.3807" id="Fill-127" fill="#FFE8BD"></path>
                <path d="M170.9331,64.7143 C170.7991,64.6103 170.7301,64.4353 170.7731,64.2603 C170.8291,64.0233 171.0681,63.8763 171.3061,63.9343 C172.5981,64.2433 174.1431,64.2473 175.8981,63.9443 C176.1391,63.9033 176.3681,64.0653 176.4091,64.3053 C176.4511,64.5453 176.2891,64.7753 176.0481,64.8163 C174.1741,65.1393 172.5091,65.1313 171.0991,64.7933 C171.0371,64.7783 170.9801,64.7503 170.9331,64.7143" id="Fill-129" fill="#1A1A1A"></path>
                <path d="M170.9331,64.7143 C170.7991,64.6103 170.7301,64.4353 170.7731,64.2603 C170.8291,64.0233 171.0681,63.8763 171.3061,63.9343 C172.5981,64.2433 174.1431,64.2473 175.8981,63.9443 C176.1391,63.9033 176.3681,64.0653 176.4091,64.3053 C176.4511,64.5453 176.2891,64.7753 176.0481,64.8163 C174.1741,65.1393 172.5091,65.1313 171.0991,64.7933 C171.0371,64.7783 170.9801,64.7503 170.9331,64.7143 Z" id="Stroke-131" stroke="#1A1A1A" stroke-width="0.25"></path>
                <path d="M183.1328,7.3598 C171.5248,2.2538 158.6168,1.6788 146.5298,5.7758 C133.7158,10.1188 123.3598,19.1918 117.3698,31.3228 C111.3798,43.4548 110.4718,57.1928 114.8148,70.0068 C119.1578,82.8208 128.2308,93.1768 140.3618,99.1668 C165.4068,111.5308 195.8408,101.2178 208.2068,76.1738 L208.5528,76.3458 L208.2068,76.1738 C220.5718,51.1308 210.2578,20.6958 185.2138,8.3308 C184.5258,7.9908 183.8308,7.6668 183.1328,7.3598 M142.1328,100.8448 C141.4238,100.5338 140.7188,100.2058 140.0198,99.8598 C127.7038,93.7788 118.4918,83.2638 114.0838,70.2558 C109.6748,57.2458 110.5948,43.2978 116.6768,30.9808 C122.7578,18.6638 133.2728,9.4528 146.2818,5.0438 C159.2918,0.6348 173.2398,1.5538 185.5558,7.6378 C210.9818,20.1918 221.4538,51.0908 208.8998,76.5168 C202.8178,88.8338 192.3038,98.0448 179.2948,102.4538 C167.0228,106.6118 153.9168,106.0288 142.1328,100.8448" id="Fill-133" fill="#1A1A1A"></path>
                <path d="M183.1328,7.3598 C171.5248,2.2538 158.6168,1.6788 146.5298,5.7758 C133.7158,10.1188 123.3598,19.1918 117.3698,31.3228 C111.3798,43.4548 110.4718,57.1928 114.8148,70.0068 C119.1578,82.8208 128.2308,93.1768 140.3618,99.1668 C165.4068,111.5308 195.8408,101.2178 208.2068,76.1738 L208.5528,76.3458 L208.2068,76.1738 C220.5718,51.1308 210.2578,20.6958 185.2138,8.3308 C184.5258,7.9908 183.8308,7.6668 183.1328,7.3598 Z M142.1328,100.8448 C141.4238,100.5338 140.7188,100.2058 140.0198,99.8598 C127.7038,93.7788 118.4918,83.2638 114.0838,70.2558 C109.6748,57.2458 110.5948,43.2978 116.6768,30.9808 C122.7578,18.6638 133.2728,9.4528 146.2818,5.0438 C159.2918,0.6348 173.2398,1.5538 185.5558,7.6378 C210.9818,20.1918 221.4538,51.0908 208.8998,76.5168 C202.8178,88.8338 192.3038,98.0448 179.2948,102.4538 C167.0228,106.6118 153.9168,106.0288 142.1328,100.8448 Z" id="Stroke-135" stroke="#1A1A1A" stroke-width="0.25"></path>
                <path d="M137.6597,65.1518 C136.4577,66.7128 134.2177,67.0038 132.6577,65.8018 C131.0967,64.5998 130.8057,62.3598 132.0077,60.7988 C133.2097,59.2388 135.4497,58.9478 137.0097,60.1498 C138.5707,61.3518 138.8617,63.5908 137.6597,65.1518" id="Fill-137" fill="#FFB3B3"></path>
                <path d="M149.3359,74.144 C148.1339,75.705 145.8949,75.996 144.3339,74.793 C142.7729,73.592 142.4819,71.352 143.6839,69.791 C144.8859,68.231 147.1259,67.94 148.6869,69.142 C150.2469,70.344 150.5379,72.583 149.3359,74.144" id="Fill-139" fill="#FFB3B3"></path>
                <g id="Group-144" transform="translate(137.000000, 60.000000)">
                    <path d="M2.7983,2.2973 C2.4363,2.7683 1.7603,2.8553 1.2903,2.4923 C0.8203,2.1303 0.7313,1.4553 1.0943,0.9853 C1.4563,0.5143 2.1313,0.4273 2.6023,0.7893 C3.0723,1.1513 3.1603,1.8263 2.7983,2.2973" id="Fill-141" fill="#1A1A1A"></path>
                    <path d="M2.7983,2.2973 C2.4363,2.7683 1.7603,2.8553 1.2903,2.4923 C0.8203,2.1303 0.7313,1.4553 1.0943,0.9853 C1.4563,0.5143 2.1313,0.4273 2.6023,0.7893 C3.0723,1.1513 3.1603,1.8263 2.7983,2.2973" id="Stroke-143" stroke="#1A1A1A" stroke-width="0.25"></path>
                </g>
                <g id="Group-148" transform="translate(145.000000, 66.000000)">
                    <path d="M2.5205,2.4135 C2.1585,2.8835 1.4825,2.9715 1.0125,2.6085 C0.5415,2.2465 0.4545,1.5715 0.8155,1.1015 C1.1785,0.6305 1.8535,0.5435 2.3245,0.9055 C2.7945,1.2675 2.8825,1.9425 2.5205,2.4135" id="Fill-145" fill="#1A1A1A"></path>
                    <path d="M2.5205,2.4135 C2.1585,2.8835 1.4825,2.9715 1.0125,2.6085 C0.5415,2.2465 0.4545,1.5715 0.8155,1.1015 C1.1785,0.6305 1.8535,0.5435 2.3245,0.9055 C2.7945,1.2675 2.8825,1.9425 2.5205,2.4135" id="Stroke-147" stroke="#1A1A1A" stroke-width="0.25"></path>
                </g>
                <path d="M142.1099,65.604 C139.1549,63.329 137.4639,63.491 136.5909,64.625 C135.7179,65.757 135.9289,67.384 137.0629,68.257 C137.9079,68.909 139.0269,68.957 139.9039,68.468 C139.6569,69.441 139.9879,70.51 140.8339,71.162 C141.9679,72.035 143.5939,71.824 144.4669,70.69 C145.3409,69.556 145.0659,67.88 142.1099,65.604" id="Fill-149" fill="#FFFFFF"></path>
                <path d="M140.165,68.1303 L140.165,68.1303 C140.3,68.2343 140.361,68.4083 140.318,68.5733 C140.105,69.4123 140.409,70.2953 141.094,70.8233 C142.04,71.5513 143.401,71.3743 144.129,70.4293 C145.221,69.0123 143.492,67.2073 141.85,65.9423 C140.207,64.6773 138.02,63.4673 136.929,64.8843 C136.201,65.8293 136.378,67.1913 137.324,67.9193 C138.009,68.4463 138.94,68.5163 139.697,68.0953 C139.846,68.0123 140.03,68.0263 140.165,68.1303 M140.573,71.5003 C139.825,70.9233 139.402,70.0433 139.397,69.1273 C138.51,69.3563 137.55,69.1723 136.802,68.5963 C135.484,67.5803 135.237,65.6823 136.253,64.3633 C137.093,63.2733 138.836,62.5433 142.371,65.2663 C145.906,67.9873 145.646,69.8593 144.806,70.9503 C143.79,72.2693 141.892,72.5153 140.573,71.5003" id="Fill-151" fill="#1A1A1A"></path>
                <path d="M140.165,68.1303 L140.165,68.1303 C140.3,68.2343 140.361,68.4083 140.318,68.5733 C140.105,69.4123 140.409,70.2953 141.094,70.8233 C142.04,71.5513 143.401,71.3743 144.129,70.4293 C145.221,69.0123 143.492,67.2073 141.85,65.9423 C140.207,64.6773 138.02,63.4673 136.929,64.8843 C136.201,65.8293 136.378,67.1913 137.324,67.9193 C138.009,68.4463 138.94,68.5163 139.697,68.0953 C139.846,68.0123 140.03,68.0263 140.165,68.1303 Z M140.573,71.5003 C139.825,70.9233 139.402,70.0433 139.397,69.1273 C138.51,69.3563 137.55,69.1723 136.802,68.5963 C135.484,67.5803 135.237,65.6823 136.253,64.3633 C137.093,63.2733 138.836,62.5433 142.371,65.2663 C145.906,67.9873 145.646,69.8593 144.806,70.9503 C143.79,72.2693 141.892,72.5153 140.573,71.5003 Z" id="Stroke-153" stroke="#1A1A1A" stroke-width="0.25"></path>
                <g id="Group-158" transform="translate(140.000000, 64.000000)">
                    <path d="M3.1943,2.4389 C2.7333,3.0369 1.8743,3.1489 1.2763,2.6879 C0.6773,2.2269 0.5653,1.3679 1.0263,0.7689 C1.4863,0.1699 2.3463,0.0599 2.9443,0.5209 C3.5433,0.9819 3.6553,1.8399 3.1943,2.4389" id="Fill-155" fill="#1A1A1A"></path>
                    <path d="M3.1943,2.4389 C2.7333,3.0369 1.8743,3.1489 1.2763,2.6879 C0.6773,2.2269 0.5653,1.3679 1.0263,0.7689 C1.4863,0.1699 2.3463,0.0599 2.9443,0.5209 C3.5433,0.9819 3.6553,1.8399 3.1943,2.4389" id="Stroke-157" stroke="#1A1A1A" stroke-width="0.25"></path>
                </g>
                <path d="M113.4028,74.1137 C114.0718,74.0667 115.2238,75.0787 115.1848,75.7517 C115.1458,76.4247 113.5628,77.3647 113.5628,77.3647 C113.5628,77.3647 111.8738,74.2207 113.4028,74.1137" id="Fill-159" fill="#FFFFFF"></path>
                <path d="M113.1025,76.5385 C113.0155,76.5005 112.9425,76.4305 112.9025,76.3365 C112.8075,76.1105 112.3515,74.9555 112.7315,74.2815 C112.8745,74.0285 113.1115,73.8715 113.4155,73.8275 C114.6755,73.6475 115.3215,75.0105 115.3485,75.0675 C115.4375,75.2625 115.3525,75.4915 115.1595,75.5805 C114.9655,75.6705 114.7355,75.5865 114.6465,75.3925 C114.6435,75.3845 114.2125,74.4935 113.5255,74.5935 C113.4355,74.6055 113.4175,74.6385 113.4045,74.6615 C113.2605,74.9165 113.4445,75.6325 113.6145,76.0345 C113.6965,76.2305 113.6045,76.4585 113.4085,76.5415 C113.3065,76.5845 113.1965,76.5805 113.1025,76.5385" id="Fill-161" fill="#1A1A1A"></path>
                <path d="M113.1025,76.5385 C113.0155,76.5005 112.9425,76.4305 112.9025,76.3365 C112.8075,76.1105 112.3515,74.9555 112.7315,74.2815 C112.8745,74.0285 113.1115,73.8715 113.4155,73.8275 C114.6755,73.6475 115.3215,75.0105 115.3485,75.0675 C115.4375,75.2625 115.3525,75.4915 115.1595,75.5805 C114.9655,75.6705 114.7355,75.5865 114.6465,75.3925 C114.6435,75.3845 114.2125,74.4935 113.5255,74.5935 C113.4355,74.6055 113.4175,74.6385 113.4045,74.6615 C113.2605,74.9165 113.4445,75.6325 113.6145,76.0345 C113.6965,76.2305 113.6045,76.4585 113.4085,76.5415 C113.3065,76.5845 113.1965,76.5805 113.1025,76.5385 Z" id="Stroke-163" stroke="#1A1A1A" stroke-width="0.25"></path>
                <polygon id="Fill-165" fill="#F4761D" points="26.4321 11.0791 28.1471 14.5551 31.9831 15.1131 29.2071 17.8181 29.8631 21.6391 26.4321 19.8351 23.0011 21.6391 23.6561 17.8181 20.8801 15.1131 24.7161 14.5551"></polygon>
                <path d="M26.4316,19.6631 C26.4596,19.6631 26.4866,19.6701 26.5116,19.6831 L29.6346,21.3251 L29.0376,17.8481 C29.0286,17.7911 29.0466,17.7351 29.0876,17.6951 L31.6136,15.2321 L28.1226,14.7261 C28.0666,14.7171 28.0176,14.6821 27.9936,14.6311 L26.4316,11.4681 L24.8706,14.6311 C24.8456,14.6821 24.7966,14.7171 24.7416,14.7261 L21.2496,15.2321 L23.7756,17.6951 C23.8166,17.7351 23.8346,17.7911 23.8256,17.8481 L23.2286,21.3251 L26.3516,19.6831 C26.3766,19.6701 26.4046,19.6631 26.4316,19.6631 M29.8626,21.8111 C29.8356,21.8111 29.8076,21.8051 29.7836,21.7911 L26.4316,20.0291 L23.0806,21.7911 C23.0226,21.8221 22.9526,21.8161 22.8996,21.7781 C22.8466,21.7401 22.8196,21.6751 22.8306,21.6101 L23.4716,17.8781 L20.7606,15.2361 C20.7136,15.1901 20.6966,15.1211 20.7166,15.0591 C20.7366,14.9971 20.7906,14.9521 20.8556,14.9421 L24.6016,14.3981 L26.2776,11.0031 C26.3356,10.8861 26.5286,10.8861 26.5856,11.0031 L28.2616,14.3981 L32.0086,14.9421 C32.0726,14.9521 32.1266,14.9971 32.1466,15.0591 C32.1666,15.1211 32.1506,15.1901 32.1036,15.2361 L29.3926,17.8781 L30.0326,21.6101 C30.0436,21.6751 30.0166,21.7401 29.9636,21.7781 C29.9336,21.8001 29.8986,21.8111 29.8626,21.8111" id="Fill-167" fill="#1A1A1A"></path>
                <path d="M26.4316,19.6631 C26.4596,19.6631 26.4866,19.6701 26.5116,19.6831 L29.6346,21.3251 L29.0376,17.8481 C29.0286,17.7911 29.0466,17.7351 29.0876,17.6951 L31.6136,15.2321 L28.1226,14.7261 C28.0666,14.7171 28.0176,14.6821 27.9936,14.6311 L26.4316,11.4681 L24.8706,14.6311 C24.8456,14.6821 24.7966,14.7171 24.7416,14.7261 L21.2496,15.2321 L23.7756,17.6951 C23.8166,17.7351 23.8346,17.7911 23.8256,17.8481 L23.2286,21.3251 L26.3516,19.6831 C26.3766,19.6701 26.4046,19.6631 26.4316,19.6631 Z M29.8626,21.8111 C29.8356,21.8111 29.8076,21.8051 29.7836,21.7911 L26.4316,20.0291 L23.0806,21.7911 C23.0226,21.8221 22.9526,21.8161 22.8996,21.7781 C22.8466,21.7401 22.8196,21.6751 22.8306,21.6101 L23.4716,17.8781 L20.7606,15.2361 C20.7136,15.1901 20.6966,15.1211 20.7166,15.0591 C20.7366,14.9971 20.7906,14.9521 20.8556,14.9421 L24.6016,14.3981 L26.2776,11.0031 C26.3356,10.8861 26.5286,10.8861 26.5856,11.0031 L28.2616,14.3981 L32.0086,14.9421 C32.0726,14.9521 32.1266,14.9971 32.1466,15.0591 C32.1666,15.1211 32.1506,15.1901 32.1036,15.2361 L29.3926,17.8781 L30.0326,21.6101 C30.0436,21.6751 30.0166,21.7401 29.9636,21.7781 C29.9336,21.8001 29.8986,21.8111 29.8626,21.8111 Z" id="Stroke-169" stroke="#1A1A1A" stroke-width="0.25"></path>
                <path d="M26.4316,11.0791 L24.7166,14.5551 L22.1876,14.9231 L24.7166,14.5551 L26.4316,11.0791 L28.1476,14.5551 L29.3096,14.7241 L28.1476,14.5551 L26.4316,11.0791 Z M31.9836,15.1131 L29.2076,17.8181 L31.9836,15.1131 Z M21.6196,15.3531 L23.8956,17.5721 C23.9766,17.6511 24.0136,17.7651 23.9946,17.8761 L23.4576,21.0101 L26.2716,19.5311 C26.3696,19.4791 26.4936,19.4791 26.5916,19.5311 L29.4066,21.0101 L28.8686,17.8771 C28.8496,17.7651 28.8866,17.6511 28.9676,17.5721 L31.2446,15.3531 L28.0986,14.8961 C27.9846,14.8791 27.8886,14.8081 27.8386,14.7071 L26.4316,11.8561 L25.0246,14.7071 C24.9746,14.8081 24.8786,14.8791 24.7666,14.8951 L21.6196,15.3531 Z M20.8806,15.1131 L23.6566,17.8181 L23.0006,21.6391 L23.0006,21.6391 L23.6566,17.8181 L20.8806,15.1131 Z M29.8626,21.9831 C29.8066,21.9831 29.7516,21.9691 29.7026,21.9431 L26.4316,20.2241 L23.1606,21.9431 C23.0466,22.0041 22.9046,21.9941 22.7986,21.9171 C22.6916,21.8401 22.6396,21.7111 22.6616,21.5811 L23.2866,17.9391 L20.6406,15.3591 C20.5476,15.2691 20.5136,15.1301 20.5536,15.0071 C20.5936,14.8831 20.7026,14.7911 20.8306,14.7721 L24.4876,14.2411 L26.1236,10.9271 C26.2356,10.7001 26.6286,10.7001 26.7406,10.9271 L28.3756,14.2411 L32.0336,14.7721 C32.1616,14.7911 32.2706,14.8831 32.3106,15.0071 C32.3506,15.1301 32.3166,15.2691 32.2236,15.3591 L29.5776,17.9391 L30.2026,21.5801 C30.2236,21.7111 30.1716,21.8401 30.0646,21.9171 C30.0066,21.9601 29.9366,21.9831 29.8626,21.9831 L29.8626,21.9831 Z" id="Fill-171" fill="#1A1A1A"></path>
                <path d="M26.4316,11.0791 L24.7166,14.5551 L22.1876,14.9231 L24.7166,14.5551 L26.4316,11.0791 L28.1476,14.5551 L29.3096,14.7241 L28.1476,14.5551 L26.4316,11.0791 Z M31.9836,15.1131 L29.2076,17.8181 L31.9836,15.1131 Z M21.6196,15.3531 L23.8956,17.5721 C23.9766,17.6511 24.0136,17.7651 23.9946,17.8761 L23.4576,21.0101 L26.2716,19.5311 C26.3696,19.4791 26.4936,19.4791 26.5916,19.5311 L29.4066,21.0101 L28.8686,17.8771 C28.8496,17.7651 28.8866,17.6511 28.9676,17.5721 L31.2446,15.3531 L28.0986,14.8961 C27.9846,14.8791 27.8886,14.8081 27.8386,14.7071 L26.4316,11.8561 L25.0246,14.7071 C24.9746,14.8081 24.8786,14.8791 24.7666,14.8951 L21.6196,15.3531 Z M20.8806,15.1131 L23.6566,17.8181 L23.0006,21.6391 L23.0006,21.6391 L23.6566,17.8181 L20.8806,15.1131 Z M29.8626,21.9831 C29.8066,21.9831 29.7516,21.9691 29.7026,21.9431 L26.4316,20.2241 L23.1606,21.9431 C23.0466,22.0041 22.9046,21.9941 22.7986,21.9171 C22.6916,21.8401 22.6396,21.7111 22.6616,21.5811 L23.2866,17.9391 L20.6406,15.3591 C20.5476,15.2691 20.5136,15.1301 20.5536,15.0071 C20.5936,14.8831 20.7026,14.7911 20.8306,14.7721 L24.4876,14.2411 L26.1236,10.9271 C26.2356,10.7001 26.6286,10.7001 26.7406,10.9271 L28.3756,14.2411 L32.0336,14.7721 C32.1616,14.7911 32.2706,14.8831 32.3106,15.0071 C32.3506,15.1301 32.3166,15.2691 32.2236,15.3591 L29.5776,17.9391 L30.2026,21.5801 C30.2236,21.7111 30.1716,21.8401 30.0646,21.9171 C30.0066,21.9601 29.9366,21.9831 29.8626,21.9831 Z" id="Stroke-173" stroke="#1A1A1A" stroke-width="0.25"></path>
                <polygon id="Fill-175" fill="#FFC34E" points="31.3755 83.3891 33.2155 87.1171 37.3295 87.7151 34.3525 90.6171 35.0555 94.7141 31.3755 92.7801 27.6955 94.7141 28.3985 90.6171 25.4215 87.7151 29.5355 87.1171"></polygon>
                <path d="M25.8984,87.8696 L28.5534,90.4576 C28.6054,90.5096 28.6294,90.5826 28.6174,90.6546 L27.9904,94.3076 L31.2724,92.5836 C31.3364,92.5496 31.4144,92.5496 31.4794,92.5836 L34.7604,94.3076 L34.1334,90.6546 C34.1214,90.5826 34.1454,90.5096 34.1974,90.4576 L36.8524,87.8696 L33.1834,87.3366 C33.1114,87.3256 33.0484,87.2806 33.0164,87.2156 L31.3754,83.8906 L29.7344,87.2156 C29.7024,87.2806 29.6394,87.3256 29.5674,87.3366 L25.8984,87.8696 Z M35.0554,94.9356 C35.0194,94.9356 34.9844,94.9286 34.9524,94.9106 L31.3754,93.0296 L27.7984,94.9106 C27.7244,94.9506 27.6334,94.9436 27.5654,94.8926 C27.4964,94.8446 27.4624,94.7606 27.4774,94.6766 L28.1604,90.6936 L25.2674,87.8746 C25.2064,87.8146 25.1844,87.7266 25.2114,87.6466 C25.2364,87.5656 25.3064,87.5076 25.3894,87.4956 L29.3884,86.9146 L31.1764,83.2906 C31.2514,83.1406 31.5004,83.1406 31.5744,83.2906 L33.3624,86.9146 L37.3614,87.4956 C37.4444,87.5076 37.5144,87.5656 37.5404,87.6466 C37.5654,87.7266 37.5444,87.8146 37.4834,87.8746 L34.5904,90.6936 L35.2734,94.6766 C35.2884,94.7606 35.2544,94.8446 35.1854,94.8926 C35.1474,94.9216 35.1014,94.9356 35.0554,94.9356 L35.0554,94.9356 Z" id="Fill-177" fill="#1A1A1A"></path>
                <path d="M25.8984,87.8696 L28.5534,90.4576 C28.6054,90.5096 28.6294,90.5826 28.6174,90.6546 L27.9904,94.3076 L31.2724,92.5836 C31.3364,92.5496 31.4144,92.5496 31.4794,92.5836 L34.7604,94.3076 L34.1334,90.6546 C34.1214,90.5826 34.1454,90.5096 34.1974,90.4576 L36.8524,87.8696 L33.1834,87.3366 C33.1114,87.3256 33.0484,87.2806 33.0164,87.2156 L31.3754,83.8906 L29.7344,87.2156 C29.7024,87.2806 29.6394,87.3256 29.5674,87.3366 L25.8984,87.8696 Z M35.0554,94.9356 C35.0194,94.9356 34.9844,94.9286 34.9524,94.9106 L31.3754,93.0296 L27.7984,94.9106 C27.7244,94.9506 27.6334,94.9436 27.5654,94.8926 C27.4964,94.8446 27.4624,94.7606 27.4774,94.6766 L28.1604,90.6936 L25.2674,87.8746 C25.2064,87.8146 25.1844,87.7266 25.2114,87.6466 C25.2364,87.5656 25.3064,87.5076 25.3894,87.4956 L29.3884,86.9146 L31.1764,83.2906 C31.2514,83.1406 31.5004,83.1406 31.5744,83.2906 L33.3624,86.9146 L37.3614,87.4956 C37.4444,87.5076 37.5144,87.5656 37.5404,87.6466 C37.5654,87.7266 37.5444,87.8146 37.4834,87.8746 L34.5904,90.6936 L35.2734,94.6766 C35.2884,94.7606 35.2544,94.8446 35.1854,94.8926 C35.1474,94.9216 35.1014,94.9356 35.0554,94.9356 Z" id="Stroke-179" stroke="#1A1A1A" stroke-width="0.25"></path>
                <path d="M31.3755,83.3891 L29.5355,87.1181 L26.7365,87.5241 L29.5365,87.1181 L31.3755,83.3891 L33.2155,87.1181 L34.5175,87.3061 L33.2155,87.1181 L31.3755,83.3891 Z M37.3295,87.7151 L34.3525,90.6171 L37.3295,87.7151 Z M26.3755,88.0251 L28.7085,90.2991 C28.8125,90.4011 28.8605,90.5471 28.8365,90.6921 L28.2855,93.9031 L31.1695,92.3871 C31.2985,92.3191 31.4535,92.3191 31.5825,92.3871 L34.4655,93.9031 L33.9155,90.6931 C33.8905,90.5471 33.9385,90.4011 34.0425,90.2991 L36.3755,88.0251 L33.1515,87.5561 C33.0055,87.5351 32.8815,87.4441 32.8165,87.3131 L31.3755,84.3921 L29.9335,87.3141 C29.8695,87.4441 29.7455,87.5351 29.6005,87.5561 L26.3755,88.0251 Z M25.4215,87.7151 L25.4215,87.7151 L28.3985,90.6171 L27.6955,94.7141 L27.6955,94.7141 L28.3985,90.6171 L25.4215,87.7151 Z M35.0555,95.1581 C34.9825,95.1581 34.9115,95.1401 34.8475,95.1071 L31.3755,93.2811 L27.9015,95.1071 C27.7545,95.1851 27.5715,95.1721 27.4345,95.0731 C27.2975,94.9741 27.2295,94.8071 27.2585,94.6391 L27.9215,90.7721 L25.1125,88.0341 C24.9925,87.9161 24.9485,87.7381 25.0005,87.5781 C25.0525,87.4161 25.1895,87.3001 25.3575,87.2761 L29.2415,86.7111 L30.9785,83.1931 C31.1225,82.9011 31.6295,82.9011 31.7735,83.1931 L33.5095,86.7111 L37.3935,87.2761 C37.5615,87.3001 37.6995,87.4161 37.7515,87.5781 C37.8035,87.7381 37.7585,87.9161 37.6385,88.0341 L34.8295,90.7721 L35.4925,94.6391 C35.5215,94.8071 35.4535,94.9741 35.3155,95.0741 C35.2405,95.1281 35.1495,95.1581 35.0555,95.1581 L35.0555,95.1581 Z" id="Fill-181" fill="#1A1A1A"></path>
                <path d="M31.3755,83.3891 L29.5355,87.1181 L26.7365,87.5241 L29.5365,87.1181 L31.3755,83.3891 L33.2155,87.1181 L34.5175,87.3061 L33.2155,87.1181 L31.3755,83.3891 Z M37.3295,87.7151 L34.3525,90.6171 L37.3295,87.7151 Z M26.3755,88.0251 L28.7085,90.2991 C28.8125,90.4011 28.8605,90.5471 28.8365,90.6921 L28.2855,93.9031 L31.1695,92.3871 C31.2985,92.3191 31.4535,92.3191 31.5825,92.3871 L34.4655,93.9031 L33.9155,90.6931 C33.8905,90.5471 33.9385,90.4011 34.0425,90.2991 L36.3755,88.0251 L33.1515,87.5561 C33.0055,87.5351 32.8815,87.4441 32.8165,87.3131 L31.3755,84.3921 L29.9335,87.3141 C29.8695,87.4441 29.7455,87.5351 29.6005,87.5561 L26.3755,88.0251 Z M25.4215,87.7151 L25.4215,87.7151 L28.3985,90.6171 L27.6955,94.7141 L27.6955,94.7141 L28.3985,90.6171 L25.4215,87.7151 Z M35.0555,95.1581 C34.9825,95.1581 34.9115,95.1401 34.8475,95.1071 L31.3755,93.2811 L27.9015,95.1071 C27.7545,95.1851 27.5715,95.1721 27.4345,95.0731 C27.2975,94.9741 27.2295,94.8071 27.2585,94.6391 L27.9215,90.7721 L25.1125,88.0341 C24.9925,87.9161 24.9485,87.7381 25.0005,87.5781 C25.0525,87.4161 25.1895,87.3001 25.3575,87.2761 L29.2415,86.7111 L30.9785,83.1931 C31.1225,82.9011 31.6295,82.9011 31.7735,83.1931 L33.5095,86.7111 L37.3935,87.2761 C37.5615,87.3001 37.6995,87.4161 37.7515,87.5781 C37.8035,87.7381 37.7585,87.9161 37.6385,88.0341 L34.8295,90.7721 L35.4925,94.6391 C35.5215,94.8071 35.4535,94.9741 35.3155,95.0741 C35.2405,95.1281 35.1495,95.1581 35.0555,95.1581 Z" id="Stroke-183" stroke="#1A1A1A" stroke-width="0.25"></path>
                <polygon id="Fill-185" fill="#FFC34E" points="2.437 36.33 5.187 37.968 8.095 36.631 7.386 39.752 9.556 42.105 6.369 42.396 4.802 45.186 3.54 42.246 0.402 41.617 2.81 39.509"></polygon>
                <path d="M0.8867,41.4883 L3.5837,42.0283 C3.6557,42.0423 3.7157,42.0913 3.7437,42.1573 L4.8287,44.6863 L6.1757,42.2873 C6.2117,42.2233 6.2767,42.1813 6.3487,42.1753 L9.0877,41.9253 L7.2237,39.9033 C7.1737,39.8493 7.1537,39.7753 7.1707,39.7033 L7.7787,37.0213 L5.2797,38.1693 C5.2137,38.2003 5.1357,38.1963 5.0727,38.1583 L2.7097,36.7513 L3.0307,39.4833 C3.0377,39.5553 3.0107,39.6273 2.9557,39.6753 L0.8867,41.4883 Z M4.8017,45.4083 C4.7977,45.4083 4.7937,45.4083 4.7897,45.4073 C4.7057,45.4043 4.6307,45.3513 4.5977,45.2743 L3.3827,42.4403 L0.3587,41.8353 C0.2757,41.8183 0.2097,41.7563 0.1877,41.6753 C0.1657,41.5933 0.1927,41.5063 0.2567,41.4503 L2.5757,39.4183 L2.2167,36.3563 C2.2067,36.2723 2.2457,36.1893 2.3167,36.1433 C2.3867,36.0983 2.4787,36.0963 2.5507,36.1393 L5.1997,37.7173 L8.0017,36.4303 C8.0787,36.3943 8.1687,36.4053 8.2347,36.4593 C8.3007,36.5123 8.3297,36.5983 8.3107,36.6803 L7.6287,39.6883 L9.7187,41.9553 C9.7767,42.0173 9.7937,42.1063 9.7627,42.1853 C9.7327,42.2643 9.6607,42.3193 9.5757,42.3263 L6.5057,42.6063 L4.9947,45.2953 C4.9557,45.3653 4.8817,45.4083 4.8017,45.4083 L4.8017,45.4083 Z" id="Fill-187" fill="#1A1A1A"></path>
                <path d="M0.8867,41.4883 L3.5837,42.0283 C3.6557,42.0423 3.7157,42.0913 3.7437,42.1573 L4.8287,44.6863 L6.1757,42.2873 C6.2117,42.2233 6.2767,42.1813 6.3487,42.1753 L9.0877,41.9253 L7.2237,39.9033 C7.1737,39.8493 7.1537,39.7753 7.1707,39.7033 L7.7787,37.0213 L5.2797,38.1693 C5.2137,38.2003 5.1357,38.1963 5.0727,38.1583 L2.7097,36.7513 L3.0307,39.4833 C3.0377,39.5553 3.0107,39.6273 2.9557,39.6753 L0.8867,41.4883 Z M4.8017,45.4083 C4.7977,45.4083 4.7937,45.4083 4.7897,45.4073 C4.7057,45.4043 4.6307,45.3513 4.5977,45.2743 L3.3827,42.4403 L0.3587,41.8353 C0.2757,41.8183 0.2097,41.7563 0.1877,41.6753 C0.1657,41.5933 0.1927,41.5063 0.2567,41.4503 L2.5757,39.4183 L2.2167,36.3563 C2.2067,36.2723 2.2457,36.1893 2.3167,36.1433 C2.3867,36.0983 2.4787,36.0963 2.5507,36.1393 L5.1997,37.7173 L8.0017,36.4303 C8.0787,36.3943 8.1687,36.4053 8.2347,36.4593 C8.3007,36.5123 8.3297,36.5983 8.3107,36.6803 L7.6287,39.6883 L9.7187,41.9553 C9.7767,42.0173 9.7937,42.1063 9.7627,42.1853 C9.7327,42.2643 9.6607,42.3193 9.5757,42.3263 L6.5057,42.6063 L4.9947,45.2953 C4.9557,45.3653 4.8817,45.4083 4.8017,45.4083 Z" id="Stroke-189" stroke="#1A1A1A" stroke-width="0.25"></path>
                <path d="M1.0078,41.456 L3.5938,41.974 C3.6838,41.992 3.7588,42.052 3.7958,42.136 L4.8358,44.561 L6.1278,42.26 C6.1718,42.181 6.2528,42.128 6.3438,42.12 L8.9708,41.88 L7.1828,39.941 C7.1208,39.874 7.0958,39.781 7.1158,39.691 L7.6998,37.119 L5.3018,38.22 C5.2198,38.259 5.1238,38.253 5.0448,38.206 L2.7788,36.856 L3.0858,39.477 C3.0958,39.567 3.0608,39.658 2.9918,39.717 L1.0078,41.456 Z M4.8218,44.811 L3.6938,42.18 C3.6718,42.129 3.6268,42.093 3.5728,42.082 L0.7658,41.521 L2.9188,39.634 C2.9608,39.598 2.9818,39.544 2.9748,39.489 L2.6418,36.645 L5.1008,38.111 C5.1478,38.139 5.2078,38.143 5.2558,38.119 L7.8578,36.923 L7.2248,39.716 C7.2128,39.769 7.2268,39.825 7.2648,39.866 L9.2048,41.97 L6.3538,42.23 C6.2998,42.236 6.2508,42.267 6.2248,42.314 L4.8218,44.811 Z M2.4378,36.164 C2.4058,36.164 2.3748,36.173 2.3468,36.191 C2.2938,36.225 2.2648,36.286 2.2718,36.35 L2.6338,39.441 L2.6118,39.46 L0.2928,41.492 C0.2458,41.534 0.2248,41.6 0.2408,41.661 C0.2578,41.722 0.3078,41.768 0.3698,41.781 L3.4218,42.392 L4.6488,45.252 C4.6738,45.311 4.7288,45.35 4.7928,45.352 L4.8018,45.409 L4.8018,45.353 C4.8618,45.353 4.9168,45.321 4.9468,45.268 L6.4718,42.554 L9.5708,42.271 C9.6348,42.266 9.6888,42.225 9.7118,42.165 C9.7348,42.105 9.7218,42.039 9.6778,41.993 L7.5688,39.704 L7.5748,39.676 L8.2568,36.669 C8.2708,36.606 8.2488,36.542 8.1998,36.502 C8.1488,36.461 8.0818,36.453 8.0258,36.48 L5.1968,37.78 L5.1718,37.765 L2.5228,36.187 C2.4968,36.172 2.4668,36.164 2.4378,36.164 L2.4378,36.164 Z M4.8018,45.464 L4.7838,45.463 C4.6808,45.458 4.5888,45.394 4.5468,45.296 L3.3428,42.489 L0.3478,41.89 C0.2438,41.869 0.1618,41.792 0.1338,41.689 C0.1078,41.588 0.1408,41.477 0.2198,41.409 L2.5168,39.396 L2.1618,36.363 C2.1498,36.257 2.1968,36.155 2.2868,36.098 C2.3748,36.04 2.4888,36.039 2.5788,36.092 L5.2028,37.655 L7.9788,36.38 C8.0738,36.335 8.1858,36.349 8.2698,36.416 C8.3518,36.483 8.3888,36.589 8.3648,36.693 L7.6898,39.672 L9.7598,41.917 C9.8318,41.996 9.8538,42.105 9.8148,42.205 C9.7768,42.305 9.6878,42.372 9.5818,42.382 L6.5398,42.659 L5.0438,45.323 C4.9938,45.41 4.9018,45.464 4.8018,45.464 L4.8018,45.464 Z" id="Fill-191" fill="#1A1A1A"></path>
                <path d="M1.0078,41.456 L3.5938,41.974 C3.6838,41.992 3.7588,42.052 3.7958,42.136 L4.8358,44.561 L6.1278,42.26 C6.1718,42.181 6.2528,42.128 6.3438,42.12 L8.9708,41.88 L7.1828,39.941 C7.1208,39.874 7.0958,39.781 7.1158,39.691 L7.6998,37.119 L5.3018,38.22 C5.2198,38.259 5.1238,38.253 5.0448,38.206 L2.7788,36.856 L3.0858,39.477 C3.0958,39.567 3.0608,39.658 2.9918,39.717 L1.0078,41.456 Z M4.8218,44.811 L3.6938,42.18 C3.6718,42.129 3.6268,42.093 3.5728,42.082 L0.7658,41.521 L2.9188,39.634 C2.9608,39.598 2.9818,39.544 2.9748,39.489 L2.6418,36.645 L5.1008,38.111 C5.1478,38.139 5.2078,38.143 5.2558,38.119 L7.8578,36.923 L7.2248,39.716 C7.2128,39.769 7.2268,39.825 7.2648,39.866 L9.2048,41.97 L6.3538,42.23 C6.2998,42.236 6.2508,42.267 6.2248,42.314 L4.8218,44.811 Z M2.4378,36.164 C2.4058,36.164 2.3748,36.173 2.3468,36.191 C2.2938,36.225 2.2648,36.286 2.2718,36.35 L2.6338,39.441 L2.6118,39.46 L0.2928,41.492 C0.2458,41.534 0.2248,41.6 0.2408,41.661 C0.2578,41.722 0.3078,41.768 0.3698,41.781 L3.4218,42.392 L4.6488,45.252 C4.6738,45.311 4.7288,45.35 4.7928,45.352 L4.8018,45.409 L4.8018,45.353 C4.8618,45.353 4.9168,45.321 4.9468,45.268 L6.4718,42.554 L9.5708,42.271 C9.6348,42.266 9.6888,42.225 9.7118,42.165 C9.7348,42.105 9.7218,42.039 9.6778,41.993 L7.5688,39.704 L7.5748,39.676 L8.2568,36.669 C8.2708,36.606 8.2488,36.542 8.1998,36.502 C8.1488,36.461 8.0818,36.453 8.0258,36.48 L5.1968,37.78 L5.1718,37.765 L2.5228,36.187 C2.4968,36.172 2.4668,36.164 2.4378,36.164 Z M4.8018,45.464 L4.7838,45.463 C4.6808,45.458 4.5888,45.394 4.5468,45.296 L3.3428,42.489 L0.3478,41.89 C0.2438,41.869 0.1618,41.792 0.1338,41.689 C0.1078,41.588 0.1408,41.477 0.2198,41.409 L2.5168,39.396 L2.1618,36.363 C2.1498,36.257 2.1968,36.155 2.2868,36.098 C2.3748,36.04 2.4888,36.039 2.5788,36.092 L5.2028,37.655 L7.9788,36.38 C8.0738,36.335 8.1858,36.349 8.2698,36.416 C8.3518,36.483 8.3888,36.589 8.3648,36.693 L7.6898,39.672 L9.7598,41.917 C9.8318,41.996 9.8538,42.105 9.8148,42.205 C9.7768,42.305 9.6878,42.372 9.5818,42.382 L6.5398,42.659 L5.0438,45.323 C4.9938,45.41 4.9018,45.464 4.8018,45.464 Z" id="Stroke-193" stroke="#1A1A1A" stroke-width="0.25"></path>
                <polygon id="Fill-195" fill="#FFC34E" points="192.2554 87.3354 193.9144 92.4574 199.0734 93.9944 194.7144 97.1544 194.8464 102.5364 190.4944 99.3674 185.4174 101.1554 187.0864 96.0374 183.8164 91.7624 189.1994 91.7674"></polygon>
                <path d="M190.4946,99.146 C190.5406,99.146 190.5866,99.16 190.6246,99.188 L194.6136,102.092 L194.4926,97.16 C194.4906,97.086 194.5246,97.017 194.5846,96.975 L198.5786,94.079 L193.8506,92.67 C193.7806,92.649 193.7256,92.595 193.7026,92.526 L192.1826,87.833 L189.3816,91.893 C189.3406,91.954 189.2716,91.99 189.1996,91.99 L189.1986,91.99 L184.2656,91.984 L187.2626,95.904 C187.3066,95.961 187.3196,96.038 187.2966,96.107 L185.7676,100.797 L190.4206,99.159 C190.4446,99.15 190.4706,99.146 190.4946,99.146 M194.8466,102.758 C194.8006,102.758 194.7546,102.744 194.7166,102.715 L190.4586,99.616 L185.4906,101.366 C185.4116,101.392 185.3236,101.375 185.2626,101.315 C185.2016,101.255 185.1806,101.167 185.2056,101.087 L186.8386,96.081 L183.6396,91.897 C183.5886,91.83 183.5796,91.739 183.6176,91.664 C183.6546,91.587 183.7316,91.54 183.8156,91.54 L183.8166,91.54 L189.0826,91.545 L192.0736,87.209 C192.1206,87.14 192.2046,87.105 192.2876,87.117 C192.3706,87.128 192.4406,87.187 192.4666,87.267 L194.0886,92.278 L199.1366,93.782 C199.2176,93.806 199.2776,93.875 199.2916,93.958 C199.3056,94.041 199.2716,94.125 199.2036,94.174 L194.9386,97.266 L195.0686,102.531 C195.0706,102.615 195.0246,102.694 194.9496,102.733 C194.9166,102.75 194.8816,102.758 194.8466,102.758" id="Fill-197" fill="#1A1A1A"></path>
                <path d="M190.4946,99.146 C190.5406,99.146 190.5866,99.16 190.6246,99.188 L194.6136,102.092 L194.4926,97.16 C194.4906,97.086 194.5246,97.017 194.5846,96.975 L198.5786,94.079 L193.8506,92.67 C193.7806,92.649 193.7256,92.595 193.7026,92.526 L192.1826,87.833 L189.3816,91.893 C189.3406,91.954 189.2716,91.99 189.1996,91.99 L189.1986,91.99 L184.2656,91.984 L187.2626,95.904 C187.3066,95.961 187.3196,96.038 187.2966,96.107 L185.7676,100.797 L190.4206,99.159 C190.4446,99.15 190.4706,99.146 190.4946,99.146 Z M194.8466,102.758 C194.8006,102.758 194.7546,102.744 194.7166,102.715 L190.4586,99.616 L185.4906,101.366 C185.4116,101.392 185.3236,101.375 185.2626,101.315 C185.2016,101.255 185.1806,101.167 185.2056,101.087 L186.8386,96.081 L183.6396,91.897 C183.5886,91.83 183.5796,91.739 183.6176,91.664 C183.6546,91.587 183.7316,91.54 183.8156,91.54 L183.8166,91.54 L189.0826,91.545 L192.0736,87.209 C192.1206,87.14 192.2046,87.105 192.2876,87.117 C192.3706,87.128 192.4406,87.187 192.4666,87.267 L194.0886,92.278 L199.1366,93.782 C199.2176,93.806 199.2776,93.875 199.2916,93.958 C199.3056,94.041 199.2716,94.125 199.2036,94.174 L194.9386,97.266 L195.0686,102.531 C195.0706,102.615 195.0246,102.694 194.9496,102.733 C194.9166,102.75 194.8816,102.758 194.8466,102.758 Z" id="Stroke-199" stroke="#1A1A1A" stroke-width="0.25"></path>
                <path d="M192.2554,87.3364 L193.6594,91.6704 L192.2554,87.3364 L191.7934,88.0074 L192.2554,87.3364 Z M193.9144,92.4574 L195.4444,92.9134 L193.9144,92.4574 Z M199.0724,93.9944 L194.7144,97.1544 L199.0734,93.9944 L199.0724,93.9944 Z M187.0864,96.0384 L186.5494,97.6854 L187.0864,96.0384 Z M185.4174,101.1554 L186.8994,100.6344 L185.4174,101.1554 Z M190.4954,98.9244 C190.5904,98.9244 190.6814,98.9534 190.7574,99.0104 L194.3804,101.6484 L194.2704,97.1654 C194.2674,97.0194 194.3364,96.8804 194.4544,96.7954 L198.0854,94.1634 L193.7874,92.8834 C193.6474,92.8414 193.5374,92.7334 193.4914,92.5944 L192.1104,88.3284 L189.5644,92.0204 C189.4824,92.1404 189.3454,92.2114 189.1994,92.2114 L184.7144,92.2064 L187.4384,95.7694 C187.5274,95.8854 187.5534,96.0364 187.5084,96.1754 L186.1174,100.4394 L190.3474,98.9484 C190.3964,98.9324 190.4454,98.9244 190.4954,98.9244 L190.4954,98.9244 Z M192.2374,100.6374 L194.8454,102.5354 L194.8454,102.5344 L192.2374,100.6374 Z M194.8464,102.5364 L194.8464,102.7584 L194.8464,102.5364 Z M194.8464,102.9804 C194.7524,102.9804 194.6614,102.9504 194.5854,102.8954 L190.4224,99.8634 L185.5644,101.5744 C185.4034,101.6294 185.2284,101.5914 185.1074,101.4744 C184.9854,101.3554 184.9434,101.1814 184.9954,101.0194 L186.5924,96.1224 L183.4634,92.0314 C183.3604,91.8964 183.3434,91.7184 183.4184,91.5654 C183.4934,91.4134 183.6454,91.3174 183.8164,91.3174 L188.9664,91.3234 L191.8904,87.0834 C191.9854,86.9464 192.1474,86.8734 192.3164,86.8964 C192.4884,86.9224 192.6254,87.0374 192.6774,87.1994 L194.2644,92.0994 L199.1994,93.5694 C199.3624,93.6184 199.4824,93.7524 199.5104,93.9204 C199.5384,94.0884 199.4714,94.2534 199.3344,94.3544 L195.1634,97.3774 L195.2904,102.5244 C195.2954,102.6924 195.2014,102.8514 195.0524,102.9294 C194.9904,102.9624 194.9194,102.9804 194.8464,102.9804 L194.8464,102.9804 Z" id="Fill-201" fill="#1A1A1A"></path>
                <path d="M192.2554,87.3364 L193.6594,91.6704 L192.2554,87.3364 L191.7934,88.0074 L192.2554,87.3364 Z M193.9144,92.4574 L195.4444,92.9134 L193.9144,92.4574 Z M199.0724,93.9944 L194.7144,97.1544 L199.0734,93.9944 L199.0724,93.9944 Z M187.0864,96.0384 L186.5494,97.6854 L187.0864,96.0384 Z M185.4174,101.1554 L186.8994,100.6344 L185.4174,101.1554 Z M190.4954,98.9244 C190.5904,98.9244 190.6814,98.9534 190.7574,99.0104 L194.3804,101.6484 L194.2704,97.1654 C194.2674,97.0194 194.3364,96.8804 194.4544,96.7954 L198.0854,94.1634 L193.7874,92.8834 C193.6474,92.8414 193.5374,92.7334 193.4914,92.5944 L192.1104,88.3284 L189.5644,92.0204 C189.4824,92.1404 189.3454,92.2114 189.1994,92.2114 L184.7144,92.2064 L187.4384,95.7694 C187.5274,95.8854 187.5534,96.0364 187.5084,96.1754 L186.1174,100.4394 L190.3474,98.9484 C190.3964,98.9324 190.4454,98.9244 190.4954,98.9244 Z M192.2374,100.6374 L194.8454,102.5354 L194.8454,102.5344 L192.2374,100.6374 Z M194.8464,102.5364 L194.8464,102.7584 L194.8464,102.5364 Z M194.8464,102.9804 C194.7524,102.9804 194.6614,102.9504 194.5854,102.8954 L190.4224,99.8634 L185.5644,101.5744 C185.4034,101.6294 185.2284,101.5914 185.1074,101.4744 C184.9854,101.3554 184.9434,101.1814 184.9954,101.0194 L186.5924,96.1224 L183.4634,92.0314 C183.3604,91.8964 183.3434,91.7184 183.4184,91.5654 C183.4934,91.4134 183.6454,91.3174 183.8164,91.3174 L188.9664,91.3234 L191.8904,87.0834 C191.9854,86.9464 192.1474,86.8734 192.3164,86.8964 C192.4884,86.9224 192.6254,87.0374 192.6774,87.1994 L194.2644,92.0994 L199.1994,93.5694 C199.3624,93.6184 199.4824,93.7524 199.5104,93.9204 C199.5384,94.0884 199.4714,94.2534 199.3344,94.3544 L195.1634,97.3774 L195.2904,102.5244 C195.2954,102.6924 195.2014,102.8514 195.0524,102.9294 C194.9904,102.9624 194.9194,102.9804 194.8464,102.9804 Z" id="Stroke-203" stroke="#1A1A1A" stroke-width="0.25"></path>
                <path d="M112.413624,28.0879 C112.4266,31.3949 107.1976,30.7009 108.1056,27.3449 C108.7416,24.9969 112.3816,25.6779 112.413624,28.0579 L112.413624,28.0879 Z" id="Fill-205" fill="#19BF72"></path>
                <path d="M110.0532,25.4463 L110.0532,25.4463 C108.8862,25.4463 107.9752,26.1293 107.6782,27.2283 C107.3632,28.3903 107.7112,29.1753 108.0592,29.6303 C108.5662,30.2923 109.4062,30.6873 110.3072,30.6873 C111.0322,30.6873 111.6862,30.4303 112.1512,29.9643 C112.6162,29.4973 112.8602,28.8483 112.857227,28.0863 L112.857227,28.0483 C112.8352,26.4213 111.4142,25.4463 110.0532,25.4463 M110.0532,25.8903 C111.1952,25.8903 112.3952,26.6963 112.413226,28.0573 L112.413226,28.0883 C112.4192,29.5643 111.3792,30.2433 110.3072,30.2433 C108.9792,30.2433 107.6032,29.2023 108.1062,27.3443 C108.3782,26.3403 109.1992,25.8903 110.0532,25.8903" id="Fill-207" fill="#1A1A1A"></path>
                <path d="M110.0532,25.4463 L110.0532,25.4463 C108.8862,25.4463 107.9752,26.1293 107.6782,27.2283 C107.3632,28.3903 107.7112,29.1753 108.0592,29.6303 C108.5662,30.2923 109.4062,30.6873 110.3072,30.6873 C111.0322,30.6873 111.6862,30.4303 112.1512,29.9643 C112.6162,29.4973 112.8602,28.8483 112.857227,28.0863 L112.857227,28.0483 C112.8352,26.4213 111.4142,25.4463 110.0532,25.4463 Z M110.0532,25.8903 C111.1952,25.8903 112.3952,26.6963 112.413226,28.0573 L112.413226,28.0883 C112.4192,29.5643 111.3792,30.2433 110.3072,30.2433 C108.9792,30.2433 107.6032,29.2023 108.1062,27.3443 C108.3782,26.3403 109.1992,25.8903 110.0532,25.8903 L110.0532,25.8903 Z" id="Stroke-209" stroke="#1A1A1A" stroke-width="0.25"></path>
                <path d="M221.003937,81.5288 C221.0239,86.5878 213.0229,85.5258 214.4139,80.3908 C215.3859,76.7998 220.9549,77.8418 221.003937,81.4818 C221.003937,81.4978 221.003937,81.5128 221.003937,81.5288" id="Fill-211" fill="#19BF72"></path>
                <path d="M217.3926,77.7221 L217.3926,77.7221 C215.7176,77.7231 214.4116,78.7011 213.9846,80.2761 C213.5286,81.9601 214.0286,83.0921 214.5286,83.7451 C215.2596,84.7011 216.4756,85.2711 217.7816,85.2711 C218.8266,85.2711 219.7686,84.9021 220.4356,84.2331 C221.1016,83.5641 221.4516,82.6281 221.447634,81.5271 L221.447634,81.4761 C221.4156,79.1261 219.3606,77.7221 217.3926,77.7221 M217.3926,78.1661 C219.1406,78.1661 220.9756,79.3991 221.003638,81.4821 C221.003638,81.4971 221.003638,81.5131 221.003638,81.5291 C221.0126,83.7871 219.4206,84.8261 217.7816,84.8261 C215.7496,84.8261 213.6436,83.2331 214.4136,80.3911 C214.8296,78.8551 216.0866,78.1661 217.3926,78.1661" id="Fill-213" fill="#1A1A1A"></path>
                <path d="M217.3926,77.7221 L217.3926,77.7221 C215.7176,77.7231 214.4116,78.7011 213.9846,80.2761 C213.5286,81.9601 214.0286,83.0921 214.5286,83.7451 C215.2596,84.7011 216.4756,85.2711 217.7816,85.2711 C218.8266,85.2711 219.7686,84.9021 220.4356,84.2331 C221.1016,83.5641 221.4516,82.6281 221.447634,81.5271 L221.447634,81.4761 C221.4156,79.1261 219.3606,77.7221 217.3926,77.7221 Z M217.3926,78.1661 C219.1406,78.1661 220.9756,79.3991 221.003638,81.4821 C221.003638,81.4971 221.003638,81.5131 221.003638,81.5291 C221.0126,83.7871 219.4206,84.8261 217.7816,84.8261 C215.7496,84.8261 213.6436,83.2331 214.4136,80.3911 C214.8296,78.8551 216.0866,78.1661 217.3926,78.1661 L217.3926,78.1661 Z" id="Stroke-215" stroke="#1A1A1A" stroke-width="0.25"></path>
                <path d="M39.5015304,60.9946 C39.5185,65.4996 32.3945,64.5556 33.6325,59.9816 C34.4995,56.7826 39.4575,57.7126 39.5015304,60.9536 C39.5015304,60.9676 39.5015304,60.9806 39.5015304,60.9946" id="Fill-217" fill="#F15A55"></path>
                <path d="M36.2856,57.5571 L36.2856,57.5571 C34.7706,57.5571 33.5896,58.4421 33.2036,59.8671 C32.7926,61.3851 33.2446,62.4091 33.6966,62.9981 C34.3566,63.8611 35.4536,64.3751 36.6316,64.3751 C37.5756,64.3751 38.4276,64.0421 39.0296,63.4381 C39.6326,62.8321 39.9496,61.9871 39.9456374,60.9931 L39.9446,60.9471 C39.9166,58.8251 38.0616,57.5571 36.2856,57.5571 M36.2856,58.0001 C37.8416,58.0001 39.4766,59.0981 39.5006,60.9531 C39.5016337,60.9671 39.5016337,60.9811 39.5016337,60.9951 C39.5096,63.0071 38.0916,63.9321 36.6316,63.9321 C34.8226,63.9321 32.9476,62.5131 33.6326,59.9821 C34.0026,58.6141 35.1226,58.0001 36.2856,58.0001" id="Fill-219" fill="#1A1A1A"></path>
                <path d="M36.2856,57.5571 L36.2856,57.5571 C34.7706,57.5571 33.5896,58.4421 33.2036,59.8671 C32.7926,61.3851 33.2446,62.4091 33.6966,62.9981 C34.3566,63.8611 35.4536,64.3751 36.6316,64.3751 C37.5756,64.3751 38.4276,64.0421 39.0296,63.4381 C39.6326,62.8321 39.9496,61.9871 39.9456374,60.9931 L39.9446,60.9471 C39.9166,58.8251 38.0616,57.5571 36.2856,57.5571 Z M36.2856,58.0001 C37.8416,58.0001 39.4766,59.0981 39.5006,60.9531 C39.5016337,60.9671 39.5016337,60.9811 39.5016337,60.9951 C39.5096,63.0071 38.0916,63.9321 36.6316,63.9321 C34.8226,63.9321 32.9476,62.5131 33.6326,59.9821 C34.0026,58.6141 35.1226,58.0001 36.2856,58.0001 L36.2856,58.0001 Z" id="Stroke-221" stroke="#1A1A1A" stroke-width="0.25"></path>
                <path d="M97.2373,13.1753 C95.8663,14.7553 93.6643,12.2473 95.4953,11.0273 C96.7763,10.1743 98.2253,12.0143 97.2493,13.1603 C97.2453,13.1653 97.2413,13.1703 97.2373,13.1753" id="Fill-223" fill="#F15A55"></path>
                <path d="M96.1821,10.3647 L96.1821,10.3647 C95.8551,10.3647 95.5411,10.4637 95.2491,10.6577 C94.4991,11.1577 94.1941,11.9287 94.4331,12.7207 C94.6801,13.5347 95.4361,14.1257 96.2311,14.1257 C96.5821,14.1257 97.0991,14.0117 97.5721,13.4667 L97.5741,13.4647 L97.5881,13.4477 C98.0531,12.9017 98.1441,12.1727 97.8321,11.4967 C97.5141,10.8087 96.8671,10.3647 96.1821,10.3647 M96.1821,10.8087 C97.2161,10.8087 98.0511,12.2187 97.2491,13.1607 C97.2451,13.1657 97.2411,13.1707 97.2371,13.1757 C96.9261,13.5337 96.5711,13.6817 96.2311,13.6817 C95.0741,13.6817 94.0801,11.9697 95.4951,11.0277 C95.7241,10.8747 95.9571,10.8087 96.1821,10.8087" id="Fill-225" fill="#1A1A1A"></path>
                <path d="M96.1821,10.3647 L96.1821,10.3647 C95.8551,10.3647 95.5411,10.4637 95.2491,10.6577 C94.4991,11.1577 94.1941,11.9287 94.4331,12.7207 C94.6801,13.5347 95.4361,14.1257 96.2311,14.1257 C96.5821,14.1257 97.0991,14.0117 97.5721,13.4667 L97.5741,13.4647 L97.5881,13.4477 C98.0531,12.9017 98.1441,12.1727 97.8321,11.4967 C97.5141,10.8087 96.8671,10.3647 96.1821,10.3647 Z M96.1821,10.8087 C97.2161,10.8087 98.0511,12.2187 97.2491,13.1607 C97.2451,13.1657 97.2411,13.1707 97.2371,13.1757 C96.9261,13.5337 96.5711,13.6817 96.2311,13.6817 C95.0741,13.6817 94.0801,11.9697 95.4951,11.0277 C95.7241,10.8747 95.9571,10.8087 96.1821,10.8087 L96.1821,10.8087 Z" id="Stroke-227" stroke="#1A1A1A" stroke-width="0.25"></path>
            </g>
        </g>
    </g>
</svg>