<?xml version="1.0" encoding="UTF-8"?>
<svg width="24px" height="24px" viewBox="0 0 24 24" version="1.1" xmlns="http://www.w3.org/2000/svg" xmlns:xlink="http://www.w3.org/1999/xlink">
    <title>Icon/common/send</title>
    <g id="Icon/common/send" stroke="none" stroke-width="1" fill="none" fill-rule="evenodd">
        <path d="M13.5894782,18.7745318 L11.4193476,13.7121985 L18.6504469,6.48086535 L13.5894782,18.7745318 Z M17.5203374,5.34834334 L10.2872361,12.5806769 L5.2262674,10.4116772 L17.5203374,5.34834334 Z M21.7364767,2.26392164 C21.4772222,2.00680313 21.0898419,1.92876716 20.7555136,2.06883172 L2.55764741,9.56228566 C2.22331918,9.7003493 2.00310298,10.0254992 2.00008618,10.3886666 C1.99809806,10.7508335 2.21330935,11.0799852 2.5466366,11.2220507 L9.70766713,14.2914655 L12.7776812,21.4547672 C12.9198207,21.7859199 13.2451401,22.0000186 13.6064949,22.0000186 L13.6125008,22.0000186 C13.9758575,21.9980176 14.3011769,21.7779162 14.4393125,21.4427617 L21.9316684,3.2433731 C22.070805,2.90721815 21.9937293,2.52104015 21.7364767,2.26392164 L21.7364767,2.26392164 Z" id="Combined-Shape" fill="#000000"></path>
    </g>
</svg>