<?xml version="1.0" encoding="UTF-8"?>
<svg width="24px" height="24px" viewBox="0 0 24 24" version="1.1" xmlns="http://www.w3.org/2000/svg" xmlns:xlink="http://www.w3.org/1999/xlink">
    <title>Icon/etc/emoticon_4</title>
    <g id="Icon/etc/emoticon_4" stroke="none" stroke-width="1" fill="none" fill-rule="evenodd">
        <g id="Group" transform="translate(0.000014, 1.999895)">
            <path d="M20.6292857,5.56910471 C22.0372857,7.43510471 22.9452857,10.6311047 23.0022857,12.9391047 C23.0322857,14.1351047 22.7642857,15.3691047 22.0582857,16.3361047 C20.4872857,18.4891047 17.1582857,18.9321047 14.7072857,19.2001047 C11.6902857,19.5311047 8.65028567,19.3401047 5.63228567,19.1731047 C-0.849714335,18.8181047 0.212285665,6.57510471 5.58728567,2.75810471 C7.60228567,1.32910471 10.0452857,0.644104713 12.5082857,0.940104713 C15.4412857,1.29310471 18.7192857,3.03610471 20.6292857,5.56910471" id="Fill-1" fill="#FEFEFE"></path>
            <path d="M3.65178567,6.43290471 C3.65178567,6.43290471 0.223785665,15.4959047 9.05578567,18.8909047 C12.3287857,20.1489047 5.74478567,19.8679047 5.74478567,19.8679047 L2.62878567,17.1129047 L1.08178567,10.9309047 L3.65178567,6.43290471 Z" id="Fill-3" fill="#D6D6D6"></path>
            <path d="M11.2230857,1.99980471 C9.39708567,1.99980471 7.57808567,2.58780471 6.01008567,3.70080471 C2.71208567,6.04180471 1.32108567,11.8988047 2.32608567,15.3758047 C2.86108567,17.2308047 3.94008567,18.2158047 5.53008567,18.3038047 L5.94808567,18.3258047 C8.74808567,18.4798047 11.6460857,18.6408047 14.4420857,18.3328047 C16.9960857,18.0548047 19.8270857,17.6108047 21.0950857,15.8738047 C21.6070857,15.1718047 21.8740857,14.1838047 21.8470857,13.0928047 C21.7890857,10.7848047 20.8550857,7.86380471 19.6750857,6.29780471 C18.0150857,4.09880471 15.0250857,2.39580471 12.2330857,2.06080471 C11.8970857,2.02080471 11.5600857,1.99980471 11.2230857,1.99980471 M10.9080857,20.5088047 C9.20108567,20.5088047 7.50308567,20.4148047 5.83808567,20.3228047 L5.42108567,20.2998047 C2.96008567,20.1648047 1.17908567,18.6128047 0.404085665,15.9318047 C-0.808914335,11.7298047 0.719085665,5.00380471 4.85208567,2.06980471 C7.11708567,0.463804713 9.82508567,-0.244195287 12.4720857,0.0748047135 C15.8210857,0.476804713 19.2750857,2.44680471 21.2710857,5.09380471 C22.8850857,7.23380471 23.7870857,10.7118047 23.8460857,13.0418047 C23.8730857,14.1238047 23.6990857,15.6978047 22.7100857,17.0528047 C20.9610857,19.4478047 17.6380857,19.9958047 14.6590857,20.3208047 C13.4100857,20.4578047 12.1560857,20.5088047 10.9080857,20.5088047" id="Fill-5" fill="#020303"></path>
            <path d="M9.95258567,13.5145047 C9.90158567,14.4935047 9.06458567,15.2465047 8.08458567,15.1965047 C7.10458567,15.1445047 6.35158567,14.3085047 6.40358567,13.3275047 C6.45458567,12.3485047 7.29058567,11.5955047 8.27058567,11.6465047 C9.25058567,11.6985047 10.0035857,12.5345047 9.95258567,13.5145047" id="Fill-8" fill="#E6B463"></path>
            <path d="M14.7987857,7.27810471 C14.7477857,8.25810471 13.9107857,9.01110471 12.9307857,8.96010471 C11.9507857,8.90910471 11.1977857,8.07210471 11.2497857,7.09210471 C11.3007857,6.11210471 12.1367857,5.36010471 13.1167857,5.41110471 C14.0967857,5.46210471 14.8497857,6.29910471 14.7987857,7.27810471" id="Fill-10" fill="#E6B463"></path>
            <path d="M12.3094857,8.46070471 C12.5384857,8.57370471 12.6814857,8.79670471 12.7944857,9.01370471 C13.5714857,10.5167047 12.6264857,12.5287047 11.0204857,12.9147047 C10.5694857,13.0227047 9.86348567,13.0647047 9.47648567,12.7297047 C9.47648567,12.7297047 11.3384857,9.84770471 12.3094857,8.46070471" id="Fill-12" fill="#F4BFB4"></path>
            <path d="M12.2884857,9.82010471 C11.7524857,10.6151047 11.1434857,11.5431047 10.7054857,12.2141047 C10.7514857,12.2061047 10.7984857,12.1971047 10.8464857,12.1851047 C11.3824857,12.0561047 11.8604857,11.6371047 12.1214857,11.0661047 C12.3104857,10.6531047 12.3664857,10.2181047 12.2884857,9.82010471 M10.3704857,13.7411047 C9.92048567,13.7411047 9.39048567,13.6471047 8.98448567,13.2961047 C8.70248567,13.0501047 8.64348567,12.6351047 8.84648567,12.3221047 C8.92248567,12.2041047 10.7274857,9.41310471 11.6954857,8.03110471 C11.9074857,7.72610471 12.3094857,7.62410471 12.6424857,7.78910471 C13.0774857,8.00510471 13.3174857,8.39310471 13.4594857,8.66810471 C13.9344857,9.58710471 13.9444857,10.6871047 13.4854857,11.6891047 C13.0344857,12.6771047 12.1774857,13.4081047 11.1954857,13.6441047 C11.0454857,13.6791047 10.7344857,13.7411047 10.3704857,13.7411047" id="Fill-14" fill="#CB9386"></path>
            <path d="M15.0941857,15.8973047 C13.6531857,15.0813047 10.7511857,15.0403047 8.40818567,16.6363047" id="Fill-16" fill="#FEFEFE"></path>
            <path d="M8.59368567,17.0447047 C8.59368567,17.0447047 13.3196857,17.1117047 14.9326857,16.2167047 C16.5456857,15.3197047 7.91568567,15.9547047 8.59368567,17.0447047" id="Fill-18" fill="#D6D6D6"></path>
            <path d="M8.40858567,17.3865047 C8.16858567,17.3865047 7.93358567,17.2725047 7.78858567,17.0595047 C7.55458567,16.7165047 7.64358567,16.2495047 7.98558567,16.0165047 C10.5915857,14.2405047 13.7835857,14.2925047 15.4635857,15.2445047 C15.8245857,15.4495047 15.9505857,15.9065047 15.7465857,16.2665047 C15.5425857,16.6275047 15.0845857,16.7545047 14.7245857,16.5495047 C13.4485857,15.8265047 10.8325857,15.8915047 8.83058567,17.2565047 C8.70058567,17.3445047 8.55458567,17.3865047 8.40858567,17.3865047" id="Fill-20" fill="#020303"></path>
            <path d="M11.5213857,5.99350471 C11.9753857,6.31250471 12.0843857,6.93850471 11.7663857,7.39250471 C11.4473857,7.84550471 10.8213857,7.95450471 10.3673857,7.63650471 C9.91338567,7.31850471 9.80438567,6.69250471 10.1223857,6.23850471 C10.4403857,5.78450471 11.0673857,5.67450471 11.5213857,5.99350471" id="Fill-22" fill="#020303"></path>
            <path d="M8.05358567,11.0184047 C8.50758567,11.3374047 8.61658567,11.9634047 8.29858567,12.4174047 C7.97958567,12.8714047 7.35358567,12.9804047 6.89958567,12.6624047 C6.44558567,12.3434047 6.33658567,11.7174047 6.65458567,11.2634047 C6.97258567,10.8094047 7.59958567,10.7004047 8.05358567,11.0184047" id="Fill-24" fill="#020303"></path>
        </g>
    </g>
</svg>