<?xml version="1.0" encoding="UTF-8"?>
<svg width="24px" height="24px" viewBox="0 0 24 24" version="1.1" xmlns="http://www.w3.org/2000/svg" xmlns:xlink="http://www.w3.org/1999/xlink">
    <title>Icon/etc/emoticon_6</title>
    <g id="Icon/etc/emoticon_6" stroke="none" stroke-width="1" fill="none" fill-rule="evenodd">
        <g id="Group" transform="translate(0.000000, 2.000000)">
            <path d="M11.9667921,1.0035 C17.1067921,1.0035 19.5437921,5.1305 20.1637921,6.9805 C20.8957921,6.5045 20.9747921,6.3565 22.0397921,5.8325 C22.2177921,5.7445 22.3647921,5.7055 22.4857921,5.7055 C23.1397921,5.7055 23.0167921,6.8575 22.9437921,7.6065 C22.7787921,9.2745 21.8727921,10.3345 20.9797921,10.7475 C21.0437921,11.3715 21.0657921,11.9985 21.0167921,12.6135 C20.9727921,13.1575 20.8737921,13.6925 20.7097921,14.2115 C19.8197921,16.9975 17.3457921,18.0045 14.8367921,18.4115 C13.8887921,18.5645 12.9267921,18.6465 11.9647921,18.6465 C10.9257921,18.6465 9.88679215,18.5505 8.86679215,18.3475 C7.50879215,18.0755 6.17579215,17.5325 5.09679215,16.6105 C3.44079215,15.1955 2.84879215,13.2845 2.92079215,11.3085 C2.65579215,11.2795 2.39679215,11.2255 2.15379215,11.1575 C1.48779215,10.9675 0.467792145,10.3875 1.34079215,9.5415 C2.16379215,8.7455 3.01979215,8.0015 3.88779215,7.2765 C4.18679215,6.5895 4.53679215,5.9315 4.92579215,5.3285 C6.58679215,2.7485 9.24279215,1.0045 11.9607921,1.0035 L11.9667921,1.0035" id="Fill-1" fill="#FEE26D"></path>
            <path d="M5.28319215,6.3717 C5.28319215,6.3717 5.95319215,17.3827 12.6551921,18.1007 C10.8241921,18.8667 5.52219215,17.3347 5.52219215,17.3347 L4.21519215,15.6817 L2.63319215,11.2647 L1.29119215,10.7187 L1.34119215,9.5417 L4.18119215,7.2647 L5.28319215,6.3717 Z" id="Fill-3" fill="#EF8128"></path>
            <path d="M2.20019215,10.109 C2.26619215,10.138 2.34519215,10.168 2.42919215,10.192 C2.61419215,10.244 2.81919215,10.288 3.02719215,10.31 C3.55219215,10.366 3.94319215,10.818 3.92419215,11.345 C3.85519215,13.239 4.46919215,14.754 5.74919215,15.847 C6.61319215,16.587 7.72819215,17.096 9.06319215,17.363 C10.8221921,17.713 12.7321921,17.732 14.6781921,17.421 C17.5211921,16.959 19.1351921,15.842 19.7541921,13.906 C19.8881921,13.48 19.9761921,13.018 20.0151921,12.533 C20.0561921,12.022 20.0451921,11.472 19.9801921,10.851 C19.9361921,10.424 20.1691921,10.016 20.5581921,9.837 C21.1431921,9.566 21.8151921,8.812 21.9441921,7.507 C21.9571921,7.374 21.9761921,7.175 21.9881921,6.98 C21.6631921,7.166 21.4871921,7.289 21.2561921,7.451 C21.1041921,7.557 20.9371921,7.675 20.7111921,7.822 C20.4521921,7.992 20.1271921,8.03 19.8341921,7.928 C19.5401921,7.826 19.3101921,7.593 19.2121921,7.299 C19.1391921,7.084 17.3761921,2.007 11.9671921,2.007 L11.9611921,2.007 C9.67619215,2.009 7.30419215,3.49 5.77019215,5.873 C5.41019215,6.43 5.08719215,7.038 4.80819215,7.677 C4.74619215,7.821 4.65119215,7.948 4.53119215,8.047 C3.60619215,8.82 2.85919215,9.48 2.20019215,10.109 M11.9651921,19.65 C10.8391921,19.65 9.73019215,19.544 8.67119215,19.332 C6.99519215,18.997 5.57319215,18.338 4.44419215,17.375 C2.90419215,16.059 2.04319215,14.26 1.92519215,12.136 C1.91219215,12.132 1.89819215,12.129 1.88519215,12.126 C1.41219215,11.99 0.300192145,11.571 0.0461921454,10.558 C-0.0408078546,10.21 -0.0798078546,9.52 0.642192145,8.821 C1.33519215,8.15 2.10819215,7.46 3.06419215,6.657 C3.36319215,5.998 3.70519215,5.369 4.08219215,4.784 C5.98019215,1.835 9.00019215,0.001 11.9601921,-6.75015599e-14 L11.9671921,-6.75015599e-14 C16.6161921,-6.75015599e-14 19.3811921,3.037 20.6111921,5.466 C20.8461921,5.32 21.1441921,5.154 21.5971921,4.931 C22.3571921,4.554 23.0841921,4.659 23.5411921,5.164 C24.1281921,5.811 24.0271921,6.841 23.9461921,7.67 C23.7711921,9.438 22.9241921,10.629 22.0291921,11.285 C22.0561921,11.781 22.0531921,12.246 22.0171921,12.693 C21.9661921,13.33 21.8481921,13.942 21.6671921,14.514 C20.8041921,17.216 18.6221921,18.814 14.9981921,19.403 C13.9751921,19.567 12.9561921,19.65 11.9651921,19.65" id="Fill-5" fill="#020303"></path>
            <path d="M16.0185921,6.8121 C16.0185921,7.3671 15.5695921,7.8161 15.0145921,7.8161 C14.4595921,7.8161 14.0105921,7.3671 14.0105921,6.8121 C14.0105921,6.2571 14.4595921,5.8071 15.0145921,5.8071 C15.5695921,5.8071 16.0185921,6.2571 16.0185921,6.8121" id="Fill-7" fill="#020303"></path>
            <path d="M13.5839921,7.2643 C13.5839921,7.8733 12.9669921,8.3683 12.2039921,8.3683 C11.4409921,8.3683 10.8239921,7.8733 10.8239921,7.2643 C10.8239921,6.6543 11.4409921,6.1593 12.2039921,6.1593 C12.9669921,6.1593 13.5839921,6.6543 13.5839921,7.2643" id="Fill-9" fill="#EF8128"></path>
            <path d="M13.5839921,9.0719 C13.5839921,9.6809 12.9669921,10.1759 12.2039921,10.1759 C11.4409921,10.1759 10.8239921,9.6809 10.8239921,9.0719 C10.8239921,8.4619 11.4409921,7.9669 12.2039921,7.9669 C12.9669921,7.9669 13.5839921,8.4619 13.5839921,9.0719" id="Fill-11" fill="#EF8128"></path>
            <path d="M10.4970921,6.8121 C10.4970921,7.3671 10.0480921,7.8161 9.49409215,7.8161 C8.93909215,7.8161 8.49009215,7.3671 8.49009215,6.8121 C8.49009215,6.2571 8.93909215,5.8071 9.49409215,5.8071 C10.0480921,5.8071 10.4970921,6.2571 10.4970921,6.8121" id="Fill-13" fill="#020303"></path>
        </g>
    </g>
</svg>