<?xml version="1.0" encoding="UTF-8"?>
<svg width="24px" height="24px" viewBox="0 0 24 24" version="1.1" xmlns="http://www.w3.org/2000/svg" xmlns:xlink="http://www.w3.org/1999/xlink">
    <title>Icon/common/language</title>
    <g id="Icon/common/language" stroke="none" stroke-width="1" fill="none" fill-rule="evenodd">
        <path d="M8.3921,3.7608 C7.5791,5.0838 6.9731,6.8548 6.6641,8.8978 L3.5631,8.8978 C4.4111,6.6008 6.1631,4.7408 8.3921,3.7608 L8.3921,3.7608 Z M20.4371,8.8978 L17.3351,8.8978 C17.0271,6.8548 16.4211,5.0838 15.6081,3.7608 C17.8371,4.7408 19.5891,6.6008 20.4371,8.8978 L20.4371,8.8978 Z M15.6081,20.2398 C16.3411,19.0468 16.9031,17.4858 17.2331,15.6918 L20.1991,15.6918 C19.2841,17.7178 17.6441,19.3448 15.6081,20.2398 L15.6081,20.2398 Z M6.5461,14.1918 L3.2811,14.1918 C3.1041,13.4888 3.0001,12.7578 3.0001,12.0008 C3.0001,11.4528 3.0571,10.9188 3.1511,10.3978 L6.5011,10.3978 C6.4621,10.9208 6.4351,11.4528 6.4351,12.0008 C6.4351,12.7538 6.4731,13.4868 6.5461,14.1918 L6.5461,14.1918 Z M11.2501,10.3978 L11.2501,14.1918 L8.0591,14.1918 C7.9811,13.4968 7.9351,12.7668 7.9351,12.0008 C7.9351,11.4468 7.9621,10.9148 8.0041,10.3978 L11.2501,10.3978 Z M8.2901,15.6918 L11.2501,15.6918 L11.2501,20.9628 C11.1861,20.9578 11.1211,20.9578 11.0581,20.9508 C9.9151,20.2558 8.8291,18.3598 8.2901,15.6918 L8.2901,15.6918 Z M12.9421,20.9508 C12.8781,20.9578 12.8131,20.9578 12.7501,20.9628 L12.7501,15.6918 L15.7101,15.6918 C15.1701,18.3598 14.0851,20.2558 12.9421,20.9508 L12.9421,20.9508 Z M16.0651,12.0008 C16.0651,12.7668 16.0181,13.4968 15.9401,14.1918 L12.7501,14.1918 L12.7501,10.3978 L15.9961,10.3978 C16.0381,10.9148 16.0651,11.4468 16.0651,12.0008 L16.0651,12.0008 Z M21.0001,12.0008 C21.0001,12.7578 20.8951,13.4888 20.7191,14.1918 L17.4541,14.1918 C17.5271,13.4868 17.5651,12.7538 17.5651,12.0008 C17.5651,11.4528 17.5381,10.9208 17.4991,10.3978 L20.8491,10.3978 C20.9431,10.9188 21.0001,11.4528 21.0001,12.0008 L21.0001,12.0008 Z M15.8141,8.8978 L12.7501,8.8978 L12.7501,3.0378 C12.8131,3.0438 12.8781,3.0438 12.9421,3.0508 C14.1671,3.7958 15.3231,5.9238 15.8141,8.8978 L15.8141,8.8978 Z M11.0581,3.0508 C11.1211,3.0438 11.1861,3.0438 11.2501,3.0378 L11.2501,8.8978 L8.1851,8.8978 C8.6771,5.9238 9.8331,3.7958 11.0581,3.0508 L11.0581,3.0508 Z M3.8011,15.6918 L6.7671,15.6918 C7.0971,17.4858 7.6591,19.0468 8.3921,20.2398 C6.3561,19.3448 4.7161,17.7178 3.8011,15.6918 L3.8011,15.6918 Z M12.0001,23.0008 C18.0651,23.0008 23.0001,18.0668 23.0001,12.0008 C23.0001,5.9348 18.0651,0.9998 12.0001,0.9998 C5.9341,0.9998 1.0001,5.9348 1.0001,12.0008 C1.0001,18.0668 5.9341,23.0008 12.0001,23.0008 L12.0001,23.0008 Z" id="Fill-1" fill="#7B7671"></path>
    </g>
</svg>