<?xml version="1.0" encoding="UTF-8"?>
<svg width="24px" height="24px" viewBox="0 0 24 24" version="1.1" xmlns="http://www.w3.org/2000/svg" xmlns:xlink="http://www.w3.org/1999/xlink">
    <title>Icon/common/mail_2</title>
    <g id="Icon/common/mail_2" stroke="none" stroke-width="1" fill="none" fill-rule="evenodd">
        <path d="M19,4.0001 C21.206,4.0001 23,5.7031 23,7.7961 L23,7.7961 L23,16.1611 C23,18.2781 21.186,20.0001 18.955,20.0001 L18.955,20.0001 L5,20.0001 C2.794,20.0001 1,18.2971 1,16.2031 L1,16.2031 L1,7.8381 C1,5.7221 2.814,4.0001 5.045,4.0001 L5.045,4.0001 Z M19,6.0001 L5.045,6.0001 C3.917,6.0001 3,6.8251 3,7.8381 L3,7.8381 L3,16.2031 C3,17.1941 3.897,18.0001 5,18.0001 L5,18.0001 L18.955,18.0001 C20.083,18.0001 21,17.1751 21,16.1611 L21,16.1611 L21,7.7961 C21,6.8061 20.103,6.0001 19,6.0001 L19,6.0001 Z M17.9589,8.7456 C18.4209,8.4456 19.0409,8.5786 19.3409,9.0426 C19.6409,9.5066 19.5069,10.1256 19.0439,10.4256 L19.0439,10.4256 L15.8569,12.4846 L19.0249,14.4336 C19.4949,14.7226 19.6419,15.3386 19.3529,15.8096 C19.1639,16.1166 18.8359,16.2856 18.4999,16.2856 C18.3209,16.2856 18.1399,16.2376 17.9769,16.1366 L17.9769,16.1366 L11.9999,12.4596 L6.0229,16.1366 C5.5529,16.4256 4.9369,16.2796 4.6479,15.8096 C4.3579,15.3386 4.5049,14.7226 4.9749,14.4336 L4.9749,14.4336 L8.1439,12.4846 L4.9569,10.4256 C4.4929,10.1256 4.3589,9.5066 4.6589,9.0426 C4.9589,8.5786 5.5789,8.4466 6.0419,8.7456 L6.0419,8.7456 L10.0309,11.3236 L11.4759,10.4336 C11.7969,10.2356 12.2029,10.2356 12.5239,10.4336 L12.5239,10.4336 L13.9689,11.3236 Z" id="Combined-Shape" fill="#ffffff"></path>
    </g>
</svg>