<?xml version="1.0" encoding="UTF-8"?>
<svg width="200px" height="200px" viewBox="0 0 200 200" version="1.1" xmlns="http://www.w3.org/2000/svg" xmlns:xlink="http://www.w3.org/1999/xlink">
    <title>illust/b2b/none_friends</title>
    <defs>
        <polygon id="path-1" points="0 117 182.521 117 182.521 0.207 0 0.207"></polygon>
        <path d="M15.897,5.73 C0.156,15.918 -4.345,36.938 5.844,52.678 L5.844,52.678 C16.031,68.419 37.051,72.92 52.791,62.732 L52.791,62.732 C68.533,52.544 73.034,31.524 62.845,15.784 L62.845,15.784 C56.347,5.744 45.444,0.277 34.313,0.277 L34.313,0.277 C27.992,0.277 21.598,2.04 15.897,5.73 L15.897,5.73 Z" id="path-3"></path>
    </defs>
    <g id="illust/b2b/none_friends" stroke="none" stroke-width="1" fill="none" fill-rule="evenodd">
        <g id="Group-73-Copy" transform="translate(9.000000, 41.000000)">
            <polygon id="Fill-1" fill="#F2F2F2" points="103.337 76.794 182.522 76.794 182.522 8.733 103.337 8.733"></polygon>
            <polygon id="Fill-2" fill="#CFCFCF" points="148.361 42.763 178.116 42.763 178.116 13.009 148.361 13.009"></polygon>
            <g id="Group-49" transform="translate(0.000000, 0.793000)">
                <path d="M174.8246,35.5111 C174.3226,33.5401 173.2596,31.4791 171.0456,30.5861 C170.5956,30.4051 169.8966,30.1701 169.3526,30.1131 C168.2656,29.9981 166.9636,29.4541 165.9226,28.8401 L165.9226,26.3921 C165.9266,26.3851 165.9316,26.3791 165.9376,26.3731 L165.9376,26.2111 C166.4526,25.6211 166.9296,24.7761 167.2486,23.5671 L167.2486,23.0801 C167.2486,23.0801 168.1416,23.8111 168.1956,22.2941 C168.2446,20.9441 168.4216,20.2161 167.7526,20.5881 C167.7546,20.5681 168.0746,16.9531 166.3876,15.8031 C164.6956,14.6511 164.8186,14.7981 164.6956,14.6511 C164.5736,14.5031 163.2246,14.2341 162.9056,14.3561 C162.5876,14.4791 161.2666,14.4011 160.4046,14.8221 C159.8526,15.0921 158.9326,16.9801 158.9086,17.1761 C158.8836,17.3731 158.5566,18.7521 158.8506,20.6651 C158.0366,20.1341 158.2306,20.8661 158.2826,22.2941 C158.3366,23.8111 159.2296,23.0801 159.2296,23.0801 L159.2296,23.5671 C159.5506,24.7871 160.0336,25.6361 160.5536,26.2271 L160.5536,28.8411 C159.5126,29.4551 158.2116,29.9981 157.1256,30.1131 C156.5816,30.1701 155.8826,30.4051 155.4326,30.5861 C153.2176,31.4791 152.1556,33.5401 151.6536,35.5111 C151.1276,37.5851 151.1746,39.7631 151.7496,41.8241 L151.7896,41.9701 L163.2396,41.9701 L174.6886,41.9701 L174.7286,41.8241 C175.3026,39.7631 175.3516,37.5851 174.8246,35.5111 L174.8246,35.5111 Z" id="Fill-3" fill="#FFFFFF"></path>
                <path d="M160.5539,28.8819 C160.5539,28.8819 160.5539,28.9099 160.5559,28.9559 L160.5589,28.9569 L160.5699,28.8939 L160.5539,28.8819 Z" id="Fill-5" fill="#CACDEA"></path>
                <polygon id="Fill-7" fill="#CACDEA" points="160.5559 28.9752 160.5589 28.9572 160.5559 28.9552"></polygon>
                <path d="M174.8244,35.5113 C174.3224,33.5403 173.2604,31.4793 171.0454,30.5863 C170.5954,30.4053 169.8964,30.1703 169.3524,30.1133 C168.3054,30.0033 167.0584,29.4923 166.0374,28.9073 C163.5924,29.8593 161.5764,29.3603 160.5584,28.9573 L160.5554,28.9753 L160.5554,28.9553 C160.5144,28.9393 160.4754,28.9243 160.4374,28.9073 C159.4174,29.4933 158.1724,30.0033 157.1254,30.1133 C156.5814,30.1703 155.8824,30.4053 155.4324,30.5863 C153.2184,31.4793 152.1554,33.5403 151.6534,35.5113 C151.1274,37.5853 151.1754,39.7633 151.7494,41.8243 L151.7894,41.9703 L163.2394,41.9703 L174.6884,41.9703 L174.7284,41.8243 C175.3034,39.7633 175.3514,37.5853 174.8244,35.5113" id="Fill-9" fill="#CACDEA"></path>
                <path d="M125.9514,19.9962 L109.8204,19.9962 C108.8364,19.9962 108.0374,19.1982 108.0374,18.2132 L108.0374,18.1772 C108.0374,17.1922 108.8364,16.3942 109.8204,16.3942 L125.9514,16.3942 C126.9354,16.3942 127.7334,17.1922 127.7334,18.1772 L127.7334,18.2132 C127.7334,19.1982 126.9354,19.9962 125.9514,19.9962" id="Fill-11" fill="#B3B3B3"></path>
                <path d="M131.7707,25.6109 L109.8207,25.6109 C108.8357,25.6109 108.0377,24.8129 108.0377,23.8279 L108.0377,23.7919 C108.0377,22.8069 108.8357,22.0089 109.8207,22.0089 L131.7707,22.0089 C132.7547,22.0089 133.5527,22.8069 133.5527,23.7919 L133.5527,23.8279 C133.5527,24.8129 132.7547,25.6109 131.7707,25.6109" id="Fill-13" fill="#B3B3B3"></path>
                <path d="M116.7248,37.4527 L110.0328,37.4527 C108.9308,37.4527 108.0368,36.5597 108.0368,35.4587 L108.0368,35.4187 C108.0368,34.3167 108.9308,33.4237 110.0328,33.4237 L116.7248,33.4237 C117.8268,33.4237 118.7188,34.3167 118.7188,35.4187 L118.7188,35.4587 C118.7188,36.5597 117.8268,37.4527 116.7248,37.4527" id="Fill-15" fill="#B3B3B3"></path>
                <path d="M128.9729,37.4527 L122.2799,37.4527 C121.1789,37.4527 120.2849,36.5597 120.2849,35.4587 L120.2849,35.4187 C120.2849,34.3167 121.1789,33.4237 122.2799,33.4237 L128.9729,33.4237 C130.0749,33.4237 130.9669,34.3167 130.9669,35.4187 L130.9669,35.4587 C130.9669,36.5597 130.0749,37.4527 128.9729,37.4527" id="Fill-17" fill="#B3B3B3"></path>
                <path d="M141.0823,37.4527 L134.3903,37.4527 C133.2883,37.4527 132.3953,36.5597 132.3953,35.4587 L132.3953,35.4187 C132.3953,34.3167 133.2883,33.4237 134.3903,33.4237 L141.0823,33.4237 C142.1843,33.4237 143.0773,34.3167 143.0773,35.4187 L143.0773,35.4587 C143.0773,36.5597 142.1843,37.4527 141.0823,37.4527" id="Fill-19" fill="#B3B3B3"></path>
                <mask id="mask-2" fill="white">
                    <use xlink:href="#path-1"></use>
                </mask>
                <g id="Clip-22"></g>
                <polygon id="Fill-21" fill="#F2F2F2" mask="url(#mask-2)" points="0 76.001 79.184 76.001 79.184 7.94 0 7.94"></polygon>
                <polygon id="Fill-23" fill="#999999" mask="url(#mask-2)" points="45.025 41.97 74.779 41.97 74.779 12.216 45.025 12.216"></polygon>
                <path d="M71.4867,35.5111 C70.9857,33.5401 69.9227,31.4791 67.7087,30.5861 C67.2577,30.4051 66.5597,30.1701 66.0147,30.1131 C64.9277,29.9981 63.6267,29.4541 62.5847,28.8401 L62.5847,26.3921 C62.5887,26.3851 62.5947,26.3791 62.5997,26.3731 L62.5997,26.2111 C63.1157,25.6211 63.5917,24.7761 63.9107,23.5671 L63.9107,23.0801 C63.9107,23.0801 64.8037,23.8111 64.8587,22.2941 C64.9067,20.9441 65.0837,20.2161 64.4157,20.5881 C64.4167,20.5681 64.7377,16.9531 63.0497,15.8031 C61.3587,14.6511 61.4807,14.7981 61.3587,14.6511 C61.2357,14.5031 59.8867,14.2341 59.5687,14.3561 C59.2497,14.4791 57.9297,14.4011 57.0667,14.8221 C56.5147,15.0921 55.5957,16.9801 55.5717,17.1761 C55.5467,17.3731 55.2187,18.7521 55.5137,20.6651 C54.6987,20.1341 54.8937,20.8661 54.9447,22.2941 C54.9997,23.8111 55.8927,23.0801 55.8927,23.0801 L55.8927,23.5671 C56.2127,24.7871 56.6967,25.6361 57.2157,26.2271 L57.2157,28.8411 C56.1747,29.4551 54.8747,29.9981 53.7887,30.1131 C53.2437,30.1701 52.5457,30.4051 52.0947,30.5861 C49.8797,31.4791 48.8177,33.5401 48.3167,35.5111 C47.7897,37.5851 47.8377,39.7631 48.4117,41.8241 L48.4527,41.9701 L59.9017,41.9701 L71.3507,41.9701 L71.3917,41.8241 C71.9647,39.7631 72.0137,37.5851 71.4867,35.5111 L71.4867,35.5111 Z" id="Fill-24" fill="#FFFFFF" mask="url(#mask-2)"></path>
                <path d="M57.216,28.8819 C57.216,28.8819 57.217,28.9099 57.218,28.9559 C57.219,28.9559 57.221,28.9569 57.222,28.9569 L57.233,28.8939 L57.216,28.8819 Z" id="Fill-25" fill="#CACDEA" mask="url(#mask-2)"></path>
                <path d="M57.219,28.9752 L57.222,28.9572 C57.221,28.9562 57.219,28.9562 57.218,28.9552 C57.218,28.9622 57.218,28.9682 57.219,28.9752" id="Fill-26" fill="#CACDEA" mask="url(#mask-2)"></path>
                <path d="M71.4866,35.5113 C70.9856,33.5403 69.9236,31.4793 67.7086,30.5863 C67.2576,30.4053 66.5596,30.1703 66.0146,30.1133 C64.9676,30.0033 63.7216,29.4923 62.7006,28.9073 C60.2546,29.8593 58.2386,29.3603 57.2216,28.9573 L57.2186,28.9753 C57.2176,28.9683 57.2176,28.9623 57.2176,28.9553 C57.1766,28.9393 57.1376,28.9243 57.1006,28.9073 C56.0796,29.4933 54.8346,30.0033 53.7886,30.1133 C53.2436,30.1703 52.5456,30.4053 52.0946,30.5863 C49.8806,31.4793 48.8176,33.5403 48.3166,35.5113 C47.7896,37.5853 47.8386,39.7633 48.4116,41.8243 L48.4526,41.9703 L59.9016,41.9703 L71.3506,41.9703 L71.3916,41.8243 C71.9656,39.7633 72.0136,37.5853 71.4866,35.5113" id="Fill-27" fill="#CACDEA" mask="url(#mask-2)"></path>
                <path d="M22.6135,19.9962 L6.4835,19.9962 C5.4985,19.9962 4.7005,19.1982 4.7005,18.2132 L4.7005,18.1772 C4.7005,17.1922 5.4985,16.3942 6.4835,16.3942 L22.6135,16.3942 C23.5975,16.3942 24.3965,17.1922 24.3965,18.1772 L24.3965,18.2132 C24.3965,19.1982 23.5975,19.9962 22.6135,19.9962" id="Fill-28" fill="#CFCFCF" mask="url(#mask-2)"></path>
                <path d="M28.4328,25.6109 L6.4838,25.6109 C5.4978,25.6109 4.7008,24.8129 4.7008,23.8279 L4.7008,23.7919 C4.7008,22.8069 5.4978,22.0089 6.4838,22.0089 L28.4328,22.0089 C29.4168,22.0089 30.2158,22.8069 30.2158,23.7919 L30.2158,23.8279 C30.2158,24.8129 29.4168,25.6109 28.4328,25.6109" id="Fill-29" fill="#CFCFCF" mask="url(#mask-2)"></path>
                <path d="M13.3869,37.4527 L6.6949,37.4527 C5.5929,37.4527 4.6999,36.5597 4.6999,35.4587 L4.6999,35.4187 C4.6999,34.3167 5.5929,33.4237 6.6949,33.4237 L13.3869,33.4237 C14.4889,33.4237 15.3809,34.3167 15.3809,35.4187 L15.3809,35.4587 C15.3809,36.5597 14.4889,37.4527 13.3869,37.4527" id="Fill-30" fill="#CFCFCF" mask="url(#mask-2)"></path>
                <path d="M27.7434,37.4527 L21.0504,37.4527 C19.9484,37.4527 19.0554,36.5597 19.0554,35.4587 L19.0554,35.4187 C19.0554,34.3167 19.9484,33.4237 21.0504,33.4237 L27.7434,33.4237 C28.8444,33.4237 29.7374,34.3167 29.7374,35.4187 L29.7374,35.4587 C29.7374,36.5597 28.8444,37.4527 27.7434,37.4527" id="Fill-31" fill="#CFCFCF" mask="url(#mask-2)"></path>
                <polygon id="Fill-32" fill="#F2F2F2" mask="url(#mask-2)" points="38.162 83.733 135.337 83.733 135.337 0.208 38.162 0.208"></polygon>
                <polygon id="Fill-33" fill="#BCBEC0" mask="url(#mask-2)" points="93.416 41.97 129.931 41.97 129.931 5.455 93.416 5.455"></polygon>
                <path d="M108.3987,25.9234 L108.3807,26.0224 C108.3787,25.9504 108.3777,25.9084 108.3777,25.9084 L108.3987,25.9234 Z M125.8907,34.0434 C125.2757,31.6254 123.9717,29.0954 121.2537,28.0004 C120.7027,27.7774 119.8447,27.4884 119.1757,27.4184 C117.8417,27.2784 116.2447,26.6104 114.9657,25.8564 L114.9657,22.8524 C114.9717,22.8444 114.9787,22.8364 114.9857,22.8284 L114.9857,22.6304 C115.6177,21.9064 116.2027,20.8704 116.5927,19.3864 L116.5927,18.7874 C116.5927,18.7874 117.6907,19.6854 117.7567,17.8234 C117.8157,16.1664 118.0337,15.2734 117.2117,15.7304 C117.2147,15.7054 117.6087,11.2684 115.5377,9.8584 C113.4607,8.4434 113.6117,8.6244 113.4607,8.4434 C113.3107,8.2624 111.6557,7.9324 111.2647,8.0824 C110.8737,8.2334 109.2537,8.1364 108.1957,8.6544 C107.5177,8.9854 106.3897,11.3024 106.3597,11.5434 C106.3297,11.7834 105.9277,13.4774 106.2897,15.8244 C105.2887,15.1724 105.5277,16.0704 105.5897,17.8234 C105.6577,19.6854 106.7537,18.7874 106.7537,18.7874 L106.7537,19.3864 C107.1477,20.8824 107.7407,21.9244 108.3777,22.6494 L108.3777,25.8584 C107.1007,26.6114 105.5037,27.2784 104.1707,27.4184 C103.5027,27.4884 102.6457,27.7774 102.0927,28.0004 C99.3757,29.0954 98.0717,31.6254 97.4567,34.0434 C96.8087,36.5884 96.8697,39.2614 97.5737,41.7914 L97.6237,41.9704 L111.6737,41.9704 L125.7247,41.9704 L125.7747,41.7914 C126.4787,39.2614 126.5387,36.5884 125.8907,34.0434 L125.8907,34.0434 Z" id="Fill-34" fill="#FFFFFF" mask="url(#mask-2)"></path>
                <path d="M108.3782,25.9083 C108.3782,25.9083 108.3792,25.9423 108.3802,25.9993 C108.3822,25.9993 108.3832,26.0003 108.3852,26.0003 L108.3992,25.9233 L108.3782,25.9083 Z" id="Fill-35" fill="#CACDEA" mask="url(#mask-2)"></path>
                <path d="M108.3811,26.0225 L108.3851,26.0005 C108.3831,26.0005 108.3821,25.9995 108.3801,25.9995 C108.3811,26.0065 108.3811,26.0135 108.3811,26.0225" id="Fill-36" fill="#CACDEA" mask="url(#mask-2)"></path>
                <path d="M125.8909,34.0435 C125.2759,31.6255 123.9719,29.0955 121.2539,28.0005 C120.7029,27.7775 119.8449,27.4885 119.1759,27.4185 C117.8909,27.2835 116.3619,26.6585 115.1089,25.9385 C112.1069,27.1075 109.6329,26.4945 108.3849,26.0005 L108.3809,26.0225 C108.3809,26.0135 108.3809,26.0065 108.3799,25.9995 C108.3299,25.9795 108.2829,25.9595 108.2369,25.9395 C106.9839,26.6585 105.4549,27.2835 104.1709,27.4185 C103.5029,27.4885 102.6459,27.7775 102.0929,28.0005 C99.3749,29.0955 98.0719,31.6255 97.4559,34.0435 C96.8089,36.5885 96.8699,39.2615 97.5739,41.7915 L97.6229,41.9705 L111.6739,41.9705 L125.7249,41.9705 L125.7749,41.7915 C126.4789,39.2615 126.5379,36.5885 125.8909,34.0435" id="Fill-37" fill="#CACDEA" mask="url(#mask-2)"></path>
                <path d="M65.9133,15.0035 L46.1183,15.0035 C44.9093,15.0035 43.9303,14.0245 43.9303,12.8155 L43.9303,12.7715 C43.9303,11.5625 44.9093,10.5835 46.1183,10.5835 L65.9133,10.5835 C67.1223,10.5835 68.1013,11.5625 68.1013,12.7715 L68.1013,12.8155 C68.1013,14.0245 67.1223,15.0035 65.9133,15.0035" id="Fill-38" fill="#BCBEC0" mask="url(#mask-2)"></path>
                <path d="M73.0549,21.8941 L46.1179,21.8941 C44.9089,21.8941 43.9299,20.9141 43.9299,19.7061 L43.9299,19.6621 C43.9299,18.4531 44.9089,17.4741 46.1179,17.4741 L73.0549,17.4741 C74.2639,17.4741 75.2429,18.4531 75.2429,19.6621 L75.2429,19.7061 C75.2429,20.9141 74.2639,21.8941 73.0549,21.8941" id="Fill-39" fill="#BCBEC0" mask="url(#mask-2)"></path>
                <path d="M54.591,36.4263 L46.377,36.4263 C45.026,36.4263 43.93,35.3303 43.93,33.9793 L43.93,33.9293 C43.93,32.5783 45.026,31.4823 46.377,31.4823 L54.591,31.4823 C55.943,31.4823 57.038,32.5783 57.038,33.9293 L57.038,33.9793 C57.038,35.3303 55.943,36.4263 54.591,36.4263" id="Fill-40" fill="#BCBEC0" mask="url(#mask-2)"></path>
                <path d="M72.2082,36.4263 L63.9952,36.4263 C62.6442,36.4263 61.5482,35.3303 61.5482,33.9793 L61.5482,33.9293 C61.5482,32.5783 62.6442,31.4823 63.9952,31.4823 L72.2082,31.4823 C73.5602,31.4823 74.6552,32.5783 74.6552,33.9293 L74.6552,33.9793 C74.6552,35.3303 73.5602,36.4263 72.2082,36.4263" id="Fill-41" fill="#BCBEC0" mask="url(#mask-2)"></path>
                <polygon id="Fill-42" fill="#C7C7C7" mask="url(#mask-2)" points="38.1623 8.0445 29.5513 76.0005 38.1623 76.0005"></polygon>
                <polygon id="Fill-43" fill="#999999" mask="url(#mask-2)" points="135.3371 8.0445 143.9471 76.0005 135.3371 76.0005"></polygon>
                <polygon id="Fill-44" fill="#C3C5F8" mask="url(#mask-2)" points="68.425 104.9801 59.268 96.2381 100.057 53.4801 109.215 62.2231"></polygon>
                <polygon id="Stroke-45" stroke="#C3C5F8" mask="url(#mask-2)" points="68.425 104.9801 59.268 96.2381 100.057 53.4801 109.215 62.2231"></polygon>
                <path d="M50.6369,114.5621 L50.5309,114.4611 C47.6419,111.7031 46.9639,107.7241 49.0169,105.5721 L72.3069,80.7821 L83.3879,90.9151 L59.5829,115.6601 C57.5309,117.8121 53.5249,117.3201 50.6369,114.5621" id="Fill-46" fill="#0B1D41" mask="url(#mask-2)"></path>
                <path d="M146.0539,70.6466 C131.6329,85.7636 107.6019,86.2366 92.3779,71.7036 C77.1559,57.1696 76.5049,33.1326 90.9269,18.0166 C105.3479,2.8996 129.3789,2.4266 144.6019,16.9596 C159.8249,31.4936 160.4749,55.5296 146.0539,70.6466" id="Fill-47" fill="#C3C5F8" mask="url(#mask-2)"></path>
                <path d="M146.0539,70.6466 C131.6329,85.7636 107.6019,86.2366 92.3779,71.7036 C77.1559,57.1696 76.5049,33.1326 90.9269,18.0166 C105.3479,2.8996 129.3789,2.4266 144.6019,16.9596 C159.8249,31.4936 160.4749,55.5296 146.0539,70.6466 Z" id="Stroke-48" stroke="#C3C5F8" mask="url(#mask-2)"></path>
            </g>
            <g id="Group-63" transform="translate(84.000000, 10.793000)">
                <mask id="mask-4" fill="white">
                    <use xlink:href="#path-3"></use>
                </mask>
                <g id="Clip-51"></g>
                <polygon id="Fill-50" fill="#F2F2F2" mask="url(#mask-4)" points="-55.344 100.125 68.656 100.125 68.656 -6.458 -55.344 -6.458"></polygon>
                <polygon id="Fill-52" fill="#808080" mask="url(#mask-4)" points="15.162 46.834 61.757 46.834 61.757 0.239 15.162 0.239"></polygon>
                <path d="M34.2805,26.3565 L34.2585,26.4835 C34.2565,26.3915 34.2555,26.3375 34.2555,26.3375 L34.2805,26.3565 Z M56.6015,36.7185 C55.8165,33.6325 54.1525,30.4055 50.6845,29.0065 C49.9795,28.7225 48.8855,28.3545 48.0335,28.2655 C46.3315,28.0865 44.2925,27.2335 42.6605,26.2715 L42.6605,22.4375 C42.6695,22.4275 42.6765,22.4185 42.6855,22.4085 L42.6855,22.1555 C43.4925,21.2315 44.2395,19.9085 44.7375,18.0155 L44.7375,17.2515 C44.7375,17.2515 46.1365,18.3975 46.2215,16.0215 C46.2975,13.9065 46.5745,12.7675 45.5275,13.3505 C45.5305,13.3175 46.0325,7.6565 43.3895,5.8565 C40.7405,4.0515 40.9325,4.2825 40.7405,4.0515 C40.5495,3.8215 38.4365,3.3985 37.9375,3.5905 C37.4385,3.7835 35.3715,3.6605 34.0205,4.3205 C33.1565,4.7435 31.7175,7.6995 31.6785,8.0065 C31.6395,8.3145 31.1275,10.4745 31.5885,13.4695 C30.3115,12.6385 30.6175,13.7845 30.6975,16.0215 C30.7825,18.3975 32.1815,17.2515 32.1815,17.2515 L32.1815,18.0155 C32.6845,19.9245 33.4395,21.2535 34.2555,22.1795 L34.2555,26.2735 C32.6245,27.2345 30.5875,28.0865 28.8855,28.2655 C28.0335,28.3545 26.9385,28.7225 26.2345,29.0065 C22.7665,30.4055 21.1025,33.6325 20.3175,36.7185 C19.4925,39.9655 19.5685,43.3775 20.4675,46.6055 L20.5305,46.8335 L38.4605,46.8335 L56.3885,46.8335 L56.4525,46.6055 C57.3505,43.3775 57.4265,39.9655 56.6015,36.7185 L56.6015,36.7185 Z" id="Fill-53" fill="#FFFFFF" mask="url(#mask-4)"></path>
                <path d="M34.2551,26.3375 C34.2551,26.3375 34.2561,26.3805 34.2571,26.4535 C34.2591,26.4545 34.2611,26.4545 34.2631,26.4555 L34.2801,26.3565 L34.2551,26.3375 Z" id="Fill-54" fill="#EF7894" mask="url(#mask-4)"></path>
                <path d="M34.258,26.4835 L34.263,26.4555 C34.261,26.4545 34.259,26.4545 34.257,26.4535 C34.258,26.4635 34.258,26.4725 34.258,26.4835" id="Fill-55" fill="#EF7894" mask="url(#mask-4)"></path>
                <path d="M56.6018,36.7188 C55.8168,33.6328 54.1528,30.4058 50.6848,29.0068 C49.9798,28.7228 48.8858,28.3548 48.0338,28.2648 C46.3938,28.0928 44.4418,27.2948 42.8418,26.3768 C39.0118,27.8678 35.8558,27.0858 34.2628,26.4548 L34.2578,26.4838 C34.2578,26.4718 34.2578,26.4638 34.2568,26.4528 C34.1938,26.4278 34.1318,26.4028 34.0738,26.3788 C32.4748,27.2958 30.5248,28.0928 28.8858,28.2648 C28.0338,28.3548 26.9388,28.7228 26.2348,29.0068 C22.7668,30.4058 21.1028,33.6328 20.3178,36.7188 C19.4928,39.9658 19.5688,43.3768 20.4668,46.6048 L20.5308,46.8328 L38.4598,46.8328 L56.3888,46.8328 L56.4528,46.6048 C57.3508,43.3768 57.4268,39.9658 56.6018,36.7188" id="Fill-56" fill="#9C9FEE" mask="url(#mask-4)"></path>
                <path d="M-19.9324,12.4224 L-45.1924,12.4224 C-46.7344,12.4224 -47.9844,11.1724 -47.9844,9.6304 L-47.9844,9.5744 C-47.9844,8.0324 -46.7344,6.7814 -45.1924,6.7814 L-19.9324,6.7814 C-18.3904,6.7814 -17.1404,8.0324 -17.1404,9.5744 L-17.1404,9.6304 C-17.1404,11.1724 -18.3904,12.4224 -19.9324,12.4224" id="Fill-57" fill="#B3B3B3" mask="url(#mask-4)"></path>
                <path d="M-10.8191,21.2154 L-45.1921,21.2154 C-46.7341,21.2154 -47.9841,19.9654 -47.9841,18.4234 L-47.9841,18.3664 C-47.9841,16.8244 -46.7341,15.5744 -45.1921,15.5744 L-10.8191,15.5744 C-9.2771,15.5744 -8.0271,16.8244 -8.0271,18.3664 L-8.0271,18.4234 C-8.0271,19.9654 -9.2771,21.2154 -10.8191,21.2154" id="Fill-58" fill="#B3B3B3" mask="url(#mask-4)"></path>
                <polygon id="Fill-59" fill="#BCBEC0" mask="url(#mask-4)" points="-47.984 58.398 61.757 58.398 61.757 52.089 -47.984 52.089"></polygon>
                <path d="M-34.3806,39.7594 L-44.8606,39.7594 C-46.5856,39.7594 -47.9846,38.3614 -47.9846,36.6364 L-47.9846,36.5734 C-47.9846,34.8484 -46.5856,33.4504 -44.8606,33.4504 L-34.3806,33.4504 C-32.6556,33.4504 -31.2576,34.8484 -31.2576,36.5734 L-31.2576,36.6364 C-31.2576,38.3614 -32.6556,39.7594 -34.3806,39.7594" id="Fill-60" fill="#B3B3B3" mask="url(#mask-4)"></path>
                <path d="M-15.2009,39.7594 L-25.6809,39.7594 C-27.4059,39.7594 -28.8049,38.3614 -28.8049,36.6364 L-28.8049,36.5734 C-28.8049,34.8484 -27.4059,33.4504 -25.6809,33.4504 L-15.2009,33.4504 C-13.4759,33.4504 -12.0779,34.8484 -12.0779,36.5734 L-12.0779,36.6364 C-12.0779,38.3614 -13.4759,39.7594 -15.2009,39.7594" id="Fill-61" fill="#B3B3B3" mask="url(#mask-4)"></path>
                <path d="M3.7629,39.7594 L-6.7171,39.7594 C-8.4421,39.7594 -9.8411,38.3614 -9.8411,36.6364 L-9.8411,36.5734 C-9.8411,34.8484 -8.4421,33.4504 -6.7171,33.4504 L3.7629,33.4504 C5.4889,33.4504 6.8859,34.8484 6.8859,36.5734 L6.8859,36.6364 C6.8859,38.3614 5.4889,39.7594 3.7629,39.7594" id="Fill-62" fill="#BCBEC0" mask="url(#mask-4)"></path>
            </g>
            <g id="Group-72" transform="translate(72.000000, 17.793000)">
                <path d="M52.4621,4.5694 C62.7001,6.5594 70.5901,15.1244 71.4241,25.5524 C72.2561,35.9534 65.7491,45.7314 55.8851,49.0364 C53.1051,49.9674 54.3771,54.3604 57.1611,53.4274 C68.5181,49.6224 76.1651,38.9514 76.0521,26.9544 C75.9411,15.1314 67.8981,4.7334 56.7901,0.9784 C55.7151,0.6144 54.6111,0.3484 53.5001,0.1324 C50.6191,-0.4276 49.5611,4.0054 52.4621,4.5694" id="Fill-64" fill="#FFFFFF"></path>
                <path d="M50.1545,54.7887 C49.0135,55.9847 47.1115,56.0227 45.9065,54.8717 C44.7015,53.7217 44.6505,51.8197 45.7915,50.6227 C46.9325,49.4267 48.8355,49.3887 50.0405,50.5387 C51.2455,51.6897 51.2965,53.5927 50.1545,54.7887" id="Fill-66" fill="#FFFFFF"></path>
                <path d="M0.6477,64.2476 L11.1907,73.8886 C11.5517,74.2196 12.1047,74.2246 12.4677,73.9006 L12.5857,73.7946 C13.0067,73.4176 13.0057,72.7556 12.5817,72.3746 L1.9327,62.8256 C1.5347,62.4676 0.9217,62.5046 0.5757,62.9076 L0.5627,62.9226 C0.2287,63.3116 0.2657,63.8986 0.6477,64.2476" id="Fill-68" fill="#6C56E5"></path>
            </g>
        </g>
    </g>
</svg>