<?xml version="1.0" encoding="UTF-8"?>
<svg width="24px" height="24px" viewBox="0 0 24 24" version="1.1" xmlns="http://www.w3.org/2000/svg" xmlns:xlink="http://www.w3.org/1999/xlink">
    <title>Icon/common/office</title>
    <g id="Icon/common/office" stroke="none" stroke-width="1" fill="none" fill-rule="evenodd">
        <path d="M7.786,2 C9.623,2 11.117,3.495 11.117,5.332 L11.117,5.332 L11.117,8.883 L18.668,8.883 C20.505,8.883 22,10.377 22,12.214 L22,12.214 L22,18.668 C22,20.505 20.505,22 18.668,22 L18.668,22 L5.332,22 C3.495,22 2,20.505 2,18.668 L2,18.668 L2,5.332 C2,3.495 3.495,2 5.332,2 L5.332,2 Z M18.668,10.883 L11.117,10.883 L11.117,20 L18.668,20 C19.402,20 20,19.402 20,18.668 L20,18.668 L20,12.214 C20,11.48 19.402,10.883 18.668,10.883 L18.668,10.883 Z M7.786,4 L5.332,4 C4.598,4 4,4.598 4,5.332 L4,5.332 L4,18.668 C4,19.402 4.598,20 5.332,20 L5.332,20 L9.117,20 L9.117,5.332 C9.117,4.598 8.521,4 7.786,4 L7.786,4 Z M6.5586,16.4004 C7.1656,16.4004 7.6586,16.8924 7.6586,17.5004 C7.6586,18.1074 7.1656,18.5994 6.5586,18.5994 C5.9516,18.5994 5.4576,18.1074 5.4576,17.5004 C5.4576,16.8924 5.9516,16.4004 6.5586,16.4004 Z M17.5,16.3682 C18.053,16.3682 18.5,16.8152 18.5,17.3682 C18.5,17.9212 18.053,18.3682 17.5,18.3682 L17.5,18.3682 L13.5,18.3682 C12.947,18.3682 12.5,17.9212 12.5,17.3682 C12.5,16.8152 12.947,16.3682 13.5,16.3682 L13.5,16.3682 Z M6.5586,12.7334 C7.1656,12.7334 7.6586,13.2254 7.6586,13.8334 C7.6586,14.4404 7.1656,14.9334 6.5586,14.9334 C5.9516,14.9334 5.4576,14.4404 5.4576,13.8334 C5.4576,13.2254 5.9516,12.7334 6.5586,12.7334 Z M15,12.4316 C15.553,12.4316 16,12.8786 16,13.4316 C16,13.9846 15.553,14.4316 15,14.4316 L15,14.4316 L13.5,14.4316 C12.947,14.4316 12.5,13.9846 12.5,13.4316 C12.5,12.8786 12.947,12.4316 13.5,12.4316 L13.5,12.4316 Z M6.5586,9.0664 C7.1656,9.0664 7.6586,9.5594 7.6586,10.1674 C7.6586,10.7744 7.1656,11.2664 6.5586,11.2664 C5.9516,11.2664 5.4576,10.7744 5.4576,10.1674 C5.4576,9.5594 5.9516,9.0664 6.5586,9.0664 Z M6.5586,5.4004 C7.1656,5.4004 7.6586,5.8924 7.6586,6.5004 C7.6586,7.1074 7.1656,7.5994 6.5586,7.5994 C5.9516,7.5994 5.4576,7.1074 5.4576,6.5004 C5.4576,5.8924 5.9516,5.4004 6.5586,5.4004 Z" id="Combined-Shape" fill="#ffffff"></path>
    </g>
</svg>