<?xml version="1.0" encoding="UTF-8"?>
<svg width="110px" height="110px" viewBox="0 0 110 110" version="1.1" xmlns="http://www.w3.org/2000/svg" xmlns:xlink="http://www.w3.org/1999/xlink">
    <title>illust/b2b/open room</title>
    <g id="Page-1" stroke="none" stroke-width="1" fill="none" fill-rule="evenodd">
        <g id="02_01_01_making-room_1" transform="translate(-752.000000, -351.000000)">
            <g id="Group-4" transform="translate(433.000000, 231.000000)">
                <g id="Group-Copy" transform="translate(280.000000, 40.000000)">
                    <g id="illust/b2b/open-room" transform="translate(39.000000, 80.000000)">
                        <g id="Group-18" transform="translate(12.692308, 19.461538)">
                            <path d="M18,11.8461538 C8.0588745,11.8461538 0,19.9050283 0,29.8461538 L0,42.0769231 C0,50.4781066 5.75551538,57.5350174 13.5386323,59.5197417 L13.5384615,67.5250965 L13.5432308,67.5271538 L13.5384615,67.6923077 C13.5384615,69.4992701 14.9544662,70.9755069 16.7373726,71.0719149 L16.9230769,71.0769231 C17.6690303,71.0769231 18.3586209,70.835605 18.9180401,70.4267773 L36.6902308,60.0761538 L43.7692308,60.0769231 C53.7103563,60.0769231 61.7692308,52.0180486 61.7692308,42.0769231 L61.7692308,29.8461538 C61.7692308,19.9050283 53.7103563,11.8461538 43.7692308,11.8461538 L18,11.8461538 Z" id="Combined-Shape" fill="#EBEBEB"></path>
                            <path d="M42.5384615,0 C32.597336,-1.82615513e-15 24.5384615,8.0588745 24.5384615,18 L24.5384615,30.2307692 C24.5384615,38.6319527 30.2939769,45.6888635 38.0770938,47.6735879 L38.0769231,55.6789427 L38.0816923,55.681 L38.0769231,55.8461538 C38.0769231,57.6531163 39.4929278,59.129353 41.2758341,59.2257611 L41.4615385,59.2307692 C42.2074919,59.2307692 42.8970824,58.9894512 43.4565017,58.5806234 L61.2286923,48.23 L68.3076923,48.2307692 C78.2488178,48.2307692 86.3076923,40.1718947 86.3076923,30.2307692 L86.3076923,18 C86.3076923,8.0588745 78.2488178,1.82615513e-15 68.3076923,0 L42.5384615,0 Z" id="Combined-Shape" fill="#BCBEFF" transform="translate(55.423077, 29.615385) scale(-1, 1) translate(-55.423077, -29.615385) "></path>
                            <circle id="Oval" fill="#FFFFFF" cx="42.3076923" cy="25.3846154" r="3.38461538"></circle>
                            <circle id="Oval-Copy" fill="#FFFFFF" cx="55.8461538" cy="25.3846154" r="3.38461538"></circle>
                            <circle id="Oval-Copy-2" fill="#FFFFFF" cx="69.3846154" cy="25.3846154" r="3.38461538"></circle>
                        </g>
                    </g>
                </g>
            </g>
        </g>
    </g>
</svg>