<?xml version="1.0" encoding="UTF-8"?>
<svg width="24px" height="24px" viewBox="0 0 24 24" version="1.1" xmlns="http://www.w3.org/2000/svg" xmlns:xlink="http://www.w3.org/1999/xlink">
    <title>Icon/common/openchat</title>
    <g id="Icon/common/openchat" stroke="none" stroke-width="1" fill="none" fill-rule="evenodd">
        <path d="M18.593,1.0004 C21.569,1.0004 23.991,3.5044 23.991,6.5844 L23.991,6.5844 L23.991,10.1364 C23.991,12.6964 22.268,14.9024 19.928,15.5244 L19.928,15.5244 L19.928,17.7054 C19.928,18.0654 19.734,18.3974 19.422,18.5744 C19.269,18.6614 19.098,18.7054 18.928,18.7054 C18.75,18.7054 18.574,18.6584 18.416,18.5644 L18.416,18.5644 L17.292,17.8944 C16.28,19.2174 14.752,20.0154 13.095,20.0154 L13.095,20.0154 L10.351,20.0154 L5.575,22.8594 C5.417,22.9534 5.241,23.0004 5.063,23.0004 C4.893,23.0004 4.723,22.9564 4.569,22.8694 C4.257,22.6914 4.063,22.3594 4.063,22.0004 L4.063,22.0004 L4.063,19.8194 C1.723,19.1974 -2.84217094e-14,16.9914 -2.84217094e-14,14.4314 L-2.84217094e-14,14.4314 L-2.84217094e-14,10.8784 C-2.84217094e-14,7.7994 2.422,5.2944 5.398,5.2944 L5.398,5.2944 L5.674,5.2944 C6.241,2.8244 8.376,1.0004 10.896,1.0004 L10.896,1.0004 Z M5.498,7.2944 L5.398,7.2944 C3.524,7.2944 2,8.9024 2,10.8784 L2,10.8784 L2,14.4314 C2,16.2814 3.381,17.8424 5.143,17.9834 C5.663,18.0244 6.063,18.4584 6.063,18.9804 L6.063,18.9804 L6.063,20.2404 L9.563,18.1554 C9.718,18.0644 9.895,18.0154 10.075,18.0154 L10.075,18.0154 L13.095,18.0154 C14.043,18.0154 14.932,17.5904 15.565,16.8664 L15.565,16.8664 L13.641,15.7204 L10.896,15.7204 C7.919,15.7204 5.498,13.2154 5.498,10.1364 L5.498,10.1364 L5.498,7.2944 Z M18.593,3.0004 L10.896,3.0004 C9.12,3.0004 7.639,4.4734 7.524,6.3554 L7.524,6.3554 C7.52,6.4204 7.513,6.4844 7.504,6.5484 L7.504,6.5484 L7.498,10.1364 C7.498,12.1124 9.022,13.7204 10.896,13.7204 L10.896,13.7204 L13.916,13.7204 C14.096,13.7204 14.273,13.7694 14.428,13.8604 L14.428,13.8604 L17.489,15.6834 L17.49,15.6854 L17.928,15.9454 L17.928,14.6854 C17.928,14.1634 18.328,13.7304 18.848,13.6884 C20.61,13.5474 21.991,11.9864 21.991,10.1364 L21.991,10.1364 L21.991,6.5844 C21.991,4.6074 20.467,3.0004 18.593,3.0004 L18.593,3.0004 Z M18.95,7 C19.6408333,7 20.2,7.56 20.2,8.25 C20.2,8.94 19.6408333,9.5 18.95,9.5 C18.26,9.5 17.7,8.94 17.7,8.25 C17.7,7.56 18.26,7 18.95,7 Z M14.95,7 C15.64,7 16.2,7.56 16.2,8.25 C16.2,8.94 15.64,9.5 14.95,9.5 C14.26,9.5 13.7,8.94 13.7,8.25 C13.7,7.56 14.26,7 14.95,7 Z M10.95,7 C11.64,7 12.2,7.56 12.2,8.25 C12.2,8.94 11.64,9.5 10.95,9.5 C10.2591667,9.5 9.7,8.94 9.7,8.25 C9.7,7.56 10.2591667,7 10.95,7 Z" id="Combined-Shape" fill="#6C50E9"></path>
    </g>
</svg>