<?xml version="1.0" encoding="UTF-8"?>
<svg width="24px" height="24px" viewBox="0 0 24 24" version="1.1" xmlns="http://www.w3.org/2000/svg" xmlns:xlink="http://www.w3.org/1999/xlink">
    <title>Icon/common/mobile</title>
    <g id="Icon/common/mobile" stroke="none" stroke-width="1" fill="none" fill-rule="evenodd">
        <path d="M14.733,1.9996 C17.085,1.9996 18.999,3.9136 18.999,6.2656 L18.999,6.2656 L18.999,17.7336 C18.999,20.0866 17.085,21.9996 14.733,21.9996 L14.733,21.9996 L9.266,21.9996 C6.914,21.9996 5,20.0866 5,17.7336 L5,17.7336 L5,6.2656 C5,3.9136 6.914,1.9996 9.266,1.9996 L9.266,1.9996 Z M14.733,3.9996 L9.266,3.9996 C8.017,3.9996 7,5.0166 7,6.2656 L7,6.2656 L7,17.7336 C7,18.9836 8.017,19.9996 9.266,19.9996 L9.266,19.9996 L14.733,19.9996 C15.982,19.9996 16.999,18.9836 16.999,17.7336 L16.999,17.7336 L16.999,6.2656 C16.999,5.0166 15.982,3.9996 14.733,3.9996 L14.733,3.9996 Z M11.9995,16.7932 C12.6065,16.7932 13.0995,17.2852 13.0995,17.8932 C13.0995,18.5002 12.6065,18.9932 11.9995,18.9932 C11.3925,18.9932 10.8995,18.5002 10.8995,17.8932 C10.8995,17.2852 11.3925,16.7932 11.9995,16.7932 Z" id="Combined-Shape" fill="#ffffff"></path>
    </g>
</svg>