<?xml version="1.0" encoding="UTF-8"?>
<svg width="24px" height="24px" viewBox="0 0 24 24" version="1.1" xmlns="http://www.w3.org/2000/svg" xmlns:xlink="http://www.w3.org/1999/xlink">
    <!-- Generator: Sketch 63.1 (92452) - https://sketch.com -->
    <g id="Icon/system/plan_standard" stroke="none" stroke-width="1" fill="none" fill-rule="evenodd">
        <path d="M16.5377886,20.7378642 C17.0286087,19.8741897 17.4481527,18.9129969 17.7834236,17.8763061 L19.8967895,17.8763061 C19.0104325,19.0653175 17.8628952,20.0482823 16.5377886,20.7378642 L16.5377886,20.7378642 Z M14.3557957,21.5600644 C13.8455216,21.685315 13.3195188,21.7701675 12.7815124,21.8125524 L12.7815124,17.8763061 L16.110463,17.8763061 C15.6645113,19.2552216 15.0688052,20.499946 14.3557957,21.5600644 L14.3557957,21.5600644 Z M9.64428708,21.5600644 C8.93119477,20.499946 8.33548869,19.2552216 7.88953696,17.8763061 L11.2184048,17.8763061 L11.2184048,21.8125524 C10.6804812,21.7701675 10.1544784,21.685315 9.64428708,21.5600644 L9.64428708,21.5600644 Z M4.10312776,17.8763061 L6.21657639,17.8763061 C6.55184732,18.9130797 6.97147408,19.8741897 7.46229417,20.7378642 C6.13710476,20.0482823 4.98956755,19.0653175 4.10312776,17.8763061 L4.10312776,17.8763061 Z M5.77741285,7.58125326 C5.52177911,8.73110839 5.36498821,9.95083233 5.32218943,11.2169975 L2.18744759,11.2169975 C2.29001566,9.91788472 2.64440945,8.68971692 3.20236651,7.58125326 L5.77741285,7.58125326 Z M7.33141433,3.33125956 C6.88778052,4.14898951 6.50788957,5.05033023 6.1995231,6.01516548 L4.18458618,6.01516548 C5.02955171,4.9135728 6.10142531,3.99501323 7.33141433,3.33125956 L7.33141433,3.33125956 Z M11.2184048,7.58125326 L11.2184048,11.2169975 L6.99506722,11.2169975 C7.03753487,9.95091511 7.19316681,8.73086004 7.44871776,7.58125326 L11.2184048,7.58125326 Z M9.51266219,2.47288319 C10.0638311,2.32942034 10.6341228,2.23355769 11.2184048,2.18753037 L11.2184048,6.01516548 L7.87124192,6.01516548 C8.29169651,4.69908219 8.84791513,3.50361366 9.51266219,2.47288319 L9.51266219,2.47288319 Z M16.551365,7.58125326 C16.8068332,8.73086004 16.9624651,9.95091511 17.0049328,11.2169975 L12.7815124,11.2169975 L12.7815124,7.58125326 L16.551365,7.58125326 Z M12.7815124,2.18753037 C13.3658772,2.23355769 13.9360862,2.32942034 14.4873378,2.47288319 C15.1520849,3.50361366 15.7083035,4.69908219 16.1288409,6.01516548 L12.7815124,6.01516548 L12.7815124,2.18753037 Z M19.8154138,6.01516548 L17.8004769,6.01516548 C17.4921104,5.05033023 17.1122195,4.14898951 16.6686685,3.33125956 C17.8985747,3.99509601 18.9704483,4.9135728 19.8154138,6.01516548 L19.8154138,6.01516548 Z M20.7976335,7.58125326 C21.3555905,8.68971692 21.7099843,9.91788472 21.8125524,11.2169975 L18.6778934,11.2169975 C18.6350118,9.95083233 18.4782209,8.73110839 18.2226699,7.58125326 L20.7976335,7.58125326 Z M18.672678,12.7830853 L21.8125524,12.7830853 C21.7136268,14.039896 21.3795976,15.2305631 20.8528497,16.3102183 L18.2111631,16.3102183 C18.4630716,15.1938903 18.6216837,14.0110047 18.672678,12.7830853 L18.672678,12.7830853 Z M12.7815124,12.7830853 L16.9993863,12.7830853 C16.948392,14.010922 16.790525,15.1940558 16.5386992,16.3102183 L12.7815124,16.3102183 L12.7815124,12.7830853 Z M7.00061367,12.7830853 L11.2184048,12.7830853 L11.2184048,16.3102183 L7.46130077,16.3102183 C7.20947505,15.1940558 7.05160797,14.010922 7.00061367,12.7830853 L7.00061367,12.7830853 Z M2.18744759,12.7830853 L5.32732197,12.7830853 C5.37831627,14.0110047 5.53692839,15.1938903 5.7888369,16.3102183 L3.14715029,16.3102183 C2.6204024,15.2305631 2.28637321,14.039896 2.18744759,12.7830853 L2.18744759,12.7830853 Z M14.9199615,0.874510051 C14.2715227,0.704722227 13.600898,0.590067846 12.9130545,0.536010582 C12.6118074,0.512334659 12.3073317,0.5 11.9999586,0.5 C11.6926683,0.5 11.3881926,0.512334659 11.0869455,0.536010582 C10.3991848,0.590067846 9.72847733,0.704722227 9.08003851,0.874427268 C4.14294635,2.16675185 0.5,6.65772671 0.5,12.0000414 C0.5,17.4188475 4.24824626,21.9615617 9.29328738,23.1788849 C9.93584862,23.3339374 10.5995195,23.4349326 11.2791675,23.4769863 C11.5175824,23.4917217 11.7578185,23.5000828 11.9999586,23.5000828 C12.2421815,23.5000828 12.4824176,23.4917217 12.7209153,23.4769863 C13.4005633,23.4348498 14.0641514,23.3338546 14.7067126,23.1788022 C19.7517537,21.9615617 23.5,17.4188475 23.5,12.0000414 C23.5,6.65780949 19.8571364,2.16675185 14.9199615,0.874510051 L14.9199615,0.874510051 Z" id="Fill-1" fill="currentColor"></path>
    </g>
</svg>