<?xml version="1.0" encoding="UTF-8"?>
<svg width="110px" height="110px" viewBox="0 0 110 110" version="1.1" xmlns="http://www.w3.org/2000/svg" xmlns:xlink="http://www.w3.org/1999/xlink">
    <title>illust/b2b/private room</title>
    <g id="Page-1" stroke="none" stroke-width="1" fill="none" fill-rule="evenodd">
        <g id="02_01_01_making-room_1" transform="translate(-503.000000, -351.000000)">
            <g id="Group-4" transform="translate(433.000000, 231.000000)">
                <g id="Group" transform="translate(32.000000, 40.000000)">
                    <g id="illust/b2b/private-room" transform="translate(38.000000, 80.000000)">
                        <g id="Group"></g>
                        <g id="Group-18" transform="translate(12.692308, 19.461538)">
                            <path d="M18,11.8461538 C8.0588745,11.8461538 0,19.9050283 0,29.8461538 L0,42.0769231 C0,50.4781066 5.75551538,57.5350174 13.5386323,59.5197417 L13.5384615,67.5250965 L13.5432308,67.5271538 L13.5384615,67.6923077 C13.5384615,69.4992701 14.9544662,70.9755069 16.7373726,71.0719149 L16.9230769,71.0769231 C17.6690303,71.0769231 18.3586209,70.835605 18.9180401,70.4267773 L36.6902308,60.0761538 L43.7692308,60.0769231 C53.7103563,60.0769231 61.7692308,52.0180486 61.7692308,42.0769231 L61.7692308,29.8461538 C61.7692308,19.9050283 53.7103563,11.8461538 43.7692308,11.8461538 L18,11.8461538 Z" id="Combined-Shape" fill="#EBEBEB"></path>
                            <path d="M68.3076923,0 C78.2488178,-1.82615513e-15 86.3076923,8.0588745 86.3076923,18 L86.3076923,30.2307692 C86.3076923,38.6319527 80.5521769,45.6888635 72.76906,47.6735879 L72.7692308,55.6789427 L72.6931034,55.7171552 C72.3641427,57.2419675 71.0078189,58.3846154 69.3846154,58.3846154 C68.9065281,58.3846154 68.4515925,58.2854909 68.0392396,58.1066728 L67.496265,58.3846154 L49.6304615,48.23 L42.5384615,48.2307692 C32.597336,48.2307692 24.5384615,40.1718947 24.5384615,30.2307692 L24.5384615,18 C24.5384615,8.0588745 32.597336,1.82615513e-15 42.5384615,0 L68.3076923,0 Z" id="Combined-Shape" fill="#BCBEFF"></path>
                            <g id="Group-19" transform="translate(43.153846, 8.461538)">
                                <path d="M12.2692308,0 C17.1168907,0 21.0577652,3.96998367 21.1521158,8.90390291 L18.1909423,8.904 L18.1882223,8.74229005 C18.071449,5.56676603 15.4661098,3.02834008 12.2692308,3.02834008 C9.01809923,3.02834008 6.37875525,5.65365359 6.34645354,8.90450151 L6.34615385,14.3846154 L3.38461538,14.3846154 L3.38461538,8.9047619 L3.38694231,8.904 L3.3884033,8.8171512 C3.52697513,3.92353121 7.45001528,0 12.2692308,0 Z M21.1538462,8.9047619 L21.1538462,14.3846154 L18.1923077,14.3846154 L18.1923077,8.9047619 L21.1538462,8.9047619 Z" id="Combined-Shape" fill="#FFFFFF"></path>
                                <rect id="Rectangle" fill="#6C56E5" x="0" y="12.6923077" width="24.5384615" height="17.7692308" rx="2"></rect>
                                <path d="M12.2692308,16.9230769 C13.4375254,16.9230769 14.3846154,17.8701669 14.3846154,19.0384615 C14.3846154,19.6464827 14.1280938,20.1945901 13.7173722,20.5804621 L14.3846154,25.3846154 L10.1538462,25.3846154 L10.8210893,20.5804621 C10.4103677,20.1945901 10.1538462,19.6464827 10.1538462,19.0384615 C10.1538462,17.8701669 11.1009361,16.9230769 12.2692308,16.9230769 Z" id="Combined-Shape" fill="#FFFFFF"></path>
                            </g>
                        </g>
                    </g>
                </g>
            </g>
        </g>
    </g>
</svg>