<?xml version="1.0" encoding="UTF-8"?>
<svg width="auto" height="auto" viewBox="0 0 15 15" version="1.1" xmlns="http://www.w3.org/2000/svg" xmlns:xlink="http://www.w3.org/1999/xlink">
    <title>setting</title>
    <g id="test" stroke="none" stroke-width="1" fill="none" fill-rule="evenodd">
        <g id="GNB/GNB_1920" transform="translate(-1638.000000, -28.000000)">
            <g id="user" transform="translate(1619.000000, 11.000000)">
                <circle id="setting" fill="#FFFFFF" cx="26.5" cy="24.5" r="7.5"></circle>
                <path d="M26.5013738,26.6334684 C25.4100705,26.6334684 24.5223264,25.7457243 24.5223264,24.6544211 C24.5223264,23.5631178 25.4100705,22.6753737 26.5013738,22.6753737 C27.592677,22.6753737 28.4804211,23.5631178 28.4804211,24.6544211 C28.4804211,25.7457243 27.592677,26.6334684 26.5013738,26.6334684 L26.5013738,26.6334684 Z M30.7026086,25.2085543 C30.7257917,25.0276129 30.7421896,24.8466714 30.7421896,24.6544211 C30.7421896,24.4621708 30.7257917,24.2812293 30.7026086,24.1002878 L31.8956915,23.1673083 C32.0031255,23.082492 32.0308321,22.9298226 31.9635445,22.8054254 L30.8326603,20.8489957 C30.7648072,20.7245984 30.6121379,20.6793631 30.4877406,20.7245984 L29.0803552,21.2900405 C28.7857599,21.0638637 28.4691123,20.8772678 28.1241926,20.7359073 L27.9093246,19.2374857 C27.8923613,19.1017796 27.7736185,19 27.632258,19 L25.3704895,19 C25.229129,19 25.1103862,19.1017796 25.0934229,19.2374857 L24.8785549,20.7359073 C24.5336352,20.8772678 24.2169876,21.0695181 23.9229578,21.2900405 L22.5150069,20.7245984 C22.3849552,20.6737086 22.2379403,20.7245984 22.1700872,20.8489957 L21.039203,22.8054254 C20.9656955,22.9298226 20.9996221,23.082492 21.1070561,23.1673083 L22.3001389,24.1002878 C22.2775212,24.2812293 22.260558,24.4678252 22.260558,24.6544211 C22.260558,24.841017 22.2775212,25.0276129 22.3001389,25.2085543 L21.1070561,26.1415338 C20.9996221,26.2257847 20.97135,26.3790195 21.039203,26.5034168 L22.1700872,28.4598464 C22.2379403,28.5842437 22.3906096,28.6289136 22.5150069,28.5842437 L23.9229578,28.0188016 C24.2169876,28.2449784 24.5336352,28.4315743 24.8785549,28.5729349 L25.0934229,30.0713565 C25.1103862,30.2070626 25.229129,30.3088421 25.3704895,30.3088421 L27.632258,30.3088421 C27.7736185,30.3088421 27.8923613,30.2070626 27.9093246,30.0713565 L28.1241926,28.5729349 C28.4691123,28.4315743 28.7857599,28.239324 29.0803552,28.0188016 L30.4877406,28.5842437 C30.6172269,28.6351335 30.7648072,28.5842437 30.8326603,28.4598464 L31.9635445,26.5034168 C32.0308321,26.3790195 32.0031255,26.2257847 31.8956915,26.1415338 L30.7026086,25.2085543 Z" id="setting" fill="#6C56E5"></path>
            </g>
        </g>
    </g>
</svg>