<?xml version="1.0" encoding="UTF-8"?>
<svg width="24px" height="24px" viewBox="0 0 24 24" version="1.1" xmlns="http://www.w3.org/2000/svg" xmlns:xlink="http://www.w3.org/1999/xlink">
    <title>Icon/common/setting_2</title>
    <g id="Icon/common/setting_2" stroke="none" stroke-width="1" fill="none" fill-rule="evenodd">
        <path d="M14.0678798,14.0678798 C13.4860543,14.6507049 12.797261,14.9416177 12.0005,14.9416177 C11.203739,14.9416177 10.5129463,14.6507049 9.93212051,14.0678798 C9.34929536,13.4860543 9.05838264,12.797261 9.05838264,12.0005 C9.05838264,11.203739 9.34929536,10.513946 9.93212051,9.93212051 C10.5129463,9.35029506 11.203739,9.05838264 12.0005,9.05838264 C12.797261,9.05838264 13.4860543,9.35029506 14.0678798,9.93212051 C14.6497052,10.513946 14.9416177,11.203739 14.9416177,12.0005 C14.9416177,12.797261 14.6497052,13.4860543 14.0678798,14.0678798 M21.1127663,10.6179148 L19.8011598,10.1490554 C19.4422675,10.0200941 19.1423574,9.7491754 19.0133961,9.38928336 C18.9494153,9.21433585 18.880436,9.04138773 18.8054585,8.87143872 C18.6535041,8.52454279 18.6774969,8.12666215 18.840448,7.78476472 L19.4292714,6.55113481 C19.6681997,6.05228446 19.5802261,5.45346411 19.1953415,5.05658318 C19.1123664,4.97160867 19.0293913,4.88763386 18.9434171,4.80465875 C18.5465362,4.42077392 17.9477158,4.33280031 17.4488655,4.56972923 L16.2152356,5.15955228 C15.8743378,5.3225034 15.4754575,5.3464962 15.1295613,5.19454179 C14.9596123,5.11956428 14.7866642,5.04958527 14.6107169,4.98660417 C14.2518246,4.85764286 13.9799062,4.55773283 13.8509449,4.1978408 L13.3820855,2.88723398 C13.1981407,2.36938933 12.7102871,2.0144958 12.1594523,2.0024994 C12.1054685,2.0014997 12.0524844,2.0005 12.0005,2.0005 C11.9475159,2.0005 11.8945318,2.0014997 11.840548,2.0024994 C11.2907129,2.0144958 10.8018596,2.36938933 10.6179148,2.88723398 L10.1490554,4.1978408 C10.0200941,4.55773283 9.7491754,4.85764286 9.38928336,4.98660417 C9.21433585,5.04958527 9.04138773,5.11956428 8.87043902,5.19454179 C8.52454279,5.3464962 8.12666215,5.3225034 7.78476472,5.15955228 L6.55113481,4.56972923 C6.05228446,4.33180061 5.45346411,4.42077392 5.05658318,4.80465875 C4.97060897,4.88763386 4.88663416,4.97160867 4.80465875,5.05658318 C4.42077392,5.45346411 4.33280031,6.05228446 4.56972923,6.55113481 L5.15955228,7.78476472 C5.3225034,8.12566245 5.3464962,8.52454279 5.19454179,8.87143872 C5.11956428,9.04138773 5.04958527,9.21433585 4.98660417,9.38928336 C4.85764286,9.7491754 4.55773283,10.0200941 4.1978408,10.1490554 L2.88723398,10.6179148 C2.36938933,10.8018596 2.0144958,11.2907129 2.0024994,11.840548 C2.0005,11.8945318 2.0005,11.9475159 2.0005,12.0005 C2.0005,12.0524844 2.0005,12.1054685 2.0024994,12.1594523 C2.0144958,12.7102871 2.36938933,13.1981407 2.88723398,13.3820855 L4.1978408,13.8509449 C4.55773283,13.9789065 4.85764286,14.2518246 4.98660417,14.6107169 C5.04958527,14.7866642 5.11956428,14.9596123 5.19454179,15.1295613 C5.3464962,15.4754575 5.3225034,15.8753375 5.15955228,16.2162353 L4.56972923,17.4498652 C4.33280031,17.9477158 4.42077392,18.5465362 4.80465875,18.9434171 C4.88663416,19.0293913 4.97060897,19.1133661 5.05658318,19.1953415 C5.45346411,19.5802261 6.05228446,19.6681997 6.55113481,19.4302711 L7.78376502,18.840448 C8.12566245,18.6774969 8.52454279,18.6535041 8.87043902,18.8054585 C9.04038803,18.880436 9.21433585,18.950415 9.38928336,19.0133961 C9.7491754,19.1423574 10.0200941,19.4422675 10.1490554,19.8021595 L10.6169151,21.1127663 C10.8018596,21.630611 11.2897132,21.9855045 11.8395483,21.9985006 C11.8945318,21.9995003 11.9475159,22.0005 12.0005,22.0005 C12.0524844,22.0005 12.1054685,21.9995003 12.160452,21.9985006 C12.7112868,21.9855045 13.1981407,21.630611 13.3830852,21.1127663 L13.8509449,19.8021595 C13.9799062,19.4422675 14.2518246,19.1423574 14.6107169,19.0133961 C14.7866642,18.950415 14.9596123,18.880436 15.1295613,18.8054585 C15.4754575,18.6535041 15.8753375,18.6774969 16.2152356,18.840448 L17.4488655,19.4302711 C17.9477158,19.6681997 18.5465362,19.5802261 18.9434171,19.1953415 C19.0293913,19.1133661 19.1133661,19.0293913 19.1953415,18.9434171 C19.5802261,18.5465362 19.6681997,17.9477158 19.4302711,17.4488655 L18.840448,16.2152356 C18.6774969,15.8743378 18.6535041,15.4754575 18.8054585,15.1295613 C18.880436,14.9596123 18.9494153,14.7866642 19.0133961,14.6107169 C19.1423574,14.2518246 19.4422675,13.9789065 19.8021595,13.8509449 L21.1127663,13.3830852 C21.630611,13.1981407 21.9855045,12.7112868 21.9985006,12.160452 C21.9995003,12.1054685 22.0005,12.0524844 22.0005,12.0005 C22.0005,11.9475159 21.9995003,11.8945318 21.9985006,11.8395483 C21.9855045,11.2907129 21.630611,10.8018596 21.1127663,10.6179148" id="Fill-1" fill="#000000"></path>
    </g>
</svg>