<?xml version="1.0" encoding="UTF-8"?>
<svg width="20px" height="20px" viewBox="0 0 20 20" version="1.1" xmlns="http://www.w3.org/2000/svg" xmlns:xlink="http://www.w3.org/1999/xlink">
    <!-- Generator: Sketch 63.1 (92452) - https://sketch.com -->
    <title>Icon/system/sound_on</title>
    <desc>Created with Sketch.</desc>
    <g id="Icon/system/sound_on" stroke="none" stroke-width="1" fill="none" fill-rule="evenodd">
        <path d="M2,8.26339795 L2,11.7366021 C2,12.2888868 2.44771525,12.7366021 3,12.7366021 L5.77777778,12.7366021 L5.77777778,12.7366021 L8.80527807,15.6607421 C9.20252457,16.0444264 9.83559409,16.0334321 10.2192784,15.6361856 C10.3993533,15.4497456 10.5,15.200668 10.5,14.9414637 L10.5,5.0585363 C10.5,4.50625155 10.0522847,4.0585363 9.5,4.0585363 C9.24079569,4.0585363 8.99171814,4.15918296 8.80527807,4.33925788 L5.77777778,7.26339795 L5.77777778,7.26339795 L3,7.26339795 C2.44771525,7.26339795 2,7.7111132 2,8.26339795 Z M14.75,10 C14.75,8.38540479 13.7866667,6.99885975 12.3888889,6.32383124 L12.3888889,13.6670468 C13.7866667,13.0011403 14.75,11.6145952 14.75,10 Z M12.3888889,2 L12.3888889,3.87913341 C15.1183333,4.663626 17.1111111,7.10832383 17.1111111,10 C17.1111111,12.8916762 15.1183333,15.336374 12.3888889,16.1208666 L12.3888889,18 C16.1761111,17.1698974 19,13.9042189 19,10 C19,6.09578107 16.1761111,2.83010262 12.3888889,2 Z" id="Shape" fill="currentcolor"></path>
    </g>
</svg>