<?xml version="1.0" encoding="UTF-8"?>
<svg width="200px" height="200px" viewBox="0 0 200 200" version="1.1" xmlns="http://www.w3.org/2000/svg" xmlns:xlink="http://www.w3.org/1999/xlink">
    <title>illust/b2b/space_make</title>
    <defs>
        <polygon id="path-1" points="0.0324 0.3799 22.428 0.3799 22.428 22.2559 0.0324 22.2559"></polygon>
    </defs>
    <g id="illust/b2b/space_make" stroke="none" stroke-width="1" fill="none" fill-rule="evenodd">
        <g id="Group-89" transform="translate(25.000000, 40.000000)">
            <path d="M34.6574,23.2309437 L34.6574,89.4714 L34.6574,89.4714 L75.0574,97.1594 L75.0574,30.1586566 C75.0574,29.1982789 74.3747743,28.3734815 73.4313315,28.1939237 L37.0313315,21.2662109 C35.9462395,21.0596942 34.8991838,21.7719203 34.6926671,22.8570123 C34.6692078,22.9802739 34.6574,23.1054696 34.6574,23.2309437 Z" id="Fill-1" fill="#C3C5F8"></path>
            <polygon id="Fill-2" fill="#8083E1" points="39.4089 54.8769 39.4089 57.0339 68.8119 62.5909 68.8119 60.4349"></polygon>
            <polygon id="Fill-3" fill="#F2F2F2" points="39.4089 60.9204 39.4089 63.0784 68.8119 68.6354 68.8119 66.4794"></polygon>
            <polygon id="Fill-4" fill="#F2F2F2" points="39.4089 66.9648 39.4089 69.1228 68.8119 74.6808 68.8119 72.5238"></polygon>
            <polygon id="Fill-5" fill="#F2F2F2" points="39.4089 73.0097 39.4089 75.1677 68.8119 80.7247 68.8119 78.5697"></polygon>
            <polygon id="Fill-6" fill="#F2F2F2" points="39.4089 79.0546 39.4089 81.2116 68.8119 86.7686 68.8119 84.6126"></polygon>
            <g id="Group-88" transform="translate(0.000000, 0.416000)">
                <path d="M52.5397,30.0624048 C58.4337,30.0865 64.0317,35.0305 65.0407,41.1015 C66.0487,47.1745 62.0857,52.0785 56.1907,52.0526029 C50.2947,52.0285 44.6977,47.0845 43.6897,41.0115 C42.6807,34.9395 46.6427,30.0375 52.5397,30.0624048" id="Fill-7" fill="#9C9FEE"></path>
                <path d="M7.5695,49.2685636 L7.5695,103.92971 C7.5695,104.890103 8.25214649,105.714908 9.19560755,105.89445 L39.7566076,111.710245 C40.8417037,111.916741 41.8887452,111.204494 42.0952403,110.119398 C42.1186947,109.996149 42.1305,109.870966 42.1305,109.745505 L42.1305,55.085243 C42.1305,54.1248714 41.4478827,53.3000774 40.5044473,53.1205132 L9.94344731,47.3038337 C8.85835697,47.0973083 7.81129554,47.8095259 7.60477014,48.8946163 C7.58130878,49.017883 7.5695,49.1430841 7.5695,49.2685636 Z" id="Fill-9" fill="#E6E6ED"></path>
                <polygon id="Fill-11" fill="#B8B8BF" points="11.634 75.9907 11.634 77.8367 36.788 82.5907 36.788 80.7467"></polygon>
                <polygon id="Fill-13" fill="#E6E6E6" points="11.634 81.3974 11.634 83.2424 36.788 87.9974 36.788 86.1534"></polygon>
                <polygon id="Fill-15" fill="#FFFFFF" points="11.634 86.8051 11.634 88.6521 36.788 93.4051 36.788 91.5601"></polygon>
                <polygon id="Fill-17" fill="#FFFFFF" points="11.634 92.2129 11.634 94.0589 36.788 98.8129 36.788 96.9679"></polygon>
                <polygon id="Fill-19" fill="#FFFFFF" points="11.634 97.6206 11.634 99.4656 36.788 104.2206 36.788 102.3756"></polygon>
                <path d="M22.8669,55.1190215 C27.9089,55.1401 32.6979,59.3681 33.5609,64.5621 C34.4229,69.7581 31.0339,73.9531 25.9909,73.9311861 C20.9459,73.9101 16.1579,69.6821 15.2969,64.4861 C14.4329,59.2911 17.8219,55.0981 22.8669,55.1190215" id="Fill-21" fill="#CFCFD6"></path>
                <path d="M82.3034,47.3769156 L82.3034,98.7960743 C82.3034,99.7564829 82.9860686,100.581298 83.9295491,100.760823 L112.581549,106.212705 C113.66665,106.419177 114.713676,105.706908 114.920148,104.621808 C114.943597,104.498572 114.9554,104.373404 114.9554,104.247957 L114.9554,52.8296759 C114.9554,51.8692896 114.272762,51.0444873 113.329309,50.8649387 L84.677309,45.4121785 C83.5922146,45.2056742 82.5451671,45.9179123 82.3386629,47.0030066 C82.3152063,47.126261 82.3034,47.2514491 82.3034,47.3769156 Z" id="Fill-23" fill="#C3C5F8"></path>
                <polygon id="Fill-25" fill="#898CD2" points="86.1432 72.4902 86.1432 74.2332 109.9082 78.7242 109.9082 76.9822"></polygon>
                <polygon id="Fill-27" fill="#F2F2F2" points="86.1432 77.6889 86.1432 79.4329 109.9082 83.9239 109.9082 82.1809"></polygon>
                <polygon id="Fill-29" fill="#F2F2F2" points="86.1432 82.8877 86.1432 84.6317 109.9082 89.1237 109.9082 87.3807"></polygon>
                <polygon id="Fill-31" fill="#F2F2F2" points="86.1432 88.0864 86.1432 89.8314 109.9082 94.3234 109.9082 92.5814"></polygon>
                <polygon id="Fill-33" fill="#F2F2F2" points="86.1432 93.2871 86.1432 95.0301 109.9082 99.5221 109.9082 97.7791"></polygon>
                <path d="M106.859,61.6935 C107.673,66.6015 104.471,70.5635 99.707,70.5436502 C94.941,70.5235 90.419,66.5295 89.603,61.6205 C88.788,56.7125 91.989,52.7515 96.756,52.7713498 C101.519,52.7915 106.044,56.7865 106.859,61.6935 Z" id="Fill-35" fill="#9C9FEE"></path>
                <g id="Group-7" transform="translate(52.506000, 67.748000)">
                    <path d="M5.15143483e-14,2.41651126 L5.15143483e-14,42.6367211 C4.82199796e-14,43.5971088 0.682639538,44.4219118 1.62609448,44.601459 L23.6890945,48.8002266 C24.7741892,49.0067289 25.8212355,48.294489 26.0277378,47.2093943 C26.0511939,47.086141 26.063,46.9609541 26.063,46.8354887 L26.063,6.61527886 C26.063,5.65489123 25.3803605,4.83008817 24.4369055,4.65054105 L2.37390552,0.451773448 C1.28881079,0.245271132 0.241764506,0.957511009 0.0352621898,2.04260574 C0.0118061021,2.16585897 5.14989833e-14,2.29104594 5.15143483e-14,2.41651126 Z" id="Fill-37" fill="#DEE0FF"></path>
                    <polygon id="Fill-39" fill="#C3C5F8" points="3.065 21.9741 3.065 23.3661 22.034 26.9511 22.034 25.5591"></polygon>
                    <polygon id="Fill-41" fill="#FFFFFF" points="3.065 26.4546 3.065 27.8456 22.034 31.4316 22.034 30.0406"></polygon>
                    <polygon id="Fill-43" fill="#FFFFFF" points="3.065 30.9336 3.065 32.3266 22.034 35.9116 22.034 34.5206"></polygon>
                    <polygon id="Fill-45" fill="#FFFFFF" points="3.065 35.4136 3.065 36.8066 22.034 40.3926 22.034 39.0006"></polygon>
                    <polygon id="Fill-47" fill="#FFFFFF" points="3.065 39.8945 3.065 41.2865 22.034 44.8725 22.034 43.4805"></polygon>
                    <path d="M11.5357,6.23433955 C15.3377,6.2504 18.9497,9.4394 19.6007,13.3564 C20.2507,17.2744 17.6947,20.4374 13.8917,20.4214604 C10.0877,20.4054 6.4777,17.2164 5.8267,13.2974 C5.1767,9.3804 7.7327,6.2184 11.5357,6.23433955" id="Fill-49" fill="#C3C5F8"></path>
                </g>
                <g id="Group-53" transform="translate(127.000000, 47.000000)">
                    <mask id="mask-2" fill="white">
                        <use xlink:href="#path-1"></use>
                    </mask>
                    <g id="Clip-52"></g>
                    <path d="M0.0324,1.5881482 L0.0324,17.1672192 C0.0324,17.6474315 0.373745449,18.0598434 0.845495506,18.1495973 L21.2414955,22.0300829 C21.7840479,22.1333074 22.3075536,21.7771617 22.4107781,21.2346093 C22.4225,21.1729982 22.4284,21.110421 22.4284,21.0477048 L22.4284,5.46954452 C22.4284,4.98934843 22.0870771,4.57694562 21.6153468,4.48717449 L1.21934682,0.605778164 C0.676798836,0.502530284 0.153277846,0.858653385 0.0500299655,1.40120137 C0.0383026713,1.46282608 0.0324,1.52541756 0.0324,1.5881482 Z" id="Fill-51" fill="#868686" mask="url(#mask-2)"></path>
                </g>
                <polyline id="Fill-54" fill="#868686" points="128.1432 57.6762 119.9522 65.0122 131.3482 63.2762"></polyline>
                <polygon id="Fill-56" fill="#868686" points="141.0202 58.2505 140.9812 60.2425 136.5962 59.5275 136.6352 57.5365"></polygon>
                <path d="M140.7267,60.0835 L140.7607,58.3255 L136.8897,57.6945 L136.8547,59.4525 L140.7267,60.0835 L140.7267,60.0835 Z M132.6677,56.2485 L144.5097,58.1775 L144.3987,63.8785 L132.5577,61.9495 L132.6677,56.2485 Z" id="Fill-58" fill="#FFFFFF"></path>
                <polygon id="Fill-60" fill="#FFFFFF" points="141.5597 54.2622 141.5397 55.2562 144.5567 55.7472 144.5237 57.4022 132.6827 55.4722 132.7147 53.8172 135.7317 54.3082 135.7507 53.3152"></polygon>
                <path d="M88.4816,1.7926482 L88.4816,18.1984 L88.4816,18.1984 L109.690696,22.2335829 C110.233248,22.3368074 110.756754,21.9806617 110.859978,21.4381093 C110.8717,21.3764982 110.8776,21.313921 110.8776,21.2512048 L110.8776,5.67404452 C110.8776,5.19384843 110.536277,4.78144562 110.064547,4.69167449 L89.6685468,0.810278164 C89.1259988,0.707030284 88.6024778,1.06315339 88.49923,1.60570137 C88.4875027,1.66732608 88.4816,1.72991756 88.4816,1.7926482 Z" id="Fill-62" fill="#EF7894"></path>
                <polyline id="Fill-64" fill="#EF7894" points="89.5861 13.062 81.3951 20.398 92.7911 18.662"></polyline>
                <path d="M103.4528,9.6494 C103.4928,8.0864 102.3568,6.6244 100.9178,6.3814 C100.3288,6.2824 99.7838,6.4044 99.3388,6.6854 C100.4928,7.4614 101.2738,8.8724 101.2368,10.3534 C101.2208,10.9764 101.0628,11.5564 100.7788,12.0444 C101.6648,12.9594 102.2588,14.1454 102.4608,15.3994 L104.7538,15.7864 C104.7968,14.0814 103.9398,12.4584 102.6528,11.5064 C103.1298,11.0734 103.4338,10.4224 103.4528,9.6494 M99.6628,12.0794 C100.9508,13.0314 101.8068,14.6564 101.7648,16.3584 L93.6538,14.9894 C93.6968,13.2874 94.6268,11.9634 95.9508,11.4524 C95.4998,10.8634 95.2308,10.1154 95.2498,9.3424 C95.2888,7.7814 96.4868,6.7114 97.9278,6.9534 C99.3678,7.1974 100.5038,8.6614 100.4648,10.2224 C100.4458,10.9954 100.1398,11.6464 99.6628,12.0794" id="Fill-66" fill="#F1F2F2"></path>
                <path d="M0.0002,8.4895012 L0.0002,24.0685192 C0.0002,24.5487315 0.341545449,24.9611434 0.813295506,25.0508973 L22.3962,29.1572 L22.3962,29.1572 L22.3962,12.3718082 C22.3962,11.8916284 22.0548996,11.4792347 21.5831892,11.3894462 L1.18718915,7.50713922 C0.644645616,7.40386796 0.121109281,7.7599685 0.0178380219,8.30251204 C0.00610538058,8.36415038 0.0002,8.42675616 0.0002,8.4895012 Z" id="Fill-68" fill="#868686"></path>
                <polyline id="Fill-70" fill="#868686" points="20.5426 23.5049 28.0726 34.1719 12.6236 26.7009"></polyline>
                <polygon id="Fill-72" fill="#F1F2F2" points="14.96 16.1426 14.868 24.0446 6 22.6696 6.092 14.7676"></polygon>
                <polygon id="Fill-74" fill="#F1F2F2" points="14.9854 13.959 14.9704 15.228 6.1024 13.854 6.1164 12.584"></polygon>
                <polygon id="Fill-76" fill="#666666" points="7.1402 21.4282 7.7962 20.6792 8.3272 20.7992 7.1382 21.9702 6.4642 21.1202 6.8852 20.9412"></polygon>
                <polygon id="Fill-78" fill="#666666" points="7.1646 19.353 7.8196 18.606 8.3506 18.724 7.1626 19.895 6.4886 19.047 6.9096 18.868"></polygon>
                <polygon id="Fill-80" fill="#666666" points="8.939 21.2651 8.942 20.9541 13.968 21.7331 13.965 22.0441"></polygon>
                <polygon id="Fill-82" fill="#666666" points="7.1886 17.2768 7.8446 16.5308 8.3756 16.6498 7.1866 17.8218 6.5126 16.9718 6.9336 16.7928"></polygon>
                <polygon id="Fill-84" fill="#666666" points="8.963 19.1894 8.966 18.8794 13.993 19.6594 13.989 19.9684"></polygon>
                <polygon id="Fill-86" fill="#666666" points="8.9908 16.8056 14.0168 17.5846 14.0128 17.8946 8.9878 17.1166"></polygon>
            </g>
        </g>
    </g>
</svg>