<?xml version="1.0" encoding="UTF-8"?>
<svg width="150px" height="150px" viewBox="0 0 150 150" version="1.1" xmlns="http://www.w3.org/2000/svg" xmlns:xlink="http://www.w3.org/1999/xlink">
    <title>Theme_System mode</title>
    <defs>
        <rect id="path-1" x="0" y="0" width="150" height="150" rx="10"></rect>
    </defs>
    <g id="04.-Profile-Menu" stroke="none" stroke-width="1" fill="none" fill-rule="evenodd">
        <g id="04_01_04_setting_normal" transform="translate(-403.000000, -499.000000)">
            <g id="Group-5" transform="translate(403.000000, 499.000000)">
                <mask id="mask-2" fill="white">
                    <use xlink:href="#path-1"></use>
                </mask>
                <use id="Rectangle" fill="#FFFFFF" xlink:href="#path-1"></use>
                <path d="M0,74 L150,74 L150,142 C150,146.418278 146.418278,150 142,150 L8,150 C3.581722,150 -3.47095419e-16,146.418278 0,142 L0,74 L0,74 Z" id="Rectangle" fill="#0A0A0D" mask="url(#mask-2)"></path>
                <g id="Icon/common/rotate" mask="url(#mask-2)">
                    <g transform="translate(66.666667, 63.833349)">
                        <path d="M0,8.3339013 C0,8.79473463 0.3725,9.16723463 0.833333333,9.16723463 C1.29416667,9.16723463 1.66666667,8.79473463 1.66666667,8.3339013 C1.66666667,6.49556796 3.16166667,5.00056796 5,5.00056796 L13.965,5.00056796 L11.9425,6.89223463 C11.6066667,7.2064013 11.5891667,7.7339013 11.9033333,8.07056796 C12.0675,8.24556796 12.29,8.3339013 12.5125,8.3339013 C12.7166667,8.3339013 12.9208333,8.25973463 13.0816667,8.1089013 L16.2583333,5.13723463 C16.5208333,4.8839013 16.6666667,4.5439013 16.6675145,4.18056796 C16.6691667,3.8164013 16.5266667,3.47473463 16.2525,3.20723463 L13.0825,0.226401298 C12.7491667,-0.0877653688 12.22,-0.0744320355 11.905,0.263067965 C11.59,0.598901298 11.6066667,1.1264013 11.9416667,1.4414013 L13.955,3.3339013 L5,3.3339013 C2.2425,3.3339013 0,5.5764013 0,8.3339013" id="Fill-1" fill="#000000"></path>
                        <path d="M16.6683333,12.000568 C16.6683333,11.5397346 16.2958333,11.1672346 15.835,11.1672346 C15.3741667,11.1672346 15.0016667,11.5397346 15.0016667,12.000568 C15.0016667,13.8389013 13.5066667,15.3339013 11.6683333,15.3339013 L2.70333333,15.3339013 L4.72583333,13.4422346 C5.06166667,13.128068 5.07916667,12.600568 4.765,12.2639013 C4.44916667,11.9289013 3.92333333,11.9114013 3.58666667,12.225568 L0.41,15.1972346 C0.1475,15.450568 0.00166666667,15.790568 0.000818880051,16.1539013 C-0.000833333333,16.518068 0.141666667,16.8597346 0.415833333,17.1272346 L3.58583333,20.108068 C3.74583333,20.2589013 3.95083333,20.3339013 4.15583333,20.3339013 C4.3775,20.3339013 4.6,20.2464013 4.76333333,20.0714013 C5.07833333,19.735568 5.06166667,19.208068 4.72666667,18.893068 L2.71333333,17.000568 L11.6683333,17.000568 C14.4258333,17.000568 16.6683333,14.758068 16.6683333,12.000568" id="Fill-3" fill="#FFFFFF"></path>
                    </g>
                </g>
            </g>
        </g>
    </g>
</svg>