<?xml version="1.0" encoding="UTF-8"?>
<svg width="20px" height="20px" viewBox="0 0 20 20" version="1.1" xmlns="http://www.w3.org/2000/svg" xmlns:xlink="http://www.w3.org/1999/xlink">
    <title>Icon/system/friend_add</title>
    <g id="Icon/system/friend_add" stroke="none" stroke-width="1" fill="none" fill-rule="evenodd">
        <path d="M16.0606,12.13 C16.5576,12.13 16.9606,12.533 16.9606,13.03 L16.9606,13.03 L16.9606,15.167 L19.0996,15.167 C19.5966,15.167 19.9996,15.57 19.9996,16.067 C19.9996,16.564 19.5966,16.968 19.0996,16.968 L19.0996,16.968 L16.9606,16.968 L16.9606,19.104 C16.9606,19.601 16.5576,20.004 16.0606,20.004 C15.5636,20.004 15.1606,19.601 15.1606,19.104 L15.1606,19.104 L15.1606,16.968 L13.0206,16.968 C12.5236,16.968 12.1206,16.564 12.1206,16.067 C12.1206,15.57 12.5236,15.167 13.0206,15.167 L13.0206,15.167 L15.1606,15.167 L15.1606,13.03 C15.1606,12.533 15.5636,12.13 16.0606,12.13 Z M10,1 C14.962,1 19,5.039 19,10.004 C19,10.501 18.597,10.904 18.1,10.904 C17.603,10.904 17.199,10.501 17.199,10.004 C17.199,6.032 13.97,2.801 10,2.801 C6.03,2.801 2.801,6.032 2.801,10.004 C2.801,13.976 6.03,17.207 10,17.207 C10.497,17.207 10.9,17.61 10.9,18.107 C10.9,18.604 10.497,19.008 10,19.008 C5.038,19.008 1,14.969 1,10.004 C1,5.039 5.038,1 10,1 Z M13.6247,10.1816 C13.9877,9.8906 14.5057,9.9646 14.7817,10.3456 C15.0577,10.7276 14.9877,11.2716 14.6247,11.5626 C13.4437,12.5076 11.8947,12.9716 10.0007,12.9746257 C8.1067,12.9786 6.5557,12.5156 5.3737,11.5656 C5.0117,11.2746 4.9437,10.7306 5.2197,10.3496 C5.4957,9.9686 6.0137,9.8956 6.3757,10.1866 C7.2437,10.8836 8.4437,11.2426 9.9987,11.2396 C11.5557,11.2366 12.7557,10.8766 13.6247,10.1816 Z M11.9807,7.0334 C12.5267,7.0334 12.9697,7.4764 12.9697,8.0234 C12.9697,8.5704 12.5267,9.0134 11.9807,9.0134 C11.4337,9.0134 10.9907,8.5704 10.9907,8.0234 C10.9907,7.4764 11.4337,7.0334 11.9807,7.0334 Z M8.0198,7.0334 C8.5668,7.0334 9.0098,7.4764 9.0098,8.0234 C9.0098,8.5704 8.5668,9.0134 8.0198,9.0134 C7.4738,9.0134 7.0308,8.5704 7.0308,8.0234 C7.0308,7.4764 7.4738,7.0334 8.0198,7.0334 Z" id="Combined-Shape" fill="#6C50E9"></path>
    </g>
</svg>