<?xml version="1.0" encoding="UTF-8"?>
<svg width="20px" height="20px" viewBox="0 0 20 20" version="1.1" xmlns="http://www.w3.org/2000/svg" xmlns:xlink="http://www.w3.org/1999/xlink">
    <title>Icon/system/friends</title>
    <g id="Icon/system/friends" stroke="none" stroke-width="1" fill="none" fill-rule="evenodd">
        <path d="M14.043,3.9999 C17.331,3.9999 20.006,6.6739 20.006,9.9599 C20.006,13.2469 17.331,15.9209 14.043,15.9209 C12.542,15.9209 11.1,15.3479 10.003,14.3389 C8.907,15.3489 7.465,15.9209 5.963,15.9209 C2.675,15.9209 1.98951966e-13,13.2469 1.98951966e-13,9.9599 C1.98951966e-13,6.6739 2.675,3.9999 5.963,3.9999 C7.464,3.9999 8.906,4.5729 10.003,5.5819 C11.099,4.5719 12.541,3.9999 14.043,3.9999 Z M14.043,5.5159 C13.178,5.5159 12.376,5.7729 11.689,6.1969 C11.628,6.2339 11.563,6.2629 11.504,6.3029 C11.381,6.3869 11.273,6.4909 11.16,6.5869 C11.034,6.6939 10.903,6.7969 10.789,6.9189 C10.018,7.7279 9.536,8.8169 9.536,10.0199 C9.536,10.9659 9.826,11.8719 10.375,12.6389 L10.375,12.6389 L10.48,12.7759 C10.574,12.8169 10.663,12.8759 10.737,12.9569 C11.582,13.8879 12.787,14.4209 14.043,14.4209 C16.504,14.4209 18.506,12.4199 18.506,9.9599 C18.506,8.7519 18.019,7.6579 17.235,6.8539 L17.235,6.8539 L17.183,6.7959 C16.991,6.6069 16.782,6.4349 16.56,6.2819 C16.485,6.2329 16.405,6.1949 16.329,6.1499 C16.195,6.0699 16.061,5.9929 15.919,5.9269 C15.781,5.8639 15.64,5.8129 15.498,5.7639 C15.413,5.7339 15.327,5.7079 15.24,5.6839 C15.074,5.6379 14.906,5.5969 14.735,5.5699 C14.695,5.5639 14.654,5.5629 14.614,5.5579 C14.426,5.5339 14.235,5.5159 14.043,5.5159 Z M5.963,5.4999 C3.502,5.4999 1.5,7.5009 1.5,9.9599 C1.5,12.4199 3.502,14.4209 5.963,14.4209 C7.118,14.4209 8.216,13.9529 9.044,13.1559 C8.623,12.4889 8.332,11.7579 8.205,10.9829 C7.603,11.3699 6.858,11.5719 5.964,11.5739 C4.934,11.5759 4.091,11.3239 3.448,10.8089 C3.251,10.6499 3.214,10.3549 3.364,10.1479 C3.515,9.9419 3.796,9.9009 3.992,10.0599 C4.465,10.4389 5.116,10.6329 5.962,10.6309 C6.809,10.6299 7.462,10.4349 7.934,10.0569 C7.992,10.0099 8.059,9.9849 8.126,9.9729 C8.136,8.8029 8.487,7.7149 9.085,6.7989 C8.252,5.9799 7.136,5.4999 5.963,5.4999 Z M15.999,10.0566 C16.196,9.8986 16.478,9.9396 16.627,10.1466 C16.777,10.3536 16.739,10.6496 16.542,10.8066 C15.9,11.3206 15.058,11.5726 14.028,11.5746118 C12.999,11.5766 12.155,11.3246 11.513,10.8086 C11.316,10.6506 11.278,10.3546 11.429,10.1476 C11.579,9.9416 11.86,9.9016 12.058,10.0596 C12.529,10.4386 13.182,10.6326 14.027,10.6306 C14.874,10.6296 15.526,10.4346 15.999,10.0566 Z M15.1201,8.4064 C15.4171,8.4064 15.6581,8.6464 15.6581,8.9434 C15.6581,9.2414 15.4171,9.4814 15.1201,9.4814 C14.8221,9.4814 14.5811,9.2414 14.5811,8.9434 C14.5811,8.6464 14.8221,8.4064 15.1201,8.4064 Z M12.9668,8.4064 C13.2638,8.4064 13.5048,8.6464 13.5048,8.9434 C13.5048,9.2414 13.2638,9.4814 12.9668,9.4814 C12.6698,9.4814 12.4288,9.2414 12.4288,8.9434 C12.4288,8.6464 12.6698,8.4064 12.9668,8.4064 Z M7.0391,8.3469 C7.3371,8.3469 7.5771,8.5869 7.5771,8.8849 C7.5771,9.1819 7.3371,9.4219 7.0391,9.4219 C6.7421,9.4219 6.5011,9.1819 6.5011,8.8849 C6.5011,8.5869 6.7421,8.3469 7.0391,8.3469 Z M4.8867,8.3469 C5.1837,8.3469 5.4247,8.5869 5.4247,8.8849 C5.4247,9.1819 5.1837,9.4219 4.8867,9.4219 C4.5887,9.4219 4.3487,9.1819 4.3487,8.8849 C4.3487,8.5869 4.5887,8.3469 4.8867,8.3469 Z" id="Combined-Shape" fill="#fff"></path>
    </g>
</svg>