<?xml version="1.0" encoding="UTF-8"?>
<svg width="24px" height="24px" viewBox="0 0 24 24" version="1.1" xmlns="http://www.w3.org/2000/svg" xmlns:xlink="http://www.w3.org/1999/xlink">
    <title>Icon/appList/friends_add</title>
    <g id="Icon/appList/friends_add" stroke="none" stroke-width="1" fill="none" fill-rule="evenodd">
        <g id="Icon/system/account_add">
            <path d="M12.14988,1.2 C17.17428,1.2 21.53868,4.5912 22.76748,9.4464 C22.91268,10.026 22.56228,10.6128 21.98388,10.7592 C21.40308,10.9044 20.81868,10.5552 20.67228,9.9756 C19.68708,6.0804 16.18308,3.3612 12.14988,3.3612 C7.30308,3.3612 3.36108,7.2936 3.36108,12.1272 C3.36108,16.2288 6.15228,19.7412 10.14948,20.6688 C10.73148,20.8032 11.09268,21.3828 10.95828,21.9648 C10.84188,22.464 10.39788,22.8012 9.90708,22.8012 C9.82668,22.8012 9.74388,22.7916 9.66228,22.7736 C4.67988,21.6168 1.19988,17.2392 1.19988,12.1272 C1.19988,6.102 6.11268,1.2 12.14988,1.2 Z M17.96832,12.54372 C18.30432,13.00692 18.21912,13.66812 17.77872,14.01972 C16.34112,15.16932 14.45472,15.73212 12.15072,15.7369372 C9.84432,15.74052 7.95792,15.17772 6.52032,14.02452 C6.07992,13.67052 5.99472,13.01052 6.33192,12.54732 C6.66792,12.08532 7.29792,11.99652 7.73952,12.35052 C8.79432,13.19652 10.25472,13.63092 12.14712,13.62852 C14.04312,13.62492 15.50352,13.18812 16.56192,12.34332 C17.00232,11.99052 17.63352,12.08052 17.96832,12.54372 Z M14.55936,8.51952 C15.22536,8.51952 15.76416,9.05832 15.76416,9.72312 C15.76416,10.38672 15.22536,10.92552 14.55936,10.92552 C13.89336,10.92552 13.35456,10.38672 13.35456,9.72312 C13.35456,9.05832 13.89336,8.51952 14.55936,8.51952 Z M9.73944,8.51952 C10.40544,8.51952 10.94544,9.05832 10.94544,9.72312 C10.94544,10.38672 10.40544,10.92552 9.73944,10.92552 C9.07464,10.92552 8.53464,10.38672 8.53464,9.72312 C8.53464,9.05832 9.07464,8.51952 9.73944,8.51952 Z" id="Combined-Shape" fill="#818181"></path>
            <g id="Group" transform="translate(12.000000, 12.000000)">
                <circle id="Oval" fill="#6C56E5" cx="6" cy="6" r="6"></circle>
                <path d="M6.02142857,2.4 C6.43564213,2.4 6.77142857,2.73578644 6.77142857,3.15 L6.771,5.228 L8.85,5.22857143 C9.26421356,5.22857143 9.6,5.56435787 9.6,5.97857143 L9.6,6.02142857 C9.6,6.43564214 9.26421356,6.77142857 8.85,6.77142857 L6.771,6.771 L6.77142857,8.85 C6.77142857,9.26421357 6.43564213,9.6 6.02142857,9.6 L5.97857143,9.6 C5.56435787,9.6 5.22857143,9.26421357 5.22857143,8.85 L5.228,6.771 L3.15,6.77142857 C2.73578644,6.77142857 2.4,6.43564214 2.4,6.02142857 L2.4,5.97857143 C2.4,5.56435787 2.73578644,5.22857143 3.15,5.22857143 L5.228,5.228 L5.22857143,3.15 C5.22857143,2.73578644 5.56435787,2.4 5.97857143,2.4 L6.02142857,2.4 Z" id="Combined-Shape" fill="#FFFFFF"></path>
            </g>
        </g>
    </g>
</svg>