<?xml version="1.0" encoding="UTF-8"?>
<svg width="20px" height="20px" viewBox="0 0 20 20" version="1.1" xmlns="http://www.w3.org/2000/svg" xmlns:xlink="http://www.w3.org/1999/xlink">
    <g id="Icon/system/profile_edit" stroke="none" stroke-width="1" fill="none" fill-rule="evenodd">
        <path d="M16.4228617,11.3114649 L16.4899492,11.3708024 L18.4426049,13.3665646 C18.5550006,13.4814415 18.6179849,13.6368791 18.6179849,13.7991545 C18.6179849,13.9291479 18.577572,14.0549845 18.5039426,14.1585394 L18.4426049,14.2317445 L13.0025572,19.7918864 C12.9145097,19.8818775 12.8016118,19.9410244 12.6801623,19.9623384 L12.5877265,19.9711211 L10.5987025,20 C10.4397204,20 10.2870931,19.9354608 10.1754561,19.8207483 C10.0839162,19.7271876 10.0250997,19.6066311 10.0063935,19.4773991 L10,19.3791346 L10.0278997,17.3545844 C10.0298159,17.2272819 10.070459,17.1044294 10.1429899,17.0027861 L10.2032602,16.9307923 L15.6433079,11.3706504 C15.8560439,11.1532181 16.1886664,11.1334515 16.4228617,11.3114649 Z M10.1249,1 C14.3119,1 17.9489,3.826 18.9729,7.872 C19.0939,8.355 18.8019,8.844 18.3199,8.966 C17.8359,9.087 17.3489,8.796 17.2269,8.313 C16.4059,5.067 13.4859,2.801 10.1249,2.801 C6.0859,2.801 2.8009,6.078 2.8009,10.106 C2.8009,13.524 5.1269,16.451 8.4579,17.224 C8.9429,17.336 9.2439,17.819 9.1319,18.304 C9.0349,18.72 8.6649,19.001 8.2559,19.001 C8.1889,19.001 8.1199,18.993 8.0519,18.978 C3.8999,18.014 0.9999,14.366 0.9999,10.106 C0.9999,5.085 5.0939,1 10.1249,1 Z M16.065923,12.6682066 L11.2215811,17.619492 L11.2051624,18.7664852 L12.3282025,18.7505431 L17.1725444,13.7984187 L16.065923,12.6682066 Z M18.8512335,10.3695882 L18.9563504,10.4677601 L19.5419283,11.0667092 C20.1526334,11.6904001 20.1526334,12.7052105 19.542271,13.3285503 C19.4287659,13.4451561 19.2766857,13.5081058 19.1187281,13.5081058 C18.9927679,13.5081058 18.8703241,13.4678509 18.7680988,13.392176 L18.6954817,13.3288542 L16.7426775,11.3329399 C16.5091519,11.094259 16.5091519,10.7070528 16.7426775,10.4677601 C17.3189861,9.87872887 18.2369619,9.84600491 18.8512335,10.3695882 Z M14.9736,10.4531 C15.2536,10.8391 15.1826,11.3901 14.8156,11.6831 C13.6176,12.6411 12.0456,13.1101 10.1256,13.1141143 C8.2036,13.1171 6.6316,12.6481 5.4336,11.6871 C5.0666,11.3921 4.9956,10.8421 5.2766,10.4561 C5.5566,10.0711 6.0816,9.9971 6.4496,10.2921 C7.3286,10.9971 8.5456,11.3591 10.1226,11.3571 C11.7026,11.3541 12.9196,10.9901 13.8016,10.2861 C14.1686,9.9921 14.6946,10.0671 14.9736,10.4531 Z M12.1328,7.0996 C12.6878,7.0996 13.1368,7.5486 13.1368,8.1026 C13.1368,8.6556 12.6878,9.1046 12.1328,9.1046 C11.5778,9.1046 11.1288,8.6556 11.1288,8.1026 C11.1288,7.5486 11.5778,7.0996 12.1328,7.0996 Z M8.1162,7.0996 C8.6712,7.0996 9.1212,7.5486 9.1212,8.1026 C9.1212,8.6556 8.6712,9.1046 8.1162,9.1046 C7.5622,9.1046 7.1122,8.6556 7.1122,8.1026 C7.1122,7.5486 7.5622,7.0996 8.1162,7.0996 Z" id="Combined-Shape" fill="#fff"></path>
    </g>
</svg>