<?xml version="1.0" encoding="UTF-8"?>
<svg width="24px" height="24px" viewBox="0 0 24 24" version="1.1" xmlns="http://www.w3.org/2000/svg" xmlns:xlink="http://www.w3.org/1999/xlink">
    <!-- Generator: Sketch 63.1 (92452) - https://sketch.com -->
    <g id="Icon/appList/TeeMeeting" stroke="none" stroke-width="1" fill="none" fill-rule="evenodd">
        <g id="TeeMeeting" transform="translate(2.000000, 2.000000)" fill="#fff">
            <path d="M14.5454545,0 C17.5579168,0 20,2.60962079 20,5.82875118 L20,12.6289609 C20,15.8480913 17.5579168,18.4577121 14.5454545,18.4577121 L6.36272727,18.4577121 L2.50658898,20.9307067 C2.29132522,21.0687258 2.01211602,20.9941347 1.88295776,20.764103 C1.84057175,20.6886132 1.81818182,20.6022328 1.81818182,20.5141973 L1.81830136,16.9736447 C0.702324045,15.9063568 0,14.355304 0,12.6289609 L0,5.82875118 C0,2.60962079 2.44208318,0 5.45454545,0 L14.5454545,0 Z M14.5454545,2 L5.45454545,2 C3.5070951,2 1.91720102,3.63621155 1.8226321,5.69258241 L1.81818182,5.886561 L1.81818182,12.6880428 C1.81818182,13.7353946 2.20579205,14.712007 2.88163359,15.4346071 L3.03083226,15.5854953 C3.37769838,15.9172899 3.59079785,16.3770553 3.62993547,16.8686847 L3.63648318,17.0336094 L3.63636364,18 L5.4271183,16.851639 C5.66262736,16.7005756 5.92646183,16.608899 6.19860468,16.5825362 L6.36272727,16.5746038 L14.5454545,16.5746038 C16.4929049,16.5746038 18.082799,14.9383922 18.1773679,12.8820213 L18.1818182,12.6880428 L18.1818182,5.886561 C18.1818182,3.80511774 16.6509377,2.10583214 14.7269457,2.00475648 L14.5454545,2 Z M11.8181818,5 C12.3202588,5 12.7272727,5.41422552 12.7272727,5.9251986 L12.7272727,6.21756136 L15,5 L16.3636364,5 L16.3636364,13.3267874 L15,13.3267874 L12.7272727,12.1073756 L12.7272727,12.4015888 C12.7272727,12.9125618 12.3202588,13.3267874 11.8181818,13.3267874 L4.54545455,13.3267874 C4.0433775,13.3267874 3.63636364,12.9125618 3.63636364,12.4015888 L3.63636364,5.9251986 C3.63636364,5.41422552 4.0433775,5 4.54545455,5 L11.8181818,5 Z M10.9090909,7 L5.45454545,7 L5.45454545,11.625993 L10.9090909,11.625993 L10.9090909,7 Z M14.5454545,7.48295367 L12.7272727,8.45718779 L12.7272727,10.1651044 L14.5454545,11.1402637 L14.5454545,7.48295367 Z M9.09090909,8.4015888 C9.59298609,8.4015888 10,8.81581432 10,9.3267874 C10,9.83776043 9.59298609,10.251986 9.09090909,10.251986 L7.27272727,10.251986 C6.77065023,10.251986 6.36363636,9.83776043 6.36363636,9.3267874 C6.36363636,8.81581432 6.77065023,8.4015888 7.27272727,8.4015888 L9.09090909,8.4015888 Z" id="Combined-Shape"></path>
        </g>
    </g>
</svg>