<?xml version="1.0" encoding="UTF-8"?>
<svg width="24px" height="24px" viewBox="0 0 24 24" version="1.1" xmlns="http://www.w3.org/2000/svg" xmlns:xlink="http://www.w3.org/1999/xlink">
    <!-- Generator: Sketch 63.1 (92452) - https://sketch.com -->
    <title>Icon/appList/TeeTalk</title>
    <desc>Created with Sketch.</desc>
    <g id="Icon/appList/TeeTalk" stroke="none" stroke-width="1" fill="none" fill-rule="evenodd">
        <path d="M17,1 C20.2383969,1 22.8775718,3.56557489 22.9958615,6.77506174 L23,7 L23,8 C23,9.68353344 22.3066252,11.2051205 21.1898685,12.2947685 L20.9998685,12.4723307 L21,15.0657415 C21,15.1644539 20.970781,15.2609578 20.9160251,15.3430916 C20.7798685,15.5473265 20.5194583,15.6190756 20.3018994,15.5249179 L20.2226499,15.4817666 L18,14.001 L18,15.7773517 C18,19.3486519 15.1556914,22.2437628 11.6470588,22.2437628 L6.35294118,22.2437628 C6.16350966,22.2437628 5.9760146,22.2353237 5.79079909,22.2187948 L2.91381407,23.9265071 C2.66125718,24.0764634 2.33708897,23.9896323 2.18976411,23.7325645 C2.14253386,23.6501522 2.11764706,23.5564537 2.11764706,23.4610447 L2.11778629,20.5973398 C0.818000948,19.4132917 0,17.6925551 0,15.7773517 L0,11.466411 C0,7.89511083 2.84430865,5 6.35294118,5 L9.1286154,4.99891642 C9.63366342,2.78279969 11.5688243,1.11085813 13.9118688,1.00529699 L14.147495,1 L17,1 Z M11.6923077,7 L6.30769231,7 C4.00071265,7 2.11729967,8.88333269 2.00527187,11.2502824 L2,11.4735581 L2,15.9471162 C2,17.1526521 2.45916903,18.2767648 3.25978133,19.108501 L3.43652438,19.2821782 C3.84743407,19.6640909 4.09987622,20.1933066 4.14623345,20.7591977 L4.15398777,20.9490346 L4.15384615,21 L4.6509192,20.6993162 C4.9806681,20.4996151 5.35456035,20.3951091 5.73403489,20.3947635 L5.92405883,20.4033122 L6.11508637,20.4163226 L6.30769231,20.4206742 L11.6923077,20.4206742 C13.9992873,20.4206742 15.8827003,18.5373415 15.9947281,16.1703918 L16,15.9471162 L16,11.4735581 C16,9.0777492 14.1864955,7.12181624 11.907305,7.00547486 L11.6923077,7 Z M13.772881,13.3947331 C14.1446039,13.8346503 14.0501475,14.4627894 13.5619065,14.7977211 C12.3856185,15.6046507 10.8548302,15.9973736 9.00173839,16 C7.14690667,16.0026028 5.61415702,15.6107303 4.436618,14.8001425 C3.94899799,14.4644773 3.85570483,13.8361971 4.2282419,13.3968393 C4.60077897,12.9574816 5.29807406,12.8734221 5.78569408,13.2090873 C6.5406045,13.7287484 7.60041703,13.9997067 8.99826025,13.9977354 C10.3978434,13.9957616 11.4596172,13.7233641 12.2157787,13.2046399 C12.7040196,12.8697083 13.401158,12.9548159 13.772881,13.3947331 Z M17,3 L14.1474815,3 L13.9677727,3.0050551 C12.8480229,3.06821738 11.8812115,3.71795991 11.3755117,4.65459556 L11.2861718,4.8335036 L11.23,4.967 L12.2985126,5.00244542 L12.5264208,5.01984851 C15.546464,5.3067257 17.8807735,7.77779776 17.9955729,10.7935776 L18,11.0266074 L18,11.936 L18.1534419,11.9494362 C18.3959685,11.9805872 18.6318109,12.0560862 18.8509418,12.1743287 L19.012,12.271 L19.0284442,12.135378 C19.0945749,11.7484493 19.2734978,11.3880071 19.5444086,11.1005927 L19.6660845,10.9820219 L19.8302031,10.8267297 C20.5205269,10.1361594 20.9374722,9.22017574 20.9935137,8.22980006 L21,8 L21,7 L20.9951047,6.80035966 C20.8910789,4.68396847 19.1421954,3 17,3 Z M7,10 C7.55228475,10 8,10.4477153 8,11 C8,11.5522847 7.55228475,12 7,12 C6.44771525,12 6,11.5522847 6,11 C6,10.4477153 6.44771525,10 7,10 Z M11,10 C11.5522847,10 12,10.4477153 12,11 C12,11.5522847 11.5522847,12 11,12 C10.4477153,12 10,11.5522847 10,11 C10,10.4477153 10.4477153,10 11,10 Z" id="Combined-Shape" fill="#fff"></path>
    </g>
</svg>