<?xml version="1.0" encoding="UTF-8"?>
<svg width="24px" height="24px" viewBox="0 0 24 24" version="1.1" xmlns="http://www.w3.org/2000/svg" xmlns:xlink="http://www.w3.org/1999/xlink">
    <title>Icon/common/profile_edit</title>
    <g id="Icon/common/profile_edit" stroke="none" stroke-width="1" fill="none" fill-rule="evenodd">
        <path d="M20.1079,10.8232 C20.9959,9.9332 22.4429,9.9332 23.3319,10.8232 C24.2219,11.7122 24.2219,13.1582 23.3329,14.0482 L23.3329,14.0482 L22.8159,14.5652 L22.9849,14.7342 C23.6739,15.4252 23.6739,16.5472 22.9849,17.2372 L22.9849,17.2372 L21.1029,19.1192 C20.9379,19.2852 20.7199,19.3682 20.5019,19.3682 C20.2839,19.3682 20.0669,19.2852 19.9019,19.1192 C19.5689,18.7872 19.5689,18.2492 19.9019,17.9172 L19.9019,17.9172 L21.7829,16.0352 C21.8099,16.0092 21.8099,15.9642 21.7819,15.9362 L21.7819,15.9362 L21.6129,15.7682 L14.3539,23.0292 C14.2469,23.1362 14.1129,23.2122 13.9679,23.2502 L13.9679,23.2502 L11.2239,23.9722 C11.1519,23.9912 11.0799,24.0002 11.0079,24.0002 C10.7849,24.0002 10.5679,23.9122 10.4069,23.7512 C10.1929,23.5372 10.1099,23.2262 10.1859,22.9332 L10.1859,22.9332 L10.9069,20.1882 C10.9449,20.0432 11.0219,19.9102 11.1279,19.8042 L11.1279,19.8042 L19.0089,11.9202 C19.0099,11.9192 19.0109,11.9192 19.0119,11.9182 L19.0119,11.9182 Z M19.6099,13.7232 L12.4929,20.8432 L12.1999,21.9572 L13.3139,21.6642 L20.4319,14.5452 L19.6099,13.7232 Z M10.5842,0.9999 C14.9812,0.9999 18.8022,3.9749 19.8762,8.2339 C20.0102,8.7699 19.6862,9.3129 19.1502,9.4479 C18.6182,9.5839 18.0712,9.2579 17.9362,8.7229 C17.0872,5.3539 14.0632,2.9999 10.5842,2.9999 C6.4022,2.9999 3.0002,6.4029 3.0002,10.5859 C3.0002,14.1339 5.4092,17.1729 8.8592,17.9749 C9.3972,18.0999 9.7312,18.6369 9.6062,19.1749 C9.4992,19.6369 9.0882,19.9489 8.6342,19.9489 C8.5582,19.9489 8.4822,19.9409 8.4062,19.9229 C4.0462,18.9089 1.0002,15.0689 1.0002,10.5859 C1.0002,5.2999 5.3002,0.9999 10.5842,0.9999 Z M14.4246,10.7737 C14.8096,10.4657 15.3576,10.5437 15.6506,10.9487 C15.9426,11.3527 15.8686,11.9297 15.4846,12.2367 C14.2336,13.2387 12.5916,13.7307 10.5846,13.7337242 C8.5776,13.7377 6.9336,13.2467 5.6816,12.2407 C5.2976,11.9317 5.2246,11.3547 5.5176,10.9517 C5.8106,10.5477 6.3596,10.4707 6.7436,10.7797 C7.6636,11.5177 8.9336,11.8977 10.5816,11.8947 C12.2316,11.8917 13.5036,11.5107 14.4246,10.7737 Z M22.1309,12.0252 C21.9039,11.7982 21.5349,11.7982 21.3089,12.0252 L21.3089,12.0252 L20.8129,12.5212 L21.6339,13.3432 L22.1309,12.8462 C22.3569,12.6192 22.3569,12.2512 22.1309,12.0252 Z M12.6815,7.4378 C13.2605,7.4378 13.7305,7.9068 13.7305,8.4868 C13.7305,9.0668 13.2605,9.5358 12.6815,9.5358 C12.1025,9.5358 11.6325,9.0668 11.6325,8.4868 C11.6325,7.9068 12.1025,7.4378 12.6815,7.4378 Z M8.4852,7.4378 C9.0642,7.4378 9.5342,7.9068 9.5342,8.4868 C9.5342,9.0668 9.0642,9.5358 8.4852,9.5358 C7.9062,9.5358 7.4362,9.0668 7.4362,8.4868 C7.4362,7.9068 7.9062,7.4378 8.4852,7.4378 Z" id="Combined-Shape" fill="#fff"></path>
    </g>
</svg>