<?xml version="1.0" encoding="UTF-8"?>
<svg width="24px" height="24px" viewBox="0 0 24 24" version="1.1" xmlns="http://www.w3.org/2000/svg" xmlns:xlink="http://www.w3.org/1999/xlink">
    <title>Icon/common/me</title>
    <g id="Icon/common/me" stroke="none" stroke-width="1" fill="none" fill-rule="evenodd">
        <path d="M12,1 C5.92525,1 1,5.92525 1,12 C1,18.07475 5.92525,23 12,23 C18.07475,23 23,18.07475 23,12 C23,5.92525 18.07475,1 12,1" id="Fill-1" fill="#FFFFFF"></path>
        <path d="M18.7041,13.3721 C18.5711,13.5291 18.3861,13.6211 18.1531,13.6461 L16.3491,13.6461 L16.3491,18.3421 C16.3491,18.5631 16.2601,18.7391 16.0831,18.8641 C15.9181,18.9791 15.7311,19.0371 15.5261,19.0371 C15.3341,19.0371 15.1581,18.9841 15.0041,18.8811 C14.8351,18.7671 14.7511,18.5961 14.7511,18.3731 L14.7511,6.9861 C14.7511,6.7131 14.8421,6.5041 15.0211,6.3641 C15.3701,6.0891 15.7891,6.1041 16.1001,6.3671 C16.2651,6.5061 16.3491,6.7151 16.3491,6.9861 L16.3491,12.0961 L18.0601,12.0961 C18.3381,12.0961 18.5511,12.1701 18.6911,12.3161 C18.8301,12.4621 18.8991,12.6381 18.8991,12.8391 C18.8991,13.0381 18.8341,13.2181 18.7041,13.3721 M13.4251,16.4021 C13.3091,16.5691 13.1421,16.6671 12.9251,16.6931 C12.3751,16.7681 11.8161,16.8251 11.2671,16.8611 C10.7101,16.8981 10.1461,16.9171 9.5941,16.9171 L7.7771,16.9171 C7.6211,16.9171 7.4661,16.9111 7.3141,16.9001 C7.0841,16.8771 6.8911,16.7911 6.7361,16.6441 C6.5791,16.4931 6.5001,16.2971 6.5001,16.0621 L6.5001,7.9271 C6.5001,7.6661 6.5851,7.4651 6.7531,7.3301 C7.0681,7.0721 7.5481,7.0731 7.8481,7.3241 C7.9991,7.4501 8.0891,7.6271 8.1141,7.8501 L8.1141,15.3991 C8.8511,15.4071 10.5901,15.3841 11.1221,15.3351 C11.6781,15.2841 12.2741,15.2211 12.8951,15.1441 L12.9101,15.1431 C13.0961,15.1431 13.2591,15.2251 13.3941,15.3861 C13.5241,15.5401 13.5901,15.7141 13.5901,15.9021 C13.5901,16.0761 13.5341,16.2441 13.4251,16.4021 M16.0001,1.0001 L8.0001,1.0001 C4.1341,1.0001 1.0001,4.1341 1.0001,8.0001 L1.0001,16.0001 C1.0001,19.8661 4.1341,23.0001 8.0001,23.0001 L16.0001,23.0001 C19.8661,23.0001 23.0001,19.8661 23.0001,16.0001 L23.0001,8.0001 C23.0001,4.1341 19.8661,1.0001 16.0001,1.0001" id="Fill-1" fill="#000000"></path>
    </g>
</svg>