<?xml version="1.0" encoding="UTF-8"?>
<svg width="24px" height="24px" viewBox="0 0 24 24" version="1.1" xmlns="http://www.w3.org/2000/svg" xmlns:xlink="http://www.w3.org/1999/xlink">
    <title>Icon/common/chatting with me</title>
    <g id="Icon/common/chatting-with-me" stroke="none" stroke-width="1" fill="none" fill-rule="evenodd">
        <path d="M16.667,0.9999 C20.159,0.9999 23,4.0669 23,7.8379 L23,7.8379 L23,13.3619 C23,17.1329 20.159,20.2009 16.667,20.2009 L16.667,20.2009 L13.292,20.2009 L7.458,23.8499 C7.296,23.9509 7.112,24.0019 6.928,24.0019 C6.761,24.0019 6.594,23.9609 6.443,23.8769 C6.125,23.7009 5.928,23.3659 5.928,23.0019 L5.928,23.0019 L5.928,19.9939 C3.103,19.2949 1,16.5569 1,13.3619 L1,13.3619 L1,7.8379 C1,4.0669 3.842,0.9999 7.334,0.9999 L7.334,0.9999 Z M16.667,2.9999 L7.334,2.9999 C4.944,2.9999 3,5.1709 3,7.8379 L3,7.8379 L3,13.3619 C3,15.8629 4.762,17.9709 7.012,18.1589 C7.066,18.1639 7.111,18.1909 7.163,18.2029 C7.229,18.2199 7.294,18.2309 7.354,18.2589 C7.412,18.2859 7.459,18.3269 7.51,18.3639 C7.562,18.4029 7.615,18.4369 7.659,18.4839 C7.702,18.5309 7.73,18.5859 7.764,18.6399 C7.798,18.6949 7.834,18.7459 7.857,18.8079 C7.881,18.8689 7.886,18.9339 7.896,18.9999 C7.905,19.0529 7.928,19.1009 7.928,19.1559 L7.928,19.1559 L7.928,21.1969 L12.475,18.3529 C12.497,18.3389 12.523,18.3379 12.546,18.3259 C12.605,18.2949 12.667,18.2749 12.732,18.2559 C12.799,18.2359 12.863,18.2199 12.932,18.2149 C12.957,18.2129 12.979,18.2009 13.005,18.2009 L13.005,18.2009 L16.667,18.2009 C19.057,18.2009 21,16.0299 21,13.3619 L21,13.3619 L21,7.8379 C21,5.1709 19.057,2.9999 16.667,2.9999 L16.667,2.9999 Z M16.4877,11.2195 C16.9347,10.8615 17.5747,10.9525 17.9147,11.4235 C18.2557,11.8945 18.1687,12.5655 17.7217,12.9235 C16.2637,14.0915 14.3507,14.6635 12.0137,14.6675209 C9.6737,14.6715 7.7597,14.1005 6.3007,12.9285 C5.8537,12.5695 5.7687,11.8965 6.1097,11.4275 C6.4517,10.9575 7.0907,10.8675 7.5367,11.2265 C8.6097,12.0865 10.0897,12.5285 12.0097,12.5255 C13.9317,12.5225 15.4137,12.0785 16.4877,11.2195 Z M14.4561,7.3349 C15.1311,7.3349 15.6791,7.8819 15.6791,8.5569 C15.6791,9.2319 15.1311,9.7789 14.4561,9.7789 C13.7811,9.7789 13.2341,9.2319 13.2341,8.5569 C13.2341,7.8819 13.7811,7.3349 14.4561,7.3349 Z M9.5674,7.3349 C10.2424,7.3349 10.7894,7.8819 10.7894,8.5569 C10.7894,9.2319 10.2424,9.7789 9.5674,9.7789 C8.8924,9.7789 8.3444,9.2319 8.3444,8.5569 C8.3444,7.8819 8.8924,7.3349 9.5674,7.3349 Z" id="Combined-Shape" fill="#fff"></path>
    </g>
</svg>